<?xml version="1.0" encoding="UTF-8"?>
<svg width="152px" height="50px" viewBox="0 0 152 50" version="1.1" xmlns="http://www.w3.org/2000/svg" xmlns:xlink="http://www.w3.org/1999/xlink">
    <!-- Generator: Sketch 52.2 (67145) - http://www.bohemiancoding.com/sketch -->
    <title>支付宝</title>
    <desc>Created with Sketch.</desc>
    <defs>
        <polygon id="path-1" points="0 0.158704225 37.7373836 0.158704225 37.7373836 36 0 36"></polygon>
    </defs>
    <g id="Page-2" stroke="none" stroke-width="1" fill="none" fill-rule="evenodd">
        <g id="支付宝">
            <g id="分组-copy" transform="translate(14.000000, 8.000000)">
                <g id="分组">
                    <mask id="mask-2" fill="white">
                        <use xlink:href="#path-1"></use>
                    </mask>
                    <g id="Clip-2"></g>
                    <path d="M-0.000260273973,3.19700282 L-0.000260273973,32.6992563 C-0.000260273973,32.6992563 0.212123288,35.106693 3.32708219,36.0001014 L34.7582877,36.0001014 C34.7582877,36.0001014 36.7530274,35.3125521 37.7373836,33.043031 L37.7373836,3.19700282 C37.7373836,3.19700282 37.5182329,0.927988732 34.2622055,0.170974648 C34.2622055,0.170974648 4.88820548,0.143087324 3.68105479,0.170974648 C1.2480137,0.340326761 -0.000260273973,3.19700282 -0.000260273973,3.19700282" id="Fill-1" fill="#3FA9F5" mask="url(#mask-2)"></path>
                </g>
                <path d="M9.20870977,12.8493935 L16.648183,12.8493935 L16.648183,10.583657 L8.01613432,10.583657 L8.01613432,8.98059401 L16.648183,8.98059401 L16.648183,5 L21.304462,5 L21.304462,8.92494967 L30.7885724,8.92494967 L30.7885724,10.5280126 L21.304462,10.5280126 L21.304462,12.8493935 L28.743417,12.8493935 C28.743417,12.8493935 27.9483667,17.3272456 25.5642523,20.2566674 C25.5642523,20.2566674 36.9779406,24.2913881 38,24.4026768 L38,29.9853221 C38,29.9853221 25.1086792,25.1215006 23.6326015,23.9600514 C23.6326015,23.9600514 19.5443637,29.6544912 12.729943,29.9853221 C12.729943,29.9853221 6.93758172,30.4835919 3.36037366,25.6738971 C3.36037366,25.6738971 1.20223191,19.6476147 7.44861145,17.8245037 C7.44861145,17.8245037 14.0355047,15.6118822 21.5319894,19.1503566 C21.5319894,19.1503566 24.0301266,16.6084218 24.257654,14.3416736 L9.15221662,14.3416736 L9.20870977,12.8493935 Z" id="Fill-3" fill="#FFFFFF"></path>
                <path d="M9.81185816,19.0406313 C9.81185816,19.0406313 4.80311551,20.1602644 5.00600129,23.7619138 C5.00600129,23.7619138 5.35418287,27.6387142 12.8805056,26.9084069 C12.8805056,26.9084069 16.642346,26.0654677 20,22.0194623 C20,22.0194623 16.4690478,18.5911323 9.81185816,19.0406313" id="Fill-5" fill="#3FA9F5"></path>
            </g>
            <g id="分组" transform="translate(62.000000, 11.000000)" fill="#4A4A4A">
                <path d="M0,2.03428353 L7.15166357,2.03428353 L7.15166357,0 L10.8483364,0 L10.8483364,2.03428353 L18,2.03428353 L18,4.38202431 L10.8483364,4.38202431 L10.8483364,6.65176868 L16.6340145,6.65176868 L16.6340145,8.92151305 C15.2401621,11.1652586 13.6066543,12.9130648 11.7324776,14.1649316 C13.3923324,14.9473483 15.4818443,15.5222652 18,15.886739 L18,18 C14.0890052,17.4775713 11.0352981,16.7476427 8.83887857,15.808252 C6.64195237,16.6421758 3.69616619,17.3740666 0,18 L0,15.9652259 C2.46343523,15.4952853 4.50025334,14.8963318 6.10741429,14.1649316 C4.82148286,13.2785196 3.48184428,11.8441707 2.08900524,9.86041315 L6.42864381,9.86041315 C7.23171762,10.9047801 8.11636548,11.7916826 9.08056072,12.5216112 C10.2053707,11.6876874 11.2501267,10.513817 12.2143219,8.99950946 L1.04475595,8.99950946 L1.04475595,6.65176868 L7.15166357,6.65176868 L7.15166357,4.38202431 L0,4.38202431 L0,2.03428353 Z" id="Fill-1"></path>
                <path d="M30.149682,6.91720268 C30.8526083,8.3848912 31.3394859,10.0353634 31.6108267,11.8691118 L28.3634404,11.8691118 C28.2006359,10.2969755 27.7670026,8.64650335 27.0640763,6.91720268 L30.149682,6.91720268 Z M33.2347758,0.0783358423 L36.8077711,0.0783358423 L36.8077711,2.51462981 L39,2.51462981 L39,4.79474477 L36.8077711,4.79474477 L36.8077711,14.9340632 C36.8610153,16.9254687 35.8867482,17.8940742 33.8844579,17.8428356 L30.7993641,17.8428356 L30.7993641,15.7203777 L32.341911,15.7203777 C32.991593,15.773587 33.288532,15.4331463 33.2347758,14.698563 L33.2347758,4.79474477 L26.4143943,4.79474477 L26.4143943,2.51462981 L33.2347758,2.51462981 L33.2347758,0.0783358423 Z M21.9485342,18 L21.9485342,7.31035993 C21.6239491,7.46703161 21.0551574,7.62468865 20.2431828,7.78185302 C20.1346465,7.83407691 20.0527323,7.86018886 20,7.86018886 L20,5.89538798 C21.569169,5.0046257 22.6514604,3.03982483 23.2478983,0 L26.9017838,0 C26.5224186,1.72930067 26.008407,3.14427262 25.3592369,4.24442316 L25.3592369,18 L21.9485342,18 Z" id="Fill-3"></path>
                <path d="M58.6064978,1.37828223 L58.6064978,5.10808064 L55.1482379,5.10808064 L55.1482379,3.64848382 L44.772467,3.64848382 L44.772467,5.10808064 L41.314207,5.10808064 L41.314207,1.37828223 L47.995815,1.37828223 L47.995815,0 L52.004185,0 L52.004185,1.37828223 L58.6064978,1.37828223 Z M42.1002203,8.18888701 L42.1002203,5.91919363 L57.8204846,5.91919363 L57.8204846,8.18888701 L51.689978,8.18888701 L51.689978,10.539895 L57.3486784,10.539895 L57.3486784,12.8106048 L51.689978,12.8106048 L51.689978,15.8924276 L53.8116189,15.8924276 C53.7595815,15.1900728 53.5762115,14.4058953 53.2615088,13.5404032 L56.2484581,13.5404032 C56.5631608,14.2981535 56.7990639,15.0813146 56.9561674,15.8924276 L59,15.8924276 L59,18 L41,18 L41,15.8924276 L48.0741189,15.8924276 L48.0741189,12.8106048 L42.5720264,12.8106048 L42.5720264,10.539895 L48.0741189,10.539895 L48.0741189,8.18888701 L42.1002203,8.18888701 Z" id="Fill-5"></path>
                <path d="M3.50025214,23.8425963 L2.48159355,27.6511747 L4.48613212,27.6511747 L3.50025214,23.8425963 Z M7,31 L5.4089763,31 L4.83610691,28.9495421 L2.16389309,28.9495421 L1.5910237,31 L0,31 L2.57740797,22 L4.42259203,22 L7,31 Z" id="Fill-7"></path>
                <polygon id="Fill-9" points="18 31 13 31 13 22 14.4999009 22 14.4999009 29.8280903 18 29.8280903"></polygon>
                <polygon id="Fill-11" points="24 31 25 31 25 22 24 22"></polygon>
                <path d="M32.3741572,23.2558735 L32.3741572,26.5632289 L33.4555068,26.5632289 C34.2547047,26.5913875 34.6346133,26.0466466 34.5956959,24.9305421 C34.6146913,23.7862791 34.235246,23.2282269 33.4555068,23.2558735 L32.3741572,23.2558735 Z M33.7181997,27.8605723 L32.3741572,27.8605723 L32.3741572,31 L31,31 L31,22 L33.7181997,22 C35.2582194,22 36.0175733,22.9773593 35.9985779,24.9305421 C36.0374953,26.9395301 35.2776781,27.9168895 33.7181997,27.8605723 Z" id="Fill-13"></path>
                <path d="M45.5005043,23.8425963 L44.4817723,27.6511747 L46.4864553,27.6511747 L45.5005043,23.8425963 Z M49,31 L47.409366,31 L46.8364553,28.9495421 L44.164049,28.9495421 L43.5911383,31 L42,31 L44.5775937,22 L46.4229107,22 L49,31 Z" id="Fill-14"></path>
                <polygon id="Fill-15" points="61 22 58.2121495 27.484271 58.2121495 31 56.7235889 31 56.7235889 27.484271 54 22 55.7737216 22 57.5474432 25.8510723 59.2579072 22"></polygon>
            </g>
        </g>
    </g>
</svg>