<?xml version="1.0" encoding="UTF-8"?>
<svg width="152px" height="50px" viewBox="0 0 152 50" version="1.1" xmlns="http://www.w3.org/2000/svg" xmlns:xlink="http://www.w3.org/1999/xlink">
    <!-- Generator: Sketch 52.2 (67145) - http://www.bohemiancoding.com/sketch -->
    <title>微信</title>
    <desc>Created with Sketch.</desc>
    <defs>
        <polygon id="path-1" points="0 0 38 0 38 35 0 35"></polygon>
    </defs>
    <g id="Page-2" stroke="none" stroke-width="1" fill="none" fill-rule="evenodd">
        <g id="微信">
            <text id="微信支付-copy" font-family="PingFangSC-Regular, PingFang SC" font-size="24" font-weight="normal" line-spacing="36" fill="#666666">
                <tspan x="52" y="33">微信支付</tspan>
            </text>
            <g id="分组-copy" transform="translate(5.000000, 8.000000)">
                <mask id="mask-2" fill="white">
                    <use xlink:href="#path-1"></use>
                </mask>
                <g id="Clip-2"></g>
                <path d="M14.486589,22.0390758 C12.2123151,23.3042391 11.875,21.3289368 11.875,21.3289368 L9.02447945,14.6926303 C7.92768493,11.5394984 9.97369863,13.2707881 9.97369863,13.2707881 C9.97369863,13.2707881 11.7292466,14.5959117 13.061589,15.4032907 C14.393411,16.2109305 15.9113288,15.6402644 15.9113288,15.6402644 L34.5464247,7.05889656 C31.1082055,2.79076292 25.4287671,0 18.9989589,0 C8.50575342,0 0,7.42700093 0,16.589202 C0,21.8594555 2.81642466,26.5499185 7.20360274,29.5899079 L6.41236986,34.127081 C6.41236986,34.127081 6.02664384,35.4516832 7.36315068,34.8374807 C8.27410959,34.4182797 10.5960137,32.9174462 11.9780685,32.0039634 C14.1510959,32.7592031 16.5185479,33.1786648 19,33.1786648 C29.4924247,33.1786648 38,25.7516638 38,16.5894627 C38,13.9355658 37.2832055,11.4292235 36.0133288,9.20469475 C30.0759589,12.7684247 16.2663425,21.0510337 14.486589,22.0390758" id="Fill-1" fill="#24DB5A" mask="url(#mask-2)"></path>
            </g>
        </g>
    </g>
</svg>