<?xml version="1.0" encoding="UTF-8"?>
<svg width="100px" height="83px" viewBox="0 0 100 83" version="1.1" xmlns="http://www.w3.org/2000/svg" xmlns:xlink="http://www.w3.org/1999/xlink">
    <title>购物车</title>
    <g id="查重端" stroke="none" stroke-width="1" fill="none" fill-rule="evenodd">
        <g id="查重端-未领取" transform="translate(-335.000000, -91.000000)" fill="#358BCD" fill-rule="nonzero">
            <g id="购物车" transform="translate(335.000000, 91.000000)">
                <g id="购物车-(2)">
                    <path d="M87.9938221,56.3170162 C86.3839343,60.7998057 82.0851841,63.8147491 77.286045,63.8147491 L32.2126172,63.8147491 C26.8043683,63.8147491 22.1181796,59.9896972 21.0677856,54.7237083 L13.4280782,16.3405751 L10.9005246,5.93495865 L2.43723885,5.93495865 C1.08960668,5.93495865 0,4.85678199 0,3.52279963 C0,2.18416207 1.09006395,0 2.43723885,0 L13.9722646,0 C14.0484033,0 14.1137957,0.0382629868 14.1861618,0.0432588089 C14.3576453,0.0589273119 14.5172395,0.0895831703 14.6795773,0.140449108 C14.8261386,0.186773469 14.9595528,0.234573854 15.0913665,0.307125893 C15.2338122,0.379564426 15.353622,0.464265391 15.4783477,0.562363961 C15.603988,0.660576147 15.7105365,0.758788334 15.8135409,0.878118981 C15.907171,0.993475693 15.9889115,1.11689378 16.0609346,1.24928151 C16.1425608,1.39290968 16.2119544,1.53880874 16.262828,1.69594824 C16.2845492,1.76850039 16.3366802,1.82481629 16.3534856,1.90043388 L18.7694708,13.4212325 L91.94629,13.4212325 C94.559128,13.4212325 97.018774,14.683117 98.5232566,16.8013208 C100.036656,18.9198652 100.40889,21.6436918 99.5377534,24.0911617 L87.9938221,56.3170162 Z M90.0288491,19.92 L21.1111111,19.92 L27.771838,53.3893581 C28.3375309,56.2235967 30.8605384,58.2794756 33.7700775,58.2794756 L76.2207314,58.2794756 C78.8037106,58.2794756 81.1197782,56.6564583 81.9855446,54.2452436 L92.8580671,23.8929599 C93.1861345,22.9704555 93.0519789,21.982081 92.4774573,21.1800894 C91.9097187,20.3815195 91.0176811,19.92 90.0288491,19.92 Z M43.3333333,74.1450669 C43.3333333,79.0278671 39.3455555,83 34.4423224,83 C29.5418843,83 25.5555556,79.0271447 25.5555556,74.1450669 C25.5555556,69.2637115 29.5415737,65.2933333 34.4423224,65.2933333 C39.346487,65.2933333 43.3333333,69.2627826 43.3333333,74.1450669 Z M38.8888889,74.144362 C38.8888889,71.7043766 36.8941747,69.72 34.4421843,69.72 C31.9925568,69.72 30,71.7045815 30,74.144362 C30,76.5880348 31.9934815,78.5733333 34.4421843,78.5733333 C36.8944829,78.5733333 38.8888889,76.5862935 38.8888889,74.144362 Z M82.2222222,74.1450669 C82.2222222,79.0278671 78.2356413,83 73.3319873,83 C68.4315431,83 64.4444444,79.0271447 64.4444444,74.1450669 C64.4444444,69.2637115 68.432475,65.2933333 73.3319873,65.2933333 C78.2351236,65.2933333 82.2222222,69.2627826 82.2222222,74.1450669 Z M77.7777777,74.144362 C77.7777777,71.7043766 75.7831848,69.72 73.3322037,69.72 C70.8808118,69.72 68.8888887,71.7045815 68.8888887,74.144362 C68.8883755,76.5880348 70.8802983,78.5733333 73.3322037,78.5733333 C75.784109,78.5733333 77.7777777,76.5862935 77.7777777,74.144362 Z" id="形状"></path>
                </g>
                <g id="云同步-(2)" transform="translate(56.111111, 38.691561) scale(1, -1) translate(-56.111111, -38.691561) translate(37.777778, 22.049788)">
                    <path d="M18.3332807,0.616314523 L35.2792526,17.4523806 C35.9125521,18.0816187 36.229451,18.9062301 36.229451,19.7309693 C36.229451,20.5557086 35.9125521,21.3803199 35.2793094,22.0095017 C34.6447931,22.6397183 33.8132253,22.9546412 32.9817756,22.9546412 C32.1503459,22.9546412 31.3186981,22.6397385 30.6842872,22.0094422 L30.6842872,22.0094422 L18.3332807,9.73854019 L5.98227419,22.0094422 C5.34788612,22.6397159 4.51626965,22.9546412 3.68477443,22.9546412 C2.85334972,22.9546412 2.0217948,22.639766 1.38741404,22.0094535 C0.754114563,21.3802153 0.437215689,20.555604 0.437215689,19.7308647 C0.437215689,18.9061255 0.754114563,18.0815141 1.3874027,17.4522873 L1.3874027,17.4522873 L18.3332807,0.616314523 Z" id="路径" stroke="#F9F9F9" stroke-width="0.874431379"></path>
                    <path d="M21.5257572,31.3877115 C21.5257572,32.4304199 20.1757572,33.2835449 18.5257572,33.2835449 C16.8757572,33.2835449 15.5257572,32.4304199 15.5257572,31.3877115 L15.5257572,9.1793782 C15.5257572,8.13666987 16.8757572,7.28354487 18.5257572,7.28354487 C20.1757572,7.28354487 21.5257572,8.13666987 21.5257572,9.1793782 L21.5257572,31.3877115 Z" id="路径"></path>
                </g>
            </g>
        </g>
    </g>
</svg>