<?xml version="1.0" encoding="UTF-8"?>
<svg width="69px" height="80px" viewBox="0 0 69 80" version="1.1" xmlns="http://www.w3.org/2000/svg" xmlns:xlink="http://www.w3.org/1999/xlink">
    <title>等待</title>
    <g id="查重端" stroke="none" stroke-width="1" fill="none" fill-rule="evenodd">
        <g id="查重端-已领取" transform="translate(-630.000000, -94.000000)" fill="#358BCD" fill-rule="nonzero">
            <g id="编组-2" transform="translate(335.000000, 91.000000)">
                <g id="待拍摄" transform="translate(280.000000, 3.000000)">
                    <g id="等待" transform="translate(15.000000, 0.000000)">
                        <path d="M64.9111111,73.3757962 L60.8222222,73.3757962 L60.8222222,65.2229299 C60.8222222,60.6369427 58.7777778,56.0509554 55.2,52.4840764 L49.0666667,46.3694268 L46,43.3121019 L44.9777778,42.8025478 C44.9777778,42.8025478 44.4666667,42.8025478 44.4666667,42.2929936 C43.9555556,41.7834395 43.4444444,40.7643312 43.4444444,39.7452229 C43.4444444,38.7261146 43.9555556,37.7070064 44.4666667,37.1974522 C44.4666667,37.1974522 44.4666667,36.6878981 44.9777778,36.6878981 L46.5111111,35.6687898 L47.0222222,34.6496815 L49.0666667,32.611465 L55.7111111,26.4968153 C59.2888889,23.4394904 60.8222222,18.8535032 60.8222222,14.2675159 L60.8222222,6.11464968 L64.9111111,6.11464968 C66.9555556,6.11464968 69,4.58598726 69,3.05732484 C69,1.52866242 67.4666667,0 64.9111111,0 L4.6,0 C2.55555556,0 0.511111111,1.52866242 0.511111111,3.05732484 C0.511111111,4.58598726 2.04444444,6.11464968 4.6,6.11464968 L8.68888889,6.11464968 L8.68888889,13.7579618 C8.68888889,18.343949 10.7333333,22.9299363 14.3111111,26.4968153 L16.8666667,29.044586 L23.5111111,35.6687898 L24.0222222,36.1783439 L25.0444444,36.6878981 L25.5555556,37.1974522 C26.0666667,37.7070064 26.5777778,38.7261146 26.5777778,39.7452229 L26.5777778,40.7643312 C26.5777778,41.2738854 26.0666667,42.2929936 25.5555556,42.8025478 L25.0444444,42.8025478 L24.0222222,43.8216561 L16.8666667,50.4458599 L14.3111111,52.9936306 C10.7333333,56.0509554 8.68888889,60.6369427 8.68888889,65.7324841 L8.68888889,73.8853503 L4.08888889,73.8853503 C2.04444444,73.8853503 0,75.4140127 0,76.9426752 C0,78.4713376 1.53333333,80 4.08888889,80 L64.9111111,80 C66.9555556,80 69,78.4713376 69,76.9426752 C69,74.9044586 67.4666667,73.3757962 64.9111111,73.3757962 Z M15,65.7575758 C15,62.6666667 16.5189873,59.5757576 18.5443038,57.5151515 L25.6329114,50.3030303 L31.2025316,45.1515152 C31.7088608,44.1212121 31.7088608,43.6060606 32.2151899,42.5757576 C32.2151899,41.5454545 32.721519,41.030303 32.721519,40 L32.721519,37.4242424 C32.721519,36.9090909 32.721519,36.3939394 32.2151899,35.8787879 L32.2151899,35.3636364 C31.2025316,34.8484848 31.2025316,34.8484848 30.6962025,34.3333333 L25.1265823,28.6666667 L18.5443038,21.969697 C16.0126582,19.9090909 15,16.8181818 15,13.7272727 L15,6 L55,6 L55,13.7272727 C55,16.8181818 53.4810127,19.9090909 51.4556962,21.969697 L43.3544304,29.6969697 L40.3164557,32.7878788 L39.8101266,33.3030303 L39.3037975,33.8181818 C38.7974684,34.8484848 38.2911392,36.3939394 38.2911392,37.4242424 L38.2911392,39.4848485 C38.2911392,40.5151515 38.2911392,41.030303 38.7974684,42.0606061 C38.7974684,43.6060606 39.3037975,45.6666667 40.3164557,46.6969697 L42.8481013,49.2727273 L50.9493671,57.5151515 C53.4810127,59.5757576 54.4936709,62.6666667 54.4936709,65.7575758 L54.4936709,74 L15,74 L15,65.7575758 Z" id="形状"></path>
                        <path d="M37.2873385,54.3643312 C36.2651163,53.3452229 34.2206718,53.3452229 32.6873385,54.3643312 L25.0206718,60.988535 C23.4873385,62.0076433 22.4651163,64.0458599 22.4651163,66.0840764 L22.4651163,69.6509554 L46.9984496,69.6509554 L46.9984496,66.0840764 C46.9984496,64.555414 45.9762274,62.5171975 44.4428941,60.988535 L37.2873385,54.3643312 L37.2873385,54.3643312 Z" id="路径"></path>
                    </g>
                </g>
            </g>
        </g>
    </g>
</svg>