<?xml version="1.0" encoding="UTF-8"?>
<svg width="76px" height="80px" viewBox="0 0 76 80" version="1.1" xmlns="http://www.w3.org/2000/svg" xmlns:xlink="http://www.w3.org/1999/xlink">
    <title>审阅审批</title>
    <g id="查重端" stroke="none" stroke-width="1" fill="none" fill-rule="evenodd">
        <g id="查重端-未领取" transform="translate(-901.000000, -94.000000)" fill-rule="nonzero">
            <g id="编组-2" transform="translate(335.000000, 91.000000)">
                <g id="审阅中" transform="translate(559.500000, 3.000000)">
                    <g id="审阅审批" transform="translate(7.000000, 0.000000)">
                        <path d="M72.0970307,68.5841307 L2.90296926,68.5841307 C1.3123012,68.5841307 0,67.3112811 0,65.7202192 L0,51.4404384 C0,46.7468057 3.8971368,42.8884806 8.66914107,42.8884806 L27.1208908,42.8884806 C26.5243902,39.4676974 24.814422,36.1662439 22.3488866,33.3023324 C19.0482503,29.6031134 17.2985154,24.8697042 17.2985153,20.0169653 C17.2985153,14.6073547 19.4459172,9.43640353 23.5021209,5.57807829 C27.5583245,1.71975312 32.7279958,-0.149744659 38.3351007,0.0093615949 C48.7539766,0.446903558 57.5424178,9.27729728 57.6617179,19.5794233 C57.8207847,24.710598 55.7926829,29.7224431 52.3329799,33.5807682 C49.8674443,36.1662438 48.4358431,39.3085912 47.8791092,42.848704 L66.3308589,42.848704 C71.1028632,42.848704 75,46.7070292 75,51.4006618 L75,65.6804426 C75,67.2715046 73.6876988,68.5841307 72.0970307,68.5841307 Z M5.76617181,62.8563077 L69.1940615,62.8563077 L69.1940615,51.4404384 C69.1940615,49.8891531 67.8817603,48.5765269 66.2910922,48.5765269 L44.6580063,48.5765269 C43.0673383,48.5765269 41.7550371,47.3036774 41.7550371,45.7126155 C41.7550371,39.7063566 43.902439,34.0183103 47.9586426,29.7224431 C50.5434782,27.0176378 51.8557794,23.4377485 51.8557794,19.7385295 C51.6967126,12.3003149 45.4931071,6.01562033 38.0169671,5.73718446 C33.9607635,5.57807829 30.2226935,7.01003402 27.4787911,9.75461588 C24.6553552,12.4196446 23.0646872,16.1586401 23.0646872,20.0169653 C23.0646872,23.4377485 24.3769884,26.8585317 26.683457,29.4440072 C30.8589608,34.1774164 33.1654294,39.8654628 33.1654295,45.7126155 C33.1654295,47.3036774 31.8531283,48.5765269 30.2624602,48.5765269 L8.66914107,48.5765269 C7.07847301,48.5765269 5.76617181,49.8493765 5.76617181,51.4404384 L5.76617181,62.8563077 Z" id="形状" fill="#B6B6B6"></path>
                        <path d="M72.0970307,80 L2.90296926,80 C1.3123012,80 0,78.7271504 0,77.1360885 C0,75.5450266 1.3123012,74.2721771 2.90296926,74.2721771 L72.0970307,74.2721771 C73.6876988,74.2721771 75,75.5450266 75,77.1360885 C75,78.7271504 73.6876988,80 72.0970307,80 Z" id="路径" fill="#358BCD"></path>
                    </g>
                </g>
            </g>
        </g>
    </g>
</svg>