<?xml version="1.0" encoding="UTF-8"?>
<svg width="81px" height="81px" viewBox="0 0 81 81" version="1.1" xmlns="http://www.w3.org/2000/svg" xmlns:xlink="http://www.w3.org/1999/xlink">
    <title>打回 (1)</title>
    <g id="查重端" stroke="none" stroke-width="1" fill="none" fill-rule="evenodd">
        <g id="查重端-已打回" transform="translate(-1164.000000, -93.000000)" fill="#358BCD" fill-rule="nonzero">
            <g id="编组-2" transform="translate(335.000000, 91.000000)">
                <g id="已打回" transform="translate(827.500000, 3.000000)">
                    <g id="打回-(1)" transform="translate(2.500000, 0.000000)">
                        <path d="M21.3337669,69.2572444 L10.667179,69.2572444 C6.9338733,69.2572444 5.33388513,66.8502276 5.33388513,63.9280559 L5.33388513,10.6583768 C5.33388513,5.92872208 6.24943392,5.32918845 10.667179,5.32918838 L53.3335304,5.32918838 C57.4579444,5.32918838 58.7423793,6.71033639 58.7423793,10.6583768 L58.7423793,17.7906073 C58.7423793,21.5121573 64.0756732,21.9917842 64.0756732,17.7906073 L64.0756732,10.6583768 C64.0756732,2.79782393 61.5334698,0 53.3201972,0 L10.667179,0 C5.43610661,0 0,0.639502608 0,10.4230043 L0,65.6600421 C-0.0106776757,66.7128503 0.139200839,67.7611924 0.44503238,68.7687354 C1.57799967,72.3222373 4.9226702,74.7016938 8.65386056,74.6086377 C15.1782568,74.6352836 17.8271261,74.6086377 21.324878,74.6086377 C24.82263,74.6086377 24.5870762,69.2572443 21.3337669,69.2572444 Z" id="路径" stroke="#2F8AD0"></path>
                        <path d="M16.022695,15.9475963 C12.1916122,15.9475963 12.0227245,21.3478406 16.022695,21.3478406 L48.0224585,21.3478406 C51.6890981,21.3478406 52.271316,15.9520373 48.0224585,15.9475963 L16.022695,15.9475963 Z M24.6137427,31.9262795 L16.022695,31.9262795 C12.1916122,31.9262795 12.0227245,37.3265238 16.022695,37.3265238 L24.6137427,37.3265238 C28.2803823,37.3043188 28.8626002,31.9307205 24.6137427,31.9262795 Z" id="形状" stroke="#2F8AD0"></path>
                        <path d="M53.3335304,26.7081159 C38.6060459,26.7081159 26.6670608,38.6379105 26.6670608,53.354058 C26.6670608,68.0702054 38.6060459,80 53.3335304,80 C68.0610149,80 80,68.0702054 80,53.354058 C80,38.4367714 67.7289796,26.7081159 53.3335304,26.7081159 L53.3335304,26.7081159 Z M53.3335304,74.6708115 C44.7050663,74.6708116 36.9262162,69.4771513 33.624246,61.5116264 C30.3222757,53.5461015 32.1474516,44.3773857 38.2486971,38.2808368 C44.3499426,32.184288 53.5257219,30.360517 61.4973833,33.6599455 C69.4690447,36.959374 74.666706,44.7322359 74.666706,53.354058 C74.6398773,65.1194566 65.1079586,74.6539592 53.3335304,74.6930165 L53.3335304,74.6708115 Z" id="形状"></path>
                        <path d="M65.5198585,49.385062 C63.9978878,47.6098554 61.8281689,46.5171866 59.4947404,46.3508168 C59.2016525,46.3508168 58.8989552,46.3220107 58.6010626,46.3508168 L49.6835035,46.3508168 L51.1249193,45.2705871 C51.8918148,44.5403137 51.9668361,43.3432064 51.2971048,42.5230398 C50.6273736,41.7028733 49.438654,41.5361228 48.5688085,42.1403217 L41.5346993,47.5030618 C41.1894485,47.7664512 40.986876,48.1756595 40.986876,48.6096971 C40.986876,49.0437347 41.1894485,49.452943 41.5346993,49.7163324 L48.5688085,55.0934756 C48.8849492,55.3069621 49.2649632,55.4052828 49.6450656,55.3719348 C50.1606825,55.3661487 50.6589314,55.1849528 51.0576532,54.8582256 L51.3939835,54.6421797 L51.4516402,54.5845674 C52.0162754,53.7120668 51.9132126,52.5673659 51.2017948,51.8095774 L49.6210421,50.4892968 L58.6298909,50.4892968 C61.4413518,50.4892968 63.7204911,52.7666816 63.7204911,55.5759782 C63.7204911,58.3852749 61.4413518,60.6626597 58.6298909,60.6626597 L45.5370307,60.6626597 C44.9169893,60.6157432 44.3091117,60.8523504 43.8842072,61.3059965 C43.4565077,61.7637948 43.2587315,62.3901921 43.3460786,63.0103588 C43.4093185,63.4951347 43.6466585,63.9404445 44.0139345,64.2634253 C44.3889988,64.5963215 44.8720294,64.7822218 45.3736702,64.7867365 L58.6154767,64.7867365 C63.5565629,64.7249754 67.5514936,60.7458871 67.6291303,55.8088277 C67.8160165,53.4716418 67.0560995,51.1573223 65.5198585,49.385062 L65.5198585,49.385062 Z" id="路径"></path>
                    </g>
                </g>
            </g>
        </g>
    </g>
</svg>