<?xml version="1.0" encoding="UTF-8"?>
<svg width="81px" height="82px" viewBox="0 0 81 82" version="1.1" xmlns="http://www.w3.org/2000/svg" xmlns:xlink="http://www.w3.org/1999/xlink">
    <title>完成 (1)</title>
    <g id="查重端" stroke="none" stroke-width="1" fill="none" fill-rule="evenodd">
        <g id="查重端-未领取" transform="translate(-1439.000000, -92.000000)" fill-rule="nonzero" stroke="#F9F9F9">
            <g id="编组-2" transform="translate(335.000000, 91.000000)">
                <g id="完成" transform="translate(1095.500000, 2.000000)">
                    <g id="完成-(1)" transform="translate(9.500000, 0.000000)">
                        <path d="M70.3931929,57.9991397 C68.1716451,57.9991397 66.3707247,59.7898929 66.3707247,61.9988989 L66.3707247,71.9982967 L8.04493639,71.9982967 L8.04493639,8.00215033 L66.3707247,8.00215033 L66.3707247,29.2008738 C66.3707247,31.4098798 68.1716451,33.200633 70.3931929,33.200633 C72.6147407,33.200633 74.4156611,31.4098798 74.4156611,29.2008738 L74.4156611,7.60217438 C74.3629984,5.53338446 73.485652,3.57021272 71.9767817,2.14487838 C70.4679113,0.719544051 68.4512253,-0.051093577 66.3707247,0.00263195765 L8.04493639,0.00263195765 C5.96443579,-0.051093577 3.94774976,0.719544051 2.43887944,2.14487838 C0.930009115,3.57021272 0.0526626791,5.53338446 0,7.60217438 L0,72.3982727 C0.120614325,76.7016121 3.71667003,80.0985784 8.04493639,79.9978151 L66.3707247,79.9978151 C70.6989911,80.0985784 74.2950468,76.7016121 74.4156611,72.3982727 L74.4156611,61.9988989 C74.4156611,59.7898929 72.6147407,57.9991397 70.3931929,57.9991397 Z" id="路径" fill="#B6B6B6"></path>
                        <path d="M56.3145544,24.0011869 C56.3145544,21.7921809 54.513634,20.0014278 52.2920862,20.0014278 L20.1123409,20.0014278 C17.8910336,20.0017659 16.0904885,21.7924201 16.0904885,24.0011869 C16.0904885,26.2099538 17.8910336,28.0006079 20.1123409,28.0009461 L52.2920862,28.0009461 C54.513634,28.0009461 56.3145544,26.2101929 56.3145544,24.0011869 L56.3145544,24.0011869 Z M20.1123409,40.0002235 C17.8910336,40.0005617 16.0904885,41.7912158 16.0904885,43.9999827 C16.0904885,46.2087495 17.8910336,47.9994037 20.1123409,47.9997418 L40.2246817,47.9997418 C42.445989,47.9994037 44.2465341,46.2087495 44.2465341,43.9999827 C44.2465341,41.7912158 42.445989,40.0005617 40.2246817,40.0002235 L20.1123409,40.0002235 Z" id="形状" fill="#B6B6B6"></path>
                        <path d="M75.9743675,37.6272619 C76.8566181,37.6272619 77.7028547,37.975706 78.3269683,38.5969863 C78.949732,39.2155456 79.3,40.0548138 79.3,40.9301675 C79.3,41.8055212 78.949732,42.6447894 78.3255986,43.264713 L78.3255986,43.264713 L55.5793586,65.9825298 C54.9557973,66.603261 54.1095606,66.9517051 53.22731,66.9517051 C52.3450594,66.9517051 51.4988228,66.603261 50.8749854,65.9822552 L50.8749854,65.9822552 L42.3473529,57.5027658 C41.6993285,56.8583998 41.3749725,56.0139432 41.3749725,55.1693101 C41.3749725,54.3246771 41.6993285,53.4802205 42.3473529,52.8358545 C42.9969294,52.1899452 43.8483893,51.8673268 44.6996775,51.8673268 C45.5509657,51.8673268 46.4024256,52.1899452 47.0511243,52.8349801 L47.0511243,52.8349801 L53.2176243,58.9884104 L73.6223189,38.5964372 C74.2458802,37.975706 75.0921169,37.6272619 75.9743675,37.6272619 Z" id="路径" stroke-width="1.4" fill="#358BCD"></path>
                    </g>
                </g>
            </g>
        </g>
    </g>
</svg>