<?xml version="1.0" encoding="UTF-8"?>
<svg width="74px" height="80px" viewBox="0 0 74 80" version="1.1" xmlns="http://www.w3.org/2000/svg" xmlns:xlink="http://www.w3.org/1999/xlink">
    <title>7结算</title>
    <g id="查重端" stroke="none" stroke-width="1" fill="none" fill-rule="evenodd">
        <g id="查重端-未领取" transform="translate(-1710.000000, -93.000000)" fill-rule="nonzero">
            <g id="编组-2" transform="translate(335.000000, 91.000000)">
                <g id="7结算" transform="translate(1375.000000, 2.000000)">
                    <path d="M64.9016394,80 L9.09836063,80 C4.07347481,80 0,75.9298614 0,70.9090909 L0,9.09090906 C0,4.07013863 4.07347481,0 9.09836063,0 L64.9016394,0 C69.9265252,0 74,4.07013863 74,9.09090906 L74,70.9090909 C74,75.9298614 69.9265252,80 64.9016394,80 L64.9016394,80 Z M9.09836063,6.06060609 C7.42339871,6.06060609 6.06557373,7.41731893 6.06557373,9.09090906 L6.06557373,70.9090909 C6.06557373,72.5826811 7.42339871,73.9393939 9.09836063,73.9393939 L64.9016394,73.9393939 C66.5766013,73.9393939 67.9344263,72.5826811 67.9344263,70.9090909 L67.9344263,9.09090906 C67.9344263,7.41731893 66.5766013,6.06060609 64.9016394,6.06060609 L9.09836063,6.06060609 Z" id="形状" fill="#B6B6B6"></path>
                    <path d="M48.5245901,58.7878788 L24.2622951,58.7878788 C22.5875233,58.7876101 21.2299951,57.4309759 21.2299951,55.7575757 C21.2299951,54.0841756 22.5875233,52.7275414 24.2622951,52.7272727 L48.5245901,52.7272727 C50.1993619,52.7275414 51.5568901,54.0841756 51.5568901,55.7575757 C51.5568901,57.4309759 50.1993619,58.7876101 48.5245901,58.7878788 L48.5245901,58.7878788 Z M48.5245901,67.8787879 L24.2622951,67.8787879 C22.5873331,67.8787879 21.2295082,66.522075 21.2295082,64.8484848 C21.2295082,63.1748947 22.5873331,61.8181818 24.2622951,61.8181818 L48.5245901,61.8181818 C50.1995521,61.8181818 51.557377,63.1748947 51.557377,64.8484848 C51.557377,66.522075 50.1995521,67.8787879 48.5245901,67.8787879 L48.5245901,67.8787879 Z" id="形状" fill="#B6B6B6"></path>
                    <path d="M49.170147,12.1906579 C50.329633,12.4430472 51.2352782,13.3479506 51.4878743,14.506487 C51.7404705,15.6650234 51.2936074,16.8643319 50.3442623,17.5757576 L43.9210656,23.6360934 L49.7377049,23.6363637 C51.4126669,23.6363637 52.7704918,24.9930765 52.7704918,26.6666666 C52.7704918,28.3402568 51.4126669,29.6969697 49.7377049,29.6969697 L40.0320656,29.6960934 L40.0320656,33.9390934 L49.7377049,33.9393939 C51.4126669,33.9393939 52.7704918,35.2961068 52.7704918,36.969697 C52.7704918,38.6432871 51.4126669,40 49.7377049,40 L40.0320656,39.9990934 L40.0327869,45.4545455 C40.0327869,47.1281356 38.674962,48.4848485 37,48.4848485 C35.325038,48.4848485 33.9672131,47.1281356 33.9672131,45.4545455 L33.9670656,39.9990934 L24.8688525,40 C23.1938905,40 21.8360656,38.6432871 21.8360656,36.969697 C21.8360656,35.2961068 23.1938905,33.9393939 24.8688525,33.9393939 L33.9670656,33.9390934 L33.9670656,29.6960934 L24.8688525,29.6969697 C23.1938905,29.6969697 21.8360656,28.3402568 21.8360656,26.6666666 C21.8360656,24.9930765 23.1938905,23.6363637 24.8688525,23.6363637 L30.5970656,23.6360934 L24.8688525,17.5757576 C23.9195073,16.8643319 23.4726442,15.6650234 23.7252403,14.506487 C23.9778364,13.3479505 24.8834816,12.443047 26.0429677,12.1906578 C27.2024538,11.9382686 28.4027453,12.3847657 29.1147541,13.3333334 L37.6060656,21.8180934 L46.0983606,13.3333334 C46.8103694,12.3847658 48.0106609,11.9382687 49.170147,12.1906579 Z" id="形状结合" stroke="#F9F9F9" fill="#358BCD"></path>
                </g>
            </g>
        </g>
    </g>
</svg>