<?xml version="1.0" encoding="UTF-8"?>
<svg width="30px" height="30px" viewBox="0 0 30 30" version="1.1" xmlns="http://www.w3.org/2000/svg" xmlns:xlink="http://www.w3.org/1999/xlink">
    <title>编组 4</title>
    <g id="拍机用户" stroke="none" stroke-width="1" fill="none" fill-rule="evenodd">
        <g id="拍机-任务中心-拍摄中-拍摄中心-进行拍摄-裁减后拍摄" transform="translate(-633.000000, -904.000000)">
            <g id="编组-4" transform="translate(633.000000, 904.000000)">
                <path d="M0,0 L30,0 C30,16.5685425 16.5685425,30 0,30 L0,30 L0,30 L0,0 Z" id="矩形" fill="#84BA33"></path>
                <g id="附件" transform="translate(4.000000, 4.000000)" fill="#FFFFFF" fill-rule="nonzero">
                    <path d="M12.460372,4.92381255 C12.7724512,5.23642005 12.7724512,5.6740862 12.460372,5.98671325 L5.78154894,12.6455678 C5.34464194,13.0519791 5.34464194,13.7709978 5.78154894,14.2399384 C6.18727338,14.6776046 6.90509656,14.6776046 7.37322514,14.2399384 L15.2067978,6.36186962 C16.2991239,5.26767494 16.2991239,3.45448104 15.2067978,2.3603059 C14.1144718,1.26613077 12.3043226,1.26611122 11.2119966,2.3603059 L10.2757004,3.29814797 L10.0260253,3.54826525 L2.81666956,10.7698251 C1.03772242,12.5517836 1.03772242,15.3966429 2.81666956,17.1785819 C4.59559719,18.9605405 7.43564878,18.9605405 9.21459593,17.1785819 L16.4551537,9.98827697 C16.5799815,9.92574765 16.6424052,9.83196345 16.7048288,9.73817924 C17.016908,9.42555219 17.4538541,9.42555219 17.7659333,9.73817924 C18.0780125,10.0508063 18.078032,10.4884724 17.7659333,10.8010995 L17.7035291,10.8636288 C17.641086,10.8948837 17.5786818,10.9886679 17.5162582,11.0511972 L10.2757004,18.2415022 C7.93499895,20.5861659 4.09624703,20.5861659 1.75552608,18.2415022 C-0.585194873,15.8968384 -0.585155846,12.0515882 1.75552608,9.70690481 L10.1508726,1.26613077 C11.8361745,-0.422043589 14.5826004,-0.422043589 16.2991239,1.26613077 C17.9844258,2.95428557 17.9844258,5.70534109 16.2991239,7.42477033 L8.43432959,15.3028587 C7.40440769,16.334524 5.71912529,16.334524 4.72042497,15.3028587 C3.69050307,14.2711933 3.69050307,12.5830385 4.72042497,11.5826476 L11.3680264,4.89253812 C11.6801251,4.64244038 12.1170712,4.64244038 12.460372,4.92381255 Z" id="路径"></path>
                </g>
            </g>
        </g>
    </g>
</svg>