<?xml version="1.0" encoding="UTF-8"?>
<svg width="14px" height="14px" viewBox="0 0 14 14" version="1.1" xmlns="http://www.w3.org/2000/svg" xmlns:xlink="http://www.w3.org/1999/xlink">
    <title>复选框 (1)</title>
    <g id="拍机用户" stroke="none" stroke-width="1" fill="none" fill-rule="evenodd">
        <g id="拍机-任务中心-拍摄中-拍摄中心-进行拍摄-裁减后拍摄" transform="translate(-187.000000, -1051.000000)" fill-rule="nonzero">
            <g id="复选框-(1)" transform="translate(187.000000, 1051.000000)">
                <path d="M7,13.5625 C6.1140625,13.5625 5.25410156,13.3888672 4.44609375,13.0470703 C3.6640625,12.7162109 2.96269531,12.2431641 2.35976563,11.6402344 C1.75683594,11.0373047 1.28378906,10.3359375 0.952929688,9.55390625 C0.611132813,8.74589844 0.4375,7.8859375 0.4375,7 C0.4375,6.1140625 0.611132813,5.25410156 0.952929688,4.44609375 C1.28378906,3.6640625 1.75683594,2.96269531 2.35976563,2.35976563 C2.96269531,1.75683594 3.6640625,1.28378906 4.44609375,0.952929687 C5.25410156,0.611132813 6.1140625,0.4375 7,0.4375 C7.8859375,0.4375 8.74589844,0.611132813 9.55390625,0.952929688 C10.3359375,1.28378906 11.0373047,1.75683594 11.6402344,2.35976563 C12.2431641,2.96269531 12.7162109,3.6640625 13.0470703,4.44609375 C13.3888672,5.25546875 13.5625,6.1140625 13.5625,7 C13.5625,7.8859375 13.3888672,8.74589844 13.0470703,9.55390625 C12.7162109,10.3359375 12.2431641,11.0373047 11.6402344,11.6402344 C11.0373047,12.2431641 10.3359375,12.7162109 9.55390625,13.0470703 C8.74589844,13.3888672 7.8859375,13.5625 7,13.5625 Z" id="路径" fill-opacity="0.8" fill="#FFFFFF"></path>
                <path d="M7,0.875 C7.82714844,0.875 8.6296875,1.03632813 9.384375,1.35625 C10.1130859,1.66523438 10.7693359,2.10683594 11.33125,2.66875 C11.8945313,3.23203125 12.3361328,3.88691406 12.64375,4.615625 C12.9636719,5.3703125 13.125,6.17285156 13.125,7 C13.125,7.82714844 12.9636719,8.6296875 12.64375,9.384375 C12.3347656,10.1130859 11.8931641,10.7693359 11.33125,11.33125 C10.7679687,11.8945313 10.1130859,12.3361328 9.384375,12.64375 C8.6296875,12.9636719 7.82714844,13.125 7,13.125 C6.17285156,13.125 5.3703125,12.9636719 4.615625,12.64375 C3.88691406,12.3347656 3.23066406,11.8931641 2.66875,11.33125 C2.10546875,10.7679687 1.66386719,10.1130859 1.35625,9.384375 C1.03632813,8.6296875 0.875,7.82714844 0.875,7 C0.875,6.17285156 1.03632813,5.3703125 1.35625,4.615625 C1.66523438,3.88691406 2.10683594,3.23066406 2.66875,2.66875 C3.23066406,2.10683594 3.88691406,1.66386719 4.615625,1.35625 C5.3703125,1.03632813 6.17285156,0.875 7,0.875 M7,0 C3.13359375,0 0,3.13359375 0,7 C0,10.8664063 3.13359375,14 7,14 C10.8664063,14 14,10.8664063 14,7 C14,3.13359375 10.8664063,0 7,0 Z" id="形状" fill="#84BA33"></path>
                <path d="M5.67109375,9.53476563 L3.2375,7.10117187 C3.06796875,6.93164062 3.06796875,6.65546875 3.2375,6.4859375 L3.23886719,6.48457031 C3.40839844,6.31503906 3.68457031,6.31503906 3.85410156,6.48457031 L6.28769531,8.91816406 C6.45722656,9.08769531 6.45722656,9.36386719 6.28769531,9.53339844 L6.28632812,9.53476563 C6.11816406,9.70292969 5.840625,9.70292969 5.67109375,9.53476563 L5.67109375,9.53476563 Z" id="路径" fill="#84BA33"></path>
                <path d="M10.7460937,5.075 L6.28632812,9.53476563 C6.11679687,9.70429688 5.840625,9.70429688 5.67109375,9.53476563 L5.66972656,9.53339844 C5.50019531,9.36386719 5.50019531,9.08769531 5.66972656,8.91816406 L10.1294922,4.45703125 C10.2990234,4.2875 10.5751953,4.2875 10.7447266,4.45703125 L10.7460937,4.45839844 C10.915625,4.62792969 10.915625,4.90546875 10.7460937,5.075 Z" id="路径" fill="#84BA33"></path>
            </g>
        </g>
    </g>
</svg>