<?xml version="1.0" encoding="UTF-8"?>
<svg width="14px" height="14px" viewBox="0 0 14 14" version="1.1" xmlns="http://www.w3.org/2000/svg" xmlns:xlink="http://www.w3.org/1999/xlink">
    <title>报告</title>
    <g id="查重端" stroke="none" stroke-width="1" fill="none" fill-rule="evenodd">
        <g id="查重端-待审核-查看详情-审核中-DOR报告" transform="translate(-1518.000000, -13.000000)" fill="#FFFFFF" fill-rule="nonzero">
            <g id="报告" transform="translate(1518.000000, 13.000000)">
                <path d="M3.5,1.07691757 C3.84326398,1.0756231 4.1258841,1.30492335 4.13876366,1.59517586 C4.15164322,1.88542838 3.89013998,2.13201569 3.54772728,2.1525 L3.5,2.15384615 L1.27272728,2.15384615 L1.27272728,12.9230769 L12.7272727,12.9230769 L12.7272727,2.15384615 L10.6590909,2.15384615 C10.315827,2.15514599 10.0332071,1.92584578 10.0203275,1.63559335 C10.007448,1.34534093 10.2689511,1.09875366 10.6113636,1.07826923 L10.6590909,1.07691757 L12.7272727,1.07691757 C13.4054459,1.07691757 13.9645004,1.52687891 13.9984091,2.1 L14,2.15384615 L14,12.9230769 C14,13.4969158 13.468234,13.9699619 12.7909091,13.9986539 L12.7272727,14 L1.27272728,14 C0.594554114,14 0.0354995862,13.5500442 0.00159092152,12.9769231 L0,12.9230769 L0,2.15384615 C0,1.58000731 0.531765997,1.10696117 1.20909092,1.07826923 L1.27272728,1.07691757 L3.5,1.07691757 Z" id="路径"></path>
                <path d="M9.22727273,0 L4.77272727,0 C3.72113637,0 2.86363636,0.725576929 2.86363636,1.61538462 C2.86363636,2.5051923 3.72113637,3.23076923 4.77272727,3.23076923 L9.22727273,3.23076923 C10.2788636,3.23076923 11.1363636,2.5051923 11.1363636,1.61538462 C11.1363636,0.725576929 10.2788636,0 9.22727273,0 L9.22727273,0 Z M4.77272727,1.07692307 L9.22727273,1.07692307 C9.57568182,1.07692307 9.86363636,1.32057691 9.86363636,1.61538462 C9.86363636,1.91019232 9.57568182,2.15384615 9.22727273,2.15384615 L4.77272727,2.15384615 C4.42431818,2.15384615 4.13636364,1.91019231 4.13636364,1.61538462 C4.13636364,1.32057692 4.42431818,1.07692307 4.77272727,1.07692307 Z" id="形状"></path>
                <path d="M9.61436364,5.54238462 L10.3856364,6.30376923 L6.84018181,9.80376924 C6.6271819,10.0139749 6.28190901,10.0139749 6.06890909,9.80376924 L3.88709092,7.64992307 L4.65836364,6.88853846 L6.45454546,8.66115384 L9.61436364,5.54211538 L9.61436364,5.54238462 Z" id="路径"></path>
            </g>
        </g>
    </g>
</svg>