<?xml version="1.0" encoding="UTF-8"?>
<svg width="20px" height="20px" viewBox="0 0 20 20" version="1.1" xmlns="http://www.w3.org/2000/svg" xmlns:xlink="http://www.w3.org/1999/xlink">
    <title>留言</title>
    <g id="拍机用户" stroke="none" stroke-width="1" fill="none" fill-rule="evenodd">
        <g id="拍机-任务中心-拍摄中-拍摄中心-进行拍摄-裁减后拍摄-对图片进行备注" transform="translate(-1074.000000, -861.000000)" fill="#FFFFFF" fill-rule="nonzero">
            <g id="位图备份-8" transform="translate(0.000000, 60.000000)">
                <g id="编组-7" transform="translate(777.000000, 790.000000)">
                    <g id="留言" transform="translate(297.000000, 11.000000)">
                        <path d="M16.427079,17.7121951 C16.427079,18.0585366 16.1368306,18.3414634 15.7782886,18.3414634 L2.30735214,18.3414634 C1.94881011,18.3414634 1.65856179,18.0585366 1.65856179,17.7121951 L1.65856179,4.41219512 C1.65856179,4.06585366 1.94881011,3.78292683 2.30735214,3.78292683 L10.9587032,3.78292683 L10.9587032,2.12439024 L2.30735214,2.12439024 C1.03416206,2.12439024 0,3.15121951 0,4.41219512 L0,17.7121951 C0,18.9731707 1.03416206,20 2.30735214,20 L15.7782886,20 C17.0514787,20 18.0856407,18.9731707 18.0856407,17.7121951 L18.0856407,9.14146341 L16.427079,9.14146341 L16.427079,17.7121951 Z" id="路径"></path>
                        <path d="M19.763715,2.75365854 L18.5393062,1.50243902 L18.0246642,0.975609756 L17.3148973,0.248780488 C17.1587974,0.0902439024 16.94416,0 16.7222054,0 C16.4978117,0 16.2856134,0.0902439024 16.1295135,0.251219512 L15.4514544,0.946341463 L15.3904778,1.0097561 L7.95621849,8.63658537 C7.94646225,8.64634146 7.936706,8.65609756 7.92694975,8.66829268 C7.91719351,8.6804878 7.90743726,8.6902439 7.89768102,8.70243902 C7.89524195,8.70487805 7.89524195,8.70731707 7.89280289,8.7097561 C7.88548571,8.7195122 7.87816852,8.72926829 7.87085134,8.74146341 C7.86841228,8.74390244 7.86841228,8.74634146 7.86597322,8.74878049 C7.85865603,8.76097561 7.85133885,8.77073171 7.84402166,8.78292683 C7.84402166,8.78536585 7.8415826,8.78536585 7.8415826,8.78780488 L7.81231386,8.83902439 L4.95129477,14.2731707 C4.78056047,14.597561 4.84397606,14.995122 5.10495564,15.2512195 C5.26349464,15.4073171 5.47325392,15.4878049 5.68545227,15.4878049 C5.82203971,15.4878049 5.96106621,15.4536585 6.08789741,15.3829268 L11.3977342,12.4439024 C11.4001733,12.4414634 11.4050514,12.4390244 11.4074905,12.4390244 C11.4172467,12.4341463 11.4245639,12.4292683 11.4343201,12.4219512 C11.4391983,12.4195122 11.4440764,12.4146341 11.4489545,12.4121951 C11.4562717,12.4073171 11.4635889,12.402439 11.4733451,12.397561 C11.4782232,12.395122 11.4831014,12.3902439 11.4879795,12.3878049 C11.4952967,12.3829268 11.5026139,12.3780488 11.509931,12.3707317 C11.5148092,12.3658537 11.5196873,12.3634146 11.5245654,12.3585366 C11.5318826,12.3536585 11.5391998,12.3463415 11.546517,12.3414634 C11.5513951,12.3365854 11.5562732,12.3341463 11.5587123,12.3292683 L11.5806638,12.3073171 L11.5904201,12.297561 L18.690528,5.01463415 L19.088095,4.60731707 L19.7661541,3.91219512 C20.078354,3.5902439 20.078354,3.07560976 19.763715,2.75365854 Z M17.5027051,3.85853659 C17.4953879,3.86585366 17.4734363,3.88536585 17.4319723,3.88536585 C17.4051426,3.88536585 17.3539223,3.87804878 17.302702,3.82439024 L16.2758571,2.77317073 C16.192929,2.68780488 16.19049,2.56585366 16.2441493,2.5097561 L16.6417164,2.10243902 C16.6490335,2.09512195 16.668546,2.07317073 16.7124491,2.07317073 C16.7392788,2.07317073 16.7904991,2.0804878 16.8417194,2.13414634 L17.8685643,3.18536585 C17.9514924,3.27073171 17.9539314,3.39268293 17.9002721,3.44878049 L17.8612471,3.48780488 L17.5027051,3.85853659 L17.5027051,3.85853659 Z M14.9782764,3.8097561 C15.0124233,3.85121951 15.0490092,3.89512195 15.0880342,3.93414634 L16.1148791,4.98536585 C16.1636603,5.03414634 16.2148806,5.0804878 16.2661009,5.12439024 L10.9952891,10.5317073 L9.70746462,9.21463415 L14.9782764,3.8097561 Z M7.70987328,12.5902439 L8.75135253,10.6097561 L9.64160996,11.5219512 L7.70987328,12.5902439 L7.70987328,12.5902439 Z" id="形状"></path>
                    </g>
                </g>
            </g>
        </g>
    </g>
</svg>