<?xml version="1.0" encoding="UTF-8"?>
<svg width="34px" height="35px" viewBox="0 0 34 35" version="1.1" xmlns="http://www.w3.org/2000/svg" xmlns:xlink="http://www.w3.org/1999/xlink">
    <title>放大</title>
    <g id="solo✅" stroke="none" stroke-width="1" fill="none" fill-rule="evenodd">
        <g id="图标" transform="translate(-21.000000, -26.000000)" fill="#FFFFFF" fill-rule="nonzero">
            <g id="放大" transform="translate(21.000000, 26.000000)">
                <path d="M33.6321979,32.866483 L28.1696555,27.4441129 C30.9795742,24.5262008 32.7173699,20.5840215 32.7173699,16.2383809 C32.7173699,7.28478751 25.3786121,0 16.3586849,0 C7.33875773,0 0,7.28478751 0,16.2383809 C0,25.1919744 7.33875773,32.4767619 16.3586849,32.4767619 C20.0947569,32.4767619 23.5325975,31.2126664 26.289665,29.1116697 L31.8516179,34.6327192 C32.0871014,34.8678126 32.4072977,35 32.7412787,35 C33.0752597,35 33.3954561,34.8678126 33.6309395,34.6327192 C34.1225284,34.1452884 34.1230917,33.3546036 33.6321979,32.866483 Z M2.51672076,16.2383809 C2.51672076,8.66255168 8.72672923,2.49821245 16.3586849,2.49821245 C23.9906406,2.49821245 30.2006491,8.66255168 30.2006491,16.2383809 C30.2006491,23.8142102 23.9906406,29.9785494 16.3586849,29.9785494 C8.72672923,29.9785494 2.51672076,23.8142102 2.51672076,16.2383809 Z" id="形状"></path>
            </g>
        </g>
    </g>
</svg>