<?xml version="1.0" encoding="UTF-8"?>
<svg width="34px" height="35px" viewBox="0 0 34 35" version="1.1" xmlns="http://www.w3.org/2000/svg" xmlns:xlink="http://www.w3.org/1999/xlink">
    <title>不使用放大镜</title>
    <g id="solo✅" stroke="none" stroke-width="1" fill="none" fill-rule="evenodd">
        <g id="图标" transform="translate(-76.000000, -26.000000)" fill="#FFFFFF">
            <g id="不使用放大镜" transform="translate(76.000000, 26.000000)">
                <path d="M29.849774,7.06397549 C31.658087,9.67591975 32.7173699,12.8367119 32.7173699,16.2383809 C32.7173699,20.5840215 30.9795742,24.5262008 28.1696555,27.4441129 L28.1696555,27.4441129 L33.6321979,32.866483 C34.1230917,33.3546036 34.1225284,34.1452884 33.6309395,34.6327192 C33.3954561,34.8678126 33.0752597,35 32.7412787,35 C32.4072977,35 32.0871014,34.8678126 31.8516179,34.6327192 L31.8516179,34.6327192 L26.289665,29.1116697 C23.5325975,31.2126664 20.0947569,32.4767619 16.3586849,32.4767619 C12.9749771,32.4767619 9.82785635,31.4515903 7.21599913,29.6977271 L9.02606699,27.8878563 C11.1535808,29.2122074 13.6677456,29.9785494 16.3586849,29.9785494 C23.9906406,29.9785494 30.2006491,23.8142102 30.2006491,16.2383809 C30.2006491,13.5311719 29.407645,11.0042069 28.0401283,8.87437071 Z M16.3586849,3.55271368e-15 C20.2064522,3.55271368e-15 23.7482888,1.32564859 26.5450086,3.54098947 L24.7605731,5.32594638 C22.4291438,3.55291413 19.51556,2.49821245 16.3586849,2.49821245 C8.72672923,2.49821245 2.51672076,8.66255168 2.51672076,16.2383809 C2.51672076,19.4083831 3.60402466,22.3312489 5.42784195,24.6587677 L3.64269917,26.4429793 C1.36561274,23.6525146 0,20.1007154 0,16.2383809 C0,7.28478751 7.33875773,3.55271368e-15 16.3586849,3.55271368e-15 Z" id="形状结合" fill-rule="nonzero"></path>
                <path d="M-2.82842712,16 L35.8284271,16 C36.3807119,16 36.8284271,16.4477153 36.8284271,17 C36.8284271,17.5522847 36.3807119,18 35.8284271,18 L-2.82842712,18 C-3.38071187,18 -3.82842712,17.5522847 -3.82842712,17 C-3.82842712,16.4477153 -3.38071187,16 -2.82842712,16 Z" id="矩形" transform="translate(16.500000, 17.000000) rotate(-225.000000) translate(-16.500000, -17.000000) "></path>
            </g>
        </g>
    </g>
</svg>