<?xml version="1.0" encoding="UTF-8"?>
<svg width="30px" height="30px" viewBox="0 0 30 30" version="1.1" xmlns="http://www.w3.org/2000/svg" xmlns:xlink="http://www.w3.org/1999/xlink">
    <title>编组 2</title>
    <g id="查重端" stroke="none" stroke-width="1" fill="none" fill-rule="evenodd">
        <g id="查重端-待审核-查看详情-审核中" transform="translate(-633.000000, -904.000000)">
            <g id="编组-2" transform="translate(633.000000, 904.000000)">
                <path d="M0,0 L30,0 C30,16.5685425 16.5685425,30 0,30 L0,30 L0,30 L0,0 Z" id="矩形" fill="#84BA33"></path>
                <g id="标记" transform="translate(4.000000, 4.000000)" fill="#FFFFFF" fill-rule="nonzero">
                    <path d="M19.7453433,5.74910692 L14.2498712,0.254674986 C13.9099905,-0.0848916621 13.3592939,-0.0848916621 13.0194132,0.254674986 C12.94484,0.327819343 11.3601593,1.9470346 11.9696519,4.07682615 L9.48005387,6.56373426 C8.11765866,6.15068378 4.59981081,5.43501645 2.00839171,8.02662139 C1.66884941,8.36652643 1.66884941,8.91726257 2.00839171,9.25716761 L5.75999789,13.0090428 L0.235843833,18.533593 C-0.085887928,18.87633 -0.0774238426,19.4126064 0.254963832,19.7450179 C0.587351506,20.0774294 1.1235894,20.0858941 1.46630182,19.7641393 L6.99045589,14.2395891 L10.7420621,17.9900301 C10.9049123,18.1538098 11.1263362,18.2458979 11.3572911,18.2458979 C11.588246,18.2458979 11.8096698,18.1538098 11.9725201,17.9900301 C14.5625051,15.3998593 13.8483232,11.880325 13.4353023,10.5192663 L15.9234662,8.03092399 C18.053105,8.6404603 19.6722042,7.05566591 19.7453433,6.98108735 C20.0848856,6.6411823 20.0848856,6.09044617 19.7453433,5.75054112 L19.7453433,5.74910692 Z M16.0726126,6.23243335 C15.7407336,6.07657566 15.3467806,6.14539335 15.0873857,6.40453772 L11.8205054,9.6730865 C11.5728057,9.92177446 11.4977132,10.2944404 11.6297701,10.6196605 C11.6340724,10.6282657 12.0255818,11.6063922 12.0929845,12.8713593 C12.1589531,14.1277212 11.8922105,15.2048077 11.298493,16.0854084 L7.60711898,12.3937697 L3.91287681,8.69926262 C6.24328967,7.12450766 9.24055914,8.3120278 9.37679866,8.36652751 C9.70199965,8.5007972 10.076047,8.42609555 10.3247389,8.17721271 L13.5930533,4.91009813 C13.8521791,4.65068472 13.9209919,4.25670347 13.7651453,3.92480063 C13.4611161,3.27510664 13.5715418,2.67417555 13.7651453,2.23100681 L17.7648509,6.23243335 C17.3202798,6.42318236 16.7193918,6.533616 16.0711785,6.23100681 L16.0726126,6.23243335 Z M10.9141541,10.9437904 C10.9442702,11.011198 11.213881,11.6322079 11.1938036,12.3134543 C11.1861183,12.5855342 11.0338743,12.832846 10.7944205,12.9622297 C10.5549667,13.0916135 10.2646818,13.0834128 10.0329133,12.9407167 C9.8011448,12.7980206 9.66310388,12.5425081 9.6707892,12.2704282 C9.66630364,12.0275649 9.61619566,11.7877105 9.52307688,11.5633661 C9.35423291,11.1787834 9.52794455,10.7300495 9.91171804,10.559424 C10.2946799,10.3892839 10.7430894,10.5612186 10.9141541,10.9437904 L10.9141541,10.9437904 Z" id="形状"></path>
                </g>
            </g>
        </g>
    </g>
</svg>