<?xml version="1.0" encoding="UTF-8"?>
<svg width="35px" height="35px" viewBox="0 0 35 35" version="1.1" xmlns="http://www.w3.org/2000/svg" xmlns:xlink="http://www.w3.org/1999/xlink">
    <title>看原图</title>
    <g id="solo✅" stroke="none" stroke-width="1" fill="none" fill-rule="evenodd">
        <g id="图标" transform="translate(-131.000000, -26.000000)" fill="#FFFFFF" fill-rule="nonzero">
            <g id="看原图" transform="translate(131.000000, 26.000000)">
                <path d="M28.5742188,5 L20.1953125,5 C19.4296875,5 18.8046875,5.61328125 18.7890625,6.37890625 C18.7734375,7.171875 19.4296875,7.8125 20.2226562,7.8125 L25.2382812,7.8125 L20.1953125,12.8554688 C19.6484375,13.4023438 19.6484375,14.296875 20.1953125,14.84375 C20.7421875,15.390625 21.6367188,15.390625 22.1835938,14.84375 L27.1875,9.83984375 L27.1875,14.8789062 C27.1875,15.6445312 27.8046875,16.2695312 28.5664062,16.2851562 C29.3554688,16.3007812 30,15.6445312 30,14.8515625 L30,6.42578125 C30,5.640625 29.3632813,5 28.5742188,5 Z M14.7734375,27.1875 L9.7578125,27.1875 L14.8046875,22.1445312 C15.3515625,21.5976562 15.3515625,20.703125 14.8046875,20.15625 C14.2578125,19.609375 13.3632813,19.609375 12.8164062,20.15625 L7.8125,25.1601562 L7.8125,20.1171875 C7.8125,19.3515625 7.1953125,18.7265625 6.43359375,18.7109375 C5.64453125,18.6953125 5,19.3515625 5,20.1445312 L5,28.5664063 C5,29.359375 5.640625,30 6.43359375,30 L14.8046875,30 C15.5703125,30 16.1953125,29.3867188 16.2109375,28.6210938 C16.2226562,27.828125 15.5664062,27.1875 14.7734375,27.1875 L14.7734375,27.1875 Z" id="形状"></path>
                <path d="M30.234375,2.8125 C31.3125,2.8125 32.1875,3.6875 32.1875,4.765625 L32.1875,30.234375 C32.1875,31.3125 31.3125,32.1875 30.234375,32.1875 L4.765625,32.1875 C3.6875,32.1875 2.8125,31.3125 2.8125,30.234375 L2.8125,4.765625 C2.8125,3.6875 3.6875,2.8125 4.765625,2.8125 L30.234375,2.8125 M30.234375,0 L4.765625,0 C4.125,0 3.5,0.125 2.91015625,0.375 C2.34375,0.61328125 1.83203125,0.95703125 1.39453125,1.39453125 C0.95703125,1.83203125 0.61328125,2.33984375 0.375,2.91015625 C0.125,3.5 0,4.125 0,4.765625 L0,30.234375 C0,30.875 0.125,31.5 0.375,32.0898438 C0.61328125,32.65625 0.95703125,33.1679688 1.39453125,33.6054688 C1.83203125,34.0429688 2.33984375,34.3867188 2.91015625,34.625 C3.5,34.875 4.125,35 4.765625,35 L30.234375,35 C30.875,35 31.5,34.875 32.0898438,34.625 C32.65625,34.3867188 33.1679688,34.0429688 33.6054688,33.6054688 C34.0429688,33.1679687 34.3867188,32.6601562 34.625,32.0898438 C34.875,31.5 35,30.875 35,30.234375 L35,4.765625 C35,4.125 34.875,3.5 34.625,2.91015625 C34.3867188,2.34375 34.0429688,1.83203125 33.6054688,1.39453125 C33.1679687,0.95703125 32.6601562,0.61328125 32.0898438,0.375 C31.5,0.125 30.875,0 30.234375,0 Z" id="形状"></path>
            </g>
        </g>
    </g>
</svg>