<?xml version="1.0" encoding="UTF-8"?>
<svg width="35px" height="35px" viewBox="0 0 35 35" version="1.1" xmlns="http://www.w3.org/2000/svg" xmlns:xlink="http://www.w3.org/1999/xlink">
    <title>关闭原图</title>
    <g id="solo✅" stroke="none" stroke-width="1" fill="none" fill-rule="evenodd">
        <g id="图标" transform="translate(-179.000000, -26.000000)" fill="#FFFFFF" fill-rule="nonzero">
            <g id="关闭原图" transform="translate(179.000000, 26.000000)">
                <path d="M30.234375,2.8125 C31.3125,2.8125 32.1875,3.6875 32.1875,4.765625 L32.1875,30.234375 C32.1875,31.3125 31.3125,32.1875 30.234375,32.1875 L4.765625,32.1875 C3.6875,32.1875 2.8125,31.3125 2.8125,30.234375 L2.8125,4.765625 C2.8125,3.6875 3.6875,2.8125 4.765625,2.8125 L30.234375,2.8125 M30.234375,0 L4.765625,0 C4.125,0 3.5,0.125 2.91015625,0.375 C2.34375,0.61328125 1.83203125,0.95703125 1.39453125,1.39453125 C0.95703125,1.83203125 0.61328125,2.33984375 0.375,2.91015625 C0.125,3.5 0,4.125 0,4.765625 L0,30.234375 C0,30.875 0.125,31.5 0.375,32.0898438 C0.61328125,32.65625 0.95703125,33.1679688 1.39453125,33.6054688 C1.83203125,34.0429688 2.33984375,34.3867188 2.91015625,34.625 C3.5,34.875 4.125,35 4.765625,35 L30.234375,35 C30.875,35 31.5,34.875 32.0898438,34.625 C32.65625,34.3867188 33.1679688,34.0429688 33.6054688,33.6054688 C34.0429688,33.1679687 34.3867188,32.6601562 34.625,32.0898438 C34.875,31.5 35,30.875 35,30.234375 L35,4.765625 C35,4.125 34.875,3.5 34.625,2.91015625 C34.3867188,2.34375 34.0429688,1.83203125 33.6054688,1.39453125 C33.1679687,0.95703125 32.6601562,0.61328125 32.0898438,0.375 C31.5,0.125 30.875,0 30.234375,0 Z" id="形状"></path>
                <path d="M9.42561643,8.542522 C8.99472748,8.65789196 8.65809433,8.99427322 8.54258954,9.42502045 L8.51286109,9.56946047 C8.45682921,9.95621638 8.58538854,10.3505636 8.86588374,10.6308489 L15.734,17.4999913 L8.86573714,24.3692977 C8.55032664,24.6844721 8.42706338,25.1441526 8.54258954,25.5749795 C8.65809433,26.0057268 8.99472748,26.342108 9.42561643,26.457478 L9.57005118,26.4871605 C9.95679498,26.5431042 10.3511491,26.4147267 10.6315406,26.134545 L17.5,19.265 L24.3682945,26.1343801 C24.6838998,26.4497494 25.1435742,26.5728266 25.5743836,26.457478 C26.0052725,26.342108 26.3419057,26.0057268 26.4574105,25.5749795 L26.4871389,25.4305395 C26.5431708,25.0437836 26.4146114,24.6494364 26.1341162,24.3691511 L19.265,17.501 L26.1342628,10.6314506 C26.4496733,10.3162762 26.5729366,9.85659561 26.4574104,9.4257687 C26.3419057,8.99502147 26.0052725,8.65864021 25.5743836,8.54327025 L25.4299488,8.51358778 C25.043205,8.45764404 24.6488509,8.58602154 24.3684594,8.86620325 L17.5,15.735 L10.6317055,8.86561985 C10.3161001,8.55025058 9.85642579,8.42717336 9.42561643,8.542522 Z" id="路径"></path>
            </g>
        </g>
    </g>
</svg>