<?xml version="1.0" encoding="UTF-8"?>
<svg width="20px" height="20px" viewBox="0 0 20 20" version="1.1" xmlns="http://www.w3.org/2000/svg" xmlns:xlink="http://www.w3.org/1999/xlink">
    <title>返回 (1)备份</title>
    <g id="查重端" stroke="none" stroke-width="1" fill="none" fill-rule="evenodd">
        <g id="查重端-待审核-查看详情-审核中" transform="translate(-1681.000000, -10.000000)" fill="#FFFFFF" fill-rule="nonzero">
            <g id="返回-(1)备份" transform="translate(1681.000000, 10.000000)">
                <path d="M14.7511909,7.22826086 C14.434079,6.92391305 13.9584112,6.92391305 13.6412993,7.22826086 L8.56750887,12.0978261 L6.34772557,9.9673913 C6.03061368,9.66304348 5.55494581,9.66304348 5.23783392,9.9673913 C4.92072203,10.2717391 4.92072203,10.7282609 5.23783392,11.0326087 L8.01256305,13.6956522 C8.01256305,13.6956522 8.01256305,13.7717391 8.09184102,13.7717391 C8.40895291,14.076087 8.88462078,14.076087 9.20173267,13.7717391 L14.8304689,8.36956521 C15.0683028,7.98913042 15.0683028,7.53260868 14.7511909,7.22826086 Z" id="路径"></path>
                <path d="M10.0000001,8.89967282e-08 C7.3477268,-0.000353529147 4.80398217,1.05310128 2.92854173,2.92854173 C1.05310128,4.80398217 -0.000353529147,7.3477268 8.89966714e-08,10.0000001 C8.89966714e-08,15.524 4.47600014,20.0000001 10.0000001,20.0000001 C15.524,20.0000001 20.0000001,15.524 20.0000001,10.0000001 C20.0000001,4.47600014 15.524,8.89967282e-08 10.0000001,8.89967282e-08 Z M10,18.0000002 C7.14187537,18.0000002 4.50085919,16.4752087 3.07179682,14.0000002 C1.64273445,11.5247915 1.64273445,8.4752087 3.07179682,6.00000016 C4.50085919,3.52479148 7.14187537,2.00000016 10,2.00000016 C14.418278,2.00000016 18,5.58172218 18,10.0000002 C18,14.418278 14.418278,18.0000002 10,18.0000002 L10,18.0000002 Z" id="形状"></path>
            </g>
        </g>
    </g>
</svg>