<?xml version="1.0" encoding="UTF-8"?>
<svg width="19px" height="21px" viewBox="0 0 19 21" version="1.1" xmlns="http://www.w3.org/2000/svg" xmlns:xlink="http://www.w3.org/1999/xlink">
    <title>重置</title>
    <g id="拍机用户" stroke="none" stroke-width="1" fill="none" fill-rule="evenodd">
        <g id="拍机-任务中心-拍摄中-拍摄中心-进行拍摄-未裁减前拍摄" transform="translate(-1026.000000, -860.000000)" fill="#FFFFFF" fill-rule="nonzero">
            <g id="位图备份-8" transform="translate(0.000000, 60.000000)">
                <g id="编组-7" transform="translate(826.000000, 800.000000)">
                    <g id="重置" transform="translate(200.000000, 0.000000)">
                        <path d="M12.621524,18.1019662 L9.5165645,15.8234763 C9.4555742,15.7750707 9.37897186,15.7490497 9.30019103,15.7499767 C9.10119245,15.7498931 8.93820898,15.9034226 8.9323561,16.0964751 L8.9323561,17.5664686 C5.83664256,17.5639298 3.08106962,15.6618097 2.06274076,12.8245026 C1.0444119,9.98719551 1.98601602,6.83516582 4.41015028,4.96652461 C4.74212602,4.71231992 4.8088961,4.24944127 4.56161174,3.91652927 C4.43522261,3.72817643 4.23284739,3.60029094 4.00423612,3.564311 C3.77562485,3.52833105 3.54198009,3.58759361 3.3607389,3.72753011 C0.38804462,6.02300907 -0.756662983,9.89615057 0.51033523,13.371929 C1.77733344,16.8477074 5.17695305,19.1605056 8.9756308,19.1309616 L8.9756308,20.6534549 C8.98148369,20.8465074 9.14446714,20.9999773 9.34346571,20.9999773 C9.42224655,21.0008803 9.4988489,20.9748593 9.55983921,20.9264536 L12.621524,18.6479638 C12.7080893,18.582295 12.7586788,18.4815995 12.7586788,18.374965 C12.7586788,18.2683304 12.7080893,18.167635 12.621524,18.1019662 L12.621524,18.1019662 Z M17.5656581,5.81702083 C15.9202446,3.34462831 13.0900998,1.85646578 10.0574982,1.86903837 L10.0574982,0.346545133 C10.0516453,0.153492647 9.88866187,2.27364899e-05 9.6896633,2.27364899e-05 C9.61088245,-0.000880280165 9.53428011,0.0251406876 9.4732898,0.0735463552 L6.41160502,2.35203623 C6.32503969,2.41770503 6.27445022,2.51840046 6.27445022,2.62503501 C6.27445022,2.73166956 6.32503969,2.83236499 6.41160502,2.89803379 L9.5165645,5.17652367 C9.57755481,5.22492933 9.65415714,5.2509503 9.73293798,5.25002335 C9.93193656,5.2501069 10.09492,5.09657739 10.1007729,4.90352489 L10.1007729,3.43353141 C13.1964864,3.43607024 15.9520594,5.33819031 16.9703882,8.1754974 C17.9887171,11.0128045 17.047113,14.1648342 14.6229787,16.0334754 C14.291003,16.2876801 14.2242329,16.7505587 14.4715173,17.0834707 C14.5979064,17.2718236 14.8002816,17.3997091 15.0288929,17.435689 C15.2575042,17.4716689 15.4911489,17.4124064 15.6723901,17.2724699 C19.2340737,14.4885918 20.0515467,9.54237153 17.5656581,5.81702083 L17.5656581,5.81702083 Z" id="形状"></path>
                        <path d="M9.5165645,13.3874872 C7.8734426,13.3874872 6.54142911,12.0947151 6.54142911,10.5 C6.54142911,8.90528488 7.8734426,7.61251285 9.5165645,7.61251285 C11.1596864,7.61251285 12.4916999,8.90528488 12.4916999,10.5 C12.4916999,12.0947151 11.1596864,13.3874872 9.5165645,13.3874872 L9.5165645,13.3874872 Z M9.5165645,9.18750584 C8.76969091,9.18750584 8.16423024,9.77512949 8.16423024,10.5 C8.16423024,11.2248705 8.76969091,11.8124942 9.5165645,11.8124942 C10.2634381,11.8124942 10.8688988,11.2248705 10.8688988,10.5 C10.8688988,9.77512949 10.2634381,9.18750584 9.5165645,9.18750584 L9.5165645,9.18750584 Z" id="形状"></path>
                    </g>
                </g>
            </g>
        </g>
    </g>
</svg>