<?xml version="1.0" encoding="UTF-8"?>
<svg width="20px" height="20px" viewBox="0 0 20 20" version="1.1" xmlns="http://www.w3.org/2000/svg" xmlns:xlink="http://www.w3.org/1999/xlink">
    <title>返回 (1)</title>
    <g id="查重端" stroke="none" stroke-width="1" fill="none" fill-rule="evenodd">
        <g id="查重端-待审核-查看详情-审核中" transform="translate(-1791.000000, -10.000000)" fill="#FFFFFF" fill-rule="nonzero">
            <g id="返回-(1)" transform="translate(1791.000000, 10.000000)">
                <path d="M14.2106667,9.0000001 L8.17733344,9.0000001 L10.7133334,6.46266679 C11.1139315,6.07259849 11.1228816,5.43177066 10.7333334,5.0306668 C10.5409962,4.84282927 10.2818989,4.73912159 10.0130756,4.74229829 C9.74425227,4.74562336 9.4877387,4.85556634 9.3000001,5.04800013 L5.08000013,9.26933343 C5.0706668,9.27733343 5.0586668,9.2800001 5.04933347,9.28933343 C4.85972853,9.48073733 4.75663945,9.74135039 4.76400014,10.0106668 C4.76400014,10.2653334 4.85733347,10.5200001 5.0506668,10.7120001 C5.0586668,10.7200001 5.06933347,10.7226667 5.07733347,10.7293334 L9.3000001,14.952 C9.70133343,15.352 10.3426668,15.3626667 10.7333334,14.972 C11.1228816,14.5708962 11.1139315,13.9300684 10.7133334,13.5400001 L8.17600011,11.0000001 L14.2106667,11.0000001 C14.7773334,11.0000001 15.2373334,10.5520001 15.2373334,10.0000001 C15.2373334,9.44800009 14.7773334,9.0000001 14.2106667,9.0000001 Z" id="路径"></path>
                <path d="M10.0000001,8.89967282e-08 C7.3477268,-0.000353529147 4.80398217,1.05310128 2.92854173,2.92854173 C1.05310128,4.80398217 -0.000353529147,7.3477268 8.89966714e-08,10.0000001 C8.89966714e-08,15.524 4.47600014,20.0000001 10.0000001,20.0000001 C15.524,20.0000001 20.0000001,15.524 20.0000001,10.0000001 C20.0000001,4.47600014 15.524,8.89967282e-08 10.0000001,8.89967282e-08 Z M10,18.0000002 C7.14187537,18.0000002 4.50085919,16.4752087 3.07179682,14.0000002 C1.64273445,11.5247915 1.64273445,8.4752087 3.07179682,6.00000016 C4.50085919,3.52479148 7.14187537,2.00000016 10,2.00000016 C14.418278,2.00000016 18,5.58172218 18,10.0000002 C18,14.418278 14.418278,18.0000002 10,18.0000002 L10,18.0000002 Z" id="形状"></path>
            </g>
        </g>
    </g>
</svg>