<?xml version="1.0" encoding="UTF-8"?>
<svg width="20px" height="21px" viewBox="0 0 20 21" version="1.1" xmlns="http://www.w3.org/2000/svg" xmlns:xlink="http://www.w3.org/1999/xlink">
    <title>旋转备份</title>
    <g id="拍机用户" stroke="none" stroke-width="1" fill="none" fill-rule="evenodd">
        <g id="拍机-任务中心-已打回-补拍-拍摄中" transform="translate(-1597.000000, -30.000000)" fill="#FFFFFF" fill-rule="nonzero">
            <g id="编组-3备份" transform="translate(0.000000, 20.000000)">
                <g id="旋转备份" transform="translate(1607.000000, 20.500000) scale(-1, 1) translate(-1607.000000, -20.500000) translate(1597.000000, 10.000000)">
                    <path d="M14.2218457,21 L2.66659607,21 C1.19672758,21 0,19.7906925 0,18.3071815 L0,9.3287763 C0,7.84292171 1.19672758,6.63595781 2.66659607,6.63595781 L14.2218457,6.63595781 C15.6917142,6.63595781 16.8884418,7.84526533 16.8884418,9.3287763 L16.8884418,18.3071815 C16.8884418,19.7906925 15.6917142,21 14.2218457,21 Z M2.66659607,8.43117014 C2.17586832,8.43117014 1.77773071,8.83427264 1.77773071,9.3287763 L1.77773071,18.3071815 C1.77773071,18.8016852 2.17586832,19.2047877 2.66659607,19.2047877 L14.2218457,19.2047877 C14.7125735,19.2047877 15.1107111,18.8016852 15.1107111,18.3071815 L15.1107111,9.3287763 C15.1107111,8.83427264 14.7125735,8.43117014 14.2218457,8.43117014 L2.66659607,8.43117014 Z" id="形状"></path>
                    <path d="M19.1106052,9.05457285 C18.7680216,9.05457285 18.4416414,8.85302159 18.2958119,8.51554043 C16.4023435,4.14469059 11.8677414,3.49316444 9.33308624,3.49316444 C8.8423585,3.49316444 8.44422089,3.09006194 8.44422089,2.59555828 C8.44422089,2.10105463 8.8423585,1.69795212 9.33308624,1.69795212 C14.3838785,1.69795212 18.2448873,3.92204676 19.9253984,7.79839295 C20.1221525,8.25305508 19.9161394,8.78271302 19.4670772,8.98192065 C19.3513395,9.03113666 19.2286576,9.05457285 19.1106052,9.05457285 Z" id="路径"></path>
                    <path d="M9.11086991,5.18994476 C8.88402406,5.18994476 8.65486346,5.10323085 8.48125694,4.92745941 L6.80306063,3.23067909 C6.4558476,2.87913621 6.4558476,2.31198036 6.80306063,1.96043748 L8.48125694,0.263657162 C8.82846997,-0.0878857207 9.39095508,-0.0878857207 9.73816811,0.263657162 C10.0853811,0.615200045 10.0853811,1.1823559 9.73816811,1.53389878 L8.68727001,2.59555828 L9.73816811,3.65721779 C10.0853811,4.00876067 10.0853811,4.57591652 9.73816811,4.92745941 C9.56687635,5.10088723 9.33771575,5.18994476 9.11086991,5.18994476 Z" id="路径"></path>
                </g>
            </g>
        </g>
    </g>
</svg>