<?xml version="1.0" encoding="UTF-8"?>
<svg width="20px" height="21px" viewBox="0 0 20 21" version="1.1" xmlns="http://www.w3.org/2000/svg" xmlns:xlink="http://www.w3.org/1999/xlink">
    <title>放大 (1)</title>
    <g id="拍机用户" stroke="none" stroke-width="1" fill="none" fill-rule="evenodd">
        <g id="拍机-任务中心-已打回-补拍-拍摄中" transform="translate(-1742.000000, -30.000000)" fill="#FFFFFF" fill-rule="nonzero">
            <g id="编组-3备份" transform="translate(0.000000, 20.000000)">
                <g id="放大-(1)" transform="translate(1742.000000, 10.000000)">
                    <path d="M19.7836458,19.7198898 L16.5703856,16.4664677 C18.2232789,14.7157205 19.2455117,12.3504129 19.2455117,9.74302857 C19.2455117,4.37087251 14.9285954,0 9.62275584,0 C4.31691631,0 0,4.37087251 0,9.74302857 C0,15.1151846 4.31691631,19.4860571 9.62275584,19.4860571 C11.8204452,19.4860571 13.8427044,18.7275998 15.4645089,17.4670018 L18.7362458,20.7796315 C18.8747655,20.9206875 19.0631163,21 19.2595757,21 C19.4560351,21 19.6443859,20.9206875 19.7829056,20.7796315 C20.0720755,20.487173 20.0724069,20.0127622 19.7836458,19.7198898 Z M1.48042398,9.74302857 C1.48042398,5.19753101 5.13337014,1.49892747 9.62275584,1.49892747 C14.1121415,1.49892747 17.7650877,5.19753101 17.7650877,9.74302857 C17.7650877,14.2885261 14.1121415,17.9871297 9.62275584,17.9871297 C5.13337014,17.9871297 1.48042398,14.2885261 1.48042398,9.74302857 Z" id="形状"></path>
                    <path d="M12.9951617,8.99356483 L10.3629678,8.99356483 L10.3629678,6.37044176 C10.3629678,5.95652436 10.0315636,5.62097802 9.62275584,5.62097802 C9.21394805,5.62097802 8.88254385,5.95652436 8.88254385,6.37044176 L8.88254385,8.99356483 L6.2918019,8.99356483 C5.8829941,8.99356483 5.55158991,9.32911117 5.55158991,9.74302857 C5.55158991,10.156946 5.8829941,10.4924923 6.2918019,10.4924923 L8.88254385,10.4924923 L8.88254385,13.1156154 C8.88254385,13.5295328 9.21394805,13.8650791 9.62275584,13.8650791 C10.0315636,13.8650791 10.3629678,13.5295328 10.3629678,13.1156154 L10.3629678,10.4924923 L12.9951617,10.4924923 C13.4039695,10.4924923 13.7353736,10.156946 13.7353736,9.74302857 C13.7353736,9.32911117 13.4039695,8.99356483 12.9951617,8.99356483 Z" id="路径"></path>
                </g>
            </g>
        </g>
    </g>
</svg>