<?xml version="1.0" encoding="UTF-8"?>
<svg width="40px" height="40px" viewBox="0 0 40 40" version="1.1" xmlns="http://www.w3.org/2000/svg" xmlns:xlink="http://www.w3.org/1999/xlink">
    <!-- Generator: Sketch 59 (86127) - https://sketch.com -->
    <title>拖动</title>
    <desc>Created with Sketch.</desc>
    <g id="页面-1" stroke="none" stroke-width="1" fill="none" fill-rule="evenodd">
        <g id="拖动" fill="#AAAAAA" fill-rule="nonzero">
            <path d="M0,0 L8,0 L8,8 L0,8 L0,0 Z M16.0000186,0 L24.0000186,0 L24.0000186,8 L16.0000186,8 L16.0000186,0 Z M32.0000372,0 L40.0000372,0 L40.0000372,8 L32.0000372,8 L32.0000372,0 Z M0,16.0000186 L8,16.0000186 L8,24.0000186 L0,24.0000186 L0,16.0000186 Z M16.0000186,16.0000186 L24.0000186,16.0000186 L24.0000186,24.0000186 L16.0000186,24.0000186 L16.0000186,16.0000186 Z M32.0000372,16.0000186 L40.0000372,16.0000186 L40.0000372,24.0000186 L32.0000372,24.0000186 L32.0000372,16.0000186 Z M0,32.0000372 L8,32.0000372 L8,40.0000372 L0,40.0000372 L0,32.0000372 Z M16.0000186,32.0000372 L24.0000186,32.0000372 L24.0000186,40.0000372 L16.0000186,40.0000372 L16.0000186,32.0000372 Z M32.0000372,32.0000372 L40.0000372,32.0000372 L40.0000372,40.0000372 L32.0000372,40.0000372 L32.0000372,32.0000372 Z" id="形状"></path>
        </g>
    </g>
</svg>