<?xml version="1.0" encoding="UTF-8"?>
<svg width="18px" height="15px" viewBox="0 0 18 15" version="1.1" xmlns="http://www.w3.org/2000/svg" xmlns:xlink="http://www.w3.org/1999/xlink">
    <!-- Generator: Sketch 52.2 (67145) - http://www.bohemiancoding.com/sketch -->
    <title>分组</title>
    <desc>Created with Sketch.</desc>
    <g id="切图" stroke="none" stroke-width="1" fill="none" fill-rule="evenodd">
        <g id="分组" fill="#4A4A4A">
            <path d="M9.77948114,5.6932606 C9.70266474,5.6932606 9.70266474,5.76376073 9.63045732,5.76376073 L6.39641006,5.76376073 L2.33136298,1.43767768 L13.6955044,1.43767768 L9.77948114,5.6932606 Z M9.17877689,13.3356248 L6.77135091,12.2552478 L6.77135091,7.21028843 L9.40454029,7.21028843 L9.17877689,13.3356248 Z M15.9538297,0.502725936 C15.8048059,0.286650534 15.5789657,0 15.2763859,0 L0.678274055,0 C0.404654037,0.0592501103 0.179274719,0.247875462 0.0774929893,0.502725936 C-0.0486395397,0.760876417 -0.0192188584,1.06597698 0.154232573,1.29652741 L5.27174115,6.70313748 L5.27174115,12.6873986 C5.27358474,12.9567991 5.45779047,13.1923746 5.72342158,13.2651247 L9.56270526,14.9232278 C9.65181228,14.9810529 9.75897116,15.0060279 9.86528506,14.9938029 C9.99487433,15.012778 10.1270754,14.9878779 10.2401491,14.9232278 C10.4689851,14.8175526 10.6149363,14.5927022 10.6150899,14.3455767 L10.836398,6.61493732 L15.8048059,1.20832725 C16.0306461,1.06282698 16.0306461,0.767326429 15.9538297,0.489450911 L15.9538297,0.502725936 Z" id="Fill-1"></path>
            <path d="M18,14.1608971 C17.9758867,13.85792 17.7202092,13.6184364 17.4013779,13.6000146 L12.5986221,13.6000146 C12.2797908,13.6184364 12.0241898,13.85792 12,14.1608971 L12,14.4391175 C12.0241898,14.7420945 12.2797908,14.9815782 12.5986221,15 L17.3968614,15 C17.7174534,14.9836898 17.9755805,14.7436964 18,14.4391175 L18,14.1608971 Z M18,8.56080969 C17.9758867,8.25783265 17.7202092,8.01834901 17.4013779,8 L12.5986221,8 C12.2797908,8.01834901 12.0241898,8.25783265 12,8.56080969 L12,8.83910294 C12.0220464,9.14382749 12.2782598,9.38564118 12.5986221,9.40428143 L17.3968614,9.40428143 C17.7174534,9.38789839 17.9755805,9.14790505 18,8.84339893 L18,8.56080969 Z M18,11.3608534 C17.9758867,11.0578763 17.7202092,10.8183927 17.4013779,10.7999709 L12.5986221,10.7999709 C12.2797908,10.8183927 12.0241898,11.0578763 12,11.3608534 L12,11.6391466 C12.0241898,11.9421237 12.2797908,12.1816073 12.5986221,12.1999563 L17.3968614,12.1999563 C17.7158459,12.1839373 17.9734371,11.946274 18,11.6434426 L18,11.3608534 Z" id="Fill-3"></path>
        </g>
    </g>
</svg>