<?xml version="1.0" encoding="UTF-8" standalone="no"?>
<svg width="21px" height="36px" viewBox="0 0 21 36" version="1.1" xmlns="http://www.w3.org/2000/svg" xmlns:xlink="http://www.w3.org/1999/xlink">
    <!-- Generator: Sketch 49.3 (51167) - http://www.bohemiancoding.com/sketch -->
    <title>Page 1</title>
    <desc>Created with Sketch.</desc>
    <defs>
        <polygon id="path-1" points="0 0 21 0 21 36 0 36"></polygon>
    </defs>
    <g id="Page-1" stroke="none" stroke-width="1" fill="none" fill-rule="evenodd">
        <g id="切图" transform="translate(-110.000000, -56.000000)">
            <g id="Group-18-Copy-2" transform="translate(110.000000, 56.000000)">
                <g id="Group-19">
                    <g id="Page-1">
                        <mask id="mask-2" fill="white">
                            <use xlink:href="#path-1"></use>
                        </mask>
                        <g id="Clip-2"></g>
                        <path d="M19.9272004,24.4085343 C17.8910235,21.48939 14.8971645,21.3825667 14.8971645,21.3825667 L15.0350848,20.7669861 C16.1832452,20.1647801 16.9142935,19.005703 17.3539808,18.0175434 L17.35839,18.0175434 L17.355039,18.0133746 L17.35839,18.0076426 L17.3539808,18.0076426 C16.926463,17.0149669 16.2125224,15.8463365 15.0712404,15.2305822 L14.9419621,14.6127435 C14.9419621,14.6127435 17.9377612,14.5446545 20.0132683,11.6524332 C20.0132683,11.6524332 21.3679565,9.63651102 20.5843502,6.59386851 C20.5843502,6.59386851 23.1702684,1.02046724 15.4421438,0 C15.4421438,0 16.0546724,2.11788206 13.6825131,2.71835104 C13.6825131,2.71835104 9.30292506,2.5137365 9.18264159,7.00344498 C9.18264159,7.00344498 4.52915292,7.72081174 4.28788051,10.4045972 C4.28788051,10.4045972 6.47238347,11.255884 6.41065442,13.633095 C6.41065442,13.633095 6.25809548,16.4049446 3.26353098,16.4299569 C3.26353098,16.4299569 1.38784964,16.1520424 1.53511752,14.3042585 C1.53511752,14.3042585 1.8104291,13.2933445 2.83654231,13.3881828 C2.83654231,13.3881828 3.63972546,13.5703905 3.27517132,14.756738 C3.27517132,14.756738 4.83815091,14.8545291 4.40375476,12.914165 C4.40375476,12.914165 3.8779996,11.4139478 1.90778463,11.8858814 C1.90778463,11.8858814 -0.646210805,12.7937932 0.227872572,15.7058159 C0.227872572,15.7058159 1.72700669,18.8399965 5.22422204,17.4108213 C5.22422204,17.4108213 8.40767744,15.979388 7.84770675,12.8057783 C7.84770675,12.8057783 7.45810825,10.7770026 6.12352614,10.0209015 C6.12352614,10.0209015 7.11665841,8.39874938 9.44049266,8.45797991 C9.44049266,8.45797991 11.0763125,11.1089367 13.4911531,10.9937759 C13.4911531,10.9937759 16.8936584,10.4440263 16.6448021,7.31557769 C16.6448021,7.31557769 16.2546745,5.68456706 14.6458391,5.63020004 C14.6458391,5.63020004 13.6643471,5.40335234 13.1188387,6.63225545 C13.1188387,6.63225545 15.1327931,6.20548302 14.9865834,8.18614481 C14.9865834,8.18614481 13.6722837,10.7302782 11.1854848,8.33708711 C11.1854848,8.33708711 9.54596116,6.30136352 11.9722656,4.42266161 C11.9722656,4.42266161 13.2710449,3.99241525 14.3433667,3.9545494 C14.3433667,3.9545494 16.5373936,3.39698347 16.9968341,1.68329329 C16.9968341,1.68329329 20.9256237,2.54517558 19.1083204,6.5841415 C19.1083204,6.5841415 20.2982802,9.23353501 18.1822083,11.4200272 C18.1822083,11.4200272 16.2024694,13.344585 13.8791642,13.1529977 C13.8791642,13.1529977 11.7489828,10.8496077 9.32250199,12.7277886 C9.32250199,12.7277886 7.38897171,14.5628926 8.84842287,16.7740497 C8.84842287,16.7740497 10.490592,18.457343 12.0211198,16.9270764 C12.0211198,16.9270764 12.9668089,15.8320933 12.0348765,14.7702863 C12.0348765,14.7702863 11.8440456,16.6178965 10.2842406,15.990852 C10.2842406,15.990852 9.03925382,14.9267869 10.4336249,13.7461714 C10.4336249,13.7461714 11.6458071,12.9179863 12.9318878,14.2917523 C12.9318878,14.2917523 13.5527057,15.3078771 13.5452983,16.3196596 C13.5452983,16.3196596 14.6558921,16.5892366 15.3544886,17.9998263 C14.6379025,19.4025997 13.5220176,19.6553281 13.5220176,19.6553281 C13.5151392,20.6685001 12.8830337,21.6768086 12.8830337,21.6768086 C11.5771997,23.0325102 10.3763051,22.1885187 10.3763051,22.1885187 C8.99815991,20.9905335 10.2572562,19.9427959 10.2572562,19.9427959 C11.8258796,19.336595 11.9918426,21.1862896 11.9918426,21.1862896 C12.9387662,20.1364676 12.0057757,19.028631 12.0057757,19.028631 C10.4969413,17.4792577 8.83237332,19.1411863 8.83237332,19.1411863 C7.34258674,21.3328894 9.25177813,23.1938743 9.25177813,23.1938743 C11.6526855,25.1021046 13.8132023,22.827722 13.8132023,22.827722 C16.1388003,22.6665316 18.0931421,24.6157543 18.0931421,24.6157543 C20.1797604,26.8310801 18.9532923,29.4637987 18.9532923,29.4637987 C20.7150395,33.5262137 16.7767259,34.3361607 16.7767259,34.3361607 C16.3396843,32.6172596 14.153594,32.0298179 14.153594,32.0298179 C13.0812721,31.9789248 11.787784,31.5297455 11.787784,31.5297455 C9.38740568,29.6218626 11.0540901,27.6081985 11.0540901,27.6081985 C13.5735172,25.2467939 14.8527196,27.8081232 14.8527196,27.8081232 C14.9738849,29.7908694 12.9638106,29.3375214 12.9638106,29.3375214 C13.4927404,30.5737197 14.4774069,30.360073 14.4774069,30.360073 C16.0873006,30.3265495 16.5001798,28.6997076 16.5001798,28.6997076 C16.7904827,25.5761225 13.3976776,24.9819066 13.3976776,24.9819066 C10.9838953,24.8340908 9.3122726,27.4636829 9.3122726,27.4636829 C6.9875565,27.492864 6.01629396,25.8571635 6.01629396,25.8571635 C7.36128182,25.1173899 7.77804111,23.0952147 7.77804111,23.0952147 C8.38034029,19.9302898 5.21663819,18.4568219 5.21663819,18.4568219 C1.73917613,16.9804012 0.198066258,20.09617 0.198066258,20.09617 C-0.715347343,22.9958602 1.82683139,23.9372955 1.82683139,23.9372955 C3.78981524,24.4331992 4.3358528,22.9409721 4.3358528,22.9409721 C4.79617516,21.0072084 3.23213735,21.0851982 3.23213735,21.0851982 C3.58081831,22.2764091 2.77534236,22.4466317 2.77534236,22.4466317 C1.74764183,22.5282691 1.48661613,21.5130128 1.48661613,21.5130128 C1.3643926,19.6633182 3.24307221,19.4118056 3.24307221,19.4118056 C6.23746034,19.4753785 6.35210001,22.2501809 6.35210001,22.2501809 C6.38155358,24.6268709 4.18629212,25.4488029 4.18629212,25.4488029 C4.39105621,28.1364097 9.03378639,28.9149176 9.03378639,28.9149176 C9.09339902,33.4053209 13.4745744,33.2580262 13.4745744,33.2580262 C15.8398553,33.8916713 15.1998132,36 15.1998132,36 C22.9388726,35.0821874 20.4291458,29.4742205 20.4291458,29.4742205 C21.2550805,26.4419998 19.9272004,24.4085343 19.9272004,24.4085343" id="Fill-1" fill="#9D7747" mask="url(#mask-2)"></path>
                    </g>
                </g>
            </g>
        </g>
    </g>
</svg>