<?xml version="1.0" encoding="UTF-8"?>
<svg width="90px" height="225px" viewBox="0 0 90 225" version="1.1" xmlns="http://www.w3.org/2000/svg" xmlns:xlink="http://www.w3.org/1999/xlink">
    <!-- Generator: Sketch 52.2 (67145) - http://www.bohemiancoding.com/sketch -->
    <title>切片</title>
    <desc>Created with Sketch.</desc>
    <defs>
        <polygon id="path-1" points="0 0 31 0 31 41 0 41"></polygon>
        <polygon id="path-3" points="0 0 31 0 31 41 0 41"></polygon>
        <polygon id="path-5" points="0 0 34 0 34 28 0 28"></polygon>
        <polygon id="path-7" points="0 0 34 0 34 28 0 28"></polygon>
        <polygon id="path-9" points="0 0.057152501 26.9999862 0.057152501 26.9999862 7 0 7"></polygon>
        <polygon id="path-11" points="0.257186442 0.189375 24.740646 0.189375 24.740646 2.88939414 0.257186442 2.88939414"></polygon>
        <polygon id="path-13" points="0 0.057152501 26.9999862 0.057152501 26.9999862 7 0 7"></polygon>
        <polygon id="path-15" points="0.257186442 0.189375 24.740646 0.189375 24.740646 2.88939414 0.257186442 2.88939414"></polygon>
        <polygon id="path-17" points="0 0 34 0 34 32 0 32"></polygon>
        <polygon id="path-19" points="0 0 34 0 34 32 0 32"></polygon>
    </defs>
    <g id="1.10" stroke="none" stroke-width="1" fill="none" fill-rule="evenodd">
        <g id="分组-2" transform="translate(4.000000, 9.000000)">
            <g id="Page-1" transform="translate(0.000000, 133.000000)" fill="#FFFFFF">
                <path d="M19.25,21 C21.25,21 23,19.1333333 23,17 L13,17 C13,19.1333333 14.75,21 16.75,21 L19.25,21 Z" id="Fill-1"></path>
                <path d="M33.4285714,11.52 L31.8857143,11.52 C30.6,4.864 24.9428571,0 18,0 C11.0571429,0 5.4,4.864 4.11428571,11.52 L2.57142857,11.52 C1.02857143,11.52 0,12.544 0,14.08 L0,19.2 C0,20.736 1.02857143,21.76 2.57142857,21.76 L5.14285714,21.76 C6.68571429,21.76 7.71428571,20.736 7.71428571,19.2 L7.71428571,14.08 C7.71428571,8.448 12.3428571,3.84 18,3.84 C23.6571429,3.84 28.2857143,8.448 28.2857143,14.08 L28.2857143,19.2 C28.2857143,20.48 29.3142857,21.504 30.6,21.76 C28.8,25.344 25.7142857,27.904 21.8571429,28.928 C21.6,27.648 20.0571429,26.88 18,26.88 C15.9428571,26.88 14.1428571,27.904 14.1428571,29.44 C14.1428571,30.976 15.9428571,32 18,32 C24.9428571,32 30.8571429,27.648 33.4285714,21.76 C34.9714286,21.76 36,20.736 36,19.2 L36,14.08 C36,12.544 34.9714286,11.52 33.4285714,11.52" id="Fill-3"></path>
            </g>
            <g id="Page-1-Copy-16" transform="translate(45.000000, 133.000000)" fill="#7FAEF4">
                <path d="M19.25,21 C21.25,21 23,19.1333333 23,17 L13,17 C13,19.1333333 14.75,21 16.75,21 L19.25,21 Z" id="Fill-1"></path>
                <path d="M33.4285714,11.52 L31.8857143,11.52 C30.6,4.864 24.9428571,0 18,0 C11.0571429,0 5.4,4.864 4.11428571,11.52 L2.57142857,11.52 C1.02857143,11.52 0,12.544 0,14.08 L0,19.2 C0,20.736 1.02857143,21.76 2.57142857,21.76 L5.14285714,21.76 C6.68571429,21.76 7.71428571,20.736 7.71428571,19.2 L7.71428571,14.08 C7.71428571,8.448 12.3428571,3.84 18,3.84 C23.6571429,3.84 28.2857143,8.448 28.2857143,14.08 L28.2857143,19.2 C28.2857143,20.48 29.3142857,21.504 30.6,21.76 C28.8,25.344 25.7142857,27.904 21.8571429,28.928 C21.6,27.648 20.0571429,26.88 18,26.88 C15.9428571,26.88 14.1428571,27.904 14.1428571,29.44 C14.1428571,30.976 15.9428571,32 18,32 C24.9428571,32 30.8571429,27.648 33.4285714,21.76 C34.9714286,21.76 36,20.736 36,19.2 L36,14.08 C36,12.544 34.9714286,11.52 33.4285714,11.52" id="Fill-3"></path>
            </g>
            <g id="Page-1" transform="translate(3.000000, 173.000000)">
                <mask id="mask-2" fill="white">
                    <use xlink:href="#path-1"></use>
                </mask>
                <g id="Clip-2"></g>
                <path d="M16.8433242,30.2322176 C16.3874159,30.2078311 16.0374569,29.8178034 16.0618114,29.3612954 C16.0844594,28.9388042 16.4213879,28.6014325 16.8433242,28.5787547 L30.1994691,28.5787547 C30.6553775,28.6032965 31.0053364,28.9930135 30.980982,29.4496769 C30.958334,29.8721681 30.6212503,30.2095398 30.1994691,30.2322176 L16.8433242,30.2322176 Z M23.0661088,5.00001646 C21.9693847,4.99690991 20.9168709,5.43353595 20.1435795,6.21234882 L18.1362797,8.22306533 L24.6840483,14.8547796 L26.7658075,12.8440631 C27.5460794,12.0635416 27.9773231,11.0251763 27.9773231,9.9184667 C27.9773231,8.81175715 27.546855,7.77416841 26.7658075,6.99287029 L25.9870868,6.21234882 C25.2142609,5.43369128 24.1625227,4.99706524 23.0661088,5.00001646 Z M3.94712088,22.4301094 L10.4956651,29.0618237 L23.5168981,16.0981775 L16.9309691,9.42840795 L3.94712088,22.4302647 L3.94712088,22.4301094 Z M2.83953813,23.8319415 C1.831855,25.7906233 0.722100518,30.0038859 0.017839218,33.2937257 L0,33.3783793 L0.0829911444,33.3558568 C3.23355216,32.5194173 7.27995216,31.2465072 9.18719725,30.1856193 L9.24847108,30.1514472 L2.87211409,23.7667039 L2.83953813,23.8319415 Z M10.4964407,35 C10.0405324,34.9756136 9.69057344,34.5855858 9.71492785,34.1290778 C9.7375759,33.7065866 10.0745044,33.3690596 10.4964407,33.3465371 L30.1994691,33.3465371 C30.6553775,33.3606719 31.0137131,33.742312 30.9995968,34.1988199 C30.9861011,34.6356013 30.6356768,34.9864865 30.1994691,35 L10.4964407,35 Z" id="Fill-1" fill="#FFFFFF" mask="url(#mask-2)"></path>
            </g>
            <g id="Page-1-Copy-17" transform="translate(48.000000, 173.000000)">
                <mask id="mask-4" fill="white">
                    <use xlink:href="#path-3"></use>
                </mask>
                <g id="Clip-2"></g>
                <path d="M16.8433242,30.2322176 C16.3874159,30.2078311 16.0374569,29.8178034 16.0618114,29.3612954 C16.0844594,28.9388042 16.4213879,28.6014325 16.8433242,28.5787547 L30.1994691,28.5787547 C30.6553775,28.6032965 31.0053364,28.9930135 30.980982,29.4496769 C30.958334,29.8721681 30.6212503,30.2095398 30.1994691,30.2322176 L16.8433242,30.2322176 Z M23.0661088,5.00001646 C21.9693847,4.99690991 20.9168709,5.43353595 20.1435795,6.21234882 L18.1362797,8.22306533 L24.6840483,14.8547796 L26.7658075,12.8440631 C27.5460794,12.0635416 27.9773231,11.0251763 27.9773231,9.9184667 C27.9773231,8.81175715 27.546855,7.77416841 26.7658075,6.99287029 L25.9870868,6.21234882 C25.2142609,5.43369128 24.1625227,4.99706524 23.0661088,5.00001646 Z M3.94712088,22.4301094 L10.4956651,29.0618237 L23.5168981,16.0981775 L16.9309691,9.42840795 L3.94712088,22.4302647 L3.94712088,22.4301094 Z M2.83953813,23.8319415 C1.831855,25.7906233 0.722100518,30.0038859 0.017839218,33.2937257 L0,33.3783793 L0.0829911444,33.3558568 C3.23355216,32.5194173 7.27995216,31.2465072 9.18719725,30.1856193 L9.24847108,30.1514472 L2.87211409,23.7667039 L2.83953813,23.8319415 Z M10.4964407,35 C10.0405324,34.9756136 9.69057344,34.5855858 9.71492785,34.1290778 C9.7375759,33.7065866 10.0745044,33.3690596 10.4964407,33.3465371 L30.1994691,33.3465371 C30.6553775,33.3606719 31.0137131,33.742312 30.9995968,34.1988199 C30.9861011,34.6356013 30.6356768,34.9864865 30.1994691,35 L10.4964407,35 Z" id="Fill-1" fill="#7FAEF4" mask="url(#mask-4)"></path>
            </g>
            <g id="Page-1" transform="translate(1.000000, 45.000000)">
                <mask id="mask-6" fill="white">
                    <use xlink:href="#path-5"></use>
                </mask>
                <g id="Clip-2"></g>
                <path d="M27.2402184,0.225587897 C25.2619886,-0.25214684 23.2274125,0.159989022 22.6568215,0.272644156 C22.6121858,0.277017414 22.5709444,0.319525485 22.5305516,0.328272001 C22.5105249,0.33264526 22.4988143,0.353461969 22.4988143,0.353461969 C21.9365395,0.517546621 21.5261621,1.05423288 21.5261621,1.68730575 C21.5261621,2.44178027 22.1201741,3.06278295 22.8604828,3.06278295 C22.8604828,3.06278295 23.5807648,2.96307266 24.0687033,2.76627604 C24.5534171,2.56528109 28.6510819,2.61671061 30.6866763,6.14050722 C31.7973091,8.7119831 31.1746147,10.4327728 31.0972235,10.7093376 C31.0972235,10.7093376 30.832973,11.3773966 30.832973,12.0356594 C30.832973,12.7953818 31.426985,13.272067 32.1632205,13.272067 C32.7784472,13.272067 33.295068,13.1856514 33.4466259,12.1131535 L33.4551118,12.1131535 C35.6402275,4.60426904 30.7810393,1.07714875 27.2402184,0.225587897 M27.9075485,11.2887069 C28.3593371,11.2887069 28.74239,10.9442691 28.8068828,10.4960976 C28.8153686,10.462336 28.818763,10.4327728 28.818763,10.3956875 C29.5028951,4.05761175 23.7801832,5.14882716 23.7801832,5.14882716 C23.2720483,5.14882716 22.8647258,5.57285829 22.8647258,6.10097296 C22.8647258,6.62156563 23.2720483,7.04454717 23.7801832,7.04454717 C27.8905768,6.1086699 26.9836052,10.3453076 26.9836052,10.3453076 C26.9836052,10.869049 27.397377,11.2887069 27.9075485,11.2887069 M14.1030482,19.6734676 C13.7488473,19.9467087 13.3128425,19.9085739 13.126153,19.5814542 C12.9309776,19.2623813 13.0041259,18.7505351 13.3625698,18.4816672 C13.7775296,18.1636439 14.2091218,18.2553074 14.3958113,18.5747302 C14.5825008,18.9016749 14.4489329,19.3923545 14.1030482,19.6734676 M10.8022082,22.5729378 C9.7560681,22.6997623 8.91409846,22.0777101 8.91409846,21.1757693 C8.91409846,20.2780268 9.66289307,19.3377763 10.7086937,19.2261707 C11.9106346,19.1080927 12.6911664,19.8211088 12.6911664,20.7230496 C12.6903179,21.6206171 11.8435961,22.4504866 10.8022082,22.5729378 M12.2139202,14.9841102 C6.61425357,15.659866 7.26121754,21.0664378 7.26121754,21.0664378 C7.26121754,21.0664378 7.20402266,22.778481 8.7622011,23.6498089 C12.0389412,25.4788805 15.4130993,24.3713966 17.1175744,22.1029 C18.8232376,19.8342285 17.8220727,14.3129025 12.2139202,14.9841102 M13.324553,26.0715445 C7.75662358,26.3404124 3.25604894,23.4617588 3.25604894,19.6320091 C3.25604894,15.7985858 7.75662358,12.7231356 13.324553,12.458641 C18.8965556,12.1941463 23.4056162,14.5599041 23.4056162,18.3865051 C23.4056162,22.2164298 18.8965556,25.8101985 13.324553,26.0715445 M25.1803544,13.6296246 C23.8575745,13.364955 24.5002955,12.6314721 24.5002955,12.6314721 C24.5002955,12.6314721 25.7943931,10.4327728 24.2448703,8.8342594 C22.3236657,6.85527255 17.6554099,9.0868588 17.6554099,9.0868588 C15.8725252,9.65643196 16.3445102,8.8267374 16.5968805,7.41295045 C16.5968805,5.74778862 16.0430915,2.92931111 11.2932015,4.59447294 C6.54857281,6.26838129 2.47415938,12.1318711 2.47415938,12.1318711 C-0.358938609,16.0282693 0.0164769992,19.0403947 0.0164769992,19.0403947 C0.724030196,25.6887969 7.57841997,27.5147197 12.9087446,27.9466227 C18.5177457,28.400217 26.0873259,25.9545161 28.3825884,20.9285927 C30.6781904,15.8937479 26.5073773,13.9018162 25.1803544,13.6296246" id="Fill-1" fill="#FFFFFF" mask="url(#mask-6)"></path>
            </g>
            <g id="Page-1-Copy-19" transform="translate(46.000000, 45.000000)">
                <mask id="mask-8" fill="white">
                    <use xlink:href="#path-7"></use>
                </mask>
                <g id="Clip-2"></g>
                <path d="M27.2402184,0.225587897 C25.2619886,-0.25214684 23.2274125,0.159989022 22.6568215,0.272644156 C22.6121858,0.277017414 22.5709444,0.319525485 22.5305516,0.328272001 C22.5105249,0.33264526 22.4988143,0.353461969 22.4988143,0.353461969 C21.9365395,0.517546621 21.5261621,1.05423288 21.5261621,1.68730575 C21.5261621,2.44178027 22.1201741,3.06278295 22.8604828,3.06278295 C22.8604828,3.06278295 23.5807648,2.96307266 24.0687033,2.76627604 C24.5534171,2.56528109 28.6510819,2.61671061 30.6866763,6.14050722 C31.7973091,8.7119831 31.1746147,10.4327728 31.0972235,10.7093376 C31.0972235,10.7093376 30.832973,11.3773966 30.832973,12.0356594 C30.832973,12.7953818 31.426985,13.272067 32.1632205,13.272067 C32.7784472,13.272067 33.295068,13.1856514 33.4466259,12.1131535 L33.4551118,12.1131535 C35.6402275,4.60426904 30.7810393,1.07714875 27.2402184,0.225587897 M27.9075485,11.2887069 C28.3593371,11.2887069 28.74239,10.9442691 28.8068828,10.4960976 C28.8153686,10.462336 28.818763,10.4327728 28.818763,10.3956875 C29.5028951,4.05761175 23.7801832,5.14882716 23.7801832,5.14882716 C23.2720483,5.14882716 22.8647258,5.57285829 22.8647258,6.10097296 C22.8647258,6.62156563 23.2720483,7.04454717 23.7801832,7.04454717 C27.8905768,6.1086699 26.9836052,10.3453076 26.9836052,10.3453076 C26.9836052,10.869049 27.397377,11.2887069 27.9075485,11.2887069 M14.1030482,19.6734676 C13.7488473,19.9467087 13.3128425,19.9085739 13.126153,19.5814542 C12.9309776,19.2623813 13.0041259,18.7505351 13.3625698,18.4816672 C13.7775296,18.1636439 14.2091218,18.2553074 14.3958113,18.5747302 C14.5825008,18.9016749 14.4489329,19.3923545 14.1030482,19.6734676 M10.8022082,22.5729378 C9.7560681,22.6997623 8.91409846,22.0777101 8.91409846,21.1757693 C8.91409846,20.2780268 9.66289307,19.3377763 10.7086937,19.2261707 C11.9106346,19.1080927 12.6911664,19.8211088 12.6911664,20.7230496 C12.6903179,21.6206171 11.8435961,22.4504866 10.8022082,22.5729378 M12.2139202,14.9841102 C6.61425357,15.659866 7.26121754,21.0664378 7.26121754,21.0664378 C7.26121754,21.0664378 7.20402266,22.778481 8.7622011,23.6498089 C12.0389412,25.4788805 15.4130993,24.3713966 17.1175744,22.1029 C18.8232376,19.8342285 17.8220727,14.3129025 12.2139202,14.9841102 M13.324553,26.0715445 C7.75662358,26.3404124 3.25604894,23.4617588 3.25604894,19.6320091 C3.25604894,15.7985858 7.75662358,12.7231356 13.324553,12.458641 C18.8965556,12.1941463 23.4056162,14.5599041 23.4056162,18.3865051 C23.4056162,22.2164298 18.8965556,25.8101985 13.324553,26.0715445 M25.1803544,13.6296246 C23.8575745,13.364955 24.5002955,12.6314721 24.5002955,12.6314721 C24.5002955,12.6314721 25.7943931,10.4327728 24.2448703,8.8342594 C22.3236657,6.85527255 17.6554099,9.0868588 17.6554099,9.0868588 C15.8725252,9.65643196 16.3445102,8.8267374 16.5968805,7.41295045 C16.5968805,5.74778862 16.0430915,2.92931111 11.2932015,4.59447294 C6.54857281,6.26838129 2.47415938,12.1318711 2.47415938,12.1318711 C-0.358938609,16.0282693 0.0164769992,19.0403947 0.0164769992,19.0403947 C0.724030196,25.6887969 7.57841997,27.5147197 12.9087446,27.9466227 C18.5177457,28.400217 26.0873259,25.9545161 28.3825884,20.9285927 C30.6781904,15.8937479 26.5073773,13.9018162 25.1803544,13.6296246" id="Fill-1" fill="#7FAEF4" mask="url(#mask-8)"></path>
            </g>
            <g id="分组" transform="translate(50.000000, 0.000000)">
                <path d="M22.2492589,13.5271275 C22.1941034,14.7631813 21.788129,15.2128636 20.5683298,15.2472196 C18.8945297,15.2945546 17.2181032,15.2613437 15.5428023,15.2621072 C14.8404141,15.2624889 14.1376506,15.2624889 13.4352624,15.2624889 C11.2196629,15.2621072 9.00368814,15.2769948 6.7880886,15.2571447 C5.07676776,15.2414936 4.73157698,14.8666311 4.7071885,13.0988223 C4.69893393,12.4941561 4.67567108,11.8868178 4.71844472,11.2848237 C4.79273578,10.2438359 5.2058391,9.76056104 6.23765938,9.7533081 C11.0470675,9.71971553 15.8568508,9.7193338 20.666259,9.7498725 C21.786253,9.75712544 22.1899761,10.2327656 22.2481333,11.3836928 C22.2845284,12.0963896 22.2811515,12.8136672 22.2492589,13.5271275 M21.1885476,7.01131489 C18.6491441,6.98955607 16.1101158,7.00635235 13.5703371,7.00635235 C10.9772789,7.00635235 8.38347035,6.98917434 5.79041219,7.01131489 C3.2521343,7.03269198 2.05634839,8.26950919 2.01657641,10.8782773 C1.99894167,12.0322583 1.98881107,13.1873845 2.02070369,14.3409838 C2.08448895,16.6348216 3.32417411,17.9598193 5.54052407,17.9743252 C10.8350753,18.0094447 16.1300018,18.007536 21.4249283,17.9747069 C23.5767426,17.9613462 24.8468195,16.6909365 24.9552545,14.5127639 C25.0182893,13.2515158 25.0074083,11.9837781 24.9676363,10.7206213 C24.8907188,8.24431476 23.6544105,7.03231024 21.1885476,7.01131489" id="Fill-1" fill="#7FAEF4"></path>
                <g transform="translate(0.000000, 19.000000)">
                    <mask id="mask-10" fill="white">
                        <use xlink:href="#path-9"></use>
                    </mask>
                    <g id="Clip-4"></g>
                    <path d="M25.025025,4.49974 C23.72865,4.48539 22.4319,4.50569 21.135525,4.48889 C20.79915,4.48434 20.4639,4.39754 20.03265,4.33419 C20.3049,3.84489 20.4954,3.48754 20.70015,3.13754 C20.906775,2.78369 21.12765,2.43719 21.341775,2.08684 C21.6639,1.55869 21.7119,1.03579 21.27465,0.54054 C20.6259,-0.19411 19.65465,-0.09086 19.0059,0.84679 C18.362025,1.77744 17.7804,2.74764 17.218275,3.72344 C16.90215,4.27154 16.50765,4.52704 15.8124,4.50814 C14.246775,4.46509 12.6789,4.47454 11.1129,4.50429 C10.494525,4.51584 10.1139,4.30514 9.8229,3.80149 C9.28515,2.87049 8.7129,1.95524 8.1219,1.05259 C7.499775,0.10304 6.90315,-0.13601 6.170025,0.20874 C5.345025,0.59689 5.195775,1.28114 5.753775,2.26919 C6.12615,2.92789 6.534525,3.56839 7.095525,4.49589 C5.731275,4.49589 4.71015,4.49484 3.689025,4.49624 C2.933025,4.49729 2.1744,4.46789 1.4214,4.51304 C0.5319,4.56589 0.0384,5.00549 0.002025,5.68204 C-0.037725,6.41914 0.487275,6.90144 1.45365,6.98194 C1.829025,7.01344 2.209275,6.99419 2.587275,6.99419 C9.826275,6.99454 17.0649,6.99454 24.3039,6.99454 C24.5199,6.99454 24.7359,6.99699 24.952275,6.99349 C26.333025,6.97004 26.970525,6.59064 26.999025,5.77654 C27.028275,4.93899 26.3904,4.51479 25.025025,4.49974" id="Fill-3" fill="#7FAEF4" mask="url(#mask-10)"></path>
                </g>
                <g transform="translate(1.000000, 0.000000)">
                    <mask id="mask-12" fill="white">
                        <use xlink:href="#path-11"></use>
                    </mask>
                    <g id="Clip-6"></g>
                    <path d="M2.33636364,2.87745 C5.71931818,2.8902 9.10189394,2.8812 12.4848485,2.881575 C14.6674242,2.88195 16.8496212,2.88345 19.032197,2.881575 C20.4507576,2.880075 21.8708333,2.91195 23.2875,2.856825 C24.2852273,2.8182 24.7825758,2.283825 24.7378788,1.47645 C24.6969697,0.743325 24.2049242,0.2967 23.3170455,0.20295 C23.1007576,0.180075 22.8806818,0.19245 22.6625,0.19245 C15.8969697,0.192075 9.13068182,0.1887 2.36515152,0.19545 C0.86969697,0.19695 0.217045455,0.652575 0.259090909,1.60845 C0.297727273,2.493075 0.882954545,2.871825 2.33636364,2.87745" id="Fill-5" fill="#7FAEF4" mask="url(#mask-12)"></path>
                </g>
            </g>
            <g id="分组-copy" transform="translate(5.000000, 0.000000)">
                <path d="M22.2492589,13.5271275 C22.1941034,14.7631813 21.788129,15.2128636 20.5683298,15.2472196 C18.8945297,15.2945546 17.2181032,15.2613437 15.5428023,15.2621072 C14.8404141,15.2624889 14.1376506,15.2624889 13.4352624,15.2624889 C11.2196629,15.2621072 9.00368814,15.2769948 6.7880886,15.2571447 C5.07676776,15.2414936 4.73157698,14.8666311 4.7071885,13.0988223 C4.69893393,12.4941561 4.67567108,11.8868178 4.71844472,11.2848237 C4.79273578,10.2438359 5.2058391,9.76056104 6.23765938,9.7533081 C11.0470675,9.71971553 15.8568508,9.7193338 20.666259,9.7498725 C21.786253,9.75712544 22.1899761,10.2327656 22.2481333,11.3836928 C22.2845284,12.0963896 22.2811515,12.8136672 22.2492589,13.5271275 M21.1885476,7.01131489 C18.6491441,6.98955607 16.1101158,7.00635235 13.5703371,7.00635235 C10.9772789,7.00635235 8.38347035,6.98917434 5.79041219,7.01131489 C3.2521343,7.03269198 2.05634839,8.26950919 2.01657641,10.8782773 C1.99894167,12.0322583 1.98881107,13.1873845 2.02070369,14.3409838 C2.08448895,16.6348216 3.32417411,17.9598193 5.54052407,17.9743252 C10.8350753,18.0094447 16.1300018,18.007536 21.4249283,17.9747069 C23.5767426,17.9613462 24.8468195,16.6909365 24.9552545,14.5127639 C25.0182893,13.2515158 25.0074083,11.9837781 24.9676363,10.7206213 C24.8907188,8.24431476 23.6544105,7.03231024 21.1885476,7.01131489" id="Fill-1" fill="#FFFFFF"></path>
                <g id="分组" transform="translate(0.000000, 19.000000)">
                    <mask id="mask-14" fill="white">
                        <use xlink:href="#path-13"></use>
                    </mask>
                    <g id="Clip-4"></g>
                    <path d="M25.025025,4.49974 C23.72865,4.48539 22.4319,4.50569 21.135525,4.48889 C20.79915,4.48434 20.4639,4.39754 20.03265,4.33419 C20.3049,3.84489 20.4954,3.48754 20.70015,3.13754 C20.906775,2.78369 21.12765,2.43719 21.341775,2.08684 C21.6639,1.55869 21.7119,1.03579 21.27465,0.54054 C20.6259,-0.19411 19.65465,-0.09086 19.0059,0.84679 C18.362025,1.77744 17.7804,2.74764 17.218275,3.72344 C16.90215,4.27154 16.50765,4.52704 15.8124,4.50814 C14.246775,4.46509 12.6789,4.47454 11.1129,4.50429 C10.494525,4.51584 10.1139,4.30514 9.8229,3.80149 C9.28515,2.87049 8.7129,1.95524 8.1219,1.05259 C7.499775,0.10304 6.90315,-0.13601 6.170025,0.20874 C5.345025,0.59689 5.195775,1.28114 5.753775,2.26919 C6.12615,2.92789 6.534525,3.56839 7.095525,4.49589 C5.731275,4.49589 4.71015,4.49484 3.689025,4.49624 C2.933025,4.49729 2.1744,4.46789 1.4214,4.51304 C0.5319,4.56589 0.0384,5.00549 0.002025,5.68204 C-0.037725,6.41914 0.487275,6.90144 1.45365,6.98194 C1.829025,7.01344 2.209275,6.99419 2.587275,6.99419 C9.826275,6.99454 17.0649,6.99454 24.3039,6.99454 C24.5199,6.99454 24.7359,6.99699 24.952275,6.99349 C26.333025,6.97004 26.970525,6.59064 26.999025,5.77654 C27.028275,4.93899 26.3904,4.51479 25.025025,4.49974" id="Fill-3" fill="#FFFFFF" mask="url(#mask-14)"></path>
                </g>
                <g id="分组" transform="translate(1.000000, 0.000000)">
                    <mask id="mask-16" fill="white">
                        <use xlink:href="#path-15"></use>
                    </mask>
                    <g id="Clip-6"></g>
                    <path d="M2.33636364,2.87745 C5.71931818,2.8902 9.10189394,2.8812 12.4848485,2.881575 C14.6674242,2.88195 16.8496212,2.88345 19.032197,2.881575 C20.4507576,2.880075 21.8708333,2.91195 23.2875,2.856825 C24.2852273,2.8182 24.7825758,2.283825 24.7378788,1.47645 C24.6969697,0.743325 24.2049242,0.2967 23.3170455,0.20295 C23.1007576,0.180075 22.8806818,0.19245 22.6625,0.19245 C15.8969697,0.192075 9.13068182,0.1887 2.36515152,0.19545 C0.86969697,0.19695 0.217045455,0.652575 0.259090909,1.60845 C0.297727273,2.493075 0.882954545,2.871825 2.33636364,2.87745" id="Fill-5" fill="#FFFFFF" mask="url(#mask-16)"></path>
                </g>
            </g>
            <g id="Page-1" transform="translate(1.000000, 88.000000)">
                <mask id="mask-18" fill="white">
                    <use xlink:href="#path-17"></use>
                </mask>
                <g id="Clip-2"></g>
                <path d="M6.5007031,31.9453165 C5.88802353,31.4581649 8.50602168,20.3894548 8.50602168,20.3894548 C8.50602168,20.3894548 -0.350972053,13.0979763 0.0107876913,12.2019803 C0.373907434,11.3078328 11.7518294,10.5155182 11.7518294,10.5155182 C11.7518294,10.5155182 15.9800664,0 17.0019357,0 C18.0246549,0 22.2522119,10.5141739 22.2522119,10.5141739 C22.2522119,10.5141739 33.6796038,11.3120338 33.9917236,12.200468 C34.3072434,13.092599 25.4964896,20.3876064 25.4964896,20.3876064 C25.4964896,20.3876064 25.6074996,21.094724 25.7339795,21.6215334 C25.7426495,21.6578303 21.6211724,21.7492448 18.2422548,21.6215334 C16.470346,21.5543169 14.3342975,21.2303333 14.3342975,21.2303333 L24.1133706,14.3394652 C24.1133706,14.3394652 20.5766931,13.7108228 17.0000657,13.5858001 C13.0858184,13.4488465 9.07722127,13.8192095 8.50398168,13.9615404 C8.14579193,14.0529549 11.0364699,14.0450569 14.3315776,14.3399693 C16.6422159,14.5471642 19.6797738,15.096155 19.6797738,15.096155 L9.90138069,22.2911778 C9.90138069,22.2911778 14.0922177,22.5417274 17.8458151,22.5175294 C22.0760921,22.4894665 25.8888494,21.9670262 25.9126493,22.0693634 C26.6470488,25.2169443 28.0029679,31.4378319 27.5011282,31.9461567 C26.8143287,32.6349579 17.0000657,26.4875043 17.0000657,26.4875043 C17.0000657,26.4875043 7.87226212,31.9722031 6.61358302,31.9722031 C6.57431304,31.9740516 6.53504307,31.9646413 6.5007031,31.9453165" id="Fill-1" fill="#FFFFFF" mask="url(#mask-18)"></path>
            </g>
            <g id="Page-1-Copy-20" transform="translate(46.000000, 88.000000)">
                <mask id="mask-20" fill="white">
                    <use xlink:href="#path-19"></use>
                </mask>
                <g id="Clip-2"></g>
                <path d="M6.5007031,31.9453165 C5.88802353,31.4581649 8.50602168,20.3894548 8.50602168,20.3894548 C8.50602168,20.3894548 -0.350972053,13.0979763 0.0107876913,12.2019803 C0.373907434,11.3078328 11.7518294,10.5155182 11.7518294,10.5155182 C11.7518294,10.5155182 15.9800664,0 17.0019357,0 C18.0246549,0 22.2522119,10.5141739 22.2522119,10.5141739 C22.2522119,10.5141739 33.6796038,11.3120338 33.9917236,12.200468 C34.3072434,13.092599 25.4964896,20.3876064 25.4964896,20.3876064 C25.4964896,20.3876064 25.6074996,21.094724 25.7339795,21.6215334 C25.7426495,21.6578303 21.6211724,21.7492448 18.2422548,21.6215334 C16.470346,21.5543169 14.3342975,21.2303333 14.3342975,21.2303333 L24.1133706,14.3394652 C24.1133706,14.3394652 20.5766931,13.7108228 17.0000657,13.5858001 C13.0858184,13.4488465 9.07722127,13.8192095 8.50398168,13.9615404 C8.14579193,14.0529549 11.0364699,14.0450569 14.3315776,14.3399693 C16.6422159,14.5471642 19.6797738,15.096155 19.6797738,15.096155 L9.90138069,22.2911778 C9.90138069,22.2911778 14.0922177,22.5417274 17.8458151,22.5175294 C22.0760921,22.4894665 25.8888494,21.9670262 25.9126493,22.0693634 C26.6470488,25.2169443 28.0029679,31.4378319 27.5011282,31.9461567 C26.8143287,32.6349579 17.0000657,26.4875043 17.0000657,26.4875043 C17.0000657,26.4875043 7.87226212,31.9722031 6.61358302,31.9722031 C6.57431304,31.9740516 6.53504307,31.9646413 6.5007031,31.9453165" id="Fill-1" fill="#7FAEF4" mask="url(#mask-20)"></path>
            </g>
        </g>
    </g>
</svg>