<?xml version="1.0" encoding="UTF-8"?>
<svg width="19px" height="19px" viewBox="0 0 19 19" version="1.1" xmlns="http://www.w3.org/2000/svg" xmlns:xlink="http://www.w3.org/1999/xlink">
    <!-- Generator: Sketch 52.2 (67145) - http://www.bohemiancoding.com/sketch -->
    <title>Page 1</title>
    <desc>Created with Sketch.</desc>
    <defs>
        <polygon id="path-1" points="0 0 19 0 19 19 0 19"></polygon>
    </defs>
    <g id="12.20" stroke="none" stroke-width="1" fill="none" fill-rule="evenodd">
        <g id="Page-1">
            <mask id="mask-2" fill="white">
                <use xlink:href="#path-1"></use>
            </mask>
            <g id="Clip-2"></g>
            <path d="M3.01951256,17.4962805 C3.14814788,17.4962805 3.29335283,17.4974211 3.49160024,17.5030292 C3.48581558,16.3907329 3.48807062,15.3721578 3.49052175,14.3547233 L3.49287483,11.8415536 C3.49287483,10.7783042 3.49405138,9.71514976 3.49052175,8.65075966 L3.48807062,8.54211545 C3.44414636,8.53954905 3.40002602,8.53840843 3.35590568,8.53869359 L2.44810508,8.53631729 L1.54148103,8.53869359 L1.53912795,8.53869359 L1.54628525,8.69201215 C1.58756228,9.47029631 1.62883931,10.2484854 1.67727365,11.0278152 C1.81188972,13.181594 1.94876083,15.3355629 2.09043616,17.4894367 L2.09043616,17.5019836 L2.10582926,17.5019836 L2.35133446,17.5030292 L3.01951256,17.4962805 Z M3.63690324,17.5408598 L3.66938072,18.2527027 L3.66938072,17.5248911 C3.65908597,17.5294536 3.64719799,17.533921 3.63690324,17.5408598 Z M3.66288523,18.9965781 L3.58376274,18.9954375 C3.39571203,18.9888789 3.20766132,18.9854571 3.01951256,18.9851719 L2.352511,18.9897344 L2.09406383,18.9885938 C1.12361235,18.9805144 0.621915014,18.5216043 0.560538713,17.5832529 C0.418863386,15.4282384 0.281894229,13.2732239 0.146101614,11.1182094 C0.0965887832,10.3342222 0.0553117501,9.55147055 0.014034717,8.76757833 L0.0057008742,8.60389913 C-0.0155749362,8.21589766 0.00805395922,7.77419193 0.336211275,7.43770855 C0.665545133,7.10008455 1.12714198,7.05322401 1.53442178,7.05084771 L2.44810508,7.04856647 L3.36061185,7.05084771 C4.49156333,7.05436463 5.02041919,7.56137095 5.02394882,8.64629223 C5.02747845,9.71172789 5.02630191,10.7772586 5.02630191,11.8425992 L5.02394882,14.3570996 C5.02159574,15.4316603 5.01924265,16.5074566 5.03336116,17.5820172 C5.03571425,17.7503539 5.04287155,18.2641089 4.66382877,18.634906 C4.42195124,18.875292 4.08546008,18.9965781 3.66288523,18.9965781 Z M12.2154669,17.5019836 C13.1090509,17.5019836 14.002635,17.5030292 14.896317,17.5122492 L14.9081805,18.2561246 L14.9081805,17.5122492 C15.1536857,17.5122492 15.17604,17.4595905 15.215062,17.3703368 L15.3284023,17.1151227 C15.5739075,16.566959 15.8042157,16.049592 15.935106,15.5243358 C16.4510199,13.4575294 16.9892881,11.2430124 17.4272561,9.0559655 C17.492162,8.73554587 17.4545126,8.62328969 17.4485319,8.60846161 C17.4391195,8.60846161 17.30568,8.53631729 16.8677121,8.53631729 L12.2237027,8.53631729 C11.7986767,8.53441626 11.4557145,8.19878834 11.4576755,7.78673877 C11.4578715,7.73626627 11.4634601,7.68617396 11.474049,7.63684208 L11.5885658,7.132117 C11.6629821,6.81169738 11.7314177,6.51418523 11.7881859,6.21543741 C11.9946691,5.14306297 12.1859553,3.90140126 11.8495622,2.71914694 C11.6901406,2.15387386 11.4516947,1.80588921 11.0775542,1.58850574 C10.9898037,1.52966867 10.8874445,1.49487971 10.7811635,1.48775082 C10.6241931,1.48775082 10.5839946,1.75788805 10.5745823,1.84020291 C10.513206,2.43655792 10.4518297,3.02473848 10.2734854,3.60607531 C9.6751155,5.56537813 8.32817042,6.94781156 7.09093792,8.04195286 C7.04309186,8.08577175 7.00524641,8.13881065 6.98004879,8.19764772 C6.97181299,9.95667639 6.97053841,11.7625656 6.96936186,13.5685499 L6.96583224,16.8415637 C6.96465569,17.1643596 7.08505521,17.2365039 7.23026016,17.2914438 C7.57145749,17.4194786 7.89245751,17.4882011 8.15816003,17.4916229 C9.05890136,17.500843 9.95836811,17.5030292 10.860286,17.5030292 L12.2154669,17.5019836 Z M14.9081805,19 L14.8798454,19 C13.9920461,18.990875 13.1043447,18.9897344 12.2154669,18.9897344 L10.8591095,18.9897344 C9.9524854,18.9897344 9.04703789,18.9885938 8.14041384,18.9783282 C7.63763801,18.9636902 7.14143121,18.8620798 6.67542233,18.6785348 C5.88106004,18.3785513 5.42769899,17.7079608 5.43122862,16.8370012 L5.43475825,13.5685499 C5.43475825,11.7591437 5.43593479,9.94869204 5.45132789,8.13928591 C5.45485752,7.64596705 5.78066175,7.18591632 6.05920819,6.9422035 C7.13819571,5.98655267 8.31042424,4.79298718 8.80261119,3.1838552 C8.93958034,2.73521069 8.9915443,2.24084626 9.04586135,1.71777619 C9.1543974,0.678574823 9.85100861,0 10.7811635,0 C11.1447151,0 11.5107179,0.105222346 11.8672103,0.312435277 C12.5849993,0.730092901 13.0642443,1.38699591 13.3285741,2.32316112 C13.7524236,3.80986638 13.5352534,5.25189728 13.297984,6.48671526 C13.2625897,6.6732069 13.2223912,6.85865297 13.1799376,7.04980214 L16.8689866,7.04980214 C17.4024506,7.04980214 18.1674974,7.11377201 18.6395851,7.67001516 C18.9831355,8.07398532 19.0800042,8.61986783 18.9347992,9.33969513 C18.4909485,11.5554477 17.9478761,13.7893552 17.4285307,15.873461 C17.266658,16.5222846 16.9975239,17.1243428 16.7379002,17.7056796 L16.626913,17.9550955 C16.3294439,18.6292029 15.7191124,19 14.9081805,19 Z" id="Fill-1" fill="#9FA0A0" mask="url(#mask-2)"></path>
        </g>
    </g>
</svg>