<?xml version="1.0" encoding="UTF-8"?>
<svg width="17px" height="17px" viewBox="0 0 17 17" version="1.1" xmlns="http://www.w3.org/2000/svg" xmlns:xlink="http://www.w3.org/1999/xlink">
    <!-- Generator: Sketch 52.2 (67145) - http://www.bohemiancoding.com/sketch -->
    <title>购买</title>
    <desc>Created with Sketch.</desc>
    <defs>
        <polygon id="path-1" points="0 0 15 0 15 14 0 14"></polygon>
    </defs>
    <g id="切图" stroke="none" stroke-width="1" fill="none" fill-rule="evenodd">
        <g id="分组" transform="translate(1.000000, 2.000000)">
            <mask id="mask-2" fill="white">
                <use xlink:href="#path-1"></use>
            </mask>
            <g id="Clip-2"></g>
            <path d="M3.75146516,7.54486651 L3.75406989,7.54486651 C3.75341871,7.55762969 3.7501628,7.57039288 3.7501628,7.58315607 C3.73192967,7.90466681 3.99565878,8.17816366 4.33948339,8.19518125 C4.68330801,8.2128066 4.97699153,7.96605166 4.99522466,7.64575646 C4.99587584,7.63724767 4.99587584,7.62995442 4.99587584,7.6220534 L4.99913176,7.6220534 L5.20881268,4.66707185 L9.79118732,4.66707185 L10.0015194,7.6220534 L10.0041242,7.6220534 C10.0308227,7.9423486 10.331018,8.18302583 10.6741914,8.15810723 C10.996527,8.13501194 11.2472325,7.88582592 11.2504884,7.58315607 C11.2504884,7.57039288 11.2472325,7.55762969 11.2465813,7.54486651 L11.249186,7.54486651 L11.0440634,4.66707185 L12.5736922,4.66707185 L13.6676796,12.8336879 L1.33297157,12.8336879 L2.42695898,4.66707185 L3.95593662,4.66707185 L3.75146516,7.54486651 Z M5.31560669,3.16040807 L5.3149555,3.16040807 C5.34295637,2.0573041 6.31191665,1.1669199 7.50032559,1.1669199 C8.68873453,1.1669199 9.65704363,2.0573041 9.6850445,3.16040807 L9.68374213,3.16040807 L9.7078359,3.50015194 L5.2921641,3.50015194 L5.31560669,3.16040807 Z M14.992837,13.3448231 L14.9954417,13.3442153 L13.7451704,4.01128717 L13.7425657,4.01189494 C13.7041459,3.72016497 13.4397656,3.50075971 13.1252442,3.50015194 L10.960712,3.50015194 L10.9307575,3.08322119 C10.8597786,1.37234643 9.35098763,0 7.50032559,0 C5.64966356,0 4.14087259,1.37234643 4.06924246,3.08322119 L4.06859127,3.08322119 L4.03928804,3.50015194 L1.87475581,3.50015194 C1.55632733,3.50015194 1.29585414,3.72381159 1.25808552,4.01189494 L1.25482961,4.01128717 L0.00520946386,13.3442153 L0.00781419579,13.3448231 C0.00455828088,13.3685262 0,13.3922292 0,13.41654 C0,13.7386586 0.280008682,14 0.625135663,14 L14.3748643,14 C14.7206425,14 15,13.7386586 15,13.41654 C15,13.3922292 14.9960929,13.3685262 14.992837,13.3448231 Z" id="Fill-1" fill="#344B5A" mask="url(#mask-2)"></path>
        </g>
    </g>
</svg>