<?xml version="1.0" encoding="UTF-8"?>
<svg width="17px" height="17px" viewBox="0 0 17 17" version="1.1" xmlns="http://www.w3.org/2000/svg" xmlns:xlink="http://www.w3.org/1999/xlink">
    <!-- Generator: Sketch 52.2 (67145) - http://www.bohemiancoding.com/sketch -->
    <title>查重</title>
    <desc>Created with Sketch.</desc>
    <defs>
        <polygon id="path-1" points="0.000355555556 0.767377778 15.2323556 0.767377778 15.2323556 16 0.000355555556 16"></polygon>
    </defs>
    <g id="切图" stroke="none" stroke-width="1" fill="none" fill-rule="evenodd">
        <g id="查重" transform="translate(1.000000, 0.000000)">
            <path d="M10.6253977,9.69540064 C10.7286665,9.84032398 10.8840035,9.93317906 11.0740526,9.96528782 C11.5001446,10.0295054 11.8342493,9.80127278 11.9045415,9.38385884 C11.951403,9.09748337 12,8.80069424 12,8.4995661 C12,6.01851316 9.98148684,4 7.4995661,4 C5.01851316,4 3,6.01851316 3,8.4995661 C3,10.980619 5.01851316,13 7.4995661,13 C7.96904831,13 8.46196124,12.9149552 8.97656928,12.7439977 C9.33670813,12.5990743 9.52415389,12.183396 9.38617298,11.8362742 C9.24124964,11.4743998 8.82296789,11.2843506 8.50014463,11.4188603 C8.1825282,11.5099798 7.81457911,11.6028348 7.4995661,11.6028348 C5.81515765,11.6028348 4.44489442,10.2325716 4.44489442,8.54816315 C4.44489442,6.83598496 5.81515765,5.44402661 7.4995661,5.44402661 C9.18484235,5.44402661 10.5559734,6.81515765 10.5559734,8.4995661 C10.5559734,8.73821232 10.5559734,8.91177321 10.5108476,9.13740237 C10.4761354,9.34567544 10.5169222,9.54353486 10.6253977,9.69540064" id="Fill-1" fill="#344B5A"></path>
            <path d="M10.1211551,10.158449 L10.1098194,10.1486695 C9.83938092,9.9246309 9.40943235,9.9584145 9.17219142,10.2189038 C8.89932387,10.518511 8.97543529,11.0057061 9.22806044,11.2848654 L11.8668597,13.788408 C12.0012692,13.9350999 12.1421564,14 12.324338,14 C12.5478141,14 12.7348538,13.895093 12.8263495,13.7377326 C12.9534717,13.598153 13.0141989,13.4034527 12.9971953,13.1909717 C12.9810014,13.0016057 12.9024609,12.8166849 12.7696708,12.6726601 L10.1211551,10.158449 Z" id="Fill-3" fill="#344B5A"></path>
            <g id="分组">
                <mask id="mask-2" fill="white">
                    <use xlink:href="#path-1"></use>
                </mask>
                <g id="Clip-6"></g>
                <path d="M7.61635556,0.767377778 C3.41635556,0.767377778 0.000355555556,4.18426667 0.000355555556,8.38337778 C0.000355555556,12.5833778 3.41635556,16.0002667 7.61635556,16.0002667 C8.7088,16.0002667 9.83057778,15.7540444 10.8554667,15.2936 C11.2296889,15.1424889 11.3594667,14.6518222 11.2243556,14.3149333 C11.1612444,14.1576 11.0323556,14.0313778 10.8608,13.9576 C10.6634667,13.8731556 10.4341333,13.8678222 10.2323556,13.9496 C9.44035556,14.3229333 8.53546667,14.5202667 7.61635556,14.5202667 C4.23235556,14.5202667 1.48035556,11.7673778 1.48035556,8.38337778 C1.48035556,4.97271111 4.23235556,2.1976 7.61635556,2.1976 C11.0003556,2.1976 13.7532444,4.97271111 13.7532444,8.38337778 C13.7532444,9.02693333 13.6528,9.68471111 13.4688,10.2358222 C13.4021333,10.4367111 13.4163556,10.6393778 13.5105778,10.8082667 C13.5994667,10.9700444 13.7532444,11.0900444 13.9550222,11.1576 C14.3612444,11.2900444 14.7372444,11.0900444 14.8768,10.6722667 C15.1168,9.95404444 15.2323556,9.1896 15.2323556,8.33448889 C15.2323556,4.16115556 11.8163556,0.767377778 7.61635556,0.767377778" id="Fill-5" fill="#344B5A" mask="url(#mask-2)"></path>
            </g>
        </g>
    </g>
</svg>