<?xml version="1.0" encoding="UTF-8"?>
<svg width="17px" height="17px" viewBox="0 0 17 17" version="1.1" xmlns="http://www.w3.org/2000/svg" xmlns:xlink="http://www.w3.org/1999/xlink">
    <!-- Generator: Sketch 52.2 (67145) - http://www.bohemiancoding.com/sketch -->
    <title>删除2</title>
    <desc>Created with Sketch.</desc>
    <defs>
        <polygon id="path-1" points="0.0004 0.765647059 15.158 0.765647059 15.158 16 0.0004 16"></polygon>
    </defs>
    <g id="切图" stroke="none" stroke-width="1" fill="none" fill-rule="evenodd">
        <g id="删除2" transform="translate(1.000000, 0.000000)">
            <g id="删除">
                <mask id="mask-2" fill="white">
                    <use xlink:href="#path-1"></use>
                </mask>
                <g id="Clip-2"></g>
                <path d="M11.7354,5.35482353 L11.7354,13.0621176 C11.7354,13.7077647 11.3394,14.2084706 10.9974,14.2084706 L4.3664,14.2084706 L4.2344,14.2018824 C3.8934,14.2018824 3.4974,13.7011765 3.4974,13.0555294 L3.4974,5.35482353 L11.7354,5.35482353 Z M6.4444,3.46023529 C6.5974,2.93411765 7.1034,2.56517647 7.6964,2.56517647 C8.2784,2.56517647 8.7904,2.94164706 8.9414,3.46023529 L6.4444,3.46023529 Z M14.1544,3.46494118 L10.8794,3.46494118 C10.7104,1.91858824 9.3604,0.765647059 7.6934,0.765647059 C6.0324,0.765647059 4.6804,1.91670588 4.5054,3.46023529 L1.0044,3.46023529 C0.4504,3.46023529 0.0004,3.88470588 0.0004,4.40517647 C0.0004,4.92658824 0.4504,5.35011765 1.0044,5.35011765 L1.5864,5.35011765 L1.5864,13.0555294 C1.5864,14.6790588 2.7754,16.0004706 4.2374,16.0004706 L10.9994,16.0004706 C12.4614,16.0004706 13.6504,14.6790588 13.6504,13.0555294 L13.6504,5.35482353 L14.1544,5.35482353 C14.7084,5.35482353 15.1584,4.93129412 15.1584,4.40988235 C15.1584,3.88847059 14.7084,3.46494118 14.1544,3.46494118 Z" id="Fill-1" fill="#4C95FF" mask="url(#mask-2)"></path>
            </g>
            <path d="M5.50028458,13 C5.77575413,13 6,12.573543 6,12.0499537 L6,7.95004625 C6,7.42645698 5.77575413,7 5.50028458,7 C5.22481503,7 5,7.42645698 5,7.95004625 L5,12.0499537 C5,12.5827937 5.21969266,13 5.50028458,13" id="Fill-3" fill="#4C95FF"></path>
            <path d="M7.50028458,13 C7.77575413,13 8,12.573543 8,12.0499537 L8,7.95004625 C8,7.42645698 7.77575413,7 7.50028458,7 C7.22481503,7 7,7.42645698 7,7.95004625 L7,12.0499537 C7,12.5827937 7.21969266,13 7.50028458,13" id="Fill-3-Copy" fill="#4C95FF"></path>
            <path d="M9.50028458,13 C9.77575413,13 10,12.573543 10,12.0499537 L10,7.95004625 C10,7.42645698 9.77575413,7 9.50028458,7 C9.22481503,7 9,7.42645698 9,7.95004625 L9,12.0499537 C9,12.5827937 9.21969266,13 9.50028458,13" id="Fill-3-Copy-2" fill="#4C95FF"></path>
        </g>
    </g>
</svg>