<?xml version="1.0" encoding="UTF-8"?>
<svg width="20px" height="20px" viewBox="0 0 20 20" version="1.1" xmlns="http://www.w3.org/2000/svg" xmlns:xlink="http://www.w3.org/1999/xlink">
    <!-- Generator: Sketch 52.2 (67145) - http://www.bohemiancoding.com/sketch -->
    <title>友站家谱</title>
    <desc>Created with Sketch.</desc>
    <defs>
        <polygon id="path-1" points="0.440479625 0.0525 11.742721 0.0525 11.742721 9.61866667 0.440479625 9.61866667"></polygon>
        <polygon id="path-3" points="0 0.335346676 11.2239808 0.335346676 11.2239808 10.1538462 0 10.1538462"></polygon>
    </defs>
    <g id="切图" stroke="none" stroke-width="1" fill="none" fill-rule="evenodd">
        <g id="分组-4" transform="translate(1.000000, -58.000000)">
            <g id="分组" transform="translate(2.000000, 60.000000)">
                <g transform="translate(3.000000, 0.000000)">
                    <mask id="mask-2" fill="white">
                        <use xlink:href="#path-1"></use>
                    </mask>
                    <g id="Clip-2"></g>
                    <path d="M3.82954286,9.61866667 C3.56811429,9.61866667 3.30754286,9.5895 3.05211429,9.532 C2.22411429,9.34366667 1.50497143,8.862 1.02754286,8.177 C0.517542857,7.44283333 0.330685714,6.5595 0.502971429,5.6895 C0.6744,4.8195 1.18525714,4.067 1.9404,3.57033333 L6.41725714,0.622833333 C7.17154286,0.126166667 8.08097143,-0.0546666667 8.97582857,0.113666667 C9.87068571,0.281166667 10.6446857,0.778666667 11.1555429,1.512 C11.6664,2.24533333 11.8524,3.12866667 11.6801143,3.9995 C11.5078286,4.8695 10.9961143,5.622 10.2418286,6.11866667 L9.59554286,6.54366667 C9.58868571,6.55033333 9.58011429,6.557 9.57068571,6.56283333 C9.41554286,6.66533333 9.22868571,6.702 9.04354286,6.66783333 C8.8584,6.63283333 8.69897143,6.53033333 8.59268571,6.37866667 C8.37497143,6.06533333 8.45897143,5.63783333 8.78125714,5.42616667 L9.44982857,4.97366667 C9.90497143,4.67366667 10.2041143,4.25033333 10.2949714,3.7795 C10.3849714,3.31033333 10.2658286,2.80783333 9.9564,2.3645 C9.64954286,1.92283333 9.1824,1.62283333 8.64325714,1.522 C8.10411429,1.42116667 7.55725714,1.53033333 7.10211429,1.8295 L2.71611429,4.71616667 C2.26182857,5.01533333 1.95411429,5.4695 1.84954286,5.99283333 C1.74582857,6.517 1.85811429,7.0495 2.16668571,7.49116667 C2.75897143,8.34366667 3.88697143,8.55283333 4.84782857,7.9895 L4.9404,7.93533333 L4.95325714,7.95616667 C5.1444,7.88033333 5.36468571,7.89116667 5.54897143,7.99116667 C5.76411429,8.107 5.9004,8.327 5.90468571,8.56616667 C5.90897143,8.8045 5.7804,9.0295 5.5704,9.15283333 C5.56697143,9.15533333 5.56268571,9.157 5.56011429,9.1595 L5.56182857,9.16366667 L5.4744,9.21033333 C4.9644,9.48033333 4.39954286,9.61866667 3.82954286,9.61866667" id="Fill-1" fill="#FFFFFF" mask="url(#mask-2)"></path>
                </g>
                <g transform="translate(0.000000, 6.000000)">
                    <mask id="mask-4" fill="white">
                        <use xlink:href="#path-3"></use>
                    </mask>
                    <g id="Clip-4"></g>
                    <path d="M3.4152,10.1541846 C2.34891429,10.1541846 1.29805714,9.66341538 0.632914286,8.7428 C-0.459942857,7.23072308 -0.102514286,5.1238 1.43005714,4.04495385 L2.06691429,3.59733846 C2.07291429,3.58972308 2.07977143,3.5838 2.08748571,3.57872308 C2.39862857,3.34687692 2.84177143,3.4078 3.07577143,3.7158 C3.31062857,4.02295385 3.24891429,4.46041538 2.93691429,4.69141538 C2.92748571,4.69903077 2.9172,4.7058 2.90605714,4.71256923 L2.2512,5.18895385 C1.80291429,5.50372308 1.51405714,5.94118462 1.4352,6.42095385 C1.3572,6.89903077 1.49005714,7.40672308 1.80891429,7.84841538 C2.46891429,8.75887692 3.75462857,8.97210769 4.67691429,8.32226154 L8.99005714,5.28626154 C9.91234286,4.63556923 10.1274857,3.36549231 9.4692,2.45503077 C9.16834286,2.03787692 8.72691429,1.76710769 8.22891429,1.69095385 C7.74034286,1.61649231 7.22434286,1.73156923 6.7752,2.01418462 L6.69462857,2.06410769 L6.68091429,2.04633846 C6.48891429,2.13264615 6.26434286,2.12756923 6.07577143,2.02941538 C5.85805714,1.91772308 5.71577143,1.69772308 5.70548571,1.45487692 C5.69777143,1.28226154 5.75777143,1.11472308 5.86748571,0.986107692 L5.77577143,0.986107692 L6.11777143,0.791492308 C6.84977143,0.373492308 7.70691429,0.237261538 8.53148571,0.405646154 C9.36291429,0.576569231 10.0940571,1.04703077 10.5886286,1.73156923 C11.1174857,2.46349231 11.3266286,3.35533846 11.1766286,4.24295385 C11.0266286,5.13056923 10.5354857,5.90649231 9.79234286,6.42941538 L5.39177143,9.52887692 C4.79177143,9.95110769 4.10091429,10.1541846 3.4152,10.1541846" id="Fill-3" fill="#FFFFFF" mask="url(#mask-4)"></path>
                </g>
            </g>
        </g>
    </g>
</svg>