<?xml version="1.0" encoding="UTF-8"?>
<svg width="20px" height="20px" viewBox="0 0 20 20" version="1.1" xmlns="http://www.w3.org/2000/svg" xmlns:xlink="http://www.w3.org/1999/xlink">
    <!-- Generator: Sketch 52.2 (67145) - http://www.bohemiancoding.com/sketch -->
    <title>购买记录</title>
    <desc>Created with Sketch.</desc>
    <defs>
        <polygon id="path-1" points="0 0 18 0 18 18 0 18"></polygon>
    </defs>
    <g id="切图" stroke="none" stroke-width="1" fill="none" fill-rule="evenodd">
        <g id="分组-4" transform="translate(1.000000, -38.000000)">
            <g id="分组" transform="translate(0.000000, 39.000000)">
                <mask id="mask-2" fill="white">
                    <use xlink:href="#path-1"></use>
                </mask>
                <g id="Clip-2"></g>
                <path d="M4.50162294,9.70011045 L4.50486881,9.7005162 C4.50405734,9.71674594 4.5,9.73297568 4.5,9.75001691 C4.47809034,10.1626581 4.79496889,10.5148435 5.20719502,10.5371593 C5.61982689,10.5586638 5.97200433,10.2421838 5.99431972,9.82954264 C5.99472545,9.81980479 5.99513119,9.8096612 5.99513119,9.79951762 L5.99837706,9.79992336 L6.25074385,6.00013525 L11.7488504,6.00013525 L12.0012172,9.79992336 L12.0044631,9.79951762 C12.0361104,10.211753 12.3959968,10.5201181 12.8086286,10.4884701 C13.1956992,10.4588508 13.4959427,10.1383135 13.5,9.75001691 C13.5,9.73297568 13.4963484,9.71674594 13.4951312,9.7005162 L13.4983771,9.70011045 L13.2520963,6.00013525 L15.0876386,6.00013525 L16.4001893,16.4999662 L1.59981066,16.4999662 L2.91195564,6.00013525 L4.74709224,6.00013525 L4.50162294,9.70011045 Z M6.37936164,4.06270992 L6.37814444,4.06270992 C6.41141466,2.64423055 7.57343792,1.50003381 9,1.50003381 C10.4265621,1.50003381 11.5885853,2.64423055 11.6218556,4.06270992 L11.6210441,4.06270992 L11.6494455,4.50010144 L6.3505545,4.50010144 L6.37936164,4.06270992 Z M17.9902624,17.1572707 L17.993914,17.156865 L16.493914,5.1570002 L16.4906681,5.15740595 C16.4452259,4.78249893 16.1271301,4.50091292 15.7502029,4.50010144 L13.1526914,4.50010144 L13.1169867,3.96411424 L13.116581,3.96411424 C13.0309711,1.76417285 11.2205843,0 9,0 C6.77941574,0 4.96862321,1.76417285 4.88301325,3.96411424 L4.88220179,3.96411424 L4.84730863,4.50010144 L2.25020287,4.50010144 C1.86759535,4.50010144 1.55558561,4.78736785 1.50933189,5.15740595 L1.50608602,5.1570002 L0.00608601569,17.156865 L0.0097376251,17.1572707 C0.00568028131,17.1881072 0,17.2181322 0,17.2497802 C0,17.6640444 0.335948066,18 0.750202867,18 L17.2497971,18 C17.6640519,18 18,17.6640444 18,17.2497802 C18,17.2181322 17.9943197,17.1881072 17.9902624,17.1572707 Z" id="Fill-1" fill="#FFFFFF" mask="url(#mask-2)"></path>
            </g>
        </g>
    </g>
</svg>