<?xml version="1.0" encoding="UTF-8"?>
<svg width="20px" height="20px" viewBox="0 0 20 20" version="1.1" xmlns="http://www.w3.org/2000/svg" xmlns:xlink="http://www.w3.org/1999/xlink">
    <!-- Generator: Sketch 52.2 (67145) - http://www.bohemiancoding.com/sketch -->
    <title>本站家谱</title>
    <desc>Created with Sketch.</desc>
    <g id="切图" stroke="none" stroke-width="1" fill="none" fill-rule="evenodd">
        <g id="分组-4" transform="translate(1.000000, 2.000000)" fill="#FFFFFF">
            <path d="M1,11 L17,11 L17,2 L1,2 L1,11 Z M9.00038597,12.5194876 C8.98963878,12.2435332 9.20464515,12.0111341 9.48057311,12.0003859 C9.75656356,11.9896377 9.9888779,12.2047271 9.9996251,12.4806815 C10.000125,12.4937418 10.000125,12.5068646 9.9996251,12.519925 C9.98856549,12.7958794 9.7560012,13.0105938 9.48007324,12.9995957 C9.21945378,12.9891599 9.01057082,12.7801944 9.00038597,12.5194876 Z M16.7140963,0 L1.28566263,0 C0.575611063,0 0,0.608985674 0,1.35993199 L0,12.239813 C0,12.9909293 0.575611063,13.59983 1.28566263,13.59983 L7.71421684,13.59983 L7.71421684,15.640068 L4.49993973,15.640068 C4.14507467,15.640323 3.85738967,15.9445608 3.8571486,16.320034 L3.8571486,17 L14.1428514,17 L14.1428514,16.320034 C14.1426103,15.9444758 13.8547646,15.640153 13.4998192,15.640068 L10.2857832,15.640068 L10.2857832,13.59983 L16.7140963,13.59983 C17.4241479,13.6 17.9998393,12.9911843 18,12.240153 L18,12.239813 L18,1.35993199 C18,0.608985674 17.4243889,0 16.7143374,0 L16.7140963,0 Z" id="Fill-1"></path>
        </g>
    </g>
</svg>