<?xml version="1.0" encoding="UTF-8"?>
<svg width="20px" height="20px" viewBox="0 0 20 20" version="1.1" xmlns="http://www.w3.org/2000/svg" xmlns:xlink="http://www.w3.org/1999/xlink">
    <!-- Generator: Sketch 52.2 (67145) - http://www.bohemiancoding.com/sketch -->
    <title>我的谱券</title>
    <desc>Created with Sketch.</desc>
    <defs>
        <polygon id="path-1" points="0 0.032861244 15.9981796 0.032861244 15.9981796 16.9999837 0 16.9999837"></polygon>
    </defs>
    <g id="切图" stroke="none" stroke-width="1" fill="none" fill-rule="evenodd">
        <g id="分组-4" transform="translate(1.000000, -78.000000)">
            <g id="分组" transform="translate(1.000000, 79.000000)">
                <g>
                    <mask id="mask-2" fill="white">
                        <use xlink:href="#path-1"></use>
                    </mask>
                    <g id="Clip-2"></g>
                    <path d="M5.79747902,5.66407464 L10.22464,5.67326603 C11.0222985,6.18676364 14.559001,8.64118947 14.6669424,11.8327158 C14.7140839,13.2024766 14.4432546,14.215888 13.8625717,14.8442373 C13.2085229,15.5468498 12.2906693,15.6228211 11.9263376,15.6228211 L4.06784,15.6228211 C3.70296195,15.6228211 2.78378146,15.5468498 2.1319961,14.8445627 C1.55084488,14.215888 1.28024976,13.1977589 1.32731317,11.8191321 C1.4503961,8.55684019 4.7369522,6.306089 5.79747902,5.66407464 M11.4858302,2.56397416 C11.4381424,2.92731866 10.7760546,3.71631388 10.1626693,4.29219904 L5.86741073,4.28422775 C5.24278634,3.713711 4.5667278,2.92235694 4.51529366,2.54062967 C4.4777522,2.31702679 4.52965463,2.24845742 4.55673756,2.2125866 C4.57133268,2.19379713 4.58358634,2.17988804 4.59318634,2.16996459 C4.72657171,2.20306986 5.02986927,2.40202679 5.19174244,2.58512249 C5.40169366,2.84313206 5.69835707,2.98506986 6.02709854,2.98506986 C6.08126439,2.98506986 6.1351961,2.97896938 6.18795707,2.9669311 L6.24828878,2.95595024 C6.62245463,2.87648134 6.92200585,2.60781627 7.07061073,2.21836172 L7.07209366,2.2146201 C7.10424976,2.13287368 7.40333268,1.41602679 8.00961561,1.40781148 C8.55790829,1.40781148 8.8643278,2.05478756 8.92153756,2.18810335 C9.03228878,2.5597445 9.3193522,2.84044785 9.69156683,2.94098373 C9.81941073,2.98506986 9.92938146,2.98506986 9.97660098,2.98506986 C10.26944,2.98506986 10.5593132,2.85118469 10.7968156,2.60342392 C10.9629815,2.41487847 11.2622205,2.20957703 11.416601,2.17142871 C11.4197229,2.17525167 11.423079,2.17956268 11.4266693,2.18460574 C11.469362,2.24373971 11.5144741,2.34028995 11.4858302,2.56397416 M15.9919766,11.7820411 C15.8772449,8.42645263 12.9129522,5.90394545 11.4926205,4.88467751 C12.0612059,4.28894545 12.7039376,3.47302679 12.799079,2.75138086 C12.8658888,2.21567751 12.7615376,1.74797416 12.48704,1.35925167 C12.2055961,0.976304306 11.8656156,0.790117703 11.4477424,0.790117703 C10.89664,0.790117703 10.3570888,1.16745263 10.0537912,1.45425646 C9.71185951,0.760916746 8.99974244,0.0328449761 7.97301073,0.0328449761 C6.81398634,0.0496822967 6.20184976,0.969309091 5.96091317,1.44994545 C5.66807415,1.18225646 5.13890341,0.78824689 4.56212293,0.78824689 C4.16930341,0.78824689 3.82261073,0.975734928 3.53031805,1.34705072 C3.23154732,1.73691196 3.12134244,2.22543828 3.21086439,2.75447177 C3.30530341,3.47066794 3.95170341,4.2767445 4.5252839,4.86596938 C3.09995707,5.84757703 0.136366829,8.29826124 0.00618146341,11.7660172 C-0.055164878,13.5341799 0.33984,14.8914957 1.18050341,15.801199 C2.18647415,16.8831799 3.53484488,16.9999837 4.06791805,16.9999837 L11.9283668,16.9999837 C12.4612059,16.9999837 13.8095766,16.8831799 14.8179668,15.800955 C15.6583961,14.891333 16.053401,13.539223 15.9919766,11.7820411" id="Fill-1" fill="#FFFFFF" mask="url(#mask-2)"></path>
                </g>
                <path d="M10.2637332,11.7275722 L8.73648423,11.7275722 L8.73648423,11.4136584 L10.2637332,11.4136584 C10.6697934,11.4136584 11,11.1209446 11,10.7610847 C11,10.4012248 10.6697934,10.108511 10.2637332,10.108511 L9.59557811,10.108511 L10.5012976,9.37067485 C10.6765785,9.22898194 10.7803552,9.03085855 10.789315,8.8207861 C10.7994056,8.61194709 10.7145922,8.40827317 10.5538383,8.25540209 C10.3850816,8.09289466 10.1473432,8.00023151 9.89812251,8.00000024 C9.67473722,7.99984606 9.45952881,8.07462414 9.29581733,8.20930179 L7.97612178,9.28325387 L6.65686118,8.20976433 C6.49314969,8.07477832 6.27768032,7.99992315 6.05403407,8.00000024 C5.80516129,8.00023151 5.56768394,8.09266339 5.39892715,8.25486246 C5.23791229,8.40781062 5.15292497,8.61171582 5.1629286,8.8207861 C5.17197535,9.03078146 5.2756651,9.22882776 5.45085901,9.37052066 L6.35657847,10.1084339 L5.73644074,10.1084339 C5.33038057,10.1084339 5,10.4011477 5,10.7610076 C5,11.1208675 5.33038057,11.4135042 5.73644074,11.4135042 L7.26360275,11.4135042 L7.26360275,11.7274951 L5.73652773,11.7274951 C5.33046756,11.7274951 5.00017398,12.0201318 5.00017398,12.3799917 C5.00017398,12.7399287 5.33046756,13.0326425 5.73652773,13.0326425 L7.26368974,13.0326425 L7.26368974,14.3475034 C7.26368974,14.7073633 7.59407032,15 8.00013048,15 C8.40619065,15 8.73648423,14.7073633 8.73648423,14.3475034 L8.73648423,13.0327196 L10.2637332,13.0327196 C10.6697934,13.0327196 11,12.7400058 11,12.3801459 C11,12.020286 10.6697934,11.7275722 10.2637332,11.7275722" id="Fill-3" fill="#FFFFFF"></path>
            </g>
        </g>
    </g>
</svg>