<?xml version="1.0" encoding="UTF-8"?>
<svg width="20px" height="20px" viewBox="0 0 20 20" version="1.1" xmlns="http://www.w3.org/2000/svg" xmlns:xlink="http://www.w3.org/1999/xlink">
    <!-- Generator: Sketch 52.2 (67145) - http://www.bohemiancoding.com/sketch -->
    <title>关于谱库</title>
    <desc>Created with Sketch.</desc>
    <defs>
        <polygon id="path-1" points="0 0 18 0 18 18 0 18"></polygon>
    </defs>
    <g id="切图" stroke="none" stroke-width="1" fill="none" fill-rule="evenodd">
        <g id="分组-4" transform="translate(1.000000, -98.000000)">
            <g id="分组" transform="translate(0.000000, 99.000000)">
                <mask id="mask-2" fill="white">
                    <use xlink:href="#path-1"></use>
                </mask>
                <g id="Clip-6"></g>
                <path d="M16.2369151,9 C16.2369151,12.9899215 12.9903359,16.2363973 9.00028705,16.2363973 C5.00966415,16.2363973 1.76308487,12.9899215 1.76308487,9 C1.76308487,5.01007846 5.00966415,1.76360273 9.00028705,1.76360273 C12.9903359,1.76360273 16.2369151,5.01007846 16.2369151,9 M9.00028705,0 C4.03712563,0 0,4.03699687 0,9 C0,13.9630031 4.03712563,18 9.00028705,18 C13.9628744,18 18,13.9630031 18,9 C18,4.03699687 13.9628744,0 9.00028705,0" id="Fill-5" fill="#FFFFFF" mask="url(#mask-2)"></path>
            </g>
        </g>
        <path d="M9.9951125,13 C9.44350866,13.0032563 8.99740637,13.4539238 9.00001135,14.0048844 C9.00326757,14.5551937 9.45067234,15 9.99967121,15 L10.0048812,15 C10.5512751,14.997395 10.9973773,14.5512862 10.9999823,14.0048844 C11.0032385,13.4539238 10.556485,13.0032563 9.9951125,13" id="Fill-1" fill="#FFFFFF"></path>
        <path d="M10.000449,5 L9.99955052,5 C9.19856227,5 8.44564229,5.3050741 7.87915536,5.85895504 C7.31266844,6.41371515 7.00044924,7.15046471 7,7.93512936 C7.00224618,8.30438332 7.31042226,8.60506154 7.68688224,8.60681989 L7.6900269,8.60681989 C8.06873307,8.60681989 8.37780762,8.30614167 8.3800538,7.93468978 C8.3800538,7.06034916 9.10691807,6.3490957 9.99999976,6.3490957 C10.8930814,6.3490957 11.6199457,7.06034916 11.6199457,7.93468978 C11.6199457,8.80859081 10.8930814,9.51984426 9.99999976,9.51984426 C9.81850831,9.51984426 9.64061075,9.5919367 9.51212918,9.71765888 C9.38185066,9.84513941 9.3104221,10.0148204 9.3104221,10.1950515 L9.3104221,11.3256719 C9.3104221,11.6971238 9.61949664,12 9.99955052,12 L10.000449,12 C10.1841866,12 10.3571426,11.9301055 10.4874211,11.8030646 C10.6176996,11.675584 10.6895774,11.505903 10.6900267,11.3256719 L10.6900267,10.7924516 C12.0332431,10.4812233 12.9995503,9.29433559 12.9999995,7.93600854 C13.0004488,7.15222306 12.6882296,6.41459432 12.1217426,5.85983421 C11.5552557,5.3050741 10.8018865,5 10.000449,5" id="Fill-3" fill="#FFFFFF"></path>
    </g>
</svg>