<?xml version="1.0" encoding="UTF-8"?>
<svg width="20px" height="20px" viewBox="0 0 20 20" version="1.1" xmlns="http://www.w3.org/2000/svg" xmlns:xlink="http://www.w3.org/1999/xlink">
    <!-- Generator: Sketch 52.2 (67145) - http://www.bohemiancoding.com/sketch -->
    <title>站点消息</title>
    <desc>Created with Sketch.</desc>
    <defs>
        <polygon id="path-1" points="7.71818021e-05 0.470588235 16.3293003 0.470588235 16.3293003 15.9104 7.71818021e-05 15.9104"></polygon>
    </defs>
    <g id="切图" stroke="none" stroke-width="1" fill="none" fill-rule="evenodd">
        <g id="分组-4" transform="translate(1.000000, -118.000000)">
            <g id="分组" transform="translate(1.000000, 119.000000)">
                <g>
                    <mask id="mask-2" fill="white">
                        <use xlink:href="#path-1"></use>
                    </mask>
                    <g id="Clip-2"></g>
                    <path d="M9.56231111,3.96687059 C11.3312556,4.58334118 12.5193667,6.24263529 12.5193667,8.09487059 L12.5212556,9.53110588 L12.5193667,9.67510588 C12.5193667,10.7216941 12.8461444,11.7588706 13.4902556,12.7593412 C13.7764222,13.2016941 14.1069778,13.6129882 14.4082556,13.9019294 C14.6878111,14.2727529 14.6481444,14.3122824 14.6481444,14.3094588 C14.6443667,14.3122824 14.5688111,14.3828706 14.1362556,14.3828706 L2.24475556,14.3828706 C1.76403333,14.3828706 1.69981111,14.2812235 1.69886667,14.2802824 C1.69886667,14.2793412 1.6592,14.1758118 1.90947778,13.8322824 C2.19092222,13.5461647 2.49786667,13.1376941 2.75664444,12.7000471 C3.3422,11.7174588 3.6397,10.6896941 3.6397,9.64216471 L3.64064444,8.09392941 C3.64064444,6.24169412 4.82875556,4.5824 6.59675556,3.96592941 L7.16814444,3.76828235 L7.16814444,3.05863529 C7.16814444,2.56828235 7.57708889,2.16922353 8.08047778,2.16922353 C8.58292222,2.16922353 8.99186667,2.56828235 8.99186667,3.05863529 L8.99186667,3.76828235 L9.56231111,3.96687059 Z M15.6813667,12.6285176 L15.6199778,12.5682824 C15.5500889,12.5024 15.4839778,12.4327529 15.4188111,12.3602824 C15.2384222,12.1569882 15.0712556,11.9405176 14.9239222,11.7127529 C14.4592556,11.0002824 14.2240889,10.2802824 14.2240889,9.57345882 L14.2250333,9.44357647 L14.2250333,8.01016471 C14.2250333,5.51228235 12.6327,3.09534118 10.6455889,2.53157647 C10.4057,1.34569412 9.32997778,0.4704 8.08047778,0.4704 C6.82153333,0.4704 5.8752,1.24216471 5.52858889,2.54192941 C3.34314444,3.51604706 1.93781111,5.64969412 1.93781111,8.01016471 L1.93781111,8.88357647 L1.93497778,8.88075294 L1.93497778,9.5424 C1.93497778,10.2699294 1.7187,10.9984 1.29275556,11.7061647 C1.15392222,11.9348706 1.00281111,12.1466353 0.844144444,12.3367529 C0.760088889,12.4374588 0.696811111,12.5033412 0.654311111,12.5456941 L0.583477778,12.6275765 C-0.00585555556,13.3955765 -0.156966667,14.2115765 0.167922222,14.8656941 C0.496588889,15.5301647 1.25403333,15.9104 2.24475556,15.9104 L14.1372,15.9104 C15.1184778,15.9104 15.8608111,15.5424 16.1743667,14.9005176 C16.4898111,14.2567529 16.3226444,13.4426353 15.6813667,12.6285176 Z" id="Fill-1" fill="#FFFFFF" mask="url(#mask-2)"></path>
                </g>
                <path d="M6.00080629,16.1851715 C6.00322516,16.6720767 6.21205402,17.1287348 6.5893973,17.4717816 C6.965128,17.8126153 7.46260835,18 7.99234025,18 L8.00604717,18 C8.53577908,18 9.03406571,17.8126153 9.40979641,17.4717816 C9.78713969,17.1287348 9.99677484,16.6720767 9.99919371,16.1851715 L10,16 L6,16 L6.00080629,16.1851715 Z" id="Fill-3" fill="#FFFFFF"></path>
            </g>
        </g>
    </g>
</svg>