<?xml version="1.0" encoding="UTF-8"?>
<svg width="20px" height="20px" viewBox="0 0 20 20" version="1.1" xmlns="http://www.w3.org/2000/svg" xmlns:xlink="http://www.w3.org/1999/xlink">
    <!-- Generator: Sketch 52.2 (67145) - http://www.bohemiancoding.com/sketch -->
    <title>时光家谱</title>
    <desc>Created with Sketch.</desc>
    <g id="切图" stroke="none" stroke-width="1" fill="none" fill-rule="evenodd">
        <g id="分组-4" transform="translate(1.000000, -18.000000)" fill="#FFFFFF">
            <path d="M1,32.9890099 L5.02066082,32.9890099 C5.95042111,32.9890099 6.83705754,33.2448804 7.58170681,33.7286595 L8,34 L8,24.5420129 C8,23.9925776 7.80342776,23.4695064 7.4310619,23.0298128 C7.25980329,22.8271064 7.05531539,22.6480769 6.82419459,22.4983893 C6.3241887,22.1730858 5.71855822,21.9983414 5.09701396,22.0000119 L1,22 L1,32.9890099 Z M12.902355,22.0000119 C12.2807901,21.9983414 11.675057,22.1730858 11.175117,22.4983893 C10.9445657,22.64844 10.7402359,22.8274695 10.5688067,23.0298128 C10.1977477,23.4660928 9.99803559,23.9969353 10.0000146,24.5420129 L10,34 L10.417662,33.7286595 C11.1630782,33.2450257 12.049002,32.9890099 12.9792879,32.9890099 L17,32.9890099 L17,22 L12.902355,22.0000119 Z M7.90242091,36 C7.85828345,35.934525 7.81117599,35.8707 7.76118103,35.808825 C7.58949868,35.59995 7.38489885,35.415225 7.15389904,35.260575 C6.65097946,34.923675 6.05400995,34.74615 5.42577298,34.74615 L1.58878368,34.74615 C0.712469406,34.746 0,34.10205 0,33.309825 L0,22.435875 C0,21.643875 0.712469406,21 1.58878368,21 L5.34929554,21 C6.27956477,21 7.16668653,21.263625 7.91174341,21.762975 C8.08251826,21.8775 8.24388813,22.003125 8.3946155,22.139025 L8.47167044,22.208625 L9.52923706,22.208625 L9.605632,22.139025 C9.75594687,22.00305 9.91715174,21.87735 10.0877616,21.762975 C10.833396,21.263625 11.7197752,21 12.6505395,21 L16.4104738,21 C17.2867056,21 18,21.643875 18,22.435875 L18,33.309825 C18,34.10205 17.2867056,34.746 16.4104738,34.746 L12.573567,34.746 C11.9454125,34.746 11.348443,34.923675 10.845441,35.2605 C10.6149362,35.4153 10.4105013,35.600025 10.238819,35.808675 C10.190309,35.868525 10.1420465,35.932575 10.0970016,35.99985 L7.90242091,35.99985 L7.90242091,36 Z" id="Fill-1"></path>
        </g>
    </g>
</svg>