<?xml version="1.0" encoding="UTF-8"?>
<svg width="17px" height="17px" viewBox="0 0 17 17" version="1.1" xmlns="http://www.w3.org/2000/svg" xmlns:xlink="http://www.w3.org/1999/xlink">
    <!-- Generator: Sketch 52.2 (67145) - http://www.bohemiancoding.com/sketch -->
    <title>导入</title>
    <desc>Created with Sketch.</desc>
    <defs>
        <polygon id="path-1" points="0.2765 0.157666667 8.7085 0.157666667 8.7085 10.2292667 0.2765 10.2292667"></polygon>
        <polygon id="path-3" points="0.0001 0.107333333 14.834 0.107333333 14.834 4.99983333 0.0001 4.99983333"></polygon>
    </defs>
    <g id="切图" stroke="none" stroke-width="1" fill="none" fill-rule="evenodd">
        <g id="导入" transform="translate(1.000000, 1.000000)">
            <g id="分组" transform="translate(3.000000, 0.000000)">
                <mask id="mask-2" fill="white">
                    <use xlink:href="#path-1"></use>
                </mask>
                <g id="Clip-2"></g>
                <path d="M3.7715,9.95976667 C3.9645,10.1357667 4.2135,10.2292667 4.4925,10.2292667 L4.4935,10.2292667 C4.7705,10.2292667 5.0185,10.1357667 5.2135,9.95885 L8.4195,7.0191 C8.6095,6.8376 8.7085,6.61118333 8.7085,6.3646 C8.7085,6.11251667 8.6055,5.88426667 8.4125,5.70826667 C8.0285,5.35351667 7.3885,5.34068333 6.9725,5.7046 L5.5075,7.05026667 L5.5075,1.08276667 C5.5075,0.830683333 5.4055,0.60335 5.2085,0.423683333 C4.8185,0.0689333333 4.1675,0.0680166667 3.7735,0.4246 C3.5795,0.60335 3.4765,0.830683333 3.4765,1.08276667 L3.4765,7.05026667 L2.0125,5.70551667 C1.6255,5.34801667 0.9495,5.35351667 0.5685,5.70093333 C0.3775,5.87693333 0.2765,6.1061 0.2765,6.3646 C0.2765,6.61943333 0.3775,6.84768333 0.5705,7.02551667 L3.7715,9.95976667 Z" id="Fill-1" fill="#344B5A" mask="url(#mask-2)"></path>
            </g>
            <g id="分组" transform="translate(0.000000, 9.000000)">
                <mask id="mask-4" fill="white">
                    <use xlink:href="#path-3"></use>
                </mask>
                <g id="Clip-4"></g>
                <path d="M14.5371,0.354833333 C14.3431,0.194 14.0951,0.108166667 13.8201,0.107333333 L13.8181,0.107333333 C13.5441,0.108166667 13.2961,0.194 13.1011,0.354833333 C12.9071,0.517333333 12.8051,0.724 12.8051,0.954 L12.8051,3.0865 C12.8051,3.15233333 12.7821,3.20066667 12.7271,3.24733333 C12.6781,3.28983333 12.6261,3.30816667 12.5551,3.30816667 L2.2971,3.30816667 C2.2201,3.30816667 2.1631,3.289 2.1091,3.24316667 C2.0551,3.19816667 2.0311,3.15066667 2.0311,3.0865 L2.0311,0.954 C2.0311,0.724 1.9291,0.517333333 1.7321,0.354 C1.3411,0.0298333333 0.6861,0.0323333333 0.2971,0.354833333 C0.1021,0.517333333 0.0001,0.724 0.0001,0.954 L0.0001,3.0865 C0.0001,3.60566667 0.2241,4.06066667 0.6741,4.444 C1.1271,4.81316667 1.6731,4.99983333 2.2961,4.99983333 L12.5541,4.99983333 C13.1781,4.99983333 13.7221,4.81066667 14.1701,4.43733333 C14.6101,4.06983333 14.8341,3.61566667 14.8341,3.0865 L14.8341,0.954 C14.8341,0.724 14.7311,0.517333333 14.5371,0.354833333" id="Fill-3" fill="#344B5A" mask="url(#mask-4)"></path>
            </g>
        </g>
    </g>
</svg>