<?xml version="1.0" encoding="UTF-8"?>
<svg width="20px" height="20px" viewBox="0 0 20 20" version="1.1" xmlns="http://www.w3.org/2000/svg" xmlns:xlink="http://www.w3.org/1999/xlink">
    <!-- Generator: Sketch 52.2 (67145) - http://www.bohemiancoding.com/sketch -->
    <title>退出</title>
    <desc>Created with Sketch.</desc>
    <defs>
        <polygon id="path-1" points="0 0 18 0 18 18 0 18"></polygon>
    </defs>
    <g id="切图" stroke="none" stroke-width="1" fill="none" fill-rule="evenodd">
        <g id="退出" transform="translate(1.000000, 1.000000)">
            <mask id="mask-2" fill="white">
                <use xlink:href="#path-1"></use>
            </mask>
            <g id="Clip-2"></g>
            <path d="M14.1583931,2.61000334 C14.7513737,3.00429889 15.2915251,3.46396987 15.7669877,3.98084435 C16.2359815,4.49158988 16.637052,5.04217356 16.9723555,5.63463837 C17.6472753,6.83386888 17.9998292,8.17100068 17.9998292,9.5285623 C18.0073762,10.6644604 17.7647932,11.7881005 17.285018,12.8289999 C16.8278839,13.8310827 16.1723708,14.7432742 15.3551358,15.5144999 C14.53251,16.2847042 13.5621781,16.8996418 12.4980475,17.3286681 C11.390791,17.7801671 10.1962047,18.0079596 8.99083688,17.9997877 C7.7908598,18.0069381 6.60274234,17.7791456 5.5008766,17.3286681 C4.4345897,16.8986203 3.46210154,16.2836827 2.63516316,15.5144999 C1.81361551,14.7463386 1.15702428,13.8341471 0.704202747,12.8289999 C0.231974573,11.787079 -0.00737395422,10.6644604 0.000173071402,9.53060528 C0.000173071402,8.86255013 0.0842684997,8.20675287 0.25138121,7.56525648 C0.416337627,6.92988904 0.6567643,6.31392993 0.967270497,5.73065853 C1.27777669,5.14636565 1.662675,4.60088942 2.1122621,4.10444476 C2.56831807,3.59982818 3.08151582,3.14220018 3.63999571,2.74279718 C3.91276678,2.5456494 4.25777367,2.46290863 4.59631167,2.51500467 C4.93808412,2.56607922 5.21624592,2.72338885 5.43079708,2.98795503 C5.64534823,3.25252122 5.72513108,3.54875363 5.67122375,3.87563077 C5.6237853,4.19433598 5.44265669,4.48137497 5.16880747,4.6713723 C3.51169628,5.78786203 2.53597368,7.60305165 2.55538032,9.52958379 C2.55538032,10.362099 2.72249303,11.1455827 3.05671845,11.8830992 C3.38124055,12.6042719 3.84807799,13.2600692 4.4345897,13.8126958 C5.02541399,14.366344 5.72189664,14.8076281 6.48630252,15.1171399 C7.26903689,15.4389096 8.10567859,15.5992837 8.99083688,15.5992837 C9.87383887,15.5992837 10.7094024,15.4389096 11.4932149,15.1171399 C12.2576208,14.8076281 12.9541035,14.366344 13.5449278,13.8126958 C14.1325176,13.2590477 14.6025895,12.6042719 14.9325023,11.8830992 C15.2753529,11.1425182 15.4500127,10.3396262 15.4446219,9.52958379 C15.4478564,8.55814579 15.1998827,7.60100867 14.7211856,6.74091319 C14.2435667,5.87060281 13.5470841,5.12797881 12.6910357,4.57637363 C12.4042487,4.40169866 12.2101824,4.11976713 12.1584313,3.80106192 C12.0301319,3.15752255 12.4775627,2.53849897 13.1578732,2.41796302 C13.1697328,2.41592004 13.1815924,2.41387706 13.193452,2.41183407 C13.5427715,2.35463057 13.8640591,2.42102749 14.1583931,2.61000334 M8.98975873,9.58678729 C8.6415174,9.58678729 8.34287082,9.46931582 8.09489712,9.23641586 C7.85231415,9.01679528 7.71754584,8.71239094 7.72293657,8.39470722 L7.72293657,1.21056059 C7.72293657,0.882661955 7.84692342,0.59868744 8.09489712,0.359658531 C8.32777677,0.125737078 8.65229887,-0.00399228686 8.99083688,9.3677385e-05 C9.35201596,9.3677385e-05 9.65605328,0.119608132 9.90510512,0.359658531 C10.1530788,0.59868744 10.2759875,0.882661955 10.2759875,1.21056059 L10.2759875,8.39470722 C10.2759875,8.72260585 10.1530788,9.0035159 9.90510512,9.23743735 C9.65605328,9.46931582 9.35201596,9.58678729 8.99083688,9.58678729" id="Fill-1" fill="#344B5A" mask="url(#mask-2)"></path>
        </g>
    </g>
</svg>