<?xml version="1.0" encoding="UTF-8"?>
<svg width="20px" height="20px" viewBox="0 0 20 20" version="1.1" xmlns="http://www.w3.org/2000/svg" xmlns:xlink="http://www.w3.org/1999/xlink">
    <!-- Generator: Sketch 52.2 (67145) - http://www.bohemiancoding.com/sketch -->
    <title>退出</title>
    <desc>Created with Sketch.</desc>
    <g id="切图" stroke="none" stroke-width="1" fill="none" fill-rule="evenodd">
        <path d="M14.5852383,4.19557414 C15.1123322,4.54924697 15.5924668,4.96155985 16.0151002,5.42518279 C16.4319835,5.88330821 16.7884906,6.37716743 17.0865383,6.90859292 C17.6864669,7.98427143 17.9998482,9.1836438 17.9998482,10.4013412 C18.0065566,11.4202121 17.7909273,12.4280881 17.3644605,13.3617477 C16.958119,14.2605898 16.3754407,15.0788018 15.6490096,15.7705712 C14.9177866,16.4614244 14.0552694,17.0130074 13.1093756,17.3978327 C12.1251476,17.8028156 11.0632931,18.0071396 9.991855,17.9998096 C8.92520871,18.0062233 7.8691043,17.8018994 6.88966809,17.3978327 C5.94185751,17.0120911 5.07742359,16.4605081 4.34236725,15.7705712 C3.61210268,15.0815506 3.02846603,14.2633386 2.625958,13.3617477 C2.20619962,12.4271718 1.99344537,11.4202121 2.00015384,10.4031737 C2.00015384,9.80394563 2.07490533,9.21571258 2.22344996,8.64030704 C2.37007789,8.07039901 2.58379049,7.51789974 2.859796,6.9947205 C3.13580151,6.47062501 3.47793333,5.98134706 3.87756631,5.53604914 C4.2829494,5.08342122 4.73912517,4.67294083 5.23555174,4.31468675 C5.47801492,4.13785033 5.7846877,4.06363401 6.08561038,4.11036281 C6.38940811,4.15617535 6.63666304,4.29727798 6.82737518,4.53458695 C7.01808732,4.77189592 7.0890054,5.03760867 7.04108778,5.33080895 C6.99892027,5.61667922 6.83791706,5.87414571 6.59449553,6.04456837 C5.1215078,7.04603055 4.25419883,8.67420833 4.27144917,10.4022574 C4.27144917,11.1490019 4.4199938,11.8517663 4.71708306,12.5132994 C5.00554715,13.1601725 5.42051377,13.7484056 5.94185751,14.2440973 C6.46703465,14.7407053 7.08613034,15.1365256 7.76560224,15.4141496 C8.46136612,15.7027687 9.20504763,15.84662 9.991855,15.84662 C10.7767457,15.84662 11.5194688,15.7027687 12.2161911,15.4141496 C12.895663,15.1365256 13.5147586,14.7407053 14.0399358,14.2440973 C14.5622379,13.7474893 14.9800796,13.1601725 15.2733354,12.5132994 C15.5780915,11.8490175 15.7333446,11.1288444 15.7285528,10.4022574 C15.7314279,9.53090288 15.5110068,8.67237582 15.0854983,7.9008926 C14.6609482,7.12024687 14.0418525,6.4541325 13.2809206,5.95935704 C13.0259989,5.80267814 12.8534954,5.5497929 12.8074945,5.26392264 C12.6934506,4.6866846 13.0911669,4.13143658 13.6958873,4.02331897 C13.7064291,4.02148647 13.716971,4.01965397 13.7275129,4.01782147 C14.0380191,3.96651142 14.3236081,4.02606773 14.5852383,4.19557414 M9.99246011,11 C9.71967269,11 9.48573426,10.8897187 9.29148935,10.6710741 C9.10146716,10.464896 8.99589927,10.1791236 9.00012199,9.88088467 L9.00012199,3.13646469 C9.00012199,2.82863605 9.09724444,2.56204303 9.29148935,2.33764458 C9.47391066,2.11804097 9.72811812,1.99625207 9.99330465,2.00008794 C10.2762266,2.00008794 10.5143877,2.11228717 10.7094772,2.33764458 C10.9037221,2.56204303 11,2.82863605 11,3.13646469 L11,9.88088467 C11,10.1887133 10.9037221,10.4524294 10.7094772,10.672033 C10.5143877,10.8897187 10.2762266,11 9.99330465,11" id="Fill-1" fill="#FFFFFF"></path>
    </g>
</svg>