<?xml version="1.0" encoding="UTF-8"?>
<svg width="17px" height="17px" viewBox="0 0 17 17" version="1.1" xmlns="http://www.w3.org/2000/svg" xmlns:xlink="http://www.w3.org/1999/xlink">
    <!-- Generator: Sketch 52.2 (67145) - http://www.bohemiancoding.com/sketch -->
    <title>透视</title>
    <desc>Created with Sketch.</desc>
    <defs>
        <polygon id="path-1" points="0 0 7 0 7 3 0 3"></polygon>
        <polygon id="path-3" points="0.0001875 0.0276 15 0.0276 15 11.625 0.0001875 11.625"></polygon>
    </defs>
    <g id="切图" stroke="none" stroke-width="1" fill="none" fill-rule="evenodd">
        <g id="分组" transform="translate(1.000000, 2.000000)">
            <g transform="translate(4.000000, 0.000000)">
                <mask id="mask-2" fill="white">
                    <use xlink:href="#path-1"></use>
                </mask>
                <g id="Clip-2"></g>
                <path d="M2.22580645,3 L2.80734767,3 C2.91666667,2.76611418 2.98924731,2.50092081 3.01433692,2.21731123 L3.98476703,2.21731123 C4.01075269,2.50092081 4.08333333,2.76611418 4.19175627,3 L4.77419355,3 C5.12903226,2.19152855 5.79749104,1.64640884 6.56362007,1.64640884 C6.71326165,1.64640884 6.85842294,1.66482505 7,1.7053407 C6.89695341,0.744014733 6.26075269,0 5.49283154,0 C4.96774194,0 4.50179211,0.35174954 4.22939068,0.883977901 L2.76971326,0.883977901 C2.49820789,0.35174954 2.03225806,0 1.5062724,0 C0.739247312,0 0.103046595,0.742173112 0,1.7053407 C0.141577061,1.66482505 0.286738351,1.64640884 0.436379928,1.64640884 C1.2016129,1.64640884 1.87096774,2.19152855 2.22580645,3" id="Fill-1" fill="#FFFFFF" mask="url(#mask-2)"></path>
            </g>
            <g transform="translate(0.000000, 1.000000)">
                <mask id="mask-4" fill="white">
                    <use xlink:href="#path-3"></use>
                </mask>
                <g id="Clip-4"></g>
                <path d="M11.787375,10.338225 C10.6070625,10.338225 9.6470625,9.34189779 9.6470625,8.11789424 C9.6470625,6.89291772 10.6070625,5.89659051 11.787375,5.89659051 C12.578625,5.89659051 13.2695625,6.3431864 13.639875,7.00675589 C13.6520625,7.02816135 13.662375,7.04956682 13.6745625,7.07097229 C13.8358125,7.38232454 13.9276875,7.73940666 13.9276875,8.11789424 C13.9276875,9.34189779 12.9676875,10.338225 11.787375,10.338225 M7.5001875,6.50085 C7.19925,6.50085 6.9189375,6.59985 6.6789375,6.769725 L7.002375,2.625225 L8.048625,2.625225 L8.3270625,6.771975 C8.0851875,6.59985 7.8020625,6.50085 7.5001875,6.50085 M7.5001875,9.05235 C7.204875,9.05235 6.963,8.767725 6.963,8.418975 C6.963,8.067975 7.203,7.784475 7.5001875,7.784475 C7.7964375,7.784475 8.0364375,8.067975 8.0364375,8.418975 C8.0364375,8.767725 7.7945625,9.05235 7.5001875,9.05235 M3.213,10.338225 C2.0326875,10.338225 1.07175,9.34189779 1.07175,8.11789424 C1.07175,7.73746071 1.1626875,7.38232454 1.3258125,7.07097229 C1.336125,7.04956682 1.347375,7.02816135 1.3605,7.00675589 C1.729875,6.3431864 2.42175,5.89659051 3.213,5.89659051 C4.392375,5.89659051 5.3533125,6.89291772 5.3533125,8.11789424 C5.3533125,9.34189779 4.392375,10.338225 3.213,10.338225 M12.732375,1.7151 C12.4745625,0.89835 11.884875,0.27285 11.1620625,0.0861 C11.0139375,0.048975 10.8620625,0.0276 10.7055,0.0276 C9.9039375,0.0276 9.2045625,0.555225 8.8333125,1.33485 L6.1670625,1.33485 C5.794875,0.555225 5.0955,0.0276 4.294875,0.0276 C4.1383125,0.0276 3.9864375,0.048975 3.8383125,0.0861 C3.1145625,0.27285 2.524875,0.89835 2.2708125,1.71735 L0.4126875,5.883225 C0.151125,6.4401 0.0001875,7.084725 0.0001875,7.770975 C0.0001875,9.8961 1.441125,11.625225 3.213,11.625225 C4.497375,11.625225 5.6083125,10.7151 6.121125,9.404475 C6.402375,9.9636 6.9151875,10.338225 7.5001875,10.338225 C8.0851875,10.338225 8.598,9.9636 8.8783125,9.404475 C9.391125,10.7151 10.503,11.625225 11.787375,11.625225 C13.55925,11.625225 15.0001875,9.8961 15.0001875,7.770975 C15.0001875,7.084725 14.84925,6.4401 14.58675,5.883225 L12.732375,1.7151 Z" id="Fill-3" fill="#FFFFFF" mask="url(#mask-4)"></path>
            </g>
        </g>
    </g>
</svg>