<?xml version="1.0" encoding="UTF-8"?>
<svg width="17px" height="17px" viewBox="0 0 17 17" version="1.1" xmlns="http://www.w3.org/2000/svg" xmlns:xlink="http://www.w3.org/1999/xlink">
    <!-- Generator: Sketch 52.2 (67145) - http://www.bohemiancoding.com/sketch -->
    <title>分级公开</title>
    <desc>Created with Sketch.</desc>
    <defs>
        <polygon id="path-1" points="7.14285714e-05 0.42185 14.4678571 0.42185 14.4678571 10.999725 7.14285714e-05 10.999725"></polygon>
    </defs>
    <g id="切图" stroke="none" stroke-width="1" fill="none" fill-rule="evenodd">
        <g id="分级公开" transform="translate(1.000000, 3.000000)">
            <g id="分组">
                <mask id="mask-2" fill="white">
                    <use xlink:href="#path-1"></use>
                </mask>
                <g id="Clip-2"></g>
                <path d="M13.0615,5.7107875 C13.0615,7.2645375 10.4507857,9.6460375 7.23435714,9.6460375 C4.01721429,9.6460375 1.4065,7.2645375 1.4065,5.7107875 C1.4065,4.1570375 4.01721429,1.7755375 7.23435714,1.7755375 C10.4507857,1.7755375 13.0615,4.1570375 13.0615,5.7107875 M7.23435714,0.42185 C3.40578571,0.42185 7.14285714e-05,3.3787875 7.14285714e-05,5.7107875 C7.14285714e-05,8.0427875 3.40578571,10.999725 7.23435714,10.999725 C11.0622143,10.999725 14.4679286,8.0427875 14.4679286,5.7107875 C14.4679286,3.3787875 11.0622143,0.42185 7.23435714,0.42185" id="Fill-1" fill="#344B5A" mask="url(#mask-2)"></path>
            </g>
            <path d="M7.54982415,3.95948535 L7.54982415,4.21612373 C8.25257262,4.21612373 8.82636447,4.79236244 8.82896965,5.49863126 C8.82636447,6.20763756 8.25257262,6.78387627 7.54982415,6.78387627 L7.45082715,6.78387627 C6.74742738,6.78387627 6.17363553,6.20763756 6.17168165,5.50068437 C6.17363553,4.79236244 6.74742738,4.21612373 7.45082715,4.21612373 L7.52637749,4.2168081 L7.54982415,3.95948535 Z M7.54005471,3 L7.4586427,3 C6.10524945,3 5.00195389,4.12099644 5,5.50068437 C5.00195389,6.87831919 6.10394685,7.99931563 7.48664843,7.99931563 L7.48860232,7.99931563 L7.54005471,8 C8.89409926,8 9.99804611,6.87900356 10,5.49931563 C9.99804611,4.12099644 8.89409926,3 7.54005471,3 Z" id="Fill-3" fill="#344B5A"></path>
        </g>
    </g>
</svg>