<?xml version="1.0" encoding="UTF-8"?>
<svg width="16px" height="15px" viewBox="0 0 16 15" version="1.1" xmlns="http://www.w3.org/2000/svg" xmlns:xlink="http://www.w3.org/1999/xlink">
    <!-- Generator: Sketch 63.1 (92452) - https://sketch.com -->
    <title>unique@1x</title>
    <desc>Created with Sketch.</desc>
    <g id="页面-1" stroke="none" stroke-width="1" fill="none" fill-rule="evenodd">
        <g id="unique" fill="#FFFFFF" fill-rule="nonzero">
            <path d="M14.0738523,13.4941048 C13.8421915,13.531035 13.6056643,13.4723678 13.4163548,13.3310219 L10.7045152,11.3063285 C10.5145524,11.1651076 10.3874469,10.9524025 10.3512885,10.7152203 C10.3151301,10.4780381 10.3728957,10.2359066 10.5118195,10.0423359 L10.9019108,9.49486189 C11.1912845,9.09241592 11.7444681,9.00443107 12.1398632,9.29796334 L14.8517028,11.3236172 C15.245554,11.6184848 15.3310921,12.1832474 15.0434585,12.5866493 L14.6524272,13.1341233 C14.5133106,13.3276754 14.3055131,13.4571746 14.0738523,13.4941048 Z M14.9786,12.3897508 L14.4512717,13.1177952 L9.83597451,9.62740823 C8.7896478,10.8996884 7.24655425,11.6344502 5.62016841,11.6348129 C2.61820841,11.5781371 0.213647985,9.07531496 0.213647985,6.00735641 C0.213647985,2.93939786 2.61820841,0.436575679 5.62016841,0.37989966 C7.60191682,0.379320504 9.4311075,1.46692302 10.4098025,3.22772659 C11.3884974,4.98853016 11.3657131,7.15089515 10.3501431,8.88975904 L14.9786,12.3897508 Z M2.17064374,6.00783665 C2.17064374,7.97254383 3.71269453,9.57418209 5.63520808,9.6062806 C7.06052007,9.60813515 8.34626943,8.73158582 8.89183441,7.38609871 C9.4373994,6.0406116 9.13510039,4.49174912 8.12615259,3.46304299 C7.46550801,2.78807985 6.56943785,2.40905015 5.63520808,2.4093954 C3.71269453,2.4414912 2.17064374,4.04312946 2.17064374,6.00783665 Z" id="形状"></path>
            <path d="M3.64005682,12.6733193 L8.9953125,12.6733193 C9.15063315,12.6699036 9.29566109,12.7496523 9.37433869,12.88174 C9.45301629,13.0138277 9.45301629,13.1775589 9.37433869,13.3096466 C9.29566109,13.4417343 9.15063315,13.5214829 8.9953125,13.5180672 L3.63984375,13.5180672 C3.4845231,13.5214829 3.33949516,13.4417343 3.26081756,13.3096466 C3.18213996,13.1775589 3.18213996,13.0138277 3.26081756,12.88174 C3.33949516,12.7496523 3.4845231,12.6699036 3.63984375,12.6733193 L3.64005682,12.6733193 Z" id="路径"></path>
            <path d="M4.86328125,14.1518908 L7.64808239,14.1518908 C7.80340304,14.1484751 7.94843098,14.2282237 8.02710857,14.3603114 C8.10578617,14.4923991 8.10578617,14.6561303 8.02710857,14.788218 C7.94843098,14.9203057 7.80340304,15.0000543 7.64808239,14.9966387 L4.86306818,14.9966387 C4.70774753,15.0000543 4.56271959,14.9203057 4.48404199,14.788218 C4.4053644,14.6561303 4.4053644,14.4923991 4.48404199,14.3603114 C4.56271959,14.2282237 4.70774753,14.1484751 4.86306818,14.1518908 L4.86328125,14.1518908 Z" id="路径"></path>
        </g>
    </g>
</svg>