<?xml version="1.0" encoding="UTF-8"?>
<svg width="17px" height="17px" viewBox="0 0 17 17" version="1.1" xmlns="http://www.w3.org/2000/svg" xmlns:xlink="http://www.w3.org/1999/xlink">
    <!-- Generator: Sketch 52.2 (67145) - http://www.bohemiancoding.com/sketch -->
    <title>搜索</title>
    <desc>Created with Sketch.</desc>
    <defs>
        <polygon id="path-1" points="0 0.4922 12.2866003 0.4922 12.2866003 12.7792 0 12.7792"></polygon>
        <polygon id="path-3" points="0.179864996 0.7212 4.504 0.7212 4.504 5 0.179864996 5"></polygon>
    </defs>
    <g id="切图" stroke="none" stroke-width="1" fill="none" fill-rule="evenodd">
        <g id="分组" transform="translate(1.000000, 0.000000)">
            <g transform="translate(0.000000, 0.507800)">
                <mask id="mask-2" fill="white">
                    <use xlink:href="#path-1"></use>
                </mask>
                <g id="Clip-2"></g>
                <path d="M6.1406,1.9352 C8.7326,1.9692 10.8136,4.1042 10.7806,6.6972 C10.7476,9.2642 8.7086,11.3032 6.1416,11.3372 C3.5506,11.3362 1.4426,9.2272 1.4426,6.6362 C1.4426,4.0442 3.5516,1.9352 6.1406,1.9352 Z M12.2866,6.6372 C12.2876,3.2502 9.5326,0.4932 6.1456,0.4922 L6.1436,0.4922 C2.7556,0.4922 -0.0004,3.2492 -0.0004,6.6372 C-0.0004,10.0232 2.7556,12.7792 6.1436,12.7792 C9.5306,12.7792 12.2866,10.0232 12.2866,6.6372 Z" id="Fill-1" fill="#FFFFFF" mask="url(#mask-2)"></path>
            </g>
            <g transform="translate(10.000000, 10.507800)">
                <mask id="mask-4" fill="white">
                    <use xlink:href="#path-3"></use>
                </mask>
                <g id="Clip-4"></g>
                <path d="M4.249,3.3882 L1.84,1.0012 C1.455,0.6282 0.85,0.6272 0.465,1.0022 C0.089,1.3692 0.081,1.9732 0.464,2.3652 L2.841,4.7192 C3.033,4.9062 3.28,5.0002 3.528,5.0002 C3.775,5.0002 4.023,4.9052 4.217,4.7182 C4.398,4.5402 4.501,4.3022 4.504,4.0472 C4.507,3.7922 4.41,3.5522 4.249,3.3882 Z" id="Fill-3" fill="#FFFFFF" mask="url(#mask-4)"></path>
            </g>
        </g>
    </g>
</svg>