<?xml version="1.0" encoding="UTF-8"?>
<svg width="17px" height="17px" viewBox="0 0 17 17" version="1.1" xmlns="http://www.w3.org/2000/svg" xmlns:xlink="http://www.w3.org/1999/xlink">
    <!-- Generator: Sketch 52.2 (67145) - http://www.bohemiancoding.com/sketch -->
    <title>交换-baise</title>
    <desc>Created with Sketch.</desc>
    <defs>
        <polygon id="path-1" points="0 0 15 0 15 13 0 13"></polygon>
    </defs>
    <g id="切图" stroke="none" stroke-width="1" fill="none" fill-rule="evenodd">
        <g id="分组-copy-7" transform="translate(1.000000, 2.000000)">
            <g id="分组">
                <mask id="mask-2" fill="white">
                    <use xlink:href="#path-1"></use>
                </mask>
                <g id="Clip-2"></g>
                <path d="M0.608076923,8.14409684 L15,8.14409684 L11.1242949,12.6645879 C10.8803205,13.0581264 10.4433333,13.1133336 10.1482692,12.7878775 C9.85326923,12.4624214 9.81185897,11.8795266 10.0558974,11.4860531 C10.08,11.4471024 10.1065385,11.4108178 10.1351282,11.3777195 L11.3513462,9.75544595 L0.608076923,9.75544595 C0.27224359,9.75512082 0.000192307692,9.39175444 0.000448717949,8.94385401 C0.000641025641,8.49634374 0.272628205,8.13362762 0.608076923,8.13330249 L0.608076923,8.14409684 Z M14.391859,4.8997449 L0,4.8997449 L3.87570513,0.363062363 C4.11044872,-0.044066643 4.54826923,-0.120277343 4.85352564,0.192888811 C5.15871795,0.506054966 5.21589744,1.0899902 4.98108974,1.4971192 C4.94717949,1.55590288 4.90820513,1.60902928 4.86480769,1.65539296 L3.64865385,3.27760144 L14.391859,3.27760144 C14.7277564,3.27766647 14.9999359,3.64083777 14.9999359,4.08880322 C14.9998718,4.53663863 14.7276923,4.89967987 14.391859,4.8997449 Z" id="Fill-1" fill="#FFFFFF" mask="url(#mask-2)"></path>
            </g>
        </g>
    </g>
</svg>