<?xml version="1.0" encoding="UTF-8"?>
<svg width="22px" height="22px" viewBox="0 0 22 22" version="1.1" xmlns="http://www.w3.org/2000/svg" xmlns:xlink="http://www.w3.org/1999/xlink">
    <title>上传报错卷册</title>
    <g id="查重端" stroke="none" stroke-width="1" fill="none" fill-rule="evenodd">
        <g id="本站家谱-家谱查重" transform="translate(-35.000000, -1156.000000)" fill="#FFFFFF" fill-rule="nonzero">
            <g id="tab" transform="translate(0.000000, -1.000000)">
                <g id="编组-3备份-11" transform="translate(0.000000, 1139.000000)">
                    <g id="上传报错卷册" transform="translate(36.000000, 20.000000)">
                        <path d="M9.21636747,0.44826301 C9.37968818,0.170535345 9.67781013,0 10,0 C10.3221899,0 10.6203118,0.170535345 10.7836325,0.44826301 L19.874497,15.9027326 C20.0398348,16.183822 20.0419455,16.5319375 19.8800282,16.815011 C19.7181109,17.0980845 19.4169746,17.2727259 19.0908645,17.2727259 L0.909135497,17.2727259 C0.583025374,17.2727259 0.28188909,17.0980845 0.119971805,16.815011 C-0.0419454809,16.5319375 -0.0398348401,16.183822 0.125502992,15.9027326 L9.21636747,0.44826301 Z M10,2.70188833 L2.49730953,15.454553 L17.5017814,15.454553 L10,2.70188833 Z M10,12.2018417 C10.4605758,12.201848 10.8483749,12.546298 10.9027228,13.003656 L10.9090865,13.1100191 L10.9090865,13.5163807 C10.9085529,13.9973723 10.5334424,14.394708 10.0532772,14.4228963 C9.57311196,14.4510846 9.15408675,14.1003691 9.09727716,13.6227438 L9.09091354,13.5163807 L9.09091354,13.1100191 C9.09091354,12.6079445 9.49792542,12.2009326 10,12.2009326 L10,12.2018417 Z M10,5.69369183 C10.4608839,5.69375263 10.8487994,6.0386966 10.9027228,6.49641515 L10.9090865,6.60277827 L10.9127228,10.669122 C10.9126677,11.1502874 10.537691,11.5480764 10.0573667,11.5765151 C9.57704246,11.6049537 9.15774615,11.2541914 9.10091351,10.7763942 L9.0945499,10.6709401 L9.09091354,6.60368736 C9.09091354,6.10161277 9.49792541,5.6946009 10,5.6946009 L10,5.69369183 Z" id="形状"></path>
                    </g>
                </g>
            </g>
        </g>
    </g>
</svg>