<?xml version="1.0" encoding="UTF-8"?>
<svg width="22px" height="22px" viewBox="0 0 22 22" version="1.1" xmlns="http://www.w3.org/2000/svg" xmlns:xlink="http://www.w3.org/1999/xlink">
    <title>人员工作量统计</title>
    <g id="查重端" stroke="none" stroke-width="1" fill="none" fill-rule="evenodd">
        <g id="本站家谱-家谱查重" transform="translate(-36.000000, -1217.000000)" fill="#FFFFFF" fill-rule="nonzero">
            <g id="tab" transform="translate(0.000000, -1.000000)">
                <g id="编组-3备份-12" transform="translate(0.000000, 1199.000000)">
                    <g id="人员工作量统计" transform="translate(37.000000, 20.000000)">
                        <path d="M2.3196377,12.8530899 C1.82668176,12.8530899 1.42706201,13.2527096 1.42706201,13.7456655 L1.42706201,19.1011196 C1.42706201,19.5940756 1.82668176,19.9936953 2.3196377,19.9936953 C2.81259364,19.9936953 3.21221338,19.5940756 3.21221338,19.1011196 L3.21221338,13.7456655 C3.21221338,13.2527096 2.81259364,12.8530899 2.3196377,12.8530899 Z M7.43699724,7.14060548 C6.9440413,7.14060548 6.54442156,7.54022522 6.54442156,8.03318116 L6.54442156,19.1011196 C6.54442156,19.5940756 6.9440413,19.9936953 7.43699724,19.9936953 C7.92995318,19.9936953 8.32957293,19.5940756 8.32957293,19.1011196 L8.32957293,8.03318116 C8.32957293,7.54022522 7.92995318,7.14060548 7.43699724,7.14060548 Z M17.6719395,7.14060548 C17.1789835,7.14060548 16.7793638,7.54022522 16.7793638,8.03318116 L16.7793638,19.1011196 C16.7793638,19.5940756 17.1789835,19.9936953 17.6719395,19.9936953 C18.1648954,19.9936953 18.5645152,19.5940756 18.5645152,19.1011196 L18.5645152,8.03318116 C18.5645152,7.54022522 18.1648954,7.14060548 17.6719395,7.14060548 L17.6719395,7.14060548 Z M12.5545799,11.4249688 C12.061624,11.4249688 11.6620042,11.8245885 11.6620042,12.3175444 L11.6620042,19.1011196 C11.6620042,19.5940756 12.061624,19.9936953 12.5545799,19.9936953 C12.7913057,19.9936953 13.0183358,19.8996564 13.1857262,19.732266 C13.3531167,19.5648756 13.4471556,19.3378454 13.4471556,19.1011196 L13.4471556,12.3175444 C13.4471556,11.8245885 13.0475359,11.4249688 12.5545799,11.4249688 L12.5545799,11.4249688 Z M19.1074243,0 L15.8867881,0 C15.3938322,0 14.9942124,0.399619746 14.9942124,0.892575684 C14.9942124,1.38553162 15.3938322,1.78515137 15.8867881,1.78515137 L16.9467217,1.78515137 L12.6543253,6.02734045 L8.30413452,1.67603399 C7.97130615,1.34328187 7.43574106,1.33080402 7.087777,1.64769471 C7.07557847,1.65870315 7.0635287,1.67008349 7.05162769,1.68183573 L0.260465594,8.47411355 C-0.0868218647,8.82140101 -0.0868218647,9.38446523 0.260465594,9.73175269 C0.607753053,10.0790401 1.17081727,10.0790401 1.51810473,9.73175269 L7.6806704,3.56896387 L11.967042,7.85466602 C11.9824389,7.87296382 11.9982821,7.89059219 12.0152411,7.90777428 C12.1412707,8.03580042 12.3033372,8.12236043 12.4798267,8.15591032 L12.4918765,8.15791861 L12.5177612,8.16238149 C12.7875407,8.20334755 13.0610561,8.11679205 13.2581527,7.92808037 L13.2717645,7.91513803 L18.2148486,3.03252589 L18.2148486,4.10584815 C18.2148486,4.59880409 18.6144684,4.99842383 19.1074243,4.99842383 C19.6003803,4.99842383 20,4.59880409 20,4.10584815 L20,0.892575684 C20,0.399619746 19.6003803,0 19.1074243,0 Z" id="形状"></path>
                    </g>
                </g>
            </g>
        </g>
    </g>
</svg>