<?xml version="1.0" encoding="UTF-8"?>
<svg width="22px" height="22px" viewBox="0 0 22 22" version="1.1" xmlns="http://www.w3.org/2000/svg" xmlns:xlink="http://www.w3.org/1999/xlink">
    <title>单谱查重</title>
    <g id="查重端" stroke="none" stroke-width="1" fill="none" fill-rule="evenodd">
        <g id="本站家谱-家谱查重" transform="translate(-34.000000, -496.000000)" fill="#FFFFFF">
            <g id="tab" transform="translate(0.000000, -1.000000)">
                <g id="编组-3" transform="translate(0.000000, 479.000000)">
                    <g id="单谱查重" transform="translate(37.000000, 20.000000)">
                        <path d="M7.46813971,11.4796083 C7.16313971,11.4796083 6.85913971,11.4446083 6.56113971,11.3756083 C5.59513971,11.1496083 4.75613971,10.5716083 4.19913971,9.74960833 C3.60413971,8.86860833 3.38613971,7.80860833 3.58713971,6.76460833 C3.78713971,5.72060833 4.38313971,4.81760833 5.26413971,4.22160833 L10.4871397,0.684608334 C11.3671397,0.0886083344 12.4281397,-0.128391666 13.4721397,0.0736083344 C14.5161397,0.274608334 15.4191397,0.871608334 16.0151397,1.75160833 C16.6111397,2.63160833 16.8281397,3.69160833 16.6271397,4.73660833 C16.4261397,5.78060833 15.8291397,6.68360833 14.9491397,7.27960833 L14.1951397,7.78960833 C14.1871397,7.79760833 14.1771397,7.80560833 14.1661397,7.81260833 C13.9851397,7.93560833 13.7671397,7.97960833 13.5511397,7.93860833 C13.3351397,7.89660833 13.1491397,7.77360833 13.0251397,7.59160833 C12.7711397,7.21560833 12.8691397,6.70260833 13.2451397,6.44860833 L14.0251397,5.90560833 C14.5561397,5.54560833 14.9051397,5.03760833 15.0111397,4.47260833 C15.1161397,3.90960833 14.9771397,3.30660833 14.6161397,2.77460833 C14.2581397,2.24460833 13.7131397,1.88460833 13.0841397,1.76360833 C12.4551397,1.64260833 11.8171397,1.77360833 11.2861397,2.13260833 L6.16913971,5.59660833 C5.63913971,5.95560833 5.28013971,6.50060833 5.15813971,7.12860833 C5.03713971,7.75760833 5.16813971,8.39660833 5.52813971,8.92660833 C6.21913971,9.94960833 7.53513971,10.2006083 8.65613971,9.52460833 L8.76413971,9.45960833 L8.77913971,9.48460833 C9.00213971,9.39360833 9.25913971,9.40660833 9.47413971,9.52660833 C9.72513971,9.66560833 9.88413971,9.92960833 9.88913971,10.2166083 C9.89413971,10.5026083 9.74413971,10.7726083 9.49913971,10.9206083 C9.49513971,10.9236083 9.49013971,10.9256083 9.48713971,10.9286083 L9.48913971,10.9336083 L9.38713971,10.9896083 C8.79213971,11.3136083 8.13313971,11.4796083 7.46813971,11.4796083" id="Fill-1"></path>
                        <path d="M3.98473971,17.9376083 C2.74073971,17.9376083 1.51473971,17.3576083 0.738739706,16.2696083 C-0.536260294,14.4826083 -0.119260294,11.9926083 1.66873971,10.7176083 L2.41173971,10.1886083 C2.41873971,10.1796083 2.42673971,10.1726083 2.43573971,10.1666083 C2.79873971,9.89260833 3.31573971,9.96460833 3.58873971,10.3286083 C3.86273971,10.6916083 3.79073971,11.2086083 3.42673971,11.4816083 C3.41573971,11.4906083 3.40373971,11.4986083 3.39073971,11.5066083 L2.62673971,12.0696083 C2.10373971,12.4416083 1.76673971,12.9586083 1.67473971,13.5256083 C1.58373971,14.0906083 1.73873971,14.6906083 2.11073971,15.2126083 C2.88073971,16.2886083 4.38073971,16.5406083 5.45673971,15.7726083 L10.4887397,12.1846083 C11.5647397,11.4156083 11.8157397,9.91460833 11.0477397,8.83860833 C10.6967397,8.34560833 10.1817397,8.02560833 9.60073971,7.93560833 C9.03073971,7.84760833 8.42873971,7.98360833 7.90473971,8.31760833 L7.81073971,8.37660833 L7.79473971,8.35560833 C7.57073971,8.45760833 7.30873971,8.45160833 7.08873971,8.33560833 C6.83473971,8.20360833 6.66873971,7.94360833 6.65673971,7.65660833 C6.64773971,7.45260833 6.71773971,7.25460833 6.84573971,7.10260833 L6.73873971,7.10260833 L7.13773971,6.87260833 C7.99173971,6.37860833 8.99173971,6.21760833 9.95373971,6.41660833 C10.9237397,6.61860833 11.7767397,7.17460833 12.3537397,7.98360833 C12.9707397,8.84860833 13.2147397,9.90260833 13.0397397,10.9516083 C12.8647397,12.0006083 12.2917397,12.9176083 11.4247397,13.5356083 L6.29073971,17.1986083 C5.59073971,17.6976083 4.78473971,17.9376083 3.98473971,17.9376083" id="Fill-3"></path>
                    </g>
                </g>
            </g>
        </g>
    </g>
</svg>