<?xml version="1.0" encoding="UTF-8"?>
<svg width="22px" height="22px" viewBox="0 0 22 22" version="1.1" xmlns="http://www.w3.org/2000/svg" xmlns:xlink="http://www.w3.org/1999/xlink">
    <title>卷册审核状态统计</title>
    <g id="查重端" stroke="none" stroke-width="1" fill="none" fill-rule="evenodd">
        <g id="本站家谱-家谱查重" transform="translate(-35.000000, -1277.000000)" fill="#FFFFFF" fill-rule="nonzero">
            <g id="tab" transform="translate(0.000000, -1.000000)">
                <g id="编组-3备份-13" transform="translate(0.000000, 1259.000000)">
                    <g id="卷册审核状态统计" transform="translate(36.000000, 20.000000)">
                        <path d="M17.4630021,2.48414376 L17.4207188,2.48414376 C15.961945,1.02536998 14.0274841,0.137420719 11.9661734,0 L11.9661734,8.24524313 L20,8.24524313 C19.9154334,6.0782241 19.0063425,4.01691332 17.4630021,2.48414376 Z" id="路径"></path>
                        <path d="M10.4862579,0.169133192 L9.88372093,0.169133192 C4.42917548,0.169133192 0,4.58773784 0,10.0422833 C0,15.5073996 4.42917548,19.9260812 9.88372093,19.9260812 C15.2854123,19.9471459 19.6934461,15.6131078 19.7674419,10.2114165 L19.7674419,9.60887949 L10.4862579,9.60887949 L10.4862579,0.169133192 Z M18.5200846,10.8668076 C18.3403805,12.9281184 17.4312896,14.8731501 15.9408034,16.3213531 L15.8985201,16.3213531 C14.2917548,17.8964059 12.1353066,18.7737844 9.88372093,18.7737844 C5.0845666,18.7737844 1.205074,14.8942918 1.205074,10.0951374 C1.17336152,5.52854123 4.71458774,1.71247357 9.28118393,1.41649049 L9.28118393,10.8668076 L18.5200846,10.8668076 Z" id="形状" stroke="#FFFFFF" stroke-width="0.4"></path>
                    </g>
                </g>
            </g>
        </g>
    </g>
</svg>