<?xml version="1.0" encoding="UTF-8"?>
<svg width="22px" height="22px" viewBox="0 0 22 22" version="1.1" xmlns="http://www.w3.org/2000/svg" xmlns:xlink="http://www.w3.org/1999/xlink">
    <title>回收站</title>
    <g id="查重端" stroke="none" stroke-width="1" fill="none" fill-rule="evenodd">
        <g id="本站家谱-家谱查重" transform="translate(-36.000000, -1097.000000)" fill="#FFFFFF" fill-rule="nonzero">
            <g id="tab" transform="translate(0.000000, -1.000000)">
                <g id="编组-3备份-10" transform="translate(0.000000, 1079.000000)">
                    <g id="回收站" transform="translate(37.000000, 20.000000)">
                        <path d="M0.74690169,6.07241686 C0.484440092,6.08514026 0.236301436,5.9519119 0.101272044,5.72577126 C-0.033757348,5.49963061 -0.033757348,5.21728843 0.101272044,4.99114778 C0.236301436,4.76500713 0.484440092,4.63177878 0.74690169,4.64450218 L5.03110489,4.64450218 C5.21589411,2.02796511 7.38568273,0 10.0004152,0 C12.6151477,0 14.7849363,2.02796511 14.9697256,4.64450218 L19.2530983,4.64450218 C19.5155599,4.63177878 19.7636986,4.76500713 19.898728,4.99114778 C20.0337573,5.21728843 20.0337573,5.49963061 19.898728,5.72577126 C19.7636986,5.9519119 19.5155599,6.08514026 19.2530983,6.07241686 L17.7682843,6.07241686 L16.5433958,17.9564325 C16.4213222,19.1202579 15.5078461,20 14.4208094,20 L5.57836015,20 C4.49132351,20 3.57784735,19.1194248 3.45826502,17.9564325 L2.22922437,6.07241686 L0.74690169,6.07241686 Z M4.87415308,17.7873154 C4.9003423,18.1621691 5.20481675,18.4564644 5.57919059,18.4687823 L14.419979,18.4687823 C14.7953184,18.457721 15.1012139,18.1630932 15.1275078,17.7873154 L16.3366181,6.07324995 L3.66172108,6.07324995 L4.87415308,17.7873154 Z M13.541381,4.6436691 C13.3625301,2.81599505 11.8306046,1.42265216 10,1.42265216 C8.1693954,1.42265216 6.63746989,2.81599505 6.458619,4.6436691 L13.541381,4.6436691 L13.541381,4.6436691 Z M12.2774622,15.7145899 L11.4229467,14.2866751 L12.4643096,14.2866751 L11.2311167,12.1431369 L12.0382975,10.6868972 L14.3153444,14.6432373 C14.4422679,14.8644651 14.4419645,15.1368031 14.3145483,15.3577457 C14.1871321,15.5786883 13.9519424,15.714701 13.6975024,15.7145899 L12.2774622,15.7145899 L12.2774622,15.7145899 Z M10.8549306,15.7145961 L6.30083675,15.7145961 C6.04603954,15.7156614 5.81020577,15.5796843 5.68286686,15.3582805 C5.55552795,15.1368767 5.55621057,14.8639971 5.68465557,14.6432373 L6.39467568,13.4094323 L8.05471098,13.3811073 L7.53402957,14.2866751 L10.0004152,14.2866751 L10.8549306,15.7145961 L10.8549306,15.7145961 Z M11.327447,9.45059305 L10.5202662,10.9076658 L9.99958479,10.002098 L8.76639197,12.14397 L7.10718708,12.1731282 L9.38257315,8.21595504 C9.50940529,7.994758 9.74438648,7.85840663 9.99875435,7.85840663 C10.2531222,7.85840663 10.4881034,7.994758 10.6149356,8.21595504 L11.327447,9.45059305 L11.327447,9.45059305 Z" id="形状"></path>
                    </g>
                </g>
            </g>
        </g>
    </g>
</svg>