<?xml version="1.0" encoding="UTF-8"?>
<svg width="22px" height="22px" viewBox="0 0 22 22" version="1.1" xmlns="http://www.w3.org/2000/svg" xmlns:xlink="http://www.w3.org/1999/xlink">
    <title>家谱列表</title>
    <g id="查重端" stroke="none" stroke-width="1" fill="none" fill-rule="evenodd">
        <g id="本站家谱-家谱查重" transform="translate(-36.000000, -558.000000)" fill="#FFFFFF" fill-rule="nonzero">
            <g id="tab" transform="translate(0.000000, -1.000000)">
                <g id="编组-3备份" transform="translate(0.000000, 539.000000)">
                    <g id="家谱列表" transform="translate(38.000000, 24.000000)">
                        <path d="M7.01428571,2.85714286 L17.4142857,2.85714286 C18.1942857,2.85714286 18.7142857,2.28571429 18.7142857,1.42857143 C18.7142857,0.571428571 18.1942857,0 17.4142857,0 L7.01428571,0 C6.23428571,0 5.71428571,0.571428571 5.71428571,1.42857143 C5.71428571,2.28571429 6.23428571,2.85714286 7.01428571,2.85714286 Z M17.4142857,5.71428571 L7.01428571,5.71428571 C6.23428571,5.71428571 5.71428571,6.28571429 5.71428571,7.14285714 C5.71428571,8 6.23428571,8.57142857 7.01428571,8.57142857 L17.4142857,8.57142857 C18.1942857,8.57142857 18.7142857,8 18.7142857,7.14285714 C18.7142857,6.28571429 18.1942857,5.71428571 17.4142857,5.71428571 Z M17.4142857,11.4285714 L7.01428571,11.4285714 C6.23428571,11.4285714 5.71428571,12 5.71428571,12.8571429 C5.71428571,13.7142857 6.23428571,14.2857143 7.01428571,14.2857143 L17.4142857,14.2857143 C18.1942857,14.2857143 18.7142857,13.7142857 18.7142857,12.8571429 C18.7142857,12 18.1942857,11.4285714 17.4142857,11.4285714 Z M1.42857143,0 C0.571428571,0 0,0.571428571 0,1.42857143 C0,2.28571429 0.571428571,2.85714286 1.42857143,2.85714286 C2.28571429,2.85714286 2.85714286,2.28571429 2.85714286,1.42857143 C2.85714286,0.571428571 2.28571429,0 1.42857143,0 Z M1.42857143,5.71428571 C0.571428571,5.71428571 0,6.28571429 0,7.14285714 C0,8 0.571428571,8.57142857 1.42857143,8.57142857 C2.28571429,8.57142857 2.85714286,8 2.85714286,7.14285714 C2.85714286,6.28571429 2.28571429,5.71428571 1.42857143,5.71428571 Z M1.42857143,11.4285714 C0.571428571,11.4285714 0,12 0,12.8571429 C0,13.7142857 0.571428571,14.2857143 1.42857143,14.2857143 C2.28571429,14.2857143 2.85714286,13.7142857 2.85714286,12.8571429 C2.85714286,12 2.28571429,11.4285714 1.42857143,11.4285714 Z" id="形状"></path>
                    </g>
                </g>
            </g>
        </g>
    </g>
</svg>