<?xml version="1.0" encoding="UTF-8"?>
<svg width="22px" height="22px" viewBox="0 0 22 22" version="1.1" xmlns="http://www.w3.org/2000/svg" xmlns:xlink="http://www.w3.org/1999/xlink">
    <title>影像审核</title>
    <g id="查重端" stroke="none" stroke-width="1" fill="none" fill-rule="evenodd">
        <g id="本站家谱-家谱查重" transform="translate(-36.000000, -439.000000)" fill="#FFFFFF" fill-rule="nonzero">
            <g id="tab" transform="translate(0.000000, -1.000000)">
                <g id="编组-8" transform="translate(36.000000, 440.000000)">
                    <g id="影像审核" transform="translate(1.000000, 2.000000)">
                        <path d="M15.7268722,18.722467 L2.07048458,18.722467 C0.925110132,18.722467 0,17.7973568 0,16.6519824 L0,4.27312775 C0,3.1277533 0.925110132,2.20264317 2.07048458,2.20264317 L15.7268722,2.20264317 C16.8722467,2.20264317 17.7973568,3.1277533 17.7973568,4.27312775 L17.7973568,16.6519824 C17.7973568,17.7973568 16.8722467,18.722467 15.7268722,18.722467 Z M2.07048458,3.52422907 C1.65198238,3.52422907 1.3215859,3.85462555 1.3215859,4.27312775 L1.3215859,16.6519824 C1.3215859,17.0704846 1.65198238,17.4008811 2.07048458,17.4008811 L15.7268722,17.4008811 C16.1453744,17.4008811 16.4757709,17.0704846 16.4757709,16.6519824 L16.4757709,4.27312775 C16.4757709,3.85462555 16.1453744,3.52422907 15.7268722,3.52422907 L2.07048458,3.52422907 Z" id="形状"></path>
                        <path d="M19.339207,16.5198238 C18.9647577,16.5198238 18.6784141,16.2334802 18.6784141,15.8590308 L18.6784141,3.6123348 C18.6784141,2.35682819 17.6431718,1.3215859 16.3876652,1.3215859 L2.86343612,1.3215859 C2.48898678,1.3215859 2.20264317,1.03524229 2.20264317,0.660792952 C2.20264317,0.286343612 2.48898678,0 2.86343612,0 L16.3876652,0 C18.3920705,0 20,1.62995595 20,3.6123348 L20,15.8590308 C20,16.2334802 19.7136564,16.5198238 19.339207,16.5198238 Z" id="路径"></path>
                        <path d="M0.660792952,16.2995595 C0.418502203,16.2995595 0.198237885,16.1674009 0.0881057269,15.9471366 C-0.0881057269,15.6167401 0.0440528634,15.2202643 0.352422907,15.0440529 L11.3656388,9.0969163 C11.6299559,8.94273128 11.9603524,9.00881057 12.1585903,9.22907489 L14.8898678,12.2246696 C15.1321586,12.4889868 15.1101322,12.907489 14.845815,13.1497797 C14.5814978,13.3920705 14.1629956,13.3700441 13.9207048,13.1057269 L11.5418502,10.5066079 L0.969162996,16.2114537 C0.881057269,16.277533 0.77092511,16.2995595 0.660792952,16.2995595 L0.660792952,16.2995595 Z M5.17621145,10.1321586 C4.030837,10.1321586 3.08370044,9.18502203 3.08370044,8.03964758 C3.08370044,6.89427313 4.030837,5.94713656 5.17621145,5.94713656 C6.3215859,5.94713656 7.26872247,6.89427313 7.26872247,8.03964758 C7.26872247,9.18502203 6.3215859,10.1321586 5.17621145,10.1321586 Z M5.17621145,7.26872247 C4.75770925,7.26872247 4.40528634,7.62114537 4.40528634,8.03964758 C4.40528634,8.45814978 4.75770925,8.81057269 5.17621145,8.81057269 C5.59471366,8.81057269 5.94713656,8.45814978 5.94713656,8.03964758 C5.94713656,7.62114537 5.59471366,7.26872247 5.17621145,7.26872247 Z" id="形状"></path>
                    </g>
                </g>
            </g>
        </g>
    </g>
</svg>