<?xml version="1.0" encoding="UTF-8"?>
<svg width="22px" height="22px" viewBox="0 0 22 22" version="1.1" xmlns="http://www.w3.org/2000/svg" xmlns:xlink="http://www.w3.org/1999/xlink">
    <title>待议谱</title>
    <g id="查重端" stroke="none" stroke-width="1" fill="none" fill-rule="evenodd">
        <g id="本站家谱-家谱查重" transform="translate(-37.000000, -263.000000)">
            <g id="tab" transform="translate(0.000000, -1.000000)">
                <g id="编组-5" transform="translate(38.000000, 264.000000)">
                    <g id="待议谱" transform="translate(0.000000, 1.000000)">
                        <circle id="椭圆形备份" stroke="#FFFFFF" stroke-width="1.6" cx="10" cy="10" r="10"></circle>
                        <path d="M11.0540201,11.9802575 L11.0540201,12.4349564 L9.43241205,12.4349564 L9.43241205,11.9802575 C9.43241205,10.9404824 9.92278632,9.95713928 10.6246183,9.20925365 C11.1610462,8.63715034 11.1461274,8.65336642 11.2992072,8.47174632 C11.7039606,7.98980441 11.8648241,7.64537486 11.8648241,7.24321607 C11.8648241,6.34762668 11.1388055,5.62160804 10.2432161,5.62160804 C9.34762668,5.62160804 8.62160804,6.34762668 8.62160804,7.24321607 L7,7.24321607 C7,5.45203729 8.45203729,4 10.2432161,4 C12.0343948,4 13.4864321,5.45203729 13.4864321,7.24321607 C13.4864321,8.08774953 13.168597,8.76752762 12.5407103,9.51476461 C12.4349815,9.64060139 12.3201716,9.76968139 12.1787674,9.92211254 C12.1242814,9.98049043 12.0684981,10.0414629 11.9932555,10.1205974 L11.8077435,10.3184335 C11.3627743,10.7919431 11.0540201,11.4113974 11.0540201,11.9802575 Z M10.9294806,14.3374269 C11.1208303,14.5261821 11.2161809,14.7564504 11.2161809,15.0269346 C11.2161809,15.302608 11.1208303,15.533525 10.9294806,15.7203342 C10.7481092,15.9027404 10.5004195,16.0036424 10.2432161,15.9998995 C9.97727235,15.9998995 9.74765265,15.9064948 9.55695155,15.7203342 C9.36819607,15.5397557 9.26413795,15.2880857 9.27025125,15.0269346 C9.27025125,14.7564504 9.3656018,14.5261821 9.55695155,14.3374269 C9.73723919,14.1529528 9.98529698,14.0504941 10.2432161,14.0539698 C10.5091598,14.0539698 10.7387795,14.1486717 10.9294806,14.3374269 L10.9294806,14.3374269 Z" id="形状" fill="#FFFFFF" fill-rule="nonzero"></path>
                    </g>
                </g>
            </g>
        </g>
    </g>
</svg>