<?xml version="1.0" encoding="UTF-8"?>
<svg width="22px" height="22px" viewBox="0 0 22 22" version="1.1" xmlns="http://www.w3.org/2000/svg" xmlns:xlink="http://www.w3.org/1999/xlink">
    <title>成员管理</title>
    <g id="查重端" stroke="none" stroke-width="1" fill="none" fill-rule="evenodd">
        <g id="本站家谱-家谱查重" transform="translate(-35.000000, -737.000000)" fill-rule="nonzero">
            <g id="tab" transform="translate(0.000000, -1.000000)">
                <g id="编组-3备份-4" transform="translate(0.000000, 719.000000)">
                    <g id="成员管理" transform="translate(36.000000, 20.000000)">
                        <path d="M11.7018182,11.3921327 C9.46506707,10.5317861 6.94804827,10.8285822 4.97275862,12.1855945 C2.99746897,13.5426069 1.81749292,15.7856245 1.81818181,18.1821327 C1.81810496,18.6841554 1.41111361,19.0910844 0.909090906,19.0910844 C0.407068207,19.0910844 0,18.6841554 0,18.1821327 C0,14.3548599 2.36545455,11.0794054 5.71454544,9.73849629 C3.88948068,8.30008522 3.17611016,5.86333358 3.93731467,3.66778 C4.69851918,1.47222642 6.76714321,0 9.09090908,0 C11.414675,0 13.483299,1.47222642 14.2445035,3.66778 C15.005708,5.86333358 14.2923375,8.30008522 12.4672727,9.73849629 C12.8218182,9.88122357 13.1663636,10.0448599 13.4972727,10.2284963 C12.8276378,10.4936549 12.2173434,10.8891875 11.7018182,11.3921327 L11.7018182,11.3921327 Z M9.09090908,9.09122356 C10.390123,9.09132301 11.5906887,8.39825776 12.2403243,7.2731221 C12.88996,6.14798643 12.88996,4.76173341 12.2403243,3.63659775 C11.5906887,2.51146208 10.390123,1.81839684 9.09090908,1.81849629 C7.0827096,1.81865001 5.45482379,3.44666044 5.45482379,5.45485992 C5.45482379,7.46305941 7.0827096,9.09106984 9.09090908,9.09122356 Z" id="形状" fill="#FFFFFF"></path>
                        <path d="M14.9993347,10.4999996 C16.2414739,10.5016524 17.3658139,11.0057493 18.1800323,11.8199677 C18.9942507,12.6341861 19.4983476,13.7585261 19.5,15 C19.5,16.2426407 18.9963203,17.3676407 18.1819805,18.1819805 C17.3676407,18.9963203 16.2426407,19.5 15,19.5 C13.7573593,19.5 12.6323593,18.9963203 11.8180195,18.1819805 C11.0036797,17.3676407 10.5,16.2426407 10.5,15 C10.5,13.7573593 11.0036797,12.6323593 11.8180195,11.8180195 C12.6323593,11.0036797 13.7573593,10.5 14.9993347,10.4999996 Z" id="路径" stroke="#FFFFFF"></path>
                        <polygon id="路径" fill="#FFFFFF" points="14.36 15.8866667 13.2333333 14.7666667 12.7666667 15.2333333 14.3066667 16.78 17.8733333 13.9266667 17.46 13.4066667"></polygon>
                    </g>
                </g>
            </g>
        </g>
    </g>
</svg>