<?xml version="1.0" encoding="UTF-8"?>
<svg width="22px" height="22px" viewBox="0 0 22 22" version="1.1" xmlns="http://www.w3.org/2000/svg" xmlns:xlink="http://www.w3.org/1999/xlink">
    <title>拍机编号</title>
    <g id="查重端" stroke="none" stroke-width="1" fill="none" fill-rule="evenodd">
        <g id="本站家谱-家谱查重" transform="translate(-36.000000, -617.000000)" fill="#FFFFFF" fill-rule="nonzero">
            <g id="tab" transform="translate(0.000000, -1.000000)">
                <g id="编组-3备份-2" transform="translate(0.000000, 599.000000)">
                    <g id="拍机编号" transform="translate(37.000000, 21.000000)">
                        <path d="M7.76667109,13.4296194 C7.60114782,13.4716179 7.49985746,13.6396116 7.5418559,13.8051349 C7.64067577,14.2004143 7.58138385,14.5660478 7.37386214,14.830391 C7.17869291,15.0799111 6.86493984,15.2182589 6.49189486,15.2182589 C5.63463254,15.2182589 4.76007675,14.5166379 4.54514355,13.6544346 C4.44632369,13.2591551 4.50561561,12.8935217 4.71313732,12.6291785 C4.90830655,12.3796584 5.22205961,12.2413106 5.5951046,12.2413106 C5.76556886,12.2413106 5.90391667,12.1029627 5.90391667,11.9324985 C5.90391667,11.7620342 5.76556886,11.6236864 5.5951046,11.6236864 C5.02689038,11.6236864 4.54267305,11.8460311 4.22644949,12.248722 C3.90034394,12.666236 3.80152408,13.2171567 3.94728338,13.8026644 C4.08316069,14.3486441 4.42161872,14.8600369 4.89842456,15.2404934 C5.3777009,15.6234204 5.94344462,15.8334126 6.49436535,15.8334126 C7.06010907,15.8334126 7.5467969,15.6110679 7.86302046,15.2083769 C8.18912601,14.790863 8.28794587,14.2399423 8.14218657,13.6544346 C8.10018813,13.4889113 7.93219436,13.387621 7.76667109,13.4296194 L7.76667109,13.4296194 Z" id="路径"></path>
                        <path d="M6.80564792,12.6983524 C6.8945858,12.7699968 6.98105318,12.8490527 7.05763857,12.9330496 C7.11940099,12.999753 7.20092737,13.0318695 7.28492426,13.0318695 C7.35903916,13.0318695 7.43315405,13.004694 7.49244597,12.9478726 C7.6184413,12.8317592 7.62585279,12.63659 7.50973945,12.5105947 C7.41339008,12.4043633 7.30468823,12.3055435 7.19104539,12.2141351 C7.05763857,12.1079037 6.86246934,12.1301382 6.75623799,12.263545 C6.65000664,12.3969518 6.67224111,12.5921211 6.80564792,12.6983524 L6.80564792,12.6983524 Z" id="路径"></path>
                        <path d="M19.9264553,10.8800669 L18.1254633,3.65386444 C18.0044089,3.16717662 17.7351248,2.71260524 17.3250224,2.36673572 L17.3027879,2.34450125 C17.2904354,2.33214877 17.2756124,2.32226679 17.2607894,2.3123848 C17.258319,2.3099143 17.2558485,2.30744381 17.2509075,2.30497331 C16.7988066,1.9516923 16.2627088,1.78122803 15.7290816,1.78122803 L14.7853519,1.78122803 L13.975029,0.849850824 C13.7502138,0.590448683 13.4685772,0.37551548 13.1350602,0.222344692 C12.8015431,0.0716444008 12.4532031,0 12.1098041,0 L7.38374412,0 C7.04281559,0 6.69694607,0.0691739042 6.36837003,0.217403699 C6.03732349,0.365633494 5.75815737,0.5780962 5.53334218,0.835027844 L4.69584384,1.78122803 L4.28574141,1.78122803 C3.94481288,1.78122803 3.59894336,1.85040194 3.27036732,1.99863173 C2.93932077,2.14686153 2.66015466,2.35932423 2.43533947,2.61625588 L0.619524485,4.66923854 C0.362592841,4.96075713 0.169894108,5.31650864 0.0710742447,5.71919958 C-0.0277456185,6.12189053 -0.0203341288,6.52705196 0.0735447412,6.90256744 L1.41749488,12.28825 C1.36808495,12.7823493 1.40761289,13.3060946 1.54101971,13.8347808 C1.84489079,15.0502652 2.59839225,16.1891641 3.66070578,17.0390149 C4.7279603,17.8938067 5.99038405,18.3632011 7.21575035,18.3632011 L7.23057333,18.3632011 C8.4855856,18.3632011 9.56272211,17.8715723 10.2594021,16.979723 C10.2717546,16.9624295 10.2865776,16.945136 10.2989301,16.9278426 L11.1166645,16.0014063 L15.7167291,16.0014063 C16.0576576,16.0014063 16.4035271,15.9322324 16.7321032,15.7840027 C17.0631497,15.6357729 17.3423158,15.4233101 17.567131,15.1663785 L19.3804755,13.1133958 C19.6374072,12.8218773 19.8301059,12.4661257 19.9289258,12.0634348 C20.0277456,11.6607439 20.0203341,11.2555824 19.9264553,10.8800669 L19.9264553,10.8800669 Z M17.3670208,5.72167008 L17.7425363,7.22867299 L15.4770909,9.80045993 L15.1015754,8.29345702 L17.3670208,5.72167008 Z M14.3258395,3.19188158 C14.5901826,3.07329775 14.8668783,3.01647632 15.1386329,3.01647632 L15.5339123,3.01647632 C15.751316,3.01647632 15.9662492,3.06341576 16.16883,3.15976513 L15.2053363,4.25419511 C15.0916935,4.38266093 15.1040459,4.57783016 15.2325118,4.68900251 C15.2918037,4.74088294 15.3634481,4.7655879 15.437563,4.7655879 C15.5240304,4.7655879 15.6080272,4.73100095 15.6697897,4.66182705 L16.6629293,3.53528061 C16.8161001,3.71315636 16.9198609,3.92067807 16.9742118,4.14055227 L17.1866746,4.99287359 L14.9212292,7.56466053 L14.8742898,7.37196179 C14.7729994,6.96432986 14.5654777,6.57893239 14.2616066,6.26270883 L14.5457137,5.94154428 C14.6593566,5.81307845 14.6470041,5.61790922 14.5185382,5.50673688 C14.3900724,5.39309403 14.1949032,5.40544652 14.0837308,5.53391234 L13.7823303,5.87484087 C13.3796393,5.62285022 12.9275384,5.50179588 12.4779081,5.50179588 L12.0579237,5.50179588 L13.6538644,3.68845139 C13.8366812,3.48092968 14.0614964,3.31046542 14.3258395,3.19188158 L14.3258395,3.19188158 Z M12.7447217,1.31924517 L13.8243287,2.55943446 L11.3785371,5.33874311 L10.2939891,4.09855383 L12.7447217,1.31924517 L12.7447217,1.31924517 Z M6.2448452,1.90228237 C6.42519145,1.69723115 6.65000664,1.52676689 6.91434977,1.40818305 C7.17869291,1.28959921 7.45538852,1.23277779 7.72714315,1.23277779 L11.9961612,1.23277779 L10.3310465,3.11776668 C10.1507003,3.3228179 9.9258851,3.49328216 9.66154197,3.611866 C9.39719883,3.73044984 9.12050322,3.78727126 8.84874859,3.78727126 L4.5797305,3.78727126 L6.2448452,1.90228237 Z M3.72740918,3.01647632 L4.4364417,3.01647632 L3.62364833,3.93550105 L3.27777881,4.85946677 C3.2086049,5.04228352 3.08755057,5.20533629 2.91461581,5.32392013 C2.74168105,5.44250397 2.54651182,5.49932539 2.35134259,5.49932539 L1.53113772,5.49932539 L3.72740918,3.01647632 Z M9.34037741,16.1496361 L9.18967712,16.3225709 C8.73263525,16.8413752 8.03348472,17.1279528 7.22810284,17.1304233 C5.25664657,17.1279528 3.25307384,15.517189 2.75897452,13.5358508 C2.66262516,13.1529238 2.6329792,12.7848198 2.66262516,12.4389503 L2.68485963,12.2462515 C2.74909254,11.8361491 2.90720432,11.4631041 3.15178348,11.1493511 C3.60882535,10.5638434 4.34009234,10.2402083 5.20723663,10.2402083 C7.1811634,10.2402083 9.18967712,11.8534426 9.68377644,13.8347808 C9.90118014,14.7192186 9.7801258,15.5394235 9.34037741,16.1496361 L9.34037741,16.1496361 Z M11.1957203,14.0497141 L11.0054921,14.2646473 C10.9832576,14.0250091 10.9412592,13.7804299 10.8794968,13.5358508 C10.5756257,12.3203664 9.82212425,11.1814675 8.75981072,10.3316167 C7.69255619,9.47682488 6.43013244,9.00743053 5.20476614,9.00743053 C5.14300372,9.00743053 5.08124131,9.00990103 5.01947889,9.01237152 L5.22700061,8.77767435 C5.68651297,8.25639957 6.3856635,7.96982197 7.19845688,7.96982197 C9.17238365,7.96982197 11.1808974,9.58305623 11.6749967,11.5643945 C11.9121644,12.5254177 11.7392296,13.4320899 11.1957203,14.0497141 L11.1957203,14.0497141 Z M15.5932043,14.3881721 C15.398035,14.6376922 15.1089869,14.7686286 14.8149978,14.7686286 L12.2036829,14.7686286 C12.9547139,13.8496038 13.1992931,12.5797686 12.870717,11.2629939 C12.5668459,10.0475096 11.8133445,8.90861067 10.751031,8.05875984 C9.68377644,7.20396803 8.42135269,6.73457368 7.19598638,6.73457368 C6.024971,6.73457368 4.99724443,7.16938108 4.30056439,7.95993998 L2.29452117,10.2327968 L2.20558329,10.3365577 L1.45949332,7.34478633 C1.38784892,7.06067923 1.44467034,6.74692616 1.63983957,6.49740601 C1.8350088,6.24788585 2.1240569,6.11694953 2.418046,6.11694953 L2.44522146,6.11694953 C2.73921055,6.11694953 3.03567014,6.03048215 3.29260179,5.8501359 C3.54953343,5.66978965 3.73482067,5.4202695 3.83611103,5.14604438 L4.10786566,4.4048954 L9.73812736,4.4048954 L10.6447996,5.44003347 C10.8251459,5.64508469 11.049961,5.81801945 11.3167747,5.93907378 C11.5811178,6.06012811 11.8602839,6.11694953 12.134509,6.11694953 L12.3790882,6.11694953 C12.8040136,6.11694953 13.23388,6.25282684 13.597043,6.53693395 C13.960206,6.82104106 14.1949032,7.20396803 14.298664,7.61654096 L14.4617168,8.26628156 C14.4641873,8.27863404 14.4666578,8.29098652 14.4715988,8.30333901 L15.776021,13.5407918 C15.8451949,13.8248989 15.7883735,14.1386519 15.5932043,14.3881721 L15.5932043,14.3881721 Z M15.6599077,10.5267859 L17.925353,7.95499899 L18.3008685,9.4620019 L16.0354231,12.0362593 L15.6599077,10.5267859 L15.6599077,10.5267859 Z M18.5750936,11.7323883 C18.4762738,12.1350792 18.283575,12.4908307 18.0266434,12.7823493 L17.552308,13.3184471 C17.3769028,13.5185573 17.0977367,13.6149067 16.8210411,13.5482032 C16.5443454,13.4814998 16.3417647,13.2665666 16.2775318,13.0071645 L16.2157694,12.7625853 L18.4812148,10.1907984 L18.5701526,10.5490204 C18.666502,10.9270064 18.6739135,11.3296973 18.5750936,11.7323883 L18.5750936,11.7323883 Z" id="形状"></path>
                    </g>
                </g>
            </g>
        </g>
    </g>
</svg>