<?xml version="1.0" encoding="UTF-8"?>
<svg width="22px" height="22px" viewBox="0 0 22 22" version="1.1" xmlns="http://www.w3.org/2000/svg" xmlns:xlink="http://www.w3.org/1999/xlink">
    <title>数据字典</title>
    <g id="查重端" stroke="none" stroke-width="1" fill="none" fill-rule="evenodd">
        <g id="本站家谱-家谱查重" transform="translate(-36.000000, -857.000000)" fill="#FFFFFF" fill-rule="nonzero">
            <g id="tab" transform="translate(0.000000, -1.000000)">
                <g id="编组-3备份-6" transform="translate(0.000000, 839.000000)">
                    <g id="数据查询,数据库查询" transform="translate(37.000000, 21.000000)">
                        <path d="M19.8169437,17.6436992 L19.1862537,17.0130092 C19.6958825,16.3159308 19.9965829,15.4567865 19.9965829,14.5273486 C19.9965829,12.8090601 18.969515,11.332894 17.4972542,10.6748676 L17.4972542,4.1004613 C17.4972542,3.32723146 17.0403456,2.60476923 16.2475898,1.98774743 C14.7147983,0.796661053 11.9303898,0 8.74765078,0 C5.56491177,0 2.78050328,0.796661053 1.2496644,1.98774743 C0.456908545,2.60476923 0,3.32723146 0,4.1004613 L0,13.3948403 C0,15.659857 3.91691684,17.4953016 8.74765078,17.4953016 C10.0695614,17.4953016 11.3211784,17.3586195 12.4439238,17.1125918 C13.215201,18.1064655 14.4219082,18.744966 15.777013,18.744966 C16.7259769,18.744966 17.6026946,18.4305973 18.3075834,17.9014425 L18.9343682,18.5282273 C19.0554295,18.6512411 19.2155427,18.7117717 19.375656,18.7117717 C19.5357692,18.7117717 19.6958825,18.6512411 19.8169437,18.5282273 C20.0610188,18.2841522 20.0610188,17.8877743 19.8169437,17.6436992 Z M3.09291938,2.33335774 C3.80561861,1.99946303 4.64328427,1.73586195 5.58639037,1.54841229 C6.58416929,1.34924703 7.64833663,1.2496644 8.74765078,1.2496644 C9.84696493,1.2496644 10.9111323,1.34924703 11.9089112,1.54841229 C12.8520173,1.73586195 13.6896829,1.99946303 14.4023822,2.33335774 C15.5387957,2.86641771 16.2456372,3.54397013 16.2456372,4.1004613 C16.2456372,4.65695248 15.5387957,5.33645749 14.4023822,5.86756486 C13.6896829,6.20145957 12.8520173,6.46506065 11.9089112,6.65251031 C10.9111323,6.85167558 9.84696493,6.95125821 8.74765078,6.95125821 C7.64833663,6.95125821 6.58416929,6.85167558 5.58639037,6.65251031 C4.64328427,6.46506065 3.80561861,6.20145957 3.09291938,5.86756486 C1.95650582,5.33645749 1.2496644,4.65890508 1.2496644,4.1004613 C1.2496644,3.54201752 1.95650582,2.86446511 3.09291938,2.33335774 Z M1.2496644,6.21317517 C2.78050328,7.40426155 5.56491177,8.2009226 8.74765078,8.2009226 C11.9303898,8.2009226 14.7147983,7.40426155 16.2456372,6.21317517 L16.2456372,7.14651827 C16.2456372,7.70496205 15.5387957,8.38251446 14.4023822,8.91362183 C13.6896829,9.24751654 12.8520173,9.51111762 11.9089112,9.69856728 C10.9111323,9.89773254 9.84696493,9.99731517 8.74765078,9.99731517 C7.64833663,9.99731517 6.58416929,9.89773254 5.58639037,9.69856728 C4.64328427,9.51111762 3.80561861,9.24751654 3.09291938,8.91362183 C1.95650582,8.38251446 1.2496644,7.70496205 1.2496644,7.14651827 L1.2496644,6.21317517 Z M8.74765078,16.2456372 C7.64833663,16.2456372 6.58416929,16.1460545 5.58639037,15.9468893 C4.64328427,15.7594396 3.80561861,15.4958385 3.09291938,15.1619438 C1.95650582,14.6308364 1.2496644,13.953284 1.2496644,13.3948403 L1.2496644,12.3833931 C2.78050328,13.5744795 5.56491177,14.3711406 8.74765078,14.3711406 C9.73761929,14.3711406 10.6885358,14.2930365 11.5750165,14.1524493 C11.5633009,14.2754631 11.5593957,14.4004296 11.5593957,14.5273486 C11.5593957,15.0330722 11.6472627,15.5173171 11.8112812,15.9664153 C10.8408386,16.1519123 9.81181812,16.2456372 8.74765078,16.2456372 Z M11.9186742,12.8207757 C11.914769,12.8207757 11.9128164,12.8227283 11.9089112,12.8227283 C10.9111323,13.0218935 9.84696493,13.1214762 8.74765078,13.1214762 C7.64833663,13.1214762 6.58416929,13.0218935 5.58639037,12.8227283 C4.64328427,12.6352786 3.80561861,12.3716775 3.09291938,12.0377828 C1.95650582,11.5066755 1.2496644,10.829123 1.2496644,10.2706793 L1.2496644,9.25923214 C2.78050328,10.4503185 5.56491177,11.2469796 8.74765078,11.2469796 C11.9303898,11.2469796 14.7147983,10.4503185 16.2456372,9.25923214 L16.2456372,10.2706793 C16.2456372,10.2921579 16.2436846,10.3136365 16.241732,10.3351151 C16.0894291,10.3175417 15.9332211,10.3097313 15.777013,10.3097313 C14.0548193,10.3097313 12.574748,11.342657 11.9186742,12.8207757 Z M17.8760587,16.6263943 C17.3156623,17.1867907 16.5697689,17.4953016 15.777013,17.4953016 C15.0408826,17.4953016 14.3457568,17.2297479 13.8009812,16.7415977 C13.758024,16.7044983 13.7170194,16.6654463 13.6779673,16.6244417 C13.4006981,16.3471724 13.1839594,16.0230407 13.0375143,15.6715726 C12.8871641,15.3142467 12.8090601,14.9276317 12.8090601,14.5273486 C12.8090601,14.3086573 12.8324913,14.0938713 12.8774011,13.8868956 C12.9984623,13.3382148 13.2718264,12.8363965 13.6779673,12.4302555 C13.7306876,12.3775353 13.7853604,12.3267677 13.8419858,12.2779527 C14.2227429,11.9499158 14.6737937,11.7273193 15.1599912,11.6238315 C15.3611091,11.5808743 15.5680847,11.5593957 15.7789656,11.5593957 C16.4037978,11.5593957 16.999341,11.7507505 17.4972542,12.1061238 C17.6319836,12.2018013 17.7589026,12.3091943 17.8780113,12.4283029 C18.4364551,12.9886993 18.744966,13.7345928 18.744966,14.5273486 C18.744966,15.3201045 18.4364551,16.0659979 17.8760587,16.6263943 Z" id="形状"></path>
                    </g>
                </g>
            </g>
        </g>
    </g>
</svg>