<?xml version="1.0" encoding="UTF-8"?>
<svg width="22px" height="22px" viewBox="0 0 22 22" version="1.1" xmlns="http://www.w3.org/2000/svg" xmlns:xlink="http://www.w3.org/1999/xlink">
    <title>本站家谱</title>
    <g id="查重端" stroke="none" stroke-width="1" fill="none" fill-rule="evenodd">
        <g id="本站家谱-家谱查重" transform="translate(-37.000000, -144.000000)" fill="#FFFFFF">
            <g id="tab" transform="translate(0.000000, -1.000000)">
                <g id="编组-2" transform="translate(37.000000, 145.000000)">
                    <path d="M2,14 L19,14 L19,4 L2,4 L2,14 Z M11.000386,15.5194876 C10.9896388,15.2435332 11.2046451,15.0111341 11.4805731,15.0003859 C11.7565636,14.9896377 11.9888779,15.2047271 11.9996251,15.4806815 C12.000125,15.4937418 12.000125,15.5068646 11.9996251,15.519925 C11.9885655,15.7958794 11.7560012,16.0105938 11.4800732,15.9995957 C11.2194538,15.9891599 11.0105708,15.7801944 11.000386,15.5194876 L11.000386,15.5194876 Z M18.6426572,2 L2.35708833,2 C1.60758946,2 1,2.64480836 1,3.43992799 L1,14.959802 C1,15.7551016 1.60758946,16.39982 2.35708833,16.39982 L9.14278444,16.39982 L9.14278444,18.560072 L5.74993638,18.560072 C5.37535659,18.560342 5.0716891,18.8824762 5.07143463,19.280036 L5.07143463,20 L15.9285654,20 L15.9285654,19.280036 C15.9283109,18.8823862 15.6244738,18.560162 15.2498091,18.560072 L11.8572156,18.560072 L11.8572156,16.39982 L18.6426572,16.39982 C19.3921561,16.4 20,15.7553717 20,14.960162 L20,14.959802 L20,3.43992799 C20,2.64480836 19.3924105,2 18.6429117,2 L18.6426572,2 Z" id="本站家谱"></path>
                </g>
            </g>
        </g>
    </g>
</svg>