<?xml version="1.0" encoding="UTF-8"?>
<svg width="22px" height="22px" viewBox="0 0 22 22" version="1.1" xmlns="http://www.w3.org/2000/svg" xmlns:xlink="http://www.w3.org/1999/xlink">
    <title>消息中心</title>
    <g id="查重端" stroke="none" stroke-width="1" fill="none" fill-rule="evenodd">
        <g id="本站家谱-家谱查重" transform="translate(-35.000000, -917.000000)" fill="#FFFFFF">
            <g id="tab" transform="translate(0.000000, -1.000000)">
                <g id="编组-3备份-7" transform="translate(0.000000, 899.000000)">
                    <g id="消息中心" transform="translate(37.000082, 19.999800)">
                        <path d="M10.1247183,3.715 C11.9977183,4.37 13.2557183,6.133 13.2557183,8.101 L13.2577183,9.627 L13.2557183,9.78 C13.2557183,10.892 13.6017183,11.994 14.2837183,13.057 C14.5867183,13.527 14.9367183,13.964 15.2557183,14.271 C15.5517183,14.665 15.5097183,14.707 15.5097183,14.704 C15.5057183,14.707 15.4257183,14.782 14.9677183,14.782 L2.37671828,14.782 C1.86771828,14.782 1.79971828,14.674 1.79871828,14.673 C1.79871828,14.672 1.75671828,14.562 2.02171828,14.197 C2.31971828,13.893 2.64471828,13.459 2.91871828,12.994 C3.53871828,11.95 3.85371828,10.858 3.85371828,9.745 L3.85471828,8.1 C3.85471828,6.132 5.11271828,4.369 6.98471828,3.714 L7.58971828,3.504 L7.58971828,2.75 C7.58971828,2.229 8.02271828,1.805 8.55571828,1.805 C9.08771828,1.805 9.52071828,2.229 9.52071828,2.75 L9.52071828,3.504 L10.1247183,3.715 Z M16.6037183,12.918 L16.5387183,12.854 C16.4647183,12.784 16.3947183,12.71 16.3257183,12.633 C16.1347183,12.417 15.9577183,12.187 15.8017183,11.945 C15.3097183,11.188 15.0607183,10.423 15.0607183,9.672 L15.0617183,9.534 L15.0617183,8.011 C15.0617183,5.357 13.3757183,2.789 11.2717183,2.19 C11.0177183,0.93 9.87871828,0 8.55571828,0 C7.22271828,0 6.22071828,0.82 5.85371828,2.201 C3.53971828,3.236 2.05171828,5.503 2.05171828,8.011 L2.05171828,8.939 L2.04871828,8.936 L2.04871828,9.639 C2.04871828,10.412 1.81971828,11.186 1.36871828,11.938 C1.22171828,12.181 1.06171828,12.406 0.893718278,12.608 C0.804718278,12.715 0.737718278,12.785 0.692718278,12.83 L0.617718278,12.917 C-0.00628172191,13.733 -0.166281722,14.6 0.177718278,15.295 C0.525718278,16.001 1.32771828,16.405 2.37671828,16.405 L14.9687183,16.405 C16.0077183,16.405 16.7937183,16.014 17.1257183,15.332 C17.4597183,14.648 17.2827183,13.783 16.6037183,12.918 L16.6037183,12.918 Z" id="Fill-1"></path>
                        <path d="M6.18721828,17.0402 C6.19021828,17.7002 6.44921828,18.3192 6.91721828,18.7842 C7.38321828,19.2462 8.00021828,19.5002 8.65721828,19.5002 L8.67421828,19.5002 C9.33121828,19.5002 9.94921828,19.2462 10.4152183,18.7842 C10.8832183,18.3192 11.1432183,17.7002 11.1462183,17.0402 L11.1472183,16.7892 L6.18621828,16.7892 L6.18721828,17.0402 Z" id="Fill-3"></path>
                    </g>
                </g>
            </g>
        </g>
    </g>
</svg>