<?xml version="1.0" encoding="UTF-8"?>
<svg width="22px" height="22px" viewBox="0 0 22 22" version="1.1" xmlns="http://www.w3.org/2000/svg" xmlns:xlink="http://www.w3.org/1999/xlink">
    <title>用户管理</title>
    <g id="查重端" stroke="none" stroke-width="1" fill="none" fill-rule="evenodd">
        <g id="本站家谱-家谱查重" transform="translate(-36.000000, -797.000000)" fill="#FFFFFF" fill-rule="nonzero">
            <g id="tab" transform="translate(0.000000, -1.000000)">
                <g id="编组-3备份-5" transform="translate(0.000000, 779.000000)">
                    <g id="用户管理" transform="translate(37.000000, 22.000000)">
                        <path d="M16.9375758,2.98727272 C16.9375414,2.98380491 16.937135,2.9803508 16.9363636,2.9769697 C16.9321212,2.96303031 17.2527273,3.93272728 16.9236364,2.93575756 C16.9169301,2.9148274 16.9098584,2.89401614 16.9024243,2.87333333 C16.5836364,1.96787879 16.0666667,1.6169697 15.6878788,1.54545454 C15.2012121,1.45272727 14.6739394,1.66848484 14.6739394,2.30181818 C14.6739394,2.39636363 14.6921212,2.49939394 14.7254545,2.60545453 L14.7224242,2.60484848 C14.7242424,2.61030303 14.7272727,2.61575757 14.730303,2.62121212 C14.7648485,2.7290909 14.8145455,2.83999999 14.8745455,2.95030302 C15.1678788,3.67515152 15.3290909,4.46787878 15.3290909,5.29757574 C15.3290909,6.91939392 14.7121212,8.39818181 13.7,9.51212121 C15.8739394,10.7963636 17.4757576,13.4357576 18.0266667,15.9824242 L20,15.9824242 C19.5490909,13.4260606 18.2333333,10.6848485 16.3666667,9.04424242 C16.9591112,7.88431503 17.2669878,6.60004169 17.2648485,5.29757574 C17.2660306,4.51584015 17.1558325,3.73792306 16.9375758,2.98727272 Z M8.23272727,10.6551515 C10.1360868,10.6550433 11.8948058,9.63951304 12.8463918,7.99110122 C13.7979778,6.34268941 13.7978623,4.31182898 12.8460887,2.66352543 C11.8943152,1.01522187 10.1354807,-0.000108288972 8.23212122,0 C5.28978241,0.000167400243 2.90468122,2.38553997 2.90484857,5.32787878 C2.90501593,8.27021759 5.29038846,10.6553188 8.23272727,10.6551515 Z M11.6024242,5.2569697 C11.6024242,7.15716396 10.0620124,8.69757576 8.16181818,8.69757576 C6.26162392,8.69757576 4.72121212,7.15716396 4.72121212,5.2569697 C4.72121212,3.35677546 6.26162394,1.81636369 8.16181818,1.81636369 C10.0620124,1.81636369 11.6024242,3.35677546 11.6024242,5.2569697 Z M15.4969697,15.9824242 C14.8436364,12.1284849 11.6466667,8.71818182 7.98666667,8.71818182 C3.90121213,8.71818182 0.658181826,12.1284849 0,15.9824242 L1.94545453,15.9824242 C2.57090909,13.2060606 4.96303029,10.6551515 7.98666667,10.6551515 C10.6018182,10.6551515 12.9351515,13.2054545 13.5521212,15.9824242 L15.4969697,15.9824242 Z" id="形状"></path>
                    </g>
                </g>
            </g>
        </g>
    </g>
</svg>