<?xml version="1.0" encoding="UTF-8"?>
<svg width="22px" height="22px" viewBox="0 0 22 22" version="1.1" xmlns="http://www.w3.org/2000/svg" xmlns:xlink="http://www.w3.org/1999/xlink">
    <title>系统日志</title>
    <g id="查重端" stroke="none" stroke-width="1" fill="none" fill-rule="evenodd">
        <g id="本站家谱-家谱查重" transform="translate(-36.000000, -977.000000)" fill="#FFFFFF" fill-rule="nonzero">
            <g id="tab" transform="translate(0.000000, -1.000000)">
                <g id="编组-3备份-8" transform="translate(0.000000, 959.000000)">
                    <g id="系统日志" transform="translate(37.000000, 20.000000)">
                        <path d="M10.7169866,18.7794441 L0.728934159,18.7794441 C0.31166303,18.7603988 -0.0128940589,18.4100735 0.00039385959,17.9930613 L0.00039385959,2.01892828 C-0.0128940699,1.60191612 0.311663022,1.25159082 0.728934159,1.23254552 L14.7592102,1.23254552 C15.1764813,1.25159083 15.5010384,1.60191613 15.4877504,2.01892828 L15.4877504,10.0236004 L14.3126854,10.0236004 L14.3126854,2.50014757 L1.21071081,2.50014757 L1.21071081,17.6057385 L9.54192159,17.6057385 L10.7169866,18.8498664 L10.7169866,18.7794441 Z" id="路径" stroke="#FFFFFF" stroke-width="0.4"></path>
                        <path d="M14.3479374,10.0236004 C16.757423,10.0430099 18.6967929,12.0063283 18.6839285,14.4130701 C18.6709357,16.8198119 16.7105849,18.7622302 14.3010294,18.7558283 C11.891474,18.7493947 9.94144369,16.7965616 9.94144369,14.3897852 C9.97965864,11.9807009 11.9358337,10.0424201 14.3479374,10.0236004 M14.3479374,8.77936181 C11.2505219,8.7988902 8.75348783,11.3192459 8.76637763,14.413112 C8.77936756,17.5069782 11.2973965,20.0064073 14.3948663,19.9999877 C17.4923361,19.9935433 20,17.4836783 20,14.3897852 C20,12.8957169 19.4034234,11.4633497 18.3424304,10.4101939 C17.2814374,9.35703812 15.8437067,8.77009546 14.3479374,8.77936181 Z M4.12487197,0.000147758915 L4.47739148,0.000147758915 C4.72400026,0.000147758915 4.92391619,0.199839309 4.92391619,0.446162791 L4.92391619,3.28653031 C4.92399789,3.53482242 4.72588945,3.73790903 4.47739148,3.74427549 L4.12487197,3.74427549 C3.87177349,3.74427549 3.66659662,3.53933599 3.66659662,3.28653031 L3.66659662,0.493111005 C3.65322203,0.366923126 3.694293,0.241018839 3.77952585,0.146923102 C3.86475869,0.0528273644 3.98608327,-0.000550515389 4.11312133,0.000147758915 L4.12487197,0.000147758915 Z M11.6570386,0.000154658548 L12.0095581,0.000154658548 C12.1300064,-0.00301246924 12.246624,0.0425756287 12.3329226,0.126564111 C12.4192211,0.210552592 12.4678751,0.325812138 12.4678334,0.446162791 L12.4678334,3.28653031 C12.4678334,3.53933599 12.2626566,3.74427549 12.0095581,3.74427549 L11.6570386,3.74427549 C11.4085406,3.73790904 11.2104321,3.53482242 11.2105139,3.28653031 L11.2105139,0.493111005 C11.1971393,0.366923126 11.2382103,0.241018839 11.3234431,0.146923102 C11.4086759,0.0528273644 11.5300005,-0.000550515389 11.6570386,0.000154658548 L11.6570386,0.000154658548 Z M3.07906413,6.27947957 L13.1376205,6.27947957 C13.4815748,6.27947957 13.7604049,6.55798709 13.7604049,6.90154352 C13.7604049,7.24509996 13.4815748,7.52360748 13.1376205,7.52360748 L3.07906413,7.52360748 C2.73510978,7.52360748 2.45627969,7.24509996 2.45627969,6.90154352 C2.45627969,6.55798709 2.73510978,6.27947957 3.07906413,6.27947957 L3.07906413,6.27947957 Z M3.07906413,10.0236004 L8.1083423,10.0236004 C8.45229664,10.0236004 8.73112674,10.3021079 8.73112674,10.6456644 C8.73112674,10.9892208 8.45229664,11.2677283 8.1083423,11.2677283 L3.07906413,11.2677283 C2.73510978,11.2677283 2.45627969,10.9892208 2.45627969,10.6456644 C2.45627969,10.3021079 2.73510978,10.0236004 3.07906413,10.0236004 L3.07906413,10.0236004 Z M3.07906413,13.7677212 L6.85102276,13.7677212 C7.01716371,13.764498 7.17745321,13.8290011 7.29495476,13.9463667 C7.41245632,14.0637324 7.47703415,14.2238364 7.47380719,14.3897852 C7.47380719,14.7333416 7.1949771,15.0118491 6.85102276,15.0118491 L3.07906413,15.0118491 C2.73510978,15.0118491 2.45627969,14.7333416 2.45627969,14.3897852 C2.45627969,14.0462287 2.73510978,13.7677212 3.07906413,13.7677212 Z" id="形状"></path>
                        <path d="M17.0270856,16.1972918 L14.0424205,16.1972918 L14.0424205,12.042374 C14.0424205,11.711782 14.3107287,11.4437842 14.6417037,11.4437842 C14.9726786,11.4437842 15.2409868,11.711782 15.2409868,12.042374 L15.2409868,15.0118491 L17.0270856,15.0118491 C17.1849663,15.0118176 17.3362163,15.0752551 17.4467441,15.1878631 C17.5572719,15.300471 17.6177757,15.4527724 17.6146181,15.610439 C17.6146181,15.766082 17.5527175,15.9153503 17.4425338,16.0254066 C17.3323501,16.1354628 17.1829089,16.1972918 17.0270856,16.1972918 L17.0270856,16.1972918 Z" id="路径"></path>
                    </g>
                </g>
            </g>
        </g>
    </g>
</svg>