<?xml version="1.0" encoding="UTF-8"?>
<svg width="22px" height="22px" viewBox="0 0 22 22" version="1.1" xmlns="http://www.w3.org/2000/svg" xmlns:xlink="http://www.w3.org/1999/xlink">
    <title>组织机构</title>
    <g id="查重端" stroke="none" stroke-width="1" fill="none" fill-rule="evenodd">
        <g id="本站家谱-家谱查重" transform="translate(-35.000000, -676.000000)" fill="#FFFFFF" fill-rule="nonzero">
            <g id="tab" transform="translate(0.000000, -1.000000)">
                <g id="编组-3备份-3" transform="translate(0.000000, 659.000000)">
                    <g id="组织机构" transform="translate(36.000000, 19.000000)">
                        <path d="M19.1296965,19.9925077 L0.870303545,19.9925077 C0.392697941,19.9925077 0,19.6019324 0,19.1222041 C0,18.6445985 0.390575249,18.2519006 0.870303545,18.2519006 L19.1296965,18.2519006 C19.6073021,18.2519006 20,18.6424758 20,19.1222041 C19.9978773,19.5998097 19.6073021,19.9925077 19.1296965,19.9925077 Z" id="路径"></path>
                        <path d="M17.3912121,7.7700496 C17.8688177,7.7700496 18.2615156,8.16062485 18.2615156,8.64035314 L18.2615156,19.1222041 C18.2615156,19.5998097 17.8709404,19.9925077 17.3912121,19.9925077 C16.9136065,19.9925077 16.5209085,19.6019324 16.5209085,19.1222041 L16.5209085,8.64035314 C16.5209085,8.16274754 16.9114838,7.7700496 17.3912121,7.7700496 Z M12.2224581,19.990385 L1.66843558,19.990385 L1.66843558,5.84689103 C1.66843558,4.83861254 2.18424963,3.90462825 2.98450435,3.46735378 L8.84313309,0.264212198 C9.55423477,-0.12424036 10.4139249,-0.0817865284 11.0868181,0.37459216 C11.7873063,0.847952381 12.2203354,1.71613323 12.2203354,2.64162676 L12.2203354,19.990385 L12.2224581,19.990385 Z M3.40691997,18.2519006 L10.4839737,18.2519006 L10.4839737,2.64374945 C10.4839737,2.29350534 10.3396307,1.96873353 10.1146253,1.81589974 C9.9745277,1.72037862 9.8238166,1.71188785 9.67735088,1.79042744 L3.81872214,4.99356902 C3.5767353,5.1251759 3.40691997,5.47542001 3.40691997,5.84689103 L3.40691997,18.2519006 L3.40691997,18.2519006 Z" id="形状"></path>
                        <path d="M8.88770962,8.50450088 L5.71004033,9.91821347 C5.27276587,10.1135011 4.75695181,9.91396809 4.56166419,9.47669362 C4.36637657,9.03941916 4.56590957,8.52360511 5.00318404,8.32831748 L8.18085332,6.9146049 C8.61812779,6.71931727 9.13394184,6.91885028 9.32922946,7.35612474 C9.5223944,7.79339921 9.32286139,8.30921326 8.88770962,8.50450088 Z M8.88770962,13.2848023 L5.71004033,14.6985149 C5.27276587,14.8938025 4.75695181,14.6942695 4.56166419,14.256995 C4.36637657,13.8197206 4.56590957,13.3039065 5.00318404,13.1086189 L8.18085332,11.6949063 C8.61812779,11.4996187 9.13394184,11.6991517 9.32922946,12.1364262 C9.5223944,12.5737006 9.32286139,13.0916374 8.88770962,13.2848023 Z M17.0367226,9.43423979 L14.6529399,8.37289401 C14.2156655,8.17760638 14.0182551,7.66179233 14.2114201,7.22451787 C14.4067077,6.7872434 14.9225218,6.58983309 15.3597962,6.78299802 L17.7435789,7.8443438 C18.1808533,8.03963143 18.3782636,8.55544548 18.1850987,8.99271995 C17.9898111,9.4321171 17.473997,9.62952742 17.0367226,9.43423979 Z" id="形状"></path>
                    </g>
                </g>
            </g>
        </g>
    </g>
</svg>