<?xml version="1.0" encoding="UTF-8"?>
<svg width="22px" height="22px" viewBox="0 0 22 22" version="1.1" xmlns="http://www.w3.org/2000/svg" xmlns:xlink="http://www.w3.org/1999/xlink">
    <title>谱目复检</title>
    <g id="查重端" stroke="none" stroke-width="1" fill="none" fill-rule="evenodd">
        <g id="本站家谱-家谱查重" transform="translate(-35.000000, -320.000000)">
            <g id="tab" transform="translate(0.000000, -1.000000)">
                <g id="编组-6" transform="translate(35.000000, 321.000000)">
                    <g id="谱目复检" transform="translate(1.000000, 3.000000)">
                        <path d="M5.94366171,0 C6.97729419,0 7.96298503,0.298775 8.79082601,0.864705 C8.98057585,0.9945 9.1598757,1.136875 9.32735056,1.290895 L9.41296716,1.369775 L10.5880412,1.369775 L10.6729244,1.290895 C10.839941,1.13679 11.0190575,0.99433 11.208624,0.864705 C12.0371066,0.298775 13.0219725,0 14.056155,0 L18.2338598,0 C19.2074507,0 20,0.729725 20,1.627325 L20,13.951135 C20,14.84899 19.2074507,15.5788 18.2338598,15.5788 L13.97063,15.5788 C13.2726806,15.5788 12.6093812,15.780165 12.05049,16.1619 C11.7943735,16.33734 11.5672237,16.546695 11.3764655,16.783165 C11.3225656,16.850995 11.2689406,16.923585 11.2188907,16.99983 L8.78046768,16.99983 L8.78046768,17 C8.73142606,16.925795 8.67908443,16.85346 8.62353448,16.783335 C8.43277631,16.54661 8.20544316,16.337255 7.94877671,16.161985 C7.38997718,15.780165 6.72667773,15.57897 6.02863664,15.57897 L1.7653152,15.57897 C0.791632674,15.5788 0,14.84899 0,13.951135 L0,1.627325 C0,0.729725 0.791632674,0 1.7653152,0 L5.94366171,0 Z M5.68230167,1 L1,1 L1,13.8205115 L5.59504093,13.8205115 C6.65762412,13.8205115 7.6709229,14.1190272 8.52195064,14.6834361 L9,15 L8.99981203,12.8999437 C9.32298024,12.9655564 9.65746775,13 10,13 C10.342885,13 10.6777087,12.9654854 11.0011864,12.8997409 L11,15 L11.477328,14.6834361 C12.3292322,14.1191966 13.3417165,13.8205115 14.4049005,13.8205115 L19,13.8205115 L19,1 L14.3169772,1 C13.6066173,0.998064976 12.9143509,1.20193346 12.3429908,1.58145422 C12.0795036,1.75651336 11.8459839,1.96538112 11.6500648,2.20144828 C11.4158996,2.48250858 11.2414439,2.79720766 11.1325337,3.1297668 C10.768998,3.044584 10.3897056,3 10,3 C9.60993821,3 9.23030861,3.04466554 8.86594681,3.12916103 C8.75885889,2.79826307 8.58501374,2.48499552 8.34978503,2.20144828 C8.1540609,1.96495745 7.92036045,1.75608969 7.65622239,1.58145422 C7.08478709,1.20193346 6.39263796,0.998064976 5.68230167,1 Z" id="形状结合" fill="#FFFFFF"></path>
                        <circle id="椭圆形备份" stroke="#FFFFFF" cx="10" cy="8" r="5"></circle>
                        <polygon id="路径" fill="#FFFFFF" fill-rule="nonzero" points="8.63872933 9.32050479 7.31496954 8.00457789 6.76666667 8.55288077 8.57606614 10.3701131 12.7666667 7.01763272 12.281027 6.40666667"></polygon>
                    </g>
                </g>
            </g>
        </g>
    </g>
</svg>