<?xml version="1.0" encoding="UTF-8"?>
<svg width="22px" height="22px" viewBox="0 0 22 22" version="1.1" xmlns="http://www.w3.org/2000/svg" xmlns:xlink="http://www.w3.org/1999/xlink">
    <title>谱目审核</title>
    <g id="查重端" stroke="none" stroke-width="1" fill="none" fill-rule="evenodd">
        <g id="本站家谱-家谱查重" transform="translate(-37.000000, -202.000000)" stroke="#FFFFFF">
            <g id="tab" transform="translate(0.000000, -1.000000)">
                <g id="编组-4" transform="translate(37.000000, 203.000000)">
                    <g id="谱目审核" transform="translate(1.000000, 1.000000)">
                        <circle id="椭圆形备份" stroke-width="1.6" cx="10" cy="10" r="10"></circle>
                        <path d="M8.73671999,5.07741544 C9.22063957,4.68831587 9.87476686,4.50483573 10.5687472,4.64973788 C10.9755395,4.73466086 11.3426603,4.94251986 11.6301323,5.22949627 C11.9177998,5.51666788 12.1264267,5.88377118 12.2123128,6.29075529 C12.2972063,6.69270017 12.2723338,7.08033258 12.1599872,7.42932727 C12.005543,7.90909417 11.6871491,8.31496149 11.2726744,8.58459133 L11.2726744,8.58459133 L11.9188109,11.367633 C12.0523535,11.7134181 12.2877377,11.9979681 12.5823752,12.1930349 C12.8617241,12.3779798 13.1943358,12.4824904 13.5439234,12.4824904 L13.5439234,12.4824904 L15.1209185,12.4824904 L15.4454006,14.0782107 L5.04684422,14.5810583 L4.70696279,12.9096079 L6.76403568,12.4811618 C7.08852558,12.4685069 7.39621244,12.365908 7.65737294,12.1930049 C7.93674717,12.0080432 8.16286935,11.7426351 8.29938755,11.4208587 L8.29938755,11.4208587 L9.11557112,9.49692122 C8.34905381,8.26334705 7.92576815,7.56860327 7.92576815,6.76853317 C7.92576815,6.08472469 8.2423314,5.47493269 8.73671999,5.07741544 Z" id="路径" stroke-width="1.2" fill-rule="nonzero"></path>
                    </g>
                </g>
            </g>
        </g>
    </g>
</svg>