<?xml version="1.0" encoding="UTF-8"?>
<svg width="350px" height="46px" viewBox="0 0 350 46" version="1.1" xmlns="http://www.w3.org/2000/svg" xmlns:xlink="http://www.w3.org/1999/xlink">
    <!-- Generator: Sketch 52.2 (67145) - http://www.bohemiancoding.com/sketch -->
    <title>Page 1 Copy 3</title>
    <desc>Created with Sketch.</desc>
    <g id="切图" stroke="none" stroke-width="1" fill="none" fill-rule="evenodd">
        <path d="M8.7138587,1.55940401 L8.7138587,2.4198816 L7.59680707,2.4198816 C6.75033967,2.4198816 6.06413043,3.11832434 6.06413043,3.97928562 L6.06413043,9.21470406 L4.04402174,9.21470406 C1.81990489,9.21470406 0,11.0657708 0,13.3279707 L0,32.6715456 C0,34.9342292 1.81990489,36.7848123 4.04402174,36.7848123 L6.06413043,36.7848123 L6.06413043,42.0207144 C6.06413043,42.8816757 6.75033967,43.5796347 7.59680707,43.5796347 L8.7138587,43.5796347 L8.7138587,44.440596 C8.7138587,45.3020409 9.40006793,46 10.2465353,46 L339.753465,46 C340.599932,46 341.286141,45.3020409 341.286141,44.440596 L341.286141,43.5796347 L342.403193,43.5796347 C343.24966,43.5796347 343.93587,42.8816757 343.93587,42.0207144 L343.93587,36.7848123 L345.955978,36.7848123 C348.180095,36.7848123 350,34.9342292 350,32.6715456 L350,13.3279707 C350,11.0657708 348.180095,9.21470406 345.955978,9.21470406 L343.93587,9.21470406 L343.93587,3.97928562 C343.93587,3.11832434 343.24966,2.4198816 342.403193,2.4198816 L341.286141,2.4198816 L341.286141,1.55940401 C341.286141,0.698442741 340.599932,0 339.753465,0 L10.2465353,0 C9.40006793,0 8.7138587,0.698442741 8.7138587,1.55940401 Z" id="Page-1-Copy-3" fill="#FFFFFF"></path>
    </g>
</svg>