<?xml version="1.0" encoding="UTF-8"?>
<svg width="100px" height="150px" viewBox="0 0 100 150" version="1.1" xmlns="http://www.w3.org/2000/svg" xmlns:xlink="http://www.w3.org/1999/xlink">
    <!-- Generator: Sketch 55.2 (78181) - https://sketchapp.com -->
    <title>icon 2@1x</title>
    <desc>Created with Sketch.</desc>
    <defs>
        <polygon id="path-1" points="0 0.143076923 19.5831667 0.143076923 19.5831667 20 0 20"></polygon>
        <polygon id="path-3" points="0 0.143076923 19.5831667 0.143076923 19.5831667 20 0 20"></polygon>
    </defs>
    <g id="页面1" stroke="none" stroke-width="1" fill="none" fill-rule="evenodd">
        <g id="icon-2">
            <g id="icon">
                <rect id="矩形-copy" stroke="#4C95FF" fill="#E2ECFA" fill-rule="nonzero" x="0.5" y="50.5" width="49" height="49"></rect>
                <rect id="矩形-copy" stroke="#4C95FF" fill="#E2ECFA" fill-rule="nonzero" x="0.5" y="0.5" width="49" height="49"></rect>
                <g id="识别谱目-copy" transform="translate(15.000000, 15.000000)" fill="#4C95FF" fill-rule="nonzero">
                    <g id="分组">
                        <path d="M17.3681667,2.5 L17.3681667,17.6430769 C17.3681667,17.8153846 17.2148333,17.9553846 17.0281667,17.9553846 L4.48483333,17.9553846 C4.2965,17.9553846 4.14483333,17.8153846 4.14483333,17.6430769 L4.14483333,2.5 C4.14483333,2.32769231 4.2965,2.18615384 4.48483333,2.18615384 L17.0281667,2.18615384 C17.2148333,2.18615384 17.3681667,2.32769231 17.3681667,2.5 M17.9931667,0.143076923 L3.51983333,0.143076923 C2.64316667,0.143076923 1.92983333,0.801538461 1.92983333,1.60923077 L1.92983333,4.14923077 L-0.000166666667,4.14923077 L-0.000166666667,8.86769231 L1.92983333,8.86769231 L1.92983333,11.2753846 L-0.000166666667,11.2753846 L-0.000166666667,15.9923077 L1.92983333,15.9923077 L1.92983333,18.5323077 C1.92983333,19.3415384 2.64316667,20 3.51983333,20 L17.9931667,20 C18.8698333,20 19.5831667,19.3415384 19.5831667,18.5323077 L19.5831667,1.60923077 C19.5831667,0.801538461 18.8698333,0.143076923 17.9931667,0.143076923" id="Fill-1"></path>
                    </g>
                    <path d="M7.75130766,11 C7.32968774,11 7,11.3156499 7,11.7201592 C7,12.1180371 7.33761293,12.4416446 7.75130766,12.4416446 L13.2085909,12.4416446 L12.915359,12.7665782 C12.6776034,13.0835544 12.7203994,13.5251989 13.0120463,13.7904509 C13.1610398,13.9244032 13.3591694,14 13.5636392,14 C13.5858298,14 13.6064353,13.9986737 13.6286258,13.9973475 C13.8616262,13.9787798 14.0740212,13.8647215 14.1722935,13.7254642 L17,11.005305 L7.75130766,11 Z" id="Fill-3"></path>
                    <path d="M16,9.28246641 C16,8.88017276 15.67026,8.56493281 15.2485733,8.56493281 L9.79201014,8.56493281 L9.99017121,8.34597956 C10.0361446,8.30640969 10.0773621,8.26156383 10.1122384,8.211442 C10.34052,7.8843311 10.2834496,7.44642457 9.97907419,7.19185843 C9.81103361,7.0507259 9.58433734,6.98081913 9.36081167,7.00456106 C9.12460367,7.02962197 8.9137603,7.15096956 8.82815473,7.2868261 L6,10 L15.2485733,10 C15.67026,10 16,9.68476006 16,9.28246641" id="Fill-5"></path>
                </g>
                <rect id="矩形-copy-3" stroke="#4C95FF" fill="#4C95FF" fill-rule="nonzero" x="50.5" y="50.5" width="49" height="49"></rect>
                <rect id="矩形-copy-3" stroke="#4C95FF" fill="#4C95FF" fill-rule="nonzero" x="50.5" y="0.5" width="49" height="49"></rect>
                <g id="识别谱目-copy" transform="translate(65.000000, 15.000000)" fill="#FFFFFF" fill-rule="nonzero">
                    <g id="分组">
                        <path d="M17.3681667,2.5 L17.3681667,17.6430769 C17.3681667,17.8153846 17.2148333,17.9553846 17.0281667,17.9553846 L4.48483333,17.9553846 C4.2965,17.9553846 4.14483333,17.8153846 4.14483333,17.6430769 L4.14483333,2.5 C4.14483333,2.32769231 4.2965,2.18615384 4.48483333,2.18615384 L17.0281667,2.18615384 C17.2148333,2.18615384 17.3681667,2.32769231 17.3681667,2.5 M17.9931667,0.143076923 L3.51983333,0.143076923 C2.64316667,0.143076923 1.92983333,0.801538461 1.92983333,1.60923077 L1.92983333,4.14923077 L-0.000166666667,4.14923077 L-0.000166666667,8.86769231 L1.92983333,8.86769231 L1.92983333,11.2753846 L-0.000166666667,11.2753846 L-0.000166666667,15.9923077 L1.92983333,15.9923077 L1.92983333,18.5323077 C1.92983333,19.3415384 2.64316667,20 3.51983333,20 L17.9931667,20 C18.8698333,20 19.5831667,19.3415384 19.5831667,18.5323077 L19.5831667,1.60923077 C19.5831667,0.801538461 18.8698333,0.143076923 17.9931667,0.143076923" id="Fill-1"></path>
                    </g>
                    <path d="M7.75130766,11 C7.32968774,11 7,11.3156499 7,11.7201592 C7,12.1180371 7.33761293,12.4416446 7.75130766,12.4416446 L13.2085909,12.4416446 L12.915359,12.7665782 C12.6776034,13.0835544 12.7203994,13.5251989 13.0120463,13.7904509 C13.1610398,13.9244032 13.3591694,14 13.5636392,14 C13.5858298,14 13.6064353,13.9986737 13.6286258,13.9973475 C13.8616262,13.9787798 14.0740212,13.8647215 14.1722935,13.7254642 L17,11.005305 L7.75130766,11 Z" id="Fill-3"></path>
                    <path d="M16,9.28246641 C16,8.88017276 15.67026,8.56493281 15.2485733,8.56493281 L9.79201014,8.56493281 L9.99017121,8.34597956 C10.0361446,8.30640969 10.0773621,8.26156383 10.1122384,8.211442 C10.34052,7.8843311 10.2834496,7.44642457 9.97907419,7.19185843 C9.81103361,7.0507259 9.58433734,6.98081913 9.36081167,7.00456106 C9.12460367,7.02962197 8.9137603,7.15096956 8.82815473,7.2868261 L6,10 L15.2485733,10 C15.67026,10 16,9.68476006 16,9.28246641" id="Fill-5"></path>
                </g>
                <path d="M18,84 L25,84 L25,76 L18,76 L18,84 Z M21.4712119,68.9472106 C20.8330648,68.6004799 20.1264917,68.0581884 20.0149275,67.6310738 C19.9777394,67.4955009 20.0089774,67.3887223 20.1205416,67.2615477 C20.2826815,67.0755849 20.4522591,67 20.7036503,67 C21.2242832,67 21.9174686,67.3419316 22.171835,67.5086983 C22.7965944,67.9190162 23.5463057,68.5104979 24,69 L22.772794,69 L21.4712119,68.9472106 Z M26,84 L33,84 L33,76 L26,76 L26,84 Z M27,69 C27.7593779,68.1673665 28.7128362,67.5338932 28.7559651,67.505099 C28.9700697,67.3719256 29.6940202,67 30.2716403,67 C30.5319545,67 30.7060107,67.0755849 30.8754459,67.2615477 C30.9894296,67.3875225 31.0217763,67.4955009 30.9863489,67.6310738 C30.8692846,68.0545891 30.1391728,68.5992801 29.4752947,68.9472106 L28.1475386,69 L27,69 Z M34.550483,69.7199499 L32.8833749,69.7199499 C33.2547523,69.2354735 33.4936117,68.7460702 33.5950452,68.2583092 C33.7504674,67.5324157 33.5983172,66.8180183 33.1614989,66.1955893 C32.6101589,65.4138578 31.8297756,65 30.9070583,65 C29.4755376,65 28.1879869,66.0231485 28.0342007,66.1479628 C27.8738704,66.2842731 26.60268,67.3829671 25.63579,68.8446078 C25.3282175,68.3814812 24.9077594,67.8789395 24.3727797,67.3386252 C23.7200062,66.6751388 23.1130414,66.1742395 23.0737769,66.1430359 C23.0606887,66.1315398 21.7060611,65 20.2074634,65 C19.28311,65 18.5043627,65.4138578 17.9530227,66.1955893 C17.5145684,66.8180183 17.3624182,67.5324157 17.5178404,68.2583092 C17.622546,68.7477125 17.8597694,69.2371158 18.2327828,69.7199499 L16.449517,69.7199499 C15.6495014,69.7199499 15,70.3719403 15,71.1750215 L15,75.993509 L16.3268152,75.993509 L16.3268152,84.5432861 C16.3268152,85.3480097 16.9763166,86 17.7763322,86 L33.3152851,86 C34.1169367,86 34.7664381,85.3480097 34.7664381,84.4660984 L34.7664381,75.993509 L36,75.993509 L36,71.1750215 C36,70.3719403 35.3488626,69.7199499 34.550483,69.7199499 Z" id="Fill-1" fill="#4C95FF" fill-rule="nonzero"></path>
                <path d="M68,84 L75,84 L75,76 L68,76 L68,84 Z M71.4712119,68.9472106 C70.8330648,68.6004799 70.1264917,68.0581884 70.0149275,67.6310738 C69.9777394,67.4955009 70.0089774,67.3887223 70.1205416,67.2615477 C70.2826815,67.0755849 70.4522591,67 70.7036503,67 C71.2242832,67 71.9174686,67.3419316 72.171835,67.5086983 C72.7965944,67.9190162 73.5463057,68.5104979 74,69 L72.772794,69 L71.4712119,68.9472106 Z M76,84 L83,84 L83,76 L76,76 L76,84 Z M77,69 C77.7593779,68.1673665 78.7128362,67.5338932 78.7559651,67.505099 C78.9700697,67.3719256 79.6940202,67 80.2716403,67 C80.5319545,67 80.7060107,67.0755849 80.8754459,67.2615477 C80.9894296,67.3875225 81.0217763,67.4955009 80.9863489,67.6310738 C80.8692846,68.0545891 80.1391728,68.5992801 79.4752947,68.9472106 L78.1475386,69 L77,69 Z M84.550483,69.7199499 L82.8833749,69.7199499 C83.2547523,69.2354735 83.4936117,68.7460702 83.5950452,68.2583092 C83.7504674,67.5324157 83.5983172,66.8180183 83.1614989,66.1955893 C82.6101589,65.4138578 81.8297756,65 80.9070583,65 C79.4755376,65 78.1879869,66.0231485 78.0342007,66.1479628 C77.8738704,66.2842731 76.60268,67.3829671 75.63579,68.8446078 C75.3282175,68.3814812 74.9077594,67.8789395 74.3727797,67.3386252 C73.7200062,66.6751388 73.1130414,66.1742395 73.0737769,66.1430359 C73.0606887,66.1315398 71.7060611,65 70.2074634,65 C69.28311,65 68.5043627,65.4138578 67.9530227,66.1955893 C67.5145684,66.8180183 67.3624182,67.5324157 67.5178404,68.2583092 C67.622546,68.7477125 67.8597694,69.2371158 68.2327828,69.7199499 L66.449517,69.7199499 C65.6495014,69.7199499 65,70.3719403 65,71.1750215 L65,75.993509 L66.3268152,75.993509 L66.3268152,84.5432861 C66.3268152,85.3480097 66.9763166,86 67.7763322,86 L83.3152851,86 C84.1169367,86 84.7664381,85.3480097 84.7664381,84.4660984 L84.7664381,75.993509 L86,75.993509 L86,71.1750215 C86,70.3719403 85.3488626,69.7199499 84.550483,69.7199499 Z" id="Fill-1-Copy" fill="#FFFFFF" fill-rule="nonzero"></path>
                <rect id="矩形-copy-2" stroke="#4C95FF" fill="#E2ECFA" fill-rule="nonzero" x="0.5" y="100.5" width="49" height="49"></rect>
                <rect id="矩形-copy-4" stroke="#4C95FF" fill="#4C95FF" fill-rule="nonzero" x="50.5" y="100.5" width="49" height="49"></rect>
                <g id="分组" transform="translate(15.000000, 118.000000)">
                    <polygon id="Fill-1" fill="#4C95FF" fill-rule="nonzero" points="5 16 17 16 17 14 5 14"></polygon>
                    <polygon id="Fill-2" fill="#4C95FF" fill-rule="nonzero" points="5 7 13 7 13 5 5 5"></polygon>
                    <polygon id="Fill-3" fill="#4C95FF" fill-rule="nonzero" points="5 11 17 11 17 9 5 9"></polygon>
                    <g id="编组">
                        <g id="Fill-4-Clipped">
                            <mask id="mask-2" fill="white">
                                <use xlink:href="#path-1"></use>
                            </mask>
                            <g id="path-1"></g>
                            <path d="M17.3681667,2.5 L17.3681667,17.6430769 C17.3681667,17.8153846 17.2148333,17.9553846 17.0281667,17.9553846 L4.48483333,17.9553846 C4.2965,17.9553846 4.14483333,17.8153846 4.14483333,17.6430769 L4.14483333,2.5 C4.14483333,2.32769231 4.2965,2.18615385 4.48483333,2.18615385 L17.0281667,2.18615385 C17.2148333,2.18615385 17.3681667,2.32769231 17.3681667,2.5 M17.9931667,0.143076923 L3.51983333,0.143076923 C2.64316667,0.143076923 1.92983333,0.801538462 1.92983333,1.60923077 L1.92983333,4.14923077 L-0.000166666667,4.14923077 L-0.000166666667,8.86769231 L1.92983333,8.86769231 L1.92983333,11.2753846 L-0.000166666667,11.2753846 L-0.000166666667,15.9923077 L1.92983333,15.9923077 L1.92983333,18.5323077 C1.92983333,19.3415385 2.64316667,20 3.51983333,20 L17.9931667,20 C18.8698333,20 19.5831667,19.3415385 19.5831667,18.5323077 L19.5831667,1.60923077 C19.5831667,0.801538462 18.8698333,0.143076923 17.9931667,0.143076923" id="Fill-4" fill="#4C95FF" fill-rule="nonzero" mask="url(#mask-2)"></path>
                        </g>
                    </g>
                </g>
                <g id="分组-copy" transform="translate(65.000000, 118.000000)">
                    <polygon id="Fill-1" fill="#FFFFFF" fill-rule="nonzero" points="5 16 17 16 17 14 5 14"></polygon>
                    <polygon id="Fill-2" fill="#FFFFFF" fill-rule="nonzero" points="5 7 13 7 13 5 5 5"></polygon>
                    <polygon id="Fill-3" fill="#FFFFFF" fill-rule="nonzero" points="5 11 17 11 17 9 5 9"></polygon>
                    <g id="分组">
                        <g id="Fill-4-Clipped">
                            <mask id="mask-4" fill="white">
                                <use xlink:href="#path-3"></use>
                            </mask>
                            <g id="path-3"></g>
                            <path d="M17.3681667,2.5 L17.3681667,17.6430769 C17.3681667,17.8153846 17.2148333,17.9553846 17.0281667,17.9553846 L4.48483333,17.9553846 C4.2965,17.9553846 4.14483333,17.8153846 4.14483333,17.6430769 L4.14483333,2.5 C4.14483333,2.32769231 4.2965,2.18615385 4.48483333,2.18615385 L17.0281667,2.18615385 C17.2148333,2.18615385 17.3681667,2.32769231 17.3681667,2.5 M17.9931667,0.143076923 L3.51983333,0.143076923 C2.64316667,0.143076923 1.92983333,0.801538462 1.92983333,1.60923077 L1.92983333,4.14923077 L-0.000166666667,4.14923077 L-0.000166666667,8.86769231 L1.92983333,8.86769231 L1.92983333,11.2753846 L-0.000166666667,11.2753846 L-0.000166666667,15.9923077 L1.92983333,15.9923077 L1.92983333,18.5323077 C1.92983333,19.3415385 2.64316667,20 3.51983333,20 L17.9931667,20 C18.8698333,20 19.5831667,19.3415385 19.5831667,18.5323077 L19.5831667,1.60923077 C19.5831667,0.801538462 18.8698333,0.143076923 17.9931667,0.143076923" id="Fill-4" fill="#FFFFFF" fill-rule="nonzero" mask="url(#mask-4)"></path>
                        </g>
                    </g>
                </g>
            </g>
        </g>
    </g>
</svg>