<?xml version="1.0" encoding="UTF-8"?>
<svg width="10px" height="15px" viewBox="0 0 10 15" version="1.1" xmlns="http://www.w3.org/2000/svg" xmlns:xlink="http://www.w3.org/1999/xlink">
    <!-- Generator: Sketch 52.2 (67145) - http://www.bohemiancoding.com/sketch -->
    <title>icon@1x</title>
    <desc>Created with Sketch.</desc>
    <defs>
        <polygon id="path-1" points="0 15 10 15 10 0 0 0"></polygon>
    </defs>
    <g id="时间轴" stroke="none" stroke-width="1" fill="none" fill-rule="evenodd">
        <g id="icon">
            <path d="M9.08845689,2.93678045 L9.08845689,4.45061604 L7.74718631,4.45061604 L7.74718631,5.44031509 L9.08845689,5.44031509 L9.08845689,6.95617047 L7.74718631,6.95617047 L7.74718631,7.94687942 L9.08845689,7.94687942 L9.08845689,9.4627348 L7.74718631,9.4627348 L7.74718631,10.4524339 L9.08845689,10.4524339 L9.08845689,11.9672793 L7.74718631,11.9672793 L7.74718631,12.9589982 L9.08845689,12.9589982 L9.08845689,14.0103009 L0.911543112,14.0103009 L0.911543112,0.989699051 L9.08845689,0.989699051 L9.08845689,1.9470814 L7.74718631,1.9470814 L7.74718631,2.93678045 L9.08845689,2.93678045 Z M9.41028742,0 L0.589712585,0 C0.264161473,0 0,0.287820642 0,0.641284589 L0,14.3597253 C0,14.7121794 0.264161473,15 0.589712585,15 L9.41028742,15 C9.73583853,15 10,14.7121794 10,14.3597253 L10,0.641284589 C10,0.287820642 9.73583853,0 9.41028742,0 Z" id="Fill-1" fill="#FFFFFF" fill-rule="nonzero"></path>
            <g id="Fill-3-Clipped">
                <mask id="mask-2" fill="white">
                    <use xlink:href="#path-1"></use>
                </mask>
                <g id="path-1"></g>
                <path d="M1.89581787,12.1199223 L4.10418213,12.1199223 L4.10418213,2.87716355 L1.89581787,2.87716355 L1.89581787,12.1199223 Z M1,13 L5,13 L5,2 L1,2 L1,13 Z" id="Fill-3" fill="#FFFFFF" fill-rule="nonzero" mask="url(#mask-2)"></path>
            </g>
        </g>
    </g>
</svg>