<?xml version="1.0" encoding="UTF-8"?>
<svg width="21px" height="21px" viewBox="0 0 21 21" version="1.1" xmlns="http://www.w3.org/2000/svg" xmlns:xlink="http://www.w3.org/1999/xlink">
    <title>帮助</title>
    <g id="页面-1" stroke="none" stroke-width="1" fill="none" fill-rule="evenodd">
        <g id="帮助" transform="translate(0.063907, 0.021835)" fill="#272636" fill-rule="nonzero">
            <path d="M10,19.9982925 C4.48536493,19.9982925 0,15.5134078 0,10 C0,4.48485802 4.4863254,0 10,0 C15.5141815,0 20,4.4863254 20,10 C20,15.5134078 15.5151687,19.9982925 10,19.9982925 M10,0.950938965 C5.01073852,0.950938965 0.952619795,5.00929779 0.952619795,9.99855929 C0.952619795,14.9865668 5.01073852,19.0451391 10,19.0451391 C14.9892882,19.0451391 19.0478604,14.9865668 19.0478604,9.99855929 C19.0478604,5.0107385 14.9892615,0.950938965 10,0.950938965 M9.27978571,13.2395103 C9.27490335,13.0603305 9.27247551,12.9270394 9.27247551,12.8381432 C9.27247551,12.3127696 9.34765847,11.8586571 9.49610346,11.4768195 C9.60546291,11.1887338 9.7822149,10.8987004 10.0244385,10.6057057 C10.2021509,10.3923493 10.523426,10.0798785 10.986823,9.6709078 C11.4507002,9.26199043 11.7524192,8.93607311 11.8910994,8.69336931 C12.0293261,8.45045206 12.0991198,8.18531075 12.0991198,7.89695825 C12.0991198,7.37646702 11.8959818,6.91797905 11.490266,6.52440242 C11.0835363,6.13085246 10.5845221,5.93238333 9.99418385,5.93238333 C9.42337501,5.93238333 8.94725185,6.11182993 8.5654676,6.46824197 C8.18312306,6.82542769 7.9331624,7.38279005 7.81350466,8.1418231 L6.43705363,7.97846425 C6.56156706,6.96138667 6.92969141,6.18282423 7.54204031,5.64178974 C8.15382892,5.10078195 8.96392661,4.83027804 9.97123948,4.83027804 C11.0376475,4.83027804 11.8886983,5.12081829 12.523458,5.70136514 C13.1587247,6.2816719 13.4761312,6.98382415 13.4761312,7.80683471 C13.4761312,8.28290449 13.3637836,8.72236995 13.1406626,9.12397712 C12.9170347,9.52483728 12.480504,10.0138466 11.8316041,10.5890843 C11.3960605,10.9777519 11.1099224,11.2623959 10.977085,11.4464848 C10.843794,11.6300934 10.7431854,11.8400347 10.678781,12.07879 C10.6133361,12.3175719 10.5767051,12.7033047 10.5664601,13.2395103 L9.27978571,13.2395103 L9.27978571,13.2395103 Z M9.19729258,14.3996435 L10.7226421,14.3996435 L10.7226421,15.9250465 L9.19729258,15.9250465 L9.19729258,14.3996435 Z" id="形状"></path>
        </g>
    </g>
</svg>