<?xml version="1.0" standalone="no"?><!DOCTYPE svg PUBLIC "-//W3C//DTD SVG 1.1//EN" "http://www.w3.org/Graphics/SVG/1.1/DTD/svg11.dtd"><svg t="1680225916089" class="icon" viewBox="0 0 1024 1024" version="1.1" xmlns="http://www.w3.org/2000/svg" p-id="3997" xmlns:xlink="http://www.w3.org/1999/xlink" width="128" height="128"><path d="M791.94 155.36H332.48c-42.23 0-76.54 34.31-76.54 76.54v76.55h-51.03c-28.16 0-51.04 22.87-51.04 51.03v306.37c0 28.15 22.88 51.02 51.04 51.02h51.03v76.54c0 42.24 34.32 76.55 76.54 76.55h459.46c42.23 0 76.54-34.32 76.54-76.54V231.9c0.1-42.24-34.31-76.54-76.54-76.54z m-547.68 298.6h40.28l26.04 93.58h5.7l29.16-93.58h34.45l29.02 93.71h6.24l26.18-93.71h40.41l-40.41 133.72H384.1l-19.53-70.25h-5.43l-19.26 69.98h-55.74l-39.88-133.45zM817.45 793.5c-0.01 14.09-11.42 25.5-25.51 25.51H332.48c-14.09-0.01-25.5-11.43-25.51-25.51v-76.54h204.21c28.15 0 51.03-22.88 51.03-51.03V614.9H740.9c14.09-0.01 25.51-11.43 25.52-25.52-0.02-14.09-11.43-25.5-25.52-25.51H562.21v-51.03H740.9c14.09-0.01 25.51-11.43 25.52-25.52-0.01-14.09-11.43-25.5-25.52-25.52H562.21v-51.03H740.9c14.09-0.01 25.51-11.43 25.52-25.51-0.01-14.09-11.43-25.51-25.52-25.52H562.21c0-28.16-22.89-51.03-51.03-51.03H306.97v-76.54c0.01-14.09 11.43-25.5 25.51-25.52h459.46c14.08 0.01 25.5 11.43 25.51 25.52V793.5z m0 0" fill="#54A0FF" p-id="3998"></path></svg>