<?xml version="1.0" encoding="UTF-8"?>
<svg width="180px" height="60px" viewBox="0 0 180 60" version="1.1" xmlns="http://www.w3.org/2000/svg" xmlns:xlink="http://www.w3.org/1999/xlink">
    <!-- Generator: Sketch 52.2 (67145) - http://www.bohemiancoding.com/sketch -->
    <title>Artboard 2</title>
    <desc>Created with Sketch.</desc>
    <defs>
        <polygon id="path-1" points="6.85714286e-05 0.009 59.9910857 0.009 59.9910857 59.6590909 6.85714286e-05 59.6590909"></polygon>
        <polygon id="path-3" points="0 0.330315552 59.6665909 0.330315552 59.6665909 59.5041322 0 59.5041322"></polygon>
        <polygon id="path-5" points="0 0 59.9998629 0 59.9998629 60 0 60"></polygon>
    </defs>
    <g id="3.29" stroke="none" stroke-width="1" fill="none" fill-rule="evenodd">
        <g id="Artboard-2-Copy">
            <g id="分组" transform="translate(60.000000, 0.000000)">
                <g transform="translate(0.000000, 0.332045)">
                    <mask id="mask-2" fill="white">
                        <use xlink:href="#path-1"></use>
                    </mask>
                    <g id="Clip-2"></g>
                    <path d="M43.9564114,45.5121818 C43.6927543,45.5169545 43.42944,45.5135455 43.1657829,45.5135455 C34.3416686,45.5138864 25.5172114,45.5138864 16.6924114,45.5132045 C16.2316114,45.5132045 15.7677257,45.5380909 15.3100114,45.4975227 C14.13264,45.3925227 13.4925257,44.7662727 13.5408686,43.809 C13.58544,42.9304773 14.1864686,42.3601364 15.2709257,42.2909318 C16.18944,42.2322955 17.1141257,42.2704773 18.0357257,42.2691136 C19.2802971,42.2674091 20.5248686,42.2687727 22.1884114,42.2687727 C21.5044114,41.064 21.00624,40.2321818 20.55264,39.3771818 C19.8720686,38.0933182 20.0537829,37.2049091 21.0597257,36.7010455 C21.9532114,36.2530909 22.6807543,36.564 23.4388114,37.7967273 C24.1601829,38.9691136 24.8572114,40.1575227 25.5130971,41.3670682 C25.8676114,42.0212727 26.33184,42.2946818 27.08544,42.2796818 C28.9944686,42.2408182 30.90624,42.2288864 32.81424,42.2844545 C33.6621257,42.309 34.1428114,41.9776364 34.52784,41.2654773 C35.2135543,39.9979773 35.9225829,38.7383182 36.7073829,37.5297955 C37.4983543,36.3120682 38.68224,36.17775 39.4735543,37.1319545 C40.0063543,37.77525 39.9477257,38.454 39.5548114,39.14025 C39.2938971,39.5950227 39.0247543,40.0450227 38.7727543,40.5045682 C38.5231543,40.9593409 38.29104,41.4233182 37.9594971,42.0587727 C38.4847543,42.1405909 38.89344,42.2534318 39.30384,42.2595682 C40.8840686,42.2813864 42.46464,42.2547955 44.0452114,42.2735455 C45.7090971,42.2933182 46.4866971,42.8442273 46.4513829,43.9320682 C46.4170971,44.9888864 45.63984,45.4818409 43.9564114,45.5121818 M43.9636114,30.7307045 C43.8312686,33.3246818 42.2836114,34.8376364 39.6621257,34.8533182 C33.2109257,34.8921818 26.7597257,34.8942273 20.3088686,34.8526364 C17.6081829,34.8355909 16.0978971,33.2578636 16.0207543,30.5265 C15.9816686,29.1529773 15.9940114,27.7774091 16.0156114,26.4028636 C16.0639543,23.2968409 17.5207543,21.8241136 20.6133257,21.7982045 C23.7730971,21.7722955 26.9328686,21.79275 30.0922971,21.79275 C33.18624,21.79275 36.2801829,21.7722955 39.3741257,21.7982045 C42.3785829,21.8237727 43.8847543,23.2668409 43.9786971,26.2153636 C44.0266971,27.7194545 44.0400686,29.229 43.9636114,30.7307045 M17.7641829,14.394 C25.9296686,14.3858182 34.0948114,14.39025 42.2602971,14.3905909 C42.5232686,14.3905909 42.7893257,14.3755909 43.0495543,14.4032045 C44.1216686,14.5167273 44.7154971,15.0580909 44.7645257,15.9465 C44.8186971,16.9255909 44.2186971,17.5729773 43.0145829,17.6203636 C41.3050971,17.6868409 39.5911543,17.6486591 37.8789257,17.6500227 C35.2450971,17.6520682 32.6109257,17.6503636 29.97744,17.6500227 C25.8943543,17.6500227 21.8116114,17.66025 17.7292114,17.6449091 C15.9754971,17.6380909 15.2692114,17.1792273 15.22224,16.1067273 C15.17184,14.9483182 15.9593829,14.3960455 17.7641829,14.394 M29.9956114,0.009 C13.4297829,0.009 6.85714286e-05,13.3620682 6.85714286e-05,29.8341136 C6.85714286e-05,46.3058182 13.4297829,59.6592273 29.9956114,59.6592273 C46.5617829,59.6592273 59.9911543,46.3058182 59.9911543,29.8341136 C59.9911543,13.3620682 46.5621257,0.009 29.9956114,0.009" id="Fill-1" fill="#24AC41" mask="url(#mask-2)"></path>
                </g>
                <path d="M38.7378857,25.3916932 C32.8781143,25.3555568 27.018,25.3558977 21.1585714,25.3957841 C19.9013143,25.4043068 19.3976571,25.9797614 19.3074857,27.2196477 C19.2557143,27.9362386 19.2834857,28.6593068 19.2937714,29.3789659 C19.3236,31.4840795 19.7442857,31.9310114 21.8292,31.9490795 C24.5285143,31.9732841 27.2281714,31.9552159 29.9278286,31.9555568 C30.7836,31.9555568 31.6397143,31.9558977 32.4954857,31.9555568 C34.5365143,31.9541932 36.5789143,31.9940795 38.6182286,31.9374886 C40.1041714,31.8965795 40.5992571,31.3613523 40.6664571,29.8893068 C40.7055429,29.0401023 40.7093143,28.1854432 40.6650857,27.3369205 C40.5941143,25.9664659 40.1021143,25.399875 38.7378857,25.3916932" id="Fill-3" fill="#24AC41"></path>
            </g>
            <g id="Group-2">
                <ellipse id="Path" fill="#FFFFFF" cx="30.25" cy="30" rx="24.75" ry="21.5702479"></ellipse>
                <g id="Page-1">
                    <g id="Group-3" transform="translate(0.000000, 0.007776)">
                        <mask id="mask-4" fill="white">
                            <use xlink:href="#path-3"></use>
                        </mask>
                        <g id="Clip-2"></g>
                        <path d="M47.9302841,27.7595229 L47.9302841,27.7649324 C47.690625,28.497577 46.8966477,28.8985537 46.1585795,28.6615515 C45.4171023,28.4242111 45.0121023,27.6388242 45.2514205,26.9044891 L45.2510795,26.9038129 C45.9850568,24.6494177 45.5197159,22.0778926 43.8049432,20.1926935 C42.0888068,18.3074944 39.5589205,17.587021 37.2209659,18.0796206 C36.4603977,18.2402141 35.7127841,17.7591097 35.5505114,17.0051653 C35.3875568,16.2529113 35.8726705,15.5108002 36.6328977,15.3491923 L36.6342614,15.3491923 C39.9209659,14.6561044 43.4810795,15.6680128 45.8950568,18.3223704 C48.3097159,20.9736852 48.9605114,24.5885612 47.9302841,27.7595229 Z M40.8710795,25.498704 C41.1178977,24.7430691 40.963125,23.8816116 40.3883523,23.2497183 C39.8139205,22.6191773 38.9653977,22.3798084 38.1823295,22.5437829 L38.1823295,22.5420924 C37.5291477,22.6834147 36.8861932,22.2679001 36.7457386,21.6207926 C36.6052841,20.9709805 37.0225568,20.3319872 37.6771023,20.1937077 C39.2786932,19.8562923 41.0132386,20.3468633 42.1880114,21.6393877 C43.3651705,22.9322502 43.6801705,24.6926935 43.1769886,26.2370962 C42.9714205,26.8693276 42.2882386,27.2135049 41.6517614,27.0116642 C41.0152841,26.8074568 40.6672159,26.1292449 40.8724432,25.4983659 L40.8714205,25.4983659 L40.8710795,25.498704 Z M27.0673295,44.6641059 C19.4425568,44.6641059 11.6483523,40.9995304 11.6483523,34.9720323 C11.6483523,31.8206799 13.6614205,28.1763899 17.1284659,24.7376597 C21.7580114,20.1480654 27.1559659,18.0573065 29.1867614,20.0719947 C30.0823295,20.9591473 30.1689205,22.49645 29.593125,24.3312735 C29.293125,25.2556161 30.4678977,24.7437453 30.4678977,24.7461119 C34.2097159,23.1922427 37.4739205,23.1006198 38.6671023,24.7914162 C39.3039205,25.6924305 39.2432386,26.9555409 38.6561932,28.4198159 C38.3848295,29.0943088 38.7397159,29.1987791 39.2572159,29.3529489 C41.3653977,30.0010706 43.7122159,31.5691397 43.7122159,34.3316867 C43.7122159,38.9047145 37.063125,44.6641059 27.0673295,44.6641059 Z M29.8338068,0.330146506 C13.3569886,0.330146506 -0.000170454545,13.5769159 -0.000170454545,29.917562 C-0.000170454545,46.2575319 13.3569886,59.5043013 29.8338068,59.5043013 C46.3099432,59.5043013 59.6667614,46.2575319 59.6667614,29.917562 C59.6667614,13.5769159 46.3099432,0.330146506 29.8338068,0.330146506 Z" id="Fill-1" fill="#FC5F3A" mask="url(#mask-4)"></path>
                    </g>
                    <path d="M30.9370909,37.0152893 C29.6955,39.8004884 26.1241364,41.285725 23.0941364,40.3164162 C20.1687955,39.3802404 18.9302727,36.5155898 20.2110682,33.9356123 C21.4690227,31.4053343 24.7410682,29.9745304 27.6364091,30.721713 C30.633,31.4895192 32.1619773,34.2926371 30.9370909,37.0152893 M37.3308409,33.7635237 C36.9364091,29.803456 31.6836818,27.0764087 25.5991364,27.6728024 C19.5149318,28.2691961 14.90175,31.9638618 15.2968636,35.9242675 C15.6919773,39.8863636 20.9443636,42.6137491 27.0285682,42.0183696 C33.1137955,41.4212998 37.7252727,37.7266341 37.3308409,33.7635237" id="Fill-4" fill="#FC5F3A"></path>
                    <path d="M24.7461136,34.8932908 C23.8038409,34.5017806 22.5861136,34.9041097 22.0048636,35.8085049 C21.4161136,36.7166191 21.69225,37.7978362 22.6280455,38.2204508 C23.5767955,38.6501653 24.8371364,38.2420887 25.4258864,37.3109842 C26.0037273,36.3707513 25.6992955,35.296296 24.7464545,34.8932908 L24.7461136,34.8932908 Z" id="Fill-6" fill="#FC5F3A"></path>
                    <path d="M27.06825,33.9384523 C26.7065455,33.7961157 26.2545,33.9688805 26.0424545,34.3211721 C25.8368864,34.6758302 25.9504091,35.0795116 26.3124545,35.2272577 C26.6809773,35.3777085 27.1514318,35.2039294 27.3645,34.8435237 C27.5676818,34.4804132 27.4354091,34.0719985 27.06825,33.9384523" id="Fill-8" fill="#FC5F3A"></path>
                </g>
            </g>
            <g id="Page-1" transform="translate(120.000000, 0.000000)">
                <ellipse id="Path" fill="#FFFFFF" cx="29.75" cy="30.25" rx="24.75" ry="21.75"></ellipse>
                <mask id="mask-6" fill="white">
                    <use xlink:href="#path-5"></use>
                </mask>
                <g id="Clip-2"></g>
                <path d="M40.188,35.3221714 C40.188,35.3221714 40.3210286,36.18 40.4725714,36.8190857 C40.4832,36.8633143 35.5412571,36.9740571 31.4897143,36.8190857 C29.3650286,36.7378286 26.8038857,36.3445714 26.8038857,36.3445714 L38.5296,27.9857143 C38.5296,27.9857143 34.2888,27.2232 30,27.0716571 C25.3069714,26.9050286 20.5001143,27.3545143 19.8126857,27.5273143 C19.3830857,27.6384 22.8493714,27.6284571 26.8004571,27.9864 C29.5710857,28.2377143 33.2132571,28.9035429 33.2132571,28.9035429 L21.4885714,37.6313143 C21.4885714,37.6313143 26.5134857,37.9354286 31.0141714,37.9059429 C36.0867429,37.872 40.6584,37.2384 40.6868571,37.3621714 C41.5673143,41.1805714 43.1934857,48.7268571 42.5917714,49.3433143 C41.7678857,50.1788571 30,42.7217143 30,42.7217143 C30,42.7217143 19.0553143,49.3748571 17.5460571,49.3748571 C17.4987429,49.3772571 17.4521143,49.3659429 17.4106286,49.3426286 C16.6762286,48.7512 19.8154286,35.3245714 19.8154286,35.3245714 C19.8154286,35.3245714 9.19508571,26.4795429 9.6288,25.3926857 C10.0645714,24.3082286 23.7072,23.3468571 23.7072,23.3468571 C23.7072,23.3468571 28.7770286,10.5912 30.0024,10.5912 C31.2288,10.5912 36.2979429,23.3451429 36.2979429,23.3451429 C36.2979429,23.3451429 49.9998857,24.3133714 50.3742857,25.3909714 C50.7524571,26.4730286 40.188,35.3221714 40.188,35.3221714 M30,0 C13.4331429,0 0,13.4328 0,30.0003429 C0,46.5672 13.4331429,60.0003429 30,60.0003429 C46.5668571,60.0003429 60,46.5672 60,30.0003429 C60,13.4262857 46.5668571,0 30,0" id="Fill-1" fill="#C8A063" mask="url(#mask-6)"></path>
            </g>
        </g>
    </g>
</svg>