<?xml version="1.0" encoding="UTF-8"?>
<svg width="36px" height="36px" viewBox="0 0 36 36" version="1.1" xmlns="http://www.w3.org/2000/svg" xmlns:xlink="http://www.w3.org/1999/xlink">
    <!-- Generator: Sketch 52.2 (67145) - http://www.bohemiancoding.com/sketch -->
    <title>Page 1</title>
    <desc>Created with Sketch.</desc>
    <defs>
        <circle id="path-1" cx="18" cy="18" r="18"></circle>
    </defs>
    <g id="切图" stroke="none" stroke-width="1" fill="none" fill-rule="evenodd">
        <g id="Page-1">
            <mask id="mask-2" fill="white">
                <use xlink:href="#path-1"></use>
            </mask>
            <use id="Mask" fill="#F4F7F9" xlink:href="#path-1"></use>
            <g mask="url(#mask-2)" fill="#D8D8D8" id="Fill-1">
                <g transform="translate(1.800000, 6.120000)">
                    <path d="M31.0499115,30.6 L1.34992515,30.6 C0.511488697,30.6 0.000489931702,30.2619781 0.000489931702,29.4355949 C0,29.4317318 0,23.9768624 4.04389627,21.9939613 C6.60231961,20.7387731 5.61739358,21.7573459 8.75850904,20.4736673 C11.8999511,19.1911155 12.6443207,18.742834 12.6443207,18.742834 L12.67339,15.7878783 C12.67339,15.7878783 11.4973906,14.9004903 11.1314116,12.1196964 C10.3952075,12.3289481 10.1518748,11.2672372 10.1090874,10.5915153 C10.0695663,9.93929387 9.68268354,7.89925094 10.581055,8.08371435 C10.3971673,6.7219688 10.2653756,5.49398336 10.3300466,4.8428887 C10.5554152,2.55979191 12.7867275,0.174161783 16.2235984,0 C20.267168,0.172874081 21.8689181,2.55866517 22.0931435,4.841601 C22.1589576,5.49269565 22.0145911,6.72068109 21.8307034,8.07985124 C22.7290748,7.89925094 22.3387626,9.93543076 22.294832,10.5876522 C22.2553109,11.2633741 22.0067522,12.3210609 21.2723446,12.1118092 C20.9052224,14.8940517 19.7285698,15.7735526 19.7285698,15.7735526 L19.7563326,18.7141826 C19.7563326,18.7141826 20.5005388,19.132525 23.641491,20.4150769 C26.7830963,21.6989164 25.7976804,20.7387731 28.3565937,21.9939613 C32.4,23.9768624 32.4,29.4317318 32.4,29.4317318 C32.3995101,30.2619781 31.8885113,30.6 31.0499115,30.6 Z"></path>
                </g>
            </g>
        </g>
    </g>
</svg>