<?xml version="1.0" encoding="UTF-8"?>
<svg width="120px" height="80px" viewBox="0 0 120 80" version="1.1" xmlns="http://www.w3.org/2000/svg" xmlns:xlink="http://www.w3.org/1999/xlink">
    <!-- Generator: Sketch 52.2 (67145) - http://www.bohemiancoding.com/sketch -->
    <title>分组</title>
    <desc>Created with Sketch.</desc>
    <g id="切图" stroke="none" stroke-width="1" fill="none" fill-rule="evenodd">
        <g id="分组" fill="#FFFFFF">
            <path d="M39.0525647,23.2861861 C38.861231,24.3599383 39.027213,25.4826402 38.6225423,26.520915 C38.4072919,27.132114 38.3585018,27.7801375 38.4642137,28.4128924 C36.7833474,28.4973195 35.1397912,28.8772419 33.4627516,29.0128643 C33.7306187,27.4864387 33.678002,25.9173504 33.4431399,24.3891285 C33.3474731,22.9013239 34.1549012,21.5671048 34.9441525,20.339318 C34.8154806,19.911793 34.5318285,19.5323198 34.4557733,19.0877298 C34.625582,18.2695046 34.8566174,17.4553211 35.1517496,16.6680825 C36.1342479,15.8664733 37.519982,15.3558685 38.8315743,15.6221734 C39.2281134,15.8462647 39.0626097,16.3303738 39.1070948,16.6900875 C39.0544781,18.8878889 39.1558849,21.089732 39.0525647,23.2861861 M55.8913625,26.0444403 C55.3479749,26.0403986 54.855769,26.2698788 54.3554315,26.4351406 C53.2566979,26.8258409 52.0666025,26.8442532 50.9329505,27.0952893 C49.682585,27.3871918 48.3824727,27.3391402 47.1182355,27.5466155 C45.6095695,27.7963044 44.0731602,27.704692 42.5491875,27.688076 C42.7127778,26.8846704 43.0629184,26.1100061 43.0767901,25.2823502 C43.1155351,24.6882163 43.1504535,24.0936333 43.2092886,23.5012958 C43.2346404,23.2700192 43.2642971,22.8734808 43.6273527,22.9525191 C44.2472738,22.9430884 44.8901549,23.0899378 45.4923776,22.8878514 C46.5729345,22.5083782 47.4932495,21.8352061 48.4900979,21.306638 C49.6041382,20.7304673 50.9664339,20.706666 52.0259441,20.0330449 C52.6688252,19.2700566 52.924734,18.238518 52.7582737,17.2806287 C52.54972,16.5248257 51.7030685,16.1965477 50.9760006,16.0074847 C50.2728493,15.836834 49.6003115,15.5503204 48.8871152,15.4277214 C48.6819099,15.5287646 48.4920112,15.6531599 48.3006775,15.7708191 C48.4666595,16.1722973 48.8206268,16.5634467 48.7952751,17.0017495 C47.0713587,18.5542218 45.5488211,20.322702 43.5981743,21.6443467 C43.5455576,19.1416195 43.4886358,16.6056603 44.2238354,14.1743369 C45.5818261,13.7980072 47.0067836,13.7670206 48.3867777,13.4903869 C49.2310375,13.3305141 49.9777171,12.9029892 50.6693883,12.435047 C50.5306714,11.65679 50.4660963,10.6917154 49.6567549,10.2457782 C48.6111164,9.6934088 47.3507059,9.91570379 46.2132272,9.99249661 C45.2168572,10.0477335 44.3156756,10.4716658 43.3618772,10.695308 C43.6469644,10.2731721 43.9483149,9.85687421 44.3137622,9.49177153 C45.1833738,8.60393881 45.9592318,7.6294335 46.9187701,6.82198625 C47.80608,6.18339337 47.9998054,5.08988165 48.4355678,4.1818403 C48.8536318,3.3636151 48.3748193,2.36126678 47.5501712,1.95619591 C46.088382,1.13213267 44.5816294,0.21106797 42.857713,0 C42.1072067,0.47333115 42.466914,1.38721055 42.5506225,2.073406 C42.7228228,2.82022735 42.4372573,3.55447444 42.3009321,4.28288347 C42.1875669,4.85141975 42.242097,5.43477569 42.1483435,6.00555737 C41.9742298,6.42005894 41.6676176,6.77079104 41.4346689,7.15789868 C40.6391992,8.44586238 40.0747648,9.85328156 39.1893683,11.0936427 C38.9195878,11.4551527 38.620629,11.8916593 38.0987664,11.9159096 C36.9005393,12.0937456 35.7396223,12.440436 34.5437868,12.62411 C34.0821944,12.7139262 33.6268202,12.5729148 33.1834045,12.473668 C34.1276361,10.7779389 34.6667187,8.88102166 34.5983169,6.95985405 C34.5007368,6.03699303 35.577467,5.4859709 35.5793803,4.58511484 C35.5951653,4.21282687 35.5640736,3.84008982 35.5425486,3.46780184 C34.5729652,3.83514993 33.5785085,4.42030219 32.4893416,4.18363662 C31.4422681,4.0111896 30.9007938,2.96123871 29.869027,2.75960144 C29.4523979,2.67517425 29.0324205,2.87726061 28.7765118,3.17994106 C28.4478962,4.82941479 29.6891734,6.26422791 29.7475301,7.88046966 C29.9001187,9.04942695 29.8494153,10.4860364 31.0065057,11.2386958 C31.6393418,11.6199654 32.3487113,12.218141 32.0751042,13.0071759 C30.9591506,13.0457969 29.8240636,12.9434065 28.7291567,13.202077 C27.7016949,13.4400898 26.6617964,13.6165786 25.6161579,13.763428 C25.0397652,13.763428 24.8522582,14.3373532 24.552821,14.6952706 C26.1533272,16.3838144 28.522038,17.0457595 30.7209402,17.7615942 C31.3619079,17.9264069 31.3580813,18.7028676 31.195926,19.1928147 C30.9476706,19.8933807 30.8419587,20.6217898 30.7147218,21.3470552 C30.1756392,21.8109557 29.3371194,21.7853581 28.7549867,22.2039014 C28.1919874,22.5505918 27.595983,23.1779576 26.8550434,22.8811152 C25.7079981,22.3247041 25.1512171,21.0461711 23.8764565,20.662207 C23.8511048,21.4992936 23.9118533,22.3485054 23.7085612,23.1725686 C23.4875708,24.1708752 23.1082519,25.1763671 23.2881055,26.2092529 C23.5932827,27.4424288 24.3710541,28.6365346 25.6726013,29.1175001 C25.9208568,29.2859054 26.0854037,28.9652617 26.2179023,28.8238013 C27.1147789,27.6768489 27.6175081,26.2896384 28.6004848,25.1983721 C29.2845026,24.6275904 30.0211373,24.113842 30.650625,23.4842307 C31.3561679,25.4184217 29.8317169,27.4460214 30.7969953,29.3582074 C29.8025386,29.6918744 28.7702934,29.9137204 27.7289599,30.0713477 C25.5008794,30.3982785 23.2570138,30.7633812 20.9978415,30.7193713 C19.5260073,30.9030453 17.9762046,30.9394209 16.6258672,31.5780138 C15.8050458,31.9139262 15.9729411,32.963428 15.3066216,33.4497825 C14.5149785,34.086579 13.7687772,34.7853487 12.885294,35.3139168 C12.7637971,34.2145671 13.0531893,33.1340787 13.2311296,32.0549375 C13.5396551,30.0933527 14.1284845,28.1852084 14.6733071,26.2734715 C14.8550741,25.0717313 15.2850965,23.9045703 15.951416,22.8644992 C16.4244885,22.1818964 17.3017534,21.5486925 17.1027664,20.6384058 C16.6746573,18.855106 14.4135717,17.9802966 12.6528236,18.4769799 C11.3388396,18.7356505 10.5653733,19.9153857 9.30496273,20.2899191 C7.88000524,20.9321046 6.24410238,20.8292651 4.79187984,21.3838799 C3.44154248,21.8720307 1.79798628,21.5064789 0.609804203,22.401946 C0.332370385,22.6718436 -0.123003744,22.9947327 0.0310198584,23.4182158 C1.26416535,24.6329794 3.0134334,25.0991252 4.57902114,25.8073256 C5.57778288,26.0974318 6.56841295,25.603443 7.37344936,25.086551 C8.12204233,24.5799878 9.08397235,24.5817842 9.96506388,24.5759461 C9.70532843,26.726594 9.59196323,28.9064321 8.98974051,31.0090284 C8.38608279,33.0658184 8.23540753,35.203892 7.88191858,37.3028956 C7.51647127,39.3026524 6.87502515,41.4443187 5.19463722,42.8297329 C4.37764245,43.1782196 3.57260605,43.697357 3.36166068,44.5721663 C3.76393972,45.5686766 4.35611742,46.5193806 5.13819378,47.2953922 C5.76720322,47.9137765 6.73487324,47.9708097 7.59061307,48 C8.32581269,47.8239603 8.87254864,47.2531786 9.29491771,46.6900313 C9.87944207,45.9009964 9.75794519,44.8330823 10.408958,44.0790756 C10.9934823,43.302615 11.3096612,42.3891846 11.8339155,41.5776957 C12.6858286,40.0000748 14.1595762,38.8459372 15.2363064,37.4165131 C16.1566214,36.3728493 17.0343646,35.2847266 18.042693,34.3138139 C18.9127829,34.2572297 19.6886409,34.7193339 20.5285957,34.8495673 C21.07007,34.7561585 21.5488825,34.4696449 22.0688317,34.3043832 C23.4641325,33.8328484 24.9479251,33.6864481 26.3920159,33.3985873 C28.350316,33.0056416 30.1464608,32.0769425 32.1358526,31.8056977 C32.714637,31.7190251 33.2618513,31.5173878 33.8344173,31.4114048 C34.7901289,31.2897039 35.7573206,31.4661926 36.711119,31.3323666 C37.5711638,31.1760864 38.3857669,30.7651775 39.2831218,30.8132292 C39.7188842,30.7889788 40.0374548,31.1064789 40.3718104,31.3175469 C40.7645227,31.0714506 41.1180117,30.6807503 41.6283942,30.6937737 C42.8223163,30.6479674 44.0320234,30.7413762 45.2106388,30.5141414 C46.4126926,30.2568181 47.6420114,30.4494737 48.8574585,30.3578613 C50.8784204,30.2402021 52.9012956,30.2824157 54.9241708,30.2680451 C56.5557686,30.2276278 58.1390547,30.8918183 59.7749576,30.6349441 C60.4666288,30.517734 60.7579343,29.8369275 60.8851712,29.2625532 C60.9923181,28.7303925 61.1606917,28.044197 60.6503091,27.6458624 C59.456387,26.4221172 57.6033205,26.004023 55.8913625,26.0444403" id="Fill-1"></path>
            <path d="M10.6211303,10.5514442 C11.4771631,11.5722359 12.5175468,12.2430419 13.5682641,12.7874641 C14.3317081,13.1774809 15.1505401,12.953307 15.9189443,12.7291332 C17.0523301,12.3831505 18.2142366,12.1606923 19.300088,11.5768109 C19.737818,11.3480621 20.1123065,10.6915529 19.9688766,10.0230344 C19.7576584,8.97364914 19.3153817,7.98316668 18.6465931,7.38498848 C17.2515613,5.98847684 15.424173,5.86895557 13.7691487,6.08397948 C12.1075108,6.28928156 10.3896583,6.75878854 9,8.11641288 C9.52163855,8.95077426 9.9862358,9.86920083 10.6211303,10.5514442" id="Fill-3"></path>
            <path d="M44.9901912,40.1107999 C44.9181483,38.522379 45.1840097,36.8848273 44.6504277,35.3421194 C44.4301159,34.6491611 43.6018553,34.4308494 43.0362026,34.0360939 C41.8091498,33.2192405 40.1284594,32.6523135 38.6587848,33.2457285 C37.9276659,33.3679147 37.6580861,34.159989 36.9381222,34.2843114 C35.2272202,34.6017392 33.5865019,35.1567039 31.9188256,35.6176792 C31.1347203,35.8517983 30.2288393,36.2341642 30.1070636,37.0804961 C30.7489424,37.2548037 31.3908211,37.4889228 32.0708129,37.4961856 C34.4733264,37.4577354 36.4821605,35.8342821 38.898153,35.8992202 C38.8790965,37.2932539 38.9622944,38.693696 38.86004,40.0864481 C38.5560656,41.7675767 38.8126312,43.4747661 38.685278,45.1644392 C38.5714038,46.1350934 38.4742621,47.1070293 38.2562743,48.0635851 C37.1319407,48.3605062 35.9829731,48.5574567 34.8395831,48.771069 C33.0050462,49.0902057 31.0966073,49.4234409 29.256493,48.9470855 C29.2090841,47.9170471 29.2146616,46.8870087 29.1612105,45.8591064 C29.1746894,45.5707298 29.0933507,45.1751198 29.4656497,45.0507975 C30.0238657,44.8393213 30.6429696,44.8692271 31.216059,44.7192712 C31.7003731,44.5394097 32.1447149,44.2741032 32.6480854,44.1344008 C33.9146456,43.7853583 35.2764882,43.8900284 36.53933,43.5217608 C37.0538555,43.3525799 37.6027757,43.1133341 37.880257,42.6579127 C37.992272,42.1704495 38.0150469,41.6714512 38.1005687,41.1809974 C37.319717,40.8524617 36.4612448,40.52948 35.5878993,40.6990881 C33.7933347,40.9242355 32.2135042,41.8286699 30.4412496,42.1290087 C30.0159643,42.2178714 29.5906789,42.0888496 29.1746894,42.0243387 C29.1746894,40.8037581 29.1444779,39.5823231 29.2411548,38.3634515 C29.281127,37.7999423 29.4707624,37.2394236 29.3778039,36.6737783 C29.0324629,36.0645561 28.3603726,35.7001335 27.866298,35.200708 C27.5149147,35.3997947 27.146334,35.5809379 26.8446836,35.8432538 C26.6452875,36.2478354 26.5713854,36.6947123 26.5579065,37.1364625 C26.5295541,38.8244268 26.6090337,40.5158088 26.5369908,42.2024914 C26.3696654,43.3910301 26.3529329,44.5881133 26.2028048,45.7787881 C26.0568599,46.8049815 26.5430331,47.8055415 26.3603696,48.830026 C26.2655518,49.6259453 25.8895345,50.411184 26.0317611,51.221629 C26.3222566,51.7607864 26.7098937,52.2512402 27.0347838,52.7750175 C27.2416165,53.1296139 27.7621844,53.2727341 28.1549342,53.0997082 C28.9641383,52.9339451 29.2244223,52.0521536 29.9950486,51.8308513 C32.2683498,51.029378 34.7484837,51.2737504 37.1263632,51.3262991 C37.3448158,52.1833115 37.3596892,53.1415762 37.9997087,53.8503418 C38.4500929,54.3877903 38.7745182,55.0008575 39.169592,55.5712023 C39.3290159,55.7702889 39.4828623,56.0702006 39.8114707,55.9851829 C40.1721499,55.622042 40.2311785,55.0965558 40.5579278,54.7163259 C41.019467,54.3407955 41.6362469,54.1993842 42.1851671,53.9674013 C42.3673659,53.3158838 42.6996927,52.7173422 43.0761748,52.1465702 C43.4535864,51.5916055 43.3187966,50.9212902 43.3531912,50.3048051 C43.5470098,49.7724833 44.1298598,49.4653089 44.3729464,48.9590478 C44.5895398,48.3605062 44.6030188,47.7213782 44.6067372,47.0967759 C44.5988357,45.8710686 44.6518221,44.6457886 44.6276528,43.4205086 C44.5723425,42.3016074 45.075713,41.233546 44.9901912,40.1107999" id="Fill-5"></path>
            <path d="M98.312335,37.2176309 C98.2514159,37.3383838 98.1904968,37.4573003 98.1388783,37.5757576 L98.0984206,37.6689624 L97.9961137,37.6841139 C94.8655229,38.1404959 91.6656425,38.4467401 88.5703941,38.7433425 C87.7338028,38.8236915 86.8972115,38.9040404 86.0615502,38.9871442 C85.6899902,39.030303 85.3091296,39.0505051 84.9403597,39.0707071 C84.2939662,39.1046832 83.6261813,39.1404959 82.9960638,39.3062443 L81.4256531,39.4724518 C81.2326651,39.5197429 81.0396771,39.5697888 80.8462241,39.6193756 C80.1403066,39.8016529 79.4106725,39.9903581 78.661507,40.0472911 L78.4113202,40.0661157 L78.467589,39.8246097 C78.645696,39.0560147 78.9814486,38.3296602 79.3060404,37.6271809 C79.5622727,37.0730028 79.8273405,36.4995409 80.0077727,35.9168962 C80.0886881,35.6891644 80.1486772,35.4545455 80.2072711,35.2272727 C80.3295743,34.7493113 80.4565279,34.2548209 80.7634485,33.8140496 C81.155935,33.2460973 81.3303217,32.6083563 81.5154042,31.9338843 C81.6065503,31.6028466 81.7004866,31.2603306 81.8223248,30.9302112 C82.360366,29.6694215 83.0160602,28.0114784 83.3439073,26.2933884 C83.4108718,26.0431589 83.5280597,25.8273646 83.6419923,25.6189164 C83.7963827,25.3347107 83.9424026,25.0665748 83.9391473,24.775023 L83.9521682,24.4729109 C83.9810001,23.7552801 84.0107622,23.013315 84.4427762,22.348944 C84.9096677,21.6492195 84.9226885,20.8613407 84.9361745,20.0275482 C84.9408248,19.7552801 84.94501,19.4733701 84.9673316,19.1983471 C84.9701217,18.8838384 85.0938201,18.5899908 85.2133331,18.305326 C85.345867,17.989899 85.4704954,17.6923783 85.4151567,17.3856749 C85.3342413,16.8057851 85.2947136,16.2217631 85.256581,15.6574839 C85.2179834,15.0927456 85.1784558,14.5087236 85.0984704,13.9416896 C85.0533623,13.5932048 84.8603744,13.2933884 84.6562256,12.9752066 C84.5557788,12.8191001 84.4520769,12.6579431 84.365581,12.4880624 L84.2511833,12.2630854 L84.5027653,12.2254362 C86.207105,11.9692378 87.6259155,11.7479339 89.0782083,11.4297521 L89.0796034,11.4292929 C89.4074505,11.3604224 89.7399479,11.2649219 90.0617495,11.1721763 C90.7509259,10.9747475 91.464749,10.7704316 92.2134494,10.7915519 C93.6959692,10.7970615 95.2031356,10.8177227 96.7442494,10.848944 L97.0023418,10.8544536 L96.9149159,11.0936639 C96.8684127,11.2199265 96.8135391,11.34573 96.7582003,11.4724518 C96.6405474,11.7419651 96.5289399,11.9972452 96.5024331,12.2603306 C96.5568418,12.362259 96.6219462,12.4614325 96.6861205,12.5610652 C96.8977097,12.8865932 97.1367358,13.2557392 97.0395443,13.7222222 C96.9358423,14.8292011 96.6307818,16.0463728 96.1094817,17.4233242 C95.9485808,17.9320478 95.490525,18.3461892 94.9176064,18.4963269 C93.8401289,18.7015611 92.7491654,18.7497704 91.6944744,18.7966024 C90.5402667,18.8480257 89.3465314,18.9003673 88.2006942,19.1579431 C87.1641394,19.3774105 86.3986979,19.9173554 86.117819,20.6179982 C86.7223597,20.9715335 87.2706316,21.3989899 87.8021624,21.8126722 L88.1002475,22.0445363 C88.2602182,22.1230487 88.419724,22.2033976 88.5787647,22.2842057 C89.0619322,22.5280073 89.5618409,22.7805326 90.0757005,22.9761249 C91.0606368,23.2203857 92.1097474,22.9458219 93.1239807,22.6808999 C93.3778878,22.6147842 93.6299347,22.5491276 93.8801216,22.4912764 L94.1563502,22.4279155 L94.1038016,22.7033976 C93.990799,23.3002755 93.6806231,23.8783287 93.1281659,24.5243343 C92.6640647,25.0642792 92.3213366,25.6942149 91.9897693,26.3034894 C91.8023617,26.6478421 91.6084436,27.0041322 91.3935992,27.3448118 C91.2289781,27.6042241 91.0810981,27.8865932 90.9378685,28.1593205 C90.5849097,28.8324151 90.2198602,29.5289256 89.5544004,30.030303 C89.2698012,30.2539027 88.9242829,30.3787879 88.5903905,30.5 C88.1639568,30.6551882 87.7612396,30.8011938 87.5170982,31.1386593 C87.0553221,31.8149679 86.8288519,32.6574839 86.8953513,33.4517906 C87.0395111,33.6955923 87.2734218,33.8875115 87.5198884,34.0899908 C87.6584677,34.204775 87.8021624,34.322314 87.9309761,34.4527089 C88.3671754,34.8746556 89.0549567,35.3585859 89.8389995,35.2428834 C90.2114896,35.1299357 90.5509624,34.9008264 90.9104316,34.6579431 C91.3052432,34.3911846 91.7130757,34.1147842 92.2125193,33.9908173 C93.2216372,33.7240588 94.2326153,33.5426997 95.2142964,33.453168 C95.5686502,33.4251607 95.9271894,33.3677686 96.2741027,33.312213 C96.8958496,33.2125803 97.5380578,33.1101928 98.1923569,33.1685032 L98.3709289,33.184573 L98.3602332,33.3613407 C98.3095448,34.1887052 98.3955756,34.9646465 98.6150703,35.6662075 C98.8168939,36.2245179 98.5490359,36.7520661 98.312335,37.2176309 M113.895069,36.197888 L113.886698,36.197888 C113.457475,36.197888 113.072894,36.3553719 112.665526,36.5211203 C112.419525,36.6221304 112.165153,36.7258953 111.89869,36.7943067 L111.564332,36.8815427 C110.6352,37.1248852 109.673515,37.3760331 108.687648,37.2649219 C108.156118,37.2777778 107.587384,37.3521579 107.037252,37.4247016 C106.1802,37.5367309 105.293385,37.6528926 104.404245,37.5431589 L104.24939,37.5238751 L104.242414,37.3700643 C104.164289,35.620753 104.386109,34.1354454 104.92043,32.8273646 L104.939031,32.78191 L104.978559,32.7511478 C105.485908,32.3636364 105.95931,32.0780533 106.425271,31.8787879 L106.462474,31.8631772 L106.502931,31.8636364 C106.713126,31.8682277 106.92518,31.879247 107.137234,31.8902663 C107.805484,31.926079 108.496056,31.9618916 109.145704,31.7699725 C109.728854,31.3471074 110.379897,30.8466483 110.821212,30.2318641 C110.72216,29.6868687 109.963694,29.4733701 109.404262,29.3163453 C109.123383,29.2580349 108.852735,29.1841139 108.590922,29.1129477 C107.940343,28.9357208 107.326037,28.7690542 106.674063,28.8480257 L106.63221,28.8512397 C106.263905,28.8833792 105.847237,28.9201102 105.504509,28.6726354 L105.451961,28.6134068 C105.166431,28.1023875 105.181312,27.5463728 105.195728,27.0082645 C105.205029,26.6620753 105.2134,26.3351699 105.147365,26.023416 C105.123183,25.6418733 104.886948,25.3732782 104.636761,25.0890725 C104.417731,24.8402204 104.191726,24.5826446 104.086629,24.2465565 C103.931773,23.71809 103.477438,23.3815427 102.996595,23.0252525 C102.870572,22.9325069 102.745478,22.8397612 102.626895,22.7442608 C102.552955,22.6910009 102.47297,22.6290174 102.392985,22.5665748 C102.148378,22.3764922 101.916793,22.1960514 101.638704,22.1088154 C100.476126,22.2690542 99.7464915,22.6496786 99.4688678,23.2405877 C99.1080035,24.3783287 98.7792264,25.5156107 98.8122436,26.6698806 C98.7973626,26.926079 98.7982927,27.174472 98.7987577,27.4251607 C98.8015479,28.3948577 98.8043381,29.3976125 98.0170401,30.181359 L97.9482154,30.2497704 L97.851954,30.2318641 C97.2316022,30.1179982 96.545681,30.1850321 95.8690605,30.4269972 C95.0027071,30.7424242 94.1019415,30.7144169 93.3341748,30.6455464 L93.1551378,30.6285583 L93.1667635,30.4522498 C93.2239624,29.5550964 93.6736477,28.7791552 94.108917,28.0289256 C94.2921393,27.7130395 94.4814071,27.3865932 94.6348674,27.0606061 C94.8934248,26.5270891 95.2733554,26.0688705 95.6411951,25.6253444 C95.9137035,25.2966024 96.1959775,24.956382 96.4177974,24.5964187 C97.4590025,23.0555556 98.6662238,21.556933 100.464035,20.9811754 L100.501237,20.9733701 C101.315972,20.8852158 102.146983,20.8319559 102.950092,20.7800735 C103.573699,20.7401286 104.219163,20.6983471 104.84928,20.640955 C106.022554,20.3089991 107.266048,20.3342516 108.469084,20.3595041 C108.948066,20.369146 109.443324,20.379247 109.924632,20.3654729 C110.159938,20.3526171 110.406869,20.3604224 110.64543,20.3686869 C111.164405,20.3875115 111.655478,20.4031221 112.099583,20.2157943 C112.264204,20.0881543 112.422315,19.9536272 112.580891,19.8191001 C112.926409,19.5257117 113.283553,19.2213039 113.706731,18.9921947 C113.749979,18.9513315 113.841125,18.8921028 113.935527,18.8319559 C114.222916,18.6483012 114.347544,18.5422406 114.324293,18.402663 C113.164505,17.0151515 110.978858,16.4747475 109.108502,17.1193756 C107.869193,17.5220386 106.521998,17.7139578 105.106442,17.7043159 C104.247064,17.7102847 103.36583,17.8117539 102.517148,17.9214876 C102.150703,17.9687787 101.784724,18.0160698 101.418279,18.0541781 L101.156001,18.0817264 L101.28714,17.5463728 C101.459202,16.8246097 101.636844,16.0775941 102.224643,15.5105601 C102.507847,15.2102847 103.150521,14.4269972 102.966368,13.6758494 C102.760359,13.4439853 102.5497,13.2162534 102.339041,12.9885216 C102.000498,12.6221304 101.649865,12.2428834 101.324808,11.8521579 C100.98301,11.4449036 100.521234,11.1707989 100.032021,10.8806244 C99.7032436,10.6854913 99.3628407,10.4834711 99.0605703,10.2359963 L98.5555463,9.82369146 L99.20473,9.91505969 C99.427015,9.94674013 99.6465098,9.99265381 99.8664696,10.0399449 C100.190131,10.1083563 100.496587,10.1735537 100.812808,10.1914601 C101.585225,10.0013774 102.456694,9.7892562 103.341184,9.86822773 C103.906197,9.9040404 104.493531,9.88383838 105.062264,9.86363636 C105.946754,9.83149679 106.86147,9.79935721 107.752936,9.97796143 C109.522845,10.295225 111.364834,10.3677686 113.223564,10.1910009 C113.954593,9.80991736 114.773978,9.21533517 114.657255,8.50275482 C113.144043,6.76767677 110.538938,6.46235078 108.597432,6.75711662 C107.796183,6.82093664 106.985634,6.93847567 106.202056,7.05142332 C104.261015,7.33149679 102.254405,7.62121212 100.309179,7.14141414 L100.152464,7.10238751 L100.1706,6.94352617 C100.194317,6.73278237 100.230589,6.52020202 100.267327,6.30716253 C100.363588,5.74334252 100.454269,5.21120294 100.320805,4.69100092 C100.078059,3.60422406 99.3023866,2.69926538 98.594609,1.93617998 C98.343027,1.66850321 97.9672817,1.56244261 97.56968,1.44995409 C97.3729717,1.39439853 97.169753,1.33700643 96.9795552,1.25757576 C96.738204,1.18686869 96.4982478,1.06427916 96.2661972,0.945821855 C95.8532494,0.735078053 95.4644832,0.536730946 95.0064274,0.607438017 C94.4544352,0.654269972 93.9875438,0.472910927 93.5355334,0.296143251 C93.1542077,0.146464646 92.7942735,0.00505050505 92.401322,0 C91.4377772,0.0298438935 90.6267626,0.623048669 90.0975569,1.14416896 C90.113833,1.21258035 90.128714,1.28145087 90.1445251,1.3503214 C90.2431117,1.79109275 90.336118,2.20752984 90.5463121,2.58172635 C90.8290512,3.05004591 91.2178173,3.47520661 91.5940277,3.88567493 C92.0516185,4.38475666 92.5245553,4.90128558 92.8384514,5.52571166 C92.9333178,5.72038567 93.0370198,5.91000918 93.1407218,6.09963269 C93.3843982,6.54453627 93.6364452,7.00459137 93.7620036,7.51515152 L93.8089718,7.70385675 L93.3295245,7.7892562 C92.9416884,7.85996327 92.5412964,7.93250689 92.1385793,7.97291093 C91.1322516,8.05876951 90.1147631,8.19926538 89.1307568,8.33516988 C87.8905183,8.50596878 86.608427,8.68319559 85.3333112,8.7543618 C84.9654714,8.77640037 84.5864709,8.83195592 84.2200262,8.88567493 C83.4801614,8.99403122 82.71565,9.10606061 81.9511385,8.96556474 C80.874591,8.80440771 79.6799256,8.91551882 78.1992659,9.31680441 C77.88909,9.37970615 77.6705253,9.60743802 77.4663766,9.84435262 C77.5254356,9.90449954 77.5854246,9.96464646 77.6454136,10.0243343 C78.1006793,10.4825528 78.571756,10.9554637 78.7717195,11.5959596 C78.9312252,12.0592287 79.0535284,12.5431589 79.1725764,13.010101 C79.2748833,13.4141414 79.3813755,13.8319559 79.5106542,14.2332415 C79.8436166,15.164371 79.7129428,16.1437098 79.5873844,17.0895317 C79.5492518,17.3751148 79.5115843,17.6588613 79.4864726,17.9403122 C79.3646344,19.4591368 79.1697863,20.9412305 78.9065785,22.3415978 C78.8354287,22.8213958 78.6229094,23.2653811 78.4173656,23.6951331 C78.3722576,23.7897153 78.3262195,23.8852158 78.2825065,23.9802571 C77.8625832,24.9444444 77.6919168,25.9958678 77.5268306,27.0119376 C77.3477936,28.1166208 77.1627111,29.2580349 76.6581522,30.3209366 C75.8197007,31.4591368 75.2877049,32.7571166 75.1016924,34.1060606 C74.9961303,34.5725436 74.7133912,34.9375574 74.4399528,35.2901745 C74.3432263,35.4146006 74.2469648,35.5390266 74.159539,35.6657484 C73.8530833,36.033517 73.7340353,36.4582185 73.6080118,36.9072544 C73.5010546,37.2883379 73.3908422,37.6822773 73.1639069,38.0426997 C72.6565578,38.90955 72.2956935,39.8613407 71.94692,40.78191 C71.783229,41.2144169 71.619538,41.6469238 71.4400359,42.0734619 C70.6583182,43.5615243 69.6970985,44.9660239 68.767501,46.3246097 C68.5047583,46.7084481 68.2420156,47.0922865 67.9834582,47.4779614 C67.7816346,47.7846648 67.6012024,48.1244261 67.4477421,48.4862259 C66.7208982,50.2291093 65.8963977,52.2061524 64.4055073,53.7539027 C64.2176347,53.9311295 64.0809154,54.137741 64,54.3627181 C64.8291508,54.2263545 65.5378585,53.7405877 66.2256398,53.2695133 C66.4530401,53.1138659 66.6795104,52.9586777 66.9097009,52.8158861 C67.2570793,52.2823691 67.7486174,51.8751148 68.2238794,51.4811754 C68.6484529,51.1299357 69.0874425,50.7662994 69.4041288,50.3227732 C69.8645098,49.6914601 70.5574065,49.3365473 71.2270515,48.9926538 L71.4744482,48.8654729 C71.634419,48.6988062 71.7967149,48.533517 71.9604059,48.3668503 C72.6477222,47.6680441 73.358755,46.9453627 73.8321569,46.1042241 C74.0139842,45.8085399 74.2227832,45.5348944 74.4241418,45.2704316 C74.651077,44.9729109 74.8854528,44.6657484 75.0686752,44.3434343 C75.2035342,44.1193756 75.3286277,43.892562 75.4537211,43.6652893 C75.8755045,42.9012856 76.3112388,42.1111111 77.0604042,41.5371901 L77.1743369,41.4494949 L77.2878046,41.5371901 C77.5793792,41.7630854 77.8049194,42.0385675 78.0234841,42.305326 C78.1899653,42.5087236 78.3480759,42.7011019 78.5317633,42.8719008 C78.7661391,42.9710744 79.0135357,43.040404 79.2748833,43.1134068 C79.5706432,43.1960514 79.8766338,43.28191 80.1644882,43.415978 C80.250984,43.4499541 80.3472455,43.4908173 80.443972,43.5325987 C80.8797064,43.7194674 81.2912591,43.8943985 81.7428045,43.8425161 C82.4556975,43.7713499 83.1555696,43.5555556 83.8321901,43.3466483 C83.9991364,43.295225 84.1660826,43.2438017 84.3325638,43.194674 C84.9812825,42.9857668 85.6592981,42.9132231 86.3149923,42.8429752 C86.8223414,42.7887971 87.3464317,42.7327824 87.8468054,42.6129477 C88.7782631,42.4384757 89.7180914,42.21809 90.6272276,42.0041322 C92.6854561,41.520202 94.8041388,41.0229568 96.9502583,41.0229568 C97.3194931,41.0229568 97.689193,41.0376492 98.060288,41.0697888 L98.2281643,41.0844812 L98.2286293,41.2506887 C98.2300244,41.5321396 98.2700171,41.8117539 98.312335,42.1069789 C98.3890651,42.6450872 98.4685855,43.2015611 98.2955938,43.7695133 C98.2481606,43.9963269 98.2816429,44.2438017 98.3169853,44.5059688 C98.3467473,44.7254362 98.3774393,44.9527089 98.3583731,45.187787 C98.3044294,45.4077135 98.2258391,45.5881543 98.150039,45.7630854 C98.015645,46.0725436 97.8886914,46.3650138 97.94124,46.6657484 C98.0937702,47.6331497 98.0556377,48.6166208 98.0189002,49.5674931 C97.9826278,50.5110193 97.9449602,51.486685 98.0970255,52.4247016 C98.1309727,52.6891644 98.2416502,52.9334252 98.3588381,53.1919192 C98.5225291,53.5532599 98.6913355,53.9274564 98.6555281,54.3668503 C98.6680839,54.5399449 98.6527379,54.7447199 98.6378569,54.9426079 C98.6048396,55.3737374 98.5741476,55.7805326 98.8224743,56.0977961 C99.0787065,56.4729109 99.1884539,56.8838384 99.2954111,57.2814509 C99.3628407,57.533517 99.427015,57.7736455 99.5237415,58 C99.7604424,57.9701561 99.9506402,57.8149679 100.170135,57.5812672 C100.31569,57.4008264 100.53751,57.3241506 100.732823,57.2566575 C100.9193,57.1914601 101.080201,57.1354454 101.153676,57.0009183 C102.037236,55.4508724 102.47018,53.7235996 102.889173,52.053719 C102.956138,51.7855831 103.023567,51.5174472 103.092392,51.2497704 C103.132849,50.8241506 103.148661,50.3581267 103.164472,49.9081726 C103.194234,49.0353535 103.224926,48.1326905 103.468602,47.2488522 C103.609507,46.7988981 103.59044,46.3507805 103.570444,45.8755739 C103.551378,45.4247016 103.531381,44.9582185 103.65601,44.4912764 C103.749946,44.0270891 103.792729,43.5307622 103.834117,43.0500459 C103.908987,42.171258 103.987112,41.2630854 104.391224,40.4081726 L104.431217,40.3241506 L104.523293,40.3062443 C105.527296,40.1134068 106.548504,40.0817264 107.535766,40.0518825 C108.359801,40.0261708 109.211739,40.0004591 110.039494,39.8797062 L110.059026,39.8764922 L110.079022,39.8778696 C111.016525,39.9407713 111.964724,40.0408632 112.882231,40.1372819 C113.771371,40.231405 114.691203,40.328742 115.597084,40.3916437 C117.92596,40.3145087 119.374068,39.7176309 120,38.5679522 C118.881135,37.5734619 116.684327,36.0371901 113.895069,36.197888" id="Fill-7"></path>
            <path d="M16.0979589,71.6658841 L17.5826961,71.7955394 C17.609248,72.688187 17.622253,73.606979 17.622253,74.4996265 L17.622253,75.1719133 C17.1491962,75.3271796 16.7021494,75.4050795 16.1770727,75.4050795 C14.0745981,75.4050795 12.6819796,73.7622452 12.6819796,70.9930637 C12.6819796,68.1342439 14.1667168,66.568776 16.1770727,66.568776 C16.7417063,66.568776 17.2147631,66.6728204 17.6748149,66.918792 L18.1077729,68.8588198 L18.8831959,68.8588198 L18.8831959,66.6978978 C18.0687579,66.2459716 17.2017581,66 16.0063821,66 C13.0499127,66 11,68.0440721 11,70.9930637 C11,73.9687333 12.9973508,76 15.9532783,76 C17.1491962,76 18.0817629,75.6894675 19.0934433,75.1457689 L19.0934433,74.512432 C19.0934433,73.5424181 19.1064483,72.6364315 19.1330002,71.7565895 L20,71.6658841 L20,71.1878135 L16.0979589,71.1878135 L16.0979589,71.6658841 Z" id="Fill-9"></path>
            <path d="M25.6223292,71.9589021 L22.7095447,71.9589021 C22.8278459,70.2338279 23.7944834,69.490727 24.7605079,69.490727 C25.7706655,69.490727 26.4694396,70.2083828 26.4694396,71.1405045 C26.4694396,71.6691395 26.3057793,71.9589021 25.6223292,71.9589021 M28,71.6816024 C28,70.0827151 26.7514011,69 24.8640981,69 C22.8431699,69 21,70.3345697 21,72.5124629 C21,74.7287834 22.5906305,76 24.834676,76 C26.2763573,76 27.360683,75.3960682 27.9558669,74.4011128 L27.6585814,74.2250742 C27.0934326,74.8290059 26.4394046,75.1940653 25.3845009,75.1940653 C23.8539405,75.1940653 22.7389667,74.325816 22.6942207,72.4496291 L27.8957968,72.4496291 C27.9705779,72.2486647 28,71.9962908 28,71.6816024" id="Fill-11"></path>
            <path d="M35.8876885,72.9981703 L35.8876885,71.5359457 C35.8876885,69.750324 35.1165919,69 33.7376682,69 C32.7445985,69 31.7362413,69.4397347 30.8465145,70.3069299 L30.7278842,69.1419532 L30.5059111,69.0128078 L28,69.7764733 L28,70.1644431 L29.2456176,70.2679729 C29.2755809,70.8630022 29.3049327,71.3550355 29.3049327,72.1699321 L29.3049327,72.9981703 C29.3049327,73.6711138 29.2896453,74.7058779 29.2602935,75.4433941 L28.1039543,75.5858809 L28.1039543,76 L31.9735018,76 L31.9735018,75.5858809 L30.9064411,75.4433941 C30.8911537,74.7192193 30.8764778,73.6839216 30.8764778,72.9981703 L30.8764778,70.8112373 C31.6922136,70.1644431 32.3887077,69.8928109 33.0264982,69.8928109 C33.9009376,69.8928109 34.3161435,70.3069299 34.3161435,71.5226043 L34.3161435,72.9981703 C34.3161435,73.7095372 34.3014676,74.7192193 34.2867917,75.4433941 L33.129841,75.5858809 L33.129841,76 L37,76 L37,75.5858809 L35.9176519,75.4433941 C35.9023645,74.7192193 35.8876885,73.7095372 35.8876885,72.9981703" id="Fill-13"></path>
            <path d="M38.6223292,71.9589021 L35.7095447,71.9589021 C35.8278459,70.2338279 36.7944834,69.490727 37.7605079,69.490727 C38.7706655,69.490727 39.4694396,70.2083828 39.4694396,71.1405045 C39.4694396,71.6691395 39.3057793,71.9589021 38.6223292,71.9589021 M41,71.6816024 C41,70.0827151 39.7514011,69 37.8640981,69 C35.8431699,69 34,70.3345697 34,72.5124629 C34,74.7287834 35.5906305,76 37.834676,76 C39.2763573,76 40.360683,75.3960682 40.9558669,74.4011128 L40.6585814,74.2250742 C40.0934326,74.8290059 39.4394046,75.1940653 38.3845009,75.1940653 C36.8539405,75.1940653 35.7389667,74.325816 35.6942207,72.4496291 L40.8957968,72.4496291 C40.9705779,72.2486647 41,71.9962908 41,71.6816024" id="Fill-15"></path>
            <path d="M46.1944957,74.4391366 C45.431758,75.0056376 45.0913905,75.1821823 44.6010591,75.1821823 C43.9203242,75.1821823 43.4434727,74.854536 43.4434727,74.1114902 C43.4434727,73.4821601 43.7568804,72.9281211 44.9549065,72.4872784 C45.2413544,72.3870633 45.7041643,72.2484237 46.1944957,72.1222461 L46.1944957,74.4391366 Z M48.1417797,75.3332839 C47.828372,75.3332839 47.6244885,75.1312959 47.6244885,74.5019657 L47.6244885,71.4046436 C47.6244885,69.6802166 46.8752307,69 45.2138329,69 C43.5389553,69 42.4358501,69.6677546 42.2044452,70.7503894 C42.2589264,71.1154217 42.5172912,71.3044285 42.9261815,71.3044285 C43.3479901,71.3044285 43.6338763,71.0525925 43.7428388,70.5234775 L43.9748054,69.5919442 C44.2741715,69.5166531 44.533098,69.4912099 44.7779828,69.4912099 C45.799647,69.4912099 46.1944957,69.8562421 46.1944957,71.2036941 L46.1944957,71.7198279 C45.6221616,71.8454862 45.0234294,72.0090498 44.5600578,72.1352274 C42.5717724,72.7645575 42,73.3814257 42,74.312959 C42,75.396113 42.8441788,76 43.9607639,76 C44.9144668,76 45.4457996,75.6225057 46.2354971,74.8799792 C46.3714194,75.5591573 46.8617508,75.975076 47.6244885,75.975076 C48.2372623,75.975076 48.6731124,75.7736073 49,75.2071063 L48.768595,74.9801943 C48.5366284,75.2320303 48.3866645,75.3332839 48.1417797,75.3332839 Z" id="Fill-17"></path>
            <path d="M53.7724836,73.1498784 L53.7724836,68.0272598 L53.8302561,66.0982975 L53.6134604,66 L51,66.5284759 L51,66.9089988 L52.2418106,67.0072963 L52.2418106,73.1498784 C52.2418106,73.8992704 52.2275164,74.7099716 52.2126266,75.4715241 L51,75.6068099 L51,76 L55,76 L55,75.6068099 L53.8016677,75.4715241 C53.7867778,74.7099716 53.7724836,73.8992704 53.7724836,73.1498784" id="Fill-19"></path>
            <path d="M59.5066751,75.4963282 C58.2790051,75.4963282 57.5781151,74.4895037 57.5781151,72.5127216 C57.5781151,70.5234775 58.2790051,69.4912099 59.5066751,69.4912099 C60.7070884,69.4912099 61.4352352,70.5234775 61.4352352,72.5127216 C61.4352352,74.4895037 60.7070884,75.4963282 59.5066751,75.4963282 M59.5066751,69 C57.6726796,69 56,70.2337364 56,72.4997404 C56,74.7662636 57.6181659,76 59.5066751,76 C61.3679275,76 63,74.7787256 63,72.4997404 C63,70.2212744 61.3139701,69 59.5066751,69" id="Fill-21"></path>
            <path d="M61.0766308,74.0847458 C60.2032932,74.0847458 59.6796232,73.3626091 59.6796232,72.2665639 C59.6796232,71.1581921 60.2304465,70.4360555 61.1170836,70.4360555 C62.0170203,70.4360555 62.5412445,71.1453518 62.5412445,72.2290704 C62.5412445,73.3374422 62.0037207,74.0847458 61.0766308,74.0847458 Z M59.6796232,76.923472 C59.9616846,76.9738059 60.2304465,76.9861325 60.6604655,76.9861325 L62.3129354,76.9861325 C63.3203768,76.9861325 63.6966434,77.4720082 63.6966434,78.0570108 C63.6966434,78.8418079 62.8100063,79.4519774 61.103784,79.4519774 C59.9212318,79.4519774 59.1420994,79.0035953 59.1420994,78.0945044 C59.1420994,77.6337956 59.3166561,77.2973806 59.6796232,76.923472 Z M63.0787682,70.547509 C62.6082964,70.1864407 61.9366688,70 61.1170836,70 C59.4241609,70 58.3491134,70.8592707 58.3491134,72.2542373 C58.3491134,73.1504879 58.7658328,73.8104777 59.4912128,74.1838726 C58.7386795,74.8068824 58.4566181,75.2547509 58.4566181,75.7411402 C58.4566181,76.3138161 58.7924319,76.6373909 59.4108613,76.8243451 C58.4161653,77.2475603 58,77.7205958 58,78.306112 C58,79.2650231 58.9137904,80 61.103784,80 C63.616292,80 64.8924953,78.8418079 64.8924953,77.6086287 C64.8924953,76.5002568 64.139962,75.8402671 62.4204402,75.8402671 L60.4449018,75.8402671 C59.6929227,75.8402671 59.4646137,75.5916795 59.4646137,75.1802773 C59.4646137,74.8690293 59.5721184,74.6199281 59.8270266,74.3210067 C60.1899937,74.4581407 60.6200127,74.5208012 61.103784,74.5208012 C62.7834072,74.5208012 63.8712001,73.6363636 63.8712001,72.2542373 C63.8712001,71.7185413 63.7237967,71.2701592 63.4417353,70.9085773 L65,70.9835645 L65,70.1366204 L64.7583914,70 L63.0787682,70.547509 Z" id="Fill-23"></path>
            <path d="M72.4343914,70.4005575 L73.6194486,70.5383782 L71.9703448,75.4317865 L70.22299,70.5254736 L71.3228964,70.4129459 L71.3228964,70 L68.0241848,70 L68.0241848,70.4005575 L68.7693803,70.5006968 L71.3596775,77.058277 L71.3349888,77.1336396 C70.9928741,78.0348939 70.6018858,78.7353533 70.0279997,79.198885 L69.8934715,79.0610644 C69.5760455,78.6981882 69.2948967,78.4855211 68.891816,78.4855211 C68.5008278,78.4855211 68.0856546,78.6981882 68,79.1111341 C68.0120924,79.6371238 68.5864824,80 69.2218383,80 C70.1378392,80 71.0664363,79.1735921 71.8725977,76.9333609 L74.2422083,70.5254736 L75,70.4005575 L75,70 L72.4343914,70 L72.4343914,70.4005575 Z" id="Fill-25"></path>
            <path d="M82.2696162,75.4297706 L81.2284409,75.4297706 C81.2131025,74.0598769 81.2131025,72.6620034 81.2131025,71.0878567 L82.1058013,71.0878567 C84.2630036,71.0878567 85.2152158,71.8209289 85.2152158,73.2730834 C85.2152158,74.6838276 84.1887654,75.4297706 82.2696162,75.4297706 M81.2284409,66.5567991 L82.2696162,66.5567991 C83.9654373,66.5567991 84.7391097,67.1533296 84.7391097,68.4560716 C84.7391097,69.8399552 83.8764742,70.5316172 82.0168382,70.5316172 L81.2131025,70.5316172 C81.2131025,69.1745943 81.2131025,67.8589815 81.2284409,66.5567991 M83.682596,70.7493005 C85.6759834,70.3961947 86.4048674,69.4465585 86.4048674,68.4012311 C86.4048674,67.0039172 85.2299407,66 82.7751721,66 L78,66 L78,66.4879687 L79.472493,66.6379407 C79.5025564,67.954113 79.5025564,69.2837157 79.5025564,70.6133184 L79.5025564,71.2781198 C79.5025564,72.6620034 79.5025564,74.0190263 79.472493,75.3620593 L78,75.5114717 L78,76 L82.5076692,76 C85.8397982,76 87,74.6161164 87,73.2590935 C87,71.9837717 86.0330629,71.0067152 83.682596,70.7493005" id="Fill-27"></path>
            <path d="M88.1944957,74.4391366 C87.431758,75.0056376 87.0913905,75.1821823 86.6010591,75.1821823 C85.9203242,75.1821823 85.4434727,74.854536 85.4434727,74.1114902 C85.4434727,73.4821601 85.7568804,72.9281211 86.9549065,72.4872784 C87.2413544,72.3870633 87.7041643,72.2484237 88.1944957,72.1222461 L88.1944957,74.4391366 Z M90.1417797,75.3332839 C89.828372,75.3332839 89.6244885,75.1312959 89.6244885,74.5019657 L89.6244885,71.4046436 C89.6244885,69.6802166 88.8752307,69 87.2138329,69 C85.5389553,69 84.4358501,69.6677546 84.2044452,70.7503894 C84.2589264,71.1154217 84.5172912,71.3044285 84.9261815,71.3044285 C85.3479901,71.3044285 85.6338763,71.0525925 85.7434005,70.5234775 L85.9748054,69.5919442 C86.2741715,69.5166531 86.533098,69.4912099 86.7779828,69.4912099 C87.799647,69.4912099 88.1944957,69.8562421 88.1944957,71.2036941 L88.1944957,71.7198279 C87.6221616,71.8454862 87.0234294,72.0090498 86.5600578,72.1352274 C84.5717724,72.7645575 84,73.3814257 84,74.312959 C84,75.396113 84.8441788,76 85.9607639,76 C86.9144668,76 87.4457996,75.6225057 88.2354971,74.8799792 C88.3714194,75.5591573 88.8617508,75.975076 89.6244885,75.975076 C90.2372623,75.975076 90.6731124,75.7736073 91,75.2071063 L90.768595,74.9801943 C90.5366284,75.2320303 90.3866645,75.3332839 90.1417797,75.3332839 Z" id="Fill-29"></path>
            <path d="M100.887689,72.9981703 L100.887689,71.5359457 C100.887689,69.750324 100.116592,69 98.7376682,69 C97.7445985,69 96.7362413,69.4397347 95.8465145,70.3069299 L95.7278842,69.1419532 L95.5059111,69.0128078 L93,69.7764733 L93,70.1644431 L94.2456176,70.2679729 C94.2755809,70.8630022 94.3049327,71.3550355 94.3049327,72.1699321 L94.3049327,72.9981703 C94.3049327,73.6711138 94.2896453,74.7058779 94.2602935,75.4433941 L93.1039543,75.5858809 L93.1039543,76 L96.9735018,76 L96.9735018,75.5858809 L95.9064411,75.4433941 C95.8911537,74.7192193 95.8764778,73.6839216 95.8764778,72.9981703 L95.8764778,70.8112373 C96.6922136,70.1644431 97.3887077,69.8928109 98.0264982,69.8928109 C98.9009376,69.8928109 99.3161435,70.3069299 99.3161435,71.5226043 L99.3161435,72.9981703 C99.3161435,73.7095372 99.3014676,74.7192193 99.2867917,75.4433941 L98.129841,75.5858809 L98.129841,76 L102,76 L102,75.5858809 L100.917652,75.4433941 C100.902364,74.7192193 100.887689,73.7095372 100.887689,72.9981703" id="Fill-31"></path>
            <path d="M107.943887,75.4837108 L105.096865,71.6138218 L107.010241,70.1151137 L108.571368,69.9560217 L108.571368,69.538025 L104.668864,69.538025 L104.668864,69.9560217 L106.061444,70.1647667 L102.938556,72.6828799 L102.938556,68.0271571 L102.99979,66.0987992 L102.770639,66 L100,66.5284491 L100,66.9089527 L101.316196,67.0077519 L101.316196,73.1500228 C101.316196,73.8497239 101.301045,74.7470234 101.285895,75.4715509 L100.01515,75.6063231 L100.01515,76 L104.19415,76 L104.19415,75.6063231 L102.969489,75.4715509 C102.954338,74.8083295 102.938556,73.9971627 102.938556,73.3096215 L103.949218,72.5111212 L106.459143,76 L109,76 L109,75.6063231 L107.943887,75.4837108 Z" id="Fill-33"></path>
        </g>
    </g>
</svg>