<?xml version="1.0" encoding="UTF-8"?>
<svg width="90px" height="90px" viewBox="0 0 90 90" version="1.1" xmlns="http://www.w3.org/2000/svg" xmlns:xlink="http://www.w3.org/1999/xlink">
    <!-- Generator: Sketch 52.2 (67145) - http://www.bohemiancoding.com/sketch -->
    <title>分组</title>
    <desc>Created with Sketch.</desc>
    <defs>
        <polygon id="path-1" points="0 90 90 90 90 0 0 0"></polygon>
    </defs>
    <g id="切图" stroke="none" stroke-width="1" fill="none" fill-rule="evenodd">
        <g id="分组">
            <path d="M31.2791,43.8359 L31.2791,42.3809 C31.2791,42.0079 31.3911,41.5969 31.6151,41.1489 C31.7631,41.0009 31.7631,40.8519 31.6151,40.7009 L28.4801,39.8059 C28.3301,39.7319 28.2571,39.8059 28.2571,40.0299 L28.3691,43.9479 L22.0991,44.1719 L21.4281,42.9399 C21.3531,42.7159 21.2041,42.7159 20.9801,42.9399 C20.8301,45.1059 19.9341,46.6729 18.2941,47.6419 C18.1431,48.3889 18.3671,49.2089 18.9661,50.1049 C19.1141,50.3279 19.3381,50.2919 19.6371,49.9929 C21.2781,48.5759 22.0991,46.8579 22.0991,44.8429 L31.2791,44.4449 L31.2791,43.8359 Z" id="Fill-1" fill="#FFFFFF"></path>
            <path d="M41.6892,44.8433 L38.7792,42.4923 L36.9602,44.1983 L37.6602,44.1713 L36.8762,46.6343 C36.8002,46.7853 36.8002,46.8963 36.8762,46.9703 C36.9502,46.9703 37.0612,46.9333 37.2112,46.8583 C39.0022,45.9623 40.4582,45.4783 41.5782,45.4033 C41.8752,45.2543 41.9142,45.0673 41.6892,44.8433" id="Fill-3" fill="#FFFFFF"></path>
            <path d="M21.2039,16.2043 L28.0329,16.0923 L28.0329,23.1443 L21.2039,23.2563 L21.2039,16.2043 Z M21.3159,24.6003 L21.3159,24.0403 L23.5559,24.0403 C25.4199,23.9663 26.9129,23.9283 28.0329,23.9283 L28.0329,29.6373 L27.8079,35.1223 C27.9579,35.4953 28.1439,35.6433 28.3689,35.5703 C29.6369,34.7483 30.4569,33.6283 30.8309,32.2123 L30.8309,29.0773 L30.8309,23.9283 C35.5329,23.7793 38.8159,23.8163 40.6829,24.0403 C41.0549,24.0403 41.1669,23.8913 41.0179,23.5923 L40.7939,22.9203 L40.6829,16.4283 L41.3529,15.4203 C41.5029,15.2723 41.5029,15.1603 41.3529,15.0843 L38.6669,13.5173 L36.8189,15.8693 L37.4349,15.8683 L37.5479,22.9203 L30.8309,23.0323 L30.8309,10.3833 C30.9799,9.8623 31.1669,9.4873 31.3919,9.2633 C31.5399,9.0403 31.5029,8.9283 31.2789,8.9283 L27.9209,8.0323 L28.0329,12.9583 L28.0329,15.3083 L21.0929,15.5323 L18.9659,14.3013 C18.8909,14.2273 18.8149,14.1893 18.7419,14.1893 C18.6669,14.2643 18.6299,14.3763 18.6299,14.5253 L18.7419,26.2783 C19.6379,26.7263 20.4939,26.1673 21.3159,24.6003 Z" id="Fill-5" fill="#FFFFFF"></path>
            <path d="M43.2566,61.6345 C38.3306,59.1715 35.6446,56.4855 35.1966,53.5745 C36.8376,52.9035 38.2196,52.3815 39.3386,52.0075 C39.4116,51.9345 39.4506,51.9345 39.4506,52.0075 C39.5996,51.9345 39.5996,51.8215 39.4506,51.6715 L37.3236,49.7685 C36.0546,51.1875 34.1516,52.7905 31.6146,54.5825 C30.9436,53.2385 30.0476,52.0455 28.9286,50.9995 C29.0766,50.9265 29.3756,50.7395 29.8236,50.4405 C30.1206,50.2165 30.3446,50.0675 30.4956,49.9925 L31.0556,49.7685 C31.2036,49.7685 31.2036,49.6955 31.0556,49.5445 L29.2646,48.4255 L36.8756,48.2015 C37.0256,48.1285 37.0256,48.0165 36.8756,47.8655 L34.9736,46.1865 L33.5176,47.6415 L22.5476,48.2015 L23.3306,48.8735 L23.5556,48.8735 C24.6746,48.6495 25.6066,48.5375 26.3536,48.5375 L28.3686,48.5375 C25.7556,51.2235 22.4726,53.6865 18.5176,55.9255 C18.3666,56.0005 18.3306,56.0755 18.4056,56.1495 C18.4796,56.2995 18.5916,56.3365 18.7416,56.2615 C22.3976,54.6205 25.6436,52.9785 28.4806,51.3355 C28.5536,51.3355 28.6286,51.4115 28.7036,51.5595 C28.7776,51.6345 28.8166,51.7105 28.8166,51.7835 C25.9056,55.1415 22.2486,58.0905 17.8466,60.6275 C17.6946,60.7775 17.7346,60.8505 17.9576,60.8505 C22.5846,58.9865 26.5026,56.7475 29.7116,54.1345 C29.8606,54.4335 29.9726,54.7695 30.0476,55.1415 C25.7186,59.6945 21.2036,63.1285 16.5026,65.4405 C16.4276,65.5135 16.3906,65.6255 16.3906,65.7765 C16.4646,65.8495 16.5756,65.8495 16.7266,65.7765 C22.5476,63.4645 27.0626,60.8895 30.2716,58.0525 C30.3446,59.5465 30.1596,61.1865 29.7116,62.9775 C29.6366,63.9465 28.7406,64.2825 27.0256,63.9855 C26.8746,63.9855 26.8016,64.0215 26.8016,64.0975 C26.8016,64.1705 26.8376,64.2455 26.9126,64.3215 C27.7336,64.7685 28.1066,65.5525 28.0326,66.6715 L28.0326,67.0075 C28.1066,67.0815 28.1816,67.0815 28.2566,67.0075 C30.5686,66.2605 31.9866,64.8425 32.5106,62.7535 C32.9576,59.6195 32.6956,57.0085 31.7266,54.9175 C32.0996,54.7695 32.6216,54.5455 33.2936,54.2465 C34.0386,54.0225 34.5626,53.8375 34.8606,53.6865 C34.8606,57.5675 36.5016,60.9625 39.7866,63.8735 C40.9796,62.7535 42.0986,62.1575 43.1446,62.0825 C43.2936,62.0825 43.3686,62.0455 43.3686,61.9705 C43.4426,61.8215 43.4046,61.7095 43.2566,61.6345" id="Fill-7" fill="#FFFFFF"></path>
            <path d="M56.2419,50.5522 C56.2419,51.0752 56.5389,51.1872 57.1379,50.8882 C57.7339,50.3672 58.0699,49.7692 58.1449,49.0972 C57.9949,48.4252 56.8749,47.6802 54.7869,46.8582 C54.5629,46.7852 54.5239,46.8582 54.6749,47.0822 C55.3459,47.6802 55.8679,48.8362 56.2419,50.5522" id="Fill-9" fill="#FFFFFF"></path>
            <path d="M65.533,51.6716 L65.757,51.7836 C67.1,50.4406 68.293,49.1726 69.339,47.9776 C69.563,47.7536 69.749,47.6056 69.899,47.5296 C70.048,47.3806 70.048,47.3056 69.899,47.3056 L67.66,45.9626 C67.436,47.1576 66.726,49.0606 65.533,51.6716" id="Fill-11" fill="#FFFFFF"></path>
            <path d="M55.7937,57.2688 L52.1007,60.1788 L52.6597,49.6568 L53.2197,48.7608 C53.3677,48.6878 53.3677,48.6128 53.2197,48.5378 L51.0927,47.0818 L49.8607,48.5378 L45.0477,48.7608 L46.0557,49.5448 C46.2787,49.4718 46.6517,49.4328 47.1747,49.4328 C47.6227,49.3598 47.9947,49.3208 48.2937,49.3208 L50.1967,49.2088 L50.3097,61.6348 C49.1897,62.4568 48.3677,62.9778 47.8467,63.2018 C47.6957,63.2768 47.6957,63.3888 47.8467,63.5378 L49.7497,65.3288 C49.8977,65.4768 50.0097,65.4768 50.0847,65.3288 L50.1967,65.2168 C50.3457,64.9928 50.7187,64.5448 51.3157,63.8728 C51.6897,63.3518 51.9877,62.9778 52.2117,62.7538 L55.9057,57.3808 C56.0547,57.2318 56.0187,57.1958 55.7937,57.2688" id="Fill-13" fill="#FFFFFF"></path>
            <path d="M49.8611,44.6194 C50.0091,44.9934 50.3451,45.1054 50.8691,44.9554 C51.8381,44.2104 52.2491,43.4264 52.1001,42.6044 C51.8761,41.8594 50.6451,41.1124 48.4061,40.3654 C48.1821,40.3654 48.1071,40.4414 48.1821,40.5894 C49.0031,41.3364 49.5621,42.6794 49.8611,44.6194" id="Fill-15" fill="#FFFFFF"></path>
            <path d="M68.2195,55.5896 L65.6455,53.9106 L64.5255,55.1416 L58.9285,55.3656 L56.8015,54.2466 L56.9135,56.9326 L56.8015,62.3066 L56.6895,67.3766 C56.8385,67.7486 57.0995,67.7856 57.4735,67.4876 C58.1215,66.6946 58.5595,66.0426 58.7905,65.5286 L58.8175,60.0676 L63.9655,59.8436 C64.1155,59.8436 64.1905,59.7696 64.1905,59.6196 C64.1905,59.4706 64.1155,59.3956 63.9655,59.3956 L58.8175,59.5076 L58.8175,55.9256 L63.7415,55.8136 C64.5625,55.6646 64.9355,56.0756 64.8615,57.0446 C64.8615,57.0446 64.9155,64.5136 64.9155,65.1846 C64.9885,65.8886 65.1285,66.3116 65.6985,65.8266 C66.8185,64.7076 67.6595,63.5496 67.6595,62.3566 L67.5475,56.9326 L68.3315,55.9256 C68.3315,55.7766 68.2925,55.6646 68.2195,55.5896" id="Fill-17" fill="#FFFFFF"></path>
            <path d="M60.0476,13.9653 L60.0476,11.9503 C60.0476,11.2053 60.1596,10.7193 60.3836,10.4953 C60.5316,10.2713 60.4956,10.1223 60.2726,10.0473 L57.0256,9.0403 C56.8746,8.9663 56.8016,9.0403 56.8016,9.2633 L57.0256,13.9653 L45.4956,14.1893 L46.3916,15.1963 C46.9866,14.9733 48.1826,14.8243 49.9736,14.7493 L60.0586,14.5753 L60.0586,13.9653 L60.0476,13.9653 Z" id="Fill-19" fill="#FFFFFF"></path>
            <path d="M71.4656,14.3013 C71.6906,14.2283 71.7636,14.1153 71.6906,13.9653 L69.4506,12.0623 L67.9446,13.6753 L67.2406,14.4053 L71.4656,14.3013 Z" id="Fill-21" fill="#FFFFFF"></path>
            <path d="M72.1375,32.6597 C67.4365,31.3167 63.4065,29.3397 60.0475,26.7267 C62.4355,23.9667 64.3385,20.5337 65.7565,16.4287 L66.3175,15.8687 L66.4285,15.6447 C66.3535,15.5707 66.2785,15.5327 66.2045,15.5327 L63.0165,14.1987 C63.0165,14.1987 62.5935,17.2977 58.3685,25.2717 C55.2345,22.3607 53.4055,19.1527 52.8835,15.6447 L52.5475,15.6447 C53.2195,20.1977 54.7115,24.0397 57.0255,27.1747 C54.1155,30.9067 50.2345,33.5917 45.3835,35.2347 C45.2335,35.3827 45.1965,35.4947 45.2715,35.5697 C45.3455,35.7187 45.4565,35.7557 45.6075,35.6817 C51.2045,33.6667 55.3835,31.3547 58.1455,28.7417 C60.3835,31.3547 63.4795,33.6287 67.4365,35.5697 C69.2275,33.7037 70.7195,32.8837 71.9135,33.1077 C72.1375,33.1077 72.2855,33.0327 72.3615,32.8837 C72.3615,32.8087 72.2855,32.7327 72.1375,32.6597" id="Fill-23" fill="#FFFFFF"></path>
            <path d="M62.8464,52.3433 L60.8314,52.3433 L60.9434,45.1793 L62.8464,45.0673 L62.8464,52.3433 Z M69.4504,44.5073 L67.7724,43.0523 L66.5404,44.2833 L65.0854,44.2833 L66.5404,41.9333 L67.1004,41.3733 C67.2484,41.2243 67.2484,41.1123 67.1004,41.0373 L64.6374,39.5823 L63.4064,44.3953 L60.3834,44.5073 L60.4954,41.4853 C60.5694,41.3363 60.4954,41.2243 60.2724,41.1493 L58.4814,40.2533 C58.2564,40.1803 58.1814,40.2533 58.2564,40.4773 C58.2564,41.0003 58.2934,41.4483 58.3684,41.8213 L58.3684,44.6193 L54.7864,44.7313 L55.5704,45.5153 C56.4654,45.3663 57.4734,45.2913 58.5924,45.2913 L58.9284,45.2913 L58.8174,52.4553 L53.2194,52.5673 L54.0034,53.4633 C54.6744,53.2393 55.6074,53.1273 56.8014,53.1273 L64.9884,52.8823 L64.9884,52.2313 L64.9734,52.2313 L64.9734,44.9553 L69.3384,44.7313 C69.4884,44.7313 69.5244,44.6573 69.4504,44.5073 Z" id="Fill-25" fill="#FFFFFF"></path>
            <path d="M71.8015,52.3433 L69.8995,50.6643 L68.6675,52.1193 L68.6505,52.1203 L68.0865,52.7733 L71.8015,52.6793 C71.9505,52.6053 71.9505,52.4943 71.8015,52.3433" id="Fill-27" fill="#FFFFFF"></path>
            <path d="M16.5398,79.9634 C16.5398,79.2774 16.9558,78.8664 17.4878,78.8664 C17.7508,78.8664 17.9558,78.9924 18.0848,79.1324 L17.9048,79.3434 C17.7958,79.2324 17.6648,79.1554 17.4928,79.1554 C17.1308,79.1554 16.8798,79.4574 16.8798,79.9524 C16.8798,80.4524 17.1128,80.7574 17.4848,80.7574 C17.6758,80.7574 17.8248,80.6714 17.9498,80.5344 L18.1278,80.7434 C17.9588,80.9374 17.7448,81.0464 17.4738,81.0464 C16.9448,81.0464 16.5398,80.6514 16.5398,79.9634" id="Fill-29" fill="#FFFFFF"></path>
            <path d="M18.698,78.7324 L19.023,78.7324 L19.023,79.3354 L19.012,79.6464 C19.149,79.5154 19.306,79.3984 19.52,79.3984 C19.855,79.3984 20.004,79.6204 20.004,80.0204 L20.004,81.0084 L19.675,81.0084 L19.675,80.0604 C19.675,79.7894 19.594,79.6804 19.409,79.6804 C19.263,79.6804 19.164,79.7544 19.023,79.8944 L19.023,81.0084 L18.698,81.0084 L18.698,78.7324 Z" id="Fill-31" fill="#FFFFFF"></path>
            <mask id="mask-2" fill="white">
                <use xlink:href="#path-1"></use>
            </mask>
            <g id="Clip-34"></g>
            <path d="M20.7,81.009 L21.025,81.009 L21.025,79.438 L20.7,79.438 L20.7,81.009 Z M20.654,78.949 C20.654,78.833 20.742,78.755 20.862,78.755 C20.982,78.755 21.074,78.833 21.074,78.949 C21.074,79.064 20.982,79.144 20.862,79.144 C20.742,79.144 20.654,79.064 20.654,78.949 Z" id="Fill-33" fill="#FFFFFF" mask="url(#mask-2)"></path>
            <path d="M21.7478,79.438 L22.0168,79.438 L22.0418,79.655 L22.0508,79.655 C22.1958,79.515 22.3558,79.398 22.5698,79.398 C22.9038,79.398 23.0528,79.621 23.0528,80.021 L23.0528,81.009 L22.7248,81.009 L22.7248,80.061 C22.7248,79.789 22.6438,79.681 22.4588,79.681 C22.3128,79.681 22.2128,79.755 22.0728,79.895 L22.0728,81.009 L21.7478,81.009 L21.7478,79.438 Z" id="Fill-35" fill="#FFFFFF" mask="url(#mask-2)"></path>
            <path d="M24.7205,80.0835 C24.7205,79.8125 24.5975,79.6555 24.3685,79.6555 C24.1715,79.6555 23.9975,79.8065 23.9665,80.0835 L24.7205,80.0835 Z M23.6465,80.2265 C23.6465,79.7145 23.9945,79.3975 24.3635,79.3975 C24.7805,79.3975 25.0025,79.6975 25.0025,80.1435 C25.0025,80.2065 24.9975,80.2715 24.9895,80.3085 L23.9695,80.3085 C23.9945,80.6085 24.1835,80.7885 24.4545,80.7885 C24.5945,80.7885 24.7145,80.7465 24.8285,80.6715 L24.9435,80.8805 C24.7975,80.9775 24.6175,81.0455 24.4115,81.0455 C23.9865,81.0455 23.6465,80.7435 23.6465,80.2265 Z" id="Fill-36" fill="#FFFFFF" mask="url(#mask-2)"></path>
            <path d="M25.4333,80.8289 L25.5873,80.6179 C25.7283,80.7289 25.8653,80.7979 26.0343,80.7979 C26.2223,80.7979 26.3103,80.7059 26.3103,80.5859 C26.3103,80.4429 26.1333,80.3809 25.9613,80.3149 C25.7533,80.2349 25.5133,80.1229 25.5133,79.8579 C25.5133,79.5949 25.7253,79.3979 26.0713,79.3979 C26.2823,79.3979 26.4543,79.4839 26.5813,79.5839 L26.4273,79.7869 C26.3193,79.7059 26.2073,79.6499 26.0763,79.6499 C25.9053,79.6499 25.8253,79.7349 25.8253,79.8439 C25.8253,79.9779 25.9883,80.0289 26.1593,80.0919 C26.3783,80.1749 26.6213,80.2719 26.6213,80.5689 C26.6213,80.8319 26.4133,81.0459 26.0253,81.0459 C25.8073,81.0459 25.5843,80.9539 25.4333,80.8289" id="Fill-37" fill="#FFFFFF" mask="url(#mask-2)"></path>
            <path d="M28.1609,80.0835 C28.1609,79.8125 28.0379,79.6555 27.8089,79.6555 C27.6129,79.6555 27.4379,79.8065 27.4069,80.0835 L28.1609,80.0835 Z M27.0869,80.2265 C27.0869,79.7145 27.4349,79.3975 27.8039,79.3975 C28.2219,79.3975 28.4439,79.6975 28.4439,80.1435 C28.4439,80.2065 28.4379,80.2715 28.4299,80.3085 L27.4099,80.3085 C27.4349,80.6085 27.6239,80.7885 27.8949,80.7885 C28.0349,80.7885 28.1549,80.7465 28.2689,80.6715 L28.3839,80.8805 C28.2379,80.9775 28.0579,81.0455 27.8519,81.0455 C27.4269,81.0455 27.0869,80.7435 27.0869,80.2265 Z" id="Fill-38" fill="#FFFFFF" mask="url(#mask-2)"></path>
            <path d="M29.825,79.9634 C29.825,79.2774 30.248,78.8664 30.804,78.8664 C31.102,78.8664 31.302,78.9984 31.43,79.1324 L31.251,79.3434 C31.147,79.2374 31.019,79.1554 30.816,79.1554 C30.425,79.1554 30.165,79.4574 30.165,79.9524 C30.165,80.4524 30.396,80.7574 30.831,80.7574 C30.959,80.7574 31.088,80.7204 31.162,80.6544 L31.162,80.1604 L30.745,80.1604 L30.745,79.8894 L31.462,79.8894 L31.462,80.8004 C31.322,80.9404 31.085,81.0464 30.797,81.0464 C30.234,81.0464 29.825,80.6514 29.825,79.9634" id="Fill-39" fill="#FFFFFF" mask="url(#mask-2)"></path>
            <path d="M33.1033,80.0835 C33.1033,79.8125 32.9813,79.6555 32.7523,79.6555 C32.5553,79.6555 32.3803,79.8065 32.3493,80.0835 L33.1033,80.0835 Z M32.0303,80.2265 C32.0303,79.7145 32.3773,79.3975 32.7473,79.3975 C33.1643,79.3975 33.3863,79.6975 33.3863,80.1435 C33.3863,80.2065 33.3803,80.2715 33.3723,80.3085 L32.3523,80.3085 C32.3773,80.6085 32.5673,80.7885 32.8373,80.7885 C32.9783,80.7885 33.0973,80.7465 33.2123,80.6715 L33.3263,80.8805 C33.1803,80.9775 33.0003,81.0455 32.7943,81.0455 C32.3703,81.0455 32.0303,80.7435 32.0303,80.2265 Z" id="Fill-40" fill="#FFFFFF" mask="url(#mask-2)"></path>
            <path d="M33.9832,79.438 L34.2522,79.438 L34.2772,79.655 L34.2862,79.655 C34.4312,79.515 34.5912,79.398 34.8052,79.398 C35.1392,79.398 35.2882,79.621 35.2882,80.021 L35.2882,81.009 L34.9602,81.009 L34.9602,80.061 C34.9602,79.789 34.8792,79.681 34.6942,79.681 C34.5482,79.681 34.4482,79.755 34.3082,79.895 L34.3082,81.009 L33.9832,81.009 L33.9832,79.438 Z" id="Fill-41" fill="#FFFFFF" mask="url(#mask-2)"></path>
            <path d="M36.9558,80.0835 C36.9558,79.8125 36.8328,79.6555 36.6038,79.6555 C36.4068,79.6555 36.2328,79.8065 36.2008,80.0835 L36.9558,80.0835 Z M35.8818,80.2265 C35.8818,79.7145 36.2298,79.3975 36.5988,79.3975 C37.0158,79.3975 37.2378,79.6975 37.2378,80.1435 C37.2378,80.2065 37.2318,80.2715 37.2248,80.3085 L36.2038,80.3085 C36.2298,80.6085 36.4188,80.7885 36.6898,80.7885 C36.8298,80.7885 36.9498,80.7465 37.0638,80.6715 L37.1788,80.8805 C37.0328,80.9775 36.8518,81.0455 36.6468,81.0455 C36.2218,81.0455 35.8818,80.7435 35.8818,80.2265 Z" id="Fill-42" fill="#FFFFFF" mask="url(#mask-2)"></path>
            <path d="M38.6404,80.6033 L38.6404,80.2173 C38.1744,80.2743 38.0174,80.3923 38.0174,80.5693 C38.0174,80.7233 38.1224,80.7863 38.2634,80.7863 C38.4004,80.7863 38.5114,80.7203 38.6404,80.6033 M37.7004,80.5923 C37.7004,80.2553 37.9864,80.0803 38.6404,80.0093 C38.6374,79.8263 38.5724,79.6663 38.3404,79.6663 C38.1744,79.6663 38.0204,79.7403 37.8864,79.8263 L37.7634,79.6033 C37.9264,79.5003 38.1464,79.3983 38.3974,79.3983 C38.7884,79.3983 38.9684,79.6463 38.9684,80.0633 L38.9684,81.0093 L38.7004,81.0093 L38.6714,80.8293 L38.6624,80.8293 C38.5204,80.9513 38.3514,81.0463 38.1624,81.0463 C37.8914,81.0463 37.7004,80.8683 37.7004,80.5923" id="Fill-43" fill="#FFFFFF" mask="url(#mask-2)"></path>
            <path d="M39.6619,80.6404 L39.6619,78.7324 L39.9879,78.7324 L39.9879,80.6574 C39.9879,80.7464 40.0279,80.7774 40.0679,80.7774 C40.0819,80.7774 40.0939,80.7774 40.1219,80.7714 L40.1649,81.0204 C40.1249,81.0344 40.0679,81.0464 39.9879,81.0464 C39.7509,81.0464 39.6619,80.8944 39.6619,80.6404" id="Fill-44" fill="#FFFFFF" mask="url(#mask-2)"></path>
            <path d="M41.7722,80.2261 C41.7722,79.8921 41.6182,79.6691 41.3702,79.6691 C41.1242,79.6691 40.9692,79.8921 40.9692,80.2261 C40.9692,80.5581 41.1242,80.7771 41.3702,80.7771 C41.6182,80.7771 41.7722,80.5581 41.7722,80.2261 M40.6292,80.2261 C40.6292,79.7011 40.9812,79.3981 41.3702,79.3981 C41.7582,79.3981 42.1092,79.7011 42.1092,80.2261 C42.1092,80.7461 41.7582,81.0461 41.3702,81.0461 C40.9812,81.0461 40.6292,80.7461 40.6292,80.2261" id="Fill-45" fill="#FFFFFF" mask="url(#mask-2)"></path>
            <path d="M43.5681,79.9634 C43.5681,79.7524 43.4371,79.6294 43.2711,79.6294 C43.1051,79.6294 42.9741,79.7494 42.9741,79.9634 C42.9741,80.1714 43.1081,80.3004 43.2711,80.3004 C43.4341,80.3004 43.5681,80.1714 43.5681,79.9634 M43.7651,81.2174 C43.7651,81.0864 43.6631,81.0464 43.4711,81.0464 L43.2341,81.0464 C43.1601,81.0464 43.0891,81.0374 43.0231,81.0234 C42.9281,81.0914 42.8881,81.1714 42.8881,81.2514 C42.8881,81.4054 43.0481,81.4974 43.3081,81.4974 C43.5831,81.4974 43.7651,81.3634 43.7651,81.2174 M42.6091,81.3004 C42.6091,81.1684 42.6911,81.0464 42.8381,80.9574 L42.8381,80.9434 C42.7571,80.8944 42.6941,80.8114 42.6941,80.6834 C42.6941,80.5604 42.7831,80.4544 42.8691,80.3914 L42.8691,80.3804 C42.7631,80.2974 42.6631,80.1494 42.6631,79.9634 C42.6631,79.6064 42.9461,79.3984 43.2711,79.3984 C43.3601,79.3984 43.4401,79.4154 43.5001,79.4384 L44.0561,79.4384 L44.0561,79.6834 L43.7561,79.6834 C43.8171,79.7464 43.8601,79.8524 43.8601,79.9724 C43.8601,80.3144 43.6001,80.5114 43.2711,80.5114 C43.2001,80.5114 43.1201,80.4944 43.0511,80.4634 C43.0001,80.5094 42.9651,80.5544 42.9651,80.6294 C42.9651,80.7234 43.0291,80.7834 43.2281,80.7834 L43.5171,80.7834 C43.8881,80.7834 44.0831,80.8974 44.0831,81.1654 C44.0831,81.4684 43.7621,81.7144 43.2601,81.7144 C42.8821,81.7144 42.6091,81.5744 42.6091,81.3004" id="Fill-46" fill="#FFFFFF" mask="url(#mask-2)"></path>
            <path d="M45.3298,81.103 C45.2078,81.44 45.0418,81.666 44.7108,81.666 C44.6308,81.666 44.5668,81.654 44.5138,81.634 L44.5758,81.377 C44.6038,81.386 44.6498,81.4 44.6898,81.4 C44.8618,81.4 44.9618,81.274 45.0188,81.106 L45.0508,80.997 L44.4278,79.438 L44.7648,79.438 L45.0568,80.246 C45.1008,80.386 45.1498,80.543 45.1988,80.689 L45.2128,80.689 L45.3358,80.246 L45.5878,79.438 L45.9068,79.438 L45.3298,81.103 Z" id="Fill-47" fill="#FFFFFF" mask="url(#mask-2)"></path>
            <path d="M18.1257,76.0015 C18.6917,76.0015 19.0627,75.4865 19.0627,74.6605 C19.0627,73.8575 18.6917,73.3705 18.1257,73.3705 C17.5597,73.3705 17.1927,73.8575 17.1927,74.6605 C17.1927,75.4865 17.5597,76.0015 18.1257,76.0015 Z M19.7217,77.1795 C19.6097,77.2305 19.4207,77.2685 19.1977,77.2685 C18.5337,77.2685 18.0797,76.9105 17.8707,76.4235 C17.1327,76.2985 16.6417,75.6485 16.6417,74.6605 C16.6417,73.5605 17.2487,72.9015 18.1257,72.9015 C19.0027,72.9015 19.6147,73.5605 19.6147,74.6605 C19.6147,75.6205 19.1467,76.2615 18.4457,76.4095 C18.5997,76.6975 18.9147,76.8275 19.2577,76.8275 C19.4057,76.8275 19.5267,76.8035 19.6197,76.7765 L19.7217,77.1795 Z" id="Fill-48" fill="#FFFFFF" mask="url(#mask-2)"></path>
            <path d="M20.465,76.382 L20.993,76.382 L20.993,73.83 L20.465,73.83 L20.465,76.382 Z M20.39,73.036 C20.39,72.846 20.534,72.721 20.728,72.721 C20.924,72.721 21.072,72.846 21.072,73.036 C21.072,73.222 20.924,73.352 20.728,73.352 C20.534,73.352 20.39,73.222 20.39,73.036 Z" id="Fill-49" fill="#FFFFFF" mask="url(#mask-2)"></path>
            <path d="M21.9812,73.8298 L22.4182,73.8298 L22.4602,74.1828 L22.4732,74.1828 C22.7102,73.9548 22.9692,73.7648 23.3172,73.7648 C23.8602,73.7648 24.1012,74.1268 24.1012,74.7768 L24.1012,76.3818 L23.5682,76.3818 L23.5682,74.8408 C23.5682,74.4008 23.4382,74.2248 23.1362,74.2248 C22.9002,74.2248 22.7382,74.3448 22.5102,74.5718 L22.5102,76.3818 L21.9812,76.3818 L21.9812,73.8298 Z" id="Fill-50" fill="#FFFFFF" mask="url(#mask-2)"></path>
            <path d="M26.4353,74.6836 C26.4353,74.3406 26.2213,74.1406 25.9533,74.1406 C25.6833,74.1406 25.4703,74.3356 25.4703,74.6836 C25.4703,75.0226 25.6883,75.2316 25.9533,75.2316 C26.2173,75.2316 26.4353,75.0226 26.4353,74.6836 M26.7553,76.7206 C26.7553,76.5066 26.5883,76.4426 26.2783,76.4426 L25.8923,76.4426 C25.7723,76.4426 25.6563,76.4286 25.5493,76.4046 C25.3963,76.5166 25.3313,76.6466 25.3313,76.7766 C25.3313,77.0266 25.5903,77.1756 26.0133,77.1756 C26.4583,77.1756 26.7553,76.9566 26.7553,76.7206 M24.8763,76.8546 C24.8763,76.6416 25.0103,76.4426 25.2483,76.2986 L25.2483,76.2756 C25.1183,76.1966 25.0153,76.0616 25.0153,75.8526 C25.0153,75.6536 25.1593,75.4816 25.2983,75.3796 L25.2983,75.3606 C25.1263,75.2266 24.9643,74.9856 24.9643,74.6836 C24.9643,74.1036 25.4233,73.7646 25.9533,73.7646 C26.0963,73.7646 26.2263,73.7926 26.3243,73.8296 L27.2293,73.8296 L27.2293,74.2286 L26.7423,74.2286 C26.8383,74.3306 26.9093,74.5026 26.9093,74.6976 C26.9093,75.2546 26.4863,75.5746 25.9533,75.5746 C25.8363,75.5746 25.7063,75.5466 25.5953,75.4956 C25.5123,75.5696 25.4563,75.6436 25.4563,75.7646 C25.4563,75.9176 25.5583,76.0156 25.8833,76.0156 L26.3523,76.0156 C26.9553,76.0156 27.2703,76.2006 27.2703,76.6366 C27.2703,77.1286 26.7503,77.5276 25.9343,77.5276 C25.3223,77.5276 24.8763,77.3006 24.8763,76.8546" id="Fill-51" fill="#FFFFFF" mask="url(#mask-2)"></path>
            <path d="M28.0125,75.5466 L28.0125,74.2566 L27.6415,74.2566 L27.6415,73.8576 L28.0355,73.8296 L28.0965,73.1246 L28.5465,73.1246 L28.5465,73.8296 L29.2095,73.8296 L29.2095,74.2566 L28.5465,74.2566 L28.5465,75.5516 C28.5465,75.8576 28.6535,76.0156 28.9175,76.0156 C29.0055,76.0156 29.1165,75.9876 29.1915,75.9546 L29.2885,76.3496 C29.1455,76.3956 28.9735,76.4426 28.7875,76.4426 C28.2125,76.4426 28.0125,76.0846 28.0125,75.5466" id="Fill-52" fill="#FFFFFF" mask="url(#mask-2)"></path>
            <path d="M29.952,76.382 L30.481,76.382 L30.481,73.83 L29.952,73.83 L29.952,76.382 Z M29.878,73.036 C29.878,72.846 30.022,72.721 30.217,72.721 C30.412,72.721 30.56,72.846 30.56,73.036 C30.56,73.222 30.412,73.352 30.217,73.352 C30.022,73.352 29.878,73.222 29.878,73.036 Z" id="Fill-53" fill="#FFFFFF" mask="url(#mask-2)"></path>
            <path d="M31.4695,73.8298 L31.9055,73.8298 L31.9475,74.1868 L31.9615,74.1868 C32.1795,73.9548 32.4345,73.7648 32.7495,73.7648 C33.1305,73.7648 33.3435,73.9408 33.4545,74.2338 C33.7055,73.9648 33.9655,73.7648 34.2855,73.7648 C34.8195,73.7648 35.0705,74.1268 35.0705,74.7768 L35.0705,76.3818 L34.5355,76.3818 L34.5355,74.8408 C34.5355,74.4008 34.3975,74.2248 34.1095,74.2248 C33.9335,74.2248 33.7475,74.3398 33.5335,74.5718 L33.5335,76.3818 L33.0005,76.3818 L33.0005,74.8408 C33.0005,74.4008 32.8655,74.2248 32.5735,74.2248 C32.4025,74.2248 32.2115,74.3398 31.9985,74.5718 L31.9985,76.3818 L31.4695,76.3818 L31.4695,73.8298 Z" id="Fill-54" fill="#FFFFFF" mask="url(#mask-2)"></path>
            <path d="M37.5886,74.8784 C37.5886,74.4374 37.3896,74.1824 37.0186,74.1824 C36.6976,74.1824 36.4156,74.4284 36.3636,74.8784 L37.5886,74.8784 Z M35.8446,75.1104 C35.8446,74.2794 36.4106,73.7644 37.0096,73.7644 C37.6866,73.7644 38.0486,74.2524 38.0486,74.9754 C38.0486,75.0784 38.0386,75.1844 38.0256,75.2454 L36.3686,75.2454 C36.4106,75.7324 36.7166,76.0244 37.1576,76.0244 C37.3846,76.0244 37.5796,75.9544 37.7656,75.8344 L37.9506,76.1734 C37.7146,76.3304 37.4216,76.4424 37.0876,76.4424 C36.3966,76.4424 35.8446,75.9504 35.8446,75.1104 Z" id="Fill-55" fill="#FFFFFF" mask="url(#mask-2)"></path>
            <path d="M87.8875,75.0437 L76.9595,75.0437 L74.8465,75.0437 L74.8465,77.1567 L74.8465,87.8877 L2.1135,87.8877 L2.1135,2.1127 L87.8875,2.1127 L87.8875,75.0437 Z M77.9455,85.1847 L77.9455,78.0017 L85.1285,78.0017 L77.9455,85.1847 Z M-0.0005,-0.0003 L-0.0005,89.9997 L76.9595,89.9997 L77.2145,89.9997 L89.9995,77.2147 L89.9995,77.1567 L89.9995,-0.0003 L-0.0005,-0.0003 Z" id="Fill-56" fill="#FFFFFF" mask="url(#mask-2)"></path>
        </g>
    </g>
</svg>