<?xml version="1.0" encoding="utf-8"?>
<!-- Generator: Adobe Illustrator 25.0.0, SVG Export Plug-In . SVG Version: 6.00 Build 0)  -->
<svg version="1.1" id="图层_1" xmlns="http://www.w3.org/2000/svg" xmlns:xlink="http://www.w3.org/1999/xlink" x="0px" y="0px"
	 viewBox="0 0 55 55" style="enable-background:new 0 0 55 55;" xml:space="preserve">
<style type="text/css">
	.st0{fill-rule:evenodd;clip-rule:evenodd;fill:#FFFFFF;}
	.st1{fill:none;}
	.st2{fill:#FFFFFF;}
</style>
<desc>Created with Sketch.</desc>
<desc>Created with Sketch.</desc>
<path class="st0" d="M46.9,54.7L46.9,54.7H0.4V0.3h54.3v46.5l0,0l0,0L46.9,54.7z M47.3,51.7l4.3-4.3h-4.3V51.7z M53.4,1.6H1.6v51.8
	h43.8v-6.5v-1.3h1.4h6.6V1.6z M30.4,11.1c-0.2-1.2-0.5-2-1-2.4c0-0.1,0-0.1,0.1-0.1c1.4,0.4,2.1,0.9,2.2,1.4s-0.2,0.9-0.7,1.5
	C30.7,11.4,30.5,11.3,30.4,11.1z M31.1,12.5l1.3,0.8c0.1,0,0.1,0.1,0,0.1l-0.3,0.5l-0.3,6.4l2.2-1.8c0.1,0,0.2,0,0.1,0.1l-2.2,3.3
	c-0.1,0.1-0.3,0.3-0.5,0.6c-0.3,0.4-0.6,0.6-0.6,0.8l-0.1,0.1c0,0.1-0.1,0.1-0.2,0l-1.2-1c-0.1-0.1-0.1-0.2,0-0.2
	c0.3-0.1,0.8-0.4,1.5-0.9l-0.1-7.5l-1.2,0.1c-0.2,0-0.4,0-0.6,0.1c-0.3,0-0.5,0-0.6,0.1l-0.6-0.5l2.9-0.1L31.1,12.5z M26.3,21.6
	c-0.6,0-1.3,0.4-2,1c-2-1.8-2.9-3.8-2.9-6.2c-0.2,0.1-0.5,0.2-0.9,0.3c-0.4,0.2-0.7,0.3-0.9,0.4c0.6,1.3,0.7,2.8,0.5,4.7
	c-0.3,1.3-1.2,2.1-2.6,2.6h-0.1v-0.2c0-0.6-0.2-1.2-0.6-1.5l-0.2,0.1c0,0,0-0.1,0.1-0.1c1,0.2,1.6,0,1.6-0.6c0.3-1,0.4-2.1,0.3-2.9
	c-2,1.7-4.7,3.2-8.2,4.7c-0.1,0-0.2,0-0.2,0c0-0.1,0-0.2,0.1-0.2c2.8-1.4,5.5-3.5,8.2-6.2c0-0.2-0.1-0.4-0.2-0.6
	c-2,1.6-4.3,2.9-7.1,4.1c-0.1,0-0.2,0-0.1-0.1c2.6-1.6,4.8-3.3,6.6-5.3c0,0,0-0.1-0.1-0.1c0-0.1-0.1-0.1-0.1-0.1
	c-1.7,0.9-3.7,2-5.9,2.9c-0.1,0-0.2,0-0.2-0.1c0,0,0-0.1,0.1-0.1c2.4-1.4,4.4-2.8,6-4.5h-1.3c-0.4,0-1,0.1-1.7,0.2h-0.1l-0.5-0.4
	l6.6-0.3l0.8-0.8l1.2,1c0.1,0.1,0.1,0.2,0,0.2l-4.6,0.1l1,0.6c0.1,0.1,0.1,0.1,0,0.1l-0.3,0.1c-0.1,0-0.2,0.1-0.4,0.3
	c-0.3,0.2-0.4,0.3-0.5,0.3c0.6,0.6,1.3,1.4,1.6,2.2c1.6-1,2.7-2.1,3.5-2.9l1.3,1.2c0.1,0.1,0.1,0.2,0,0.2c0,0,0,0-0.1,0
	c-0.6,0.2-1.5,0.5-2.5,0.9C21.8,18.4,23.4,19.9,26.3,21.6c0.1-0.1,0.1,0,0.1,0.1C26.5,21.5,26.4,21.6,26.3,21.6z M25.4,11.5
	c-0.6,0-1.6,0.3-2.6,0.8c-0.1,0-0.2,0.1-0.2,0.1s0-0.1,0-0.2l0.5-1.4h-0.4l1-1l1.8,1.5C25.6,11.3,25.6,11.5,25.4,11.5z M13,10
	c0.1-0.1,0.2-0.1,0.3,0l0.4,0.7l3.8-0.1l-0.1-2.4c0-0.1,0-0.2,0.1-0.1l1.9,0.5c0.1,0.1,0.1,0.2,0,0.3c-0.1,0.3-0.2,0.5-0.2,0.7v0.8
	v0.4L13.7,11c0,1.3-0.5,2.3-1.5,3.1c-0.2,0.2-0.3,0.2-0.4,0.1c-0.3-0.5-0.5-1-0.4-1.5C12.4,12.3,12.9,11.4,13,10z M34.7,18.5
	l-0.1-1.7l1.3,0.6l3.3-0.1l0.6-0.7l1.6,1c0,0,0.1,0.1,0.1,0.2L41,18.4l0.1,3.2c0,0.7-0.5,1.5-1.2,2.1c-0.3,0.3-0.4,0-0.5-0.4
	c0-0.4,0-4.9,0-4.9c0-0.6-0.2-0.8-0.6-0.7l-2.9,0.1V20l3.1-0.1c0.1,0,0.1,0,0.1,0.1s0,0.1-0.1,0.1l-3.1,0.1v3.3
	c-0.1,0.3-0.4,0.7-0.8,1.2c-0.2,0.2-0.4,0.2-0.5-0.1l0.1-3L34.7,18.5z M42.5,12.9c-0.1,0-0.2,0.1-0.3,0.3c-0.6,0.7-1.4,1.5-2.2,2.3
	l-0.1-0.1c0.7-1.6,1.2-2.7,1.3-3.5l1.4,0.8C42.6,12.7,42.6,12.8,42.5,12.9z M35.4,13.8c0,0.4-0.2,0.7-0.6,1
	c-0.3,0.2-0.5,0.1-0.5-0.2c-0.2-1-0.5-1.8-0.9-2.1c-0.1-0.1-0.1-0.2,0.1-0.1C34.7,13,35.3,13.4,35.4,13.8z M41.2,10.1l1,0.8
	c0,0.1,0,0.1-0.1,0.1l-2.7,0.2v4.4l0,0V16l-4.9,0.1c-0.7,0-1.3,0.1-1.7,0.2l-0.5-0.5l3.3-0.1l0.1-4.3h-0.2c-0.6,0-1.3,0-1.8,0.1
	L33.2,11l2.2-0.1V9.2c0-0.2-0.1-0.5-0.1-0.8c0-0.1,0-0.2,0.1-0.1l1,0.5c0.1,0,0.2,0.1,0.1,0.2l-0.1,1.8l1.8-0.1l0.9-2.9l1.5,0.8
	c0.1,0,0.1,0.1,0,0.2l-0.3,0.3l-0.8,1.5h0.8L41.2,10.1z M38.2,11.3l-1.1,0.1L37,15.7h1.3C38.2,15.7,38.2,11.3,38.2,11.3z M41.8,15.6
	L41.8,15.6l0.7-0.8l1.2,1c0.1,0.1,0.1,0.2,0,0.2l-2.2,0.1L41.8,15.6z"/>
<g>
	<rect x="15.7" y="37" class="st1" width="5.6" height="2.3"/>
	<rect x="15.7" y="34.4" class="st1" width="5.6" height="2.4"/>
	<path class="st2" d="M24.9,28c0.3,0,0.6,0,0.7,0c0.2,0,0.3,0,0.3-0.1l-1.3-0.7L23,27.8V28h1.5C24.6,28,24.7,28,24.9,28z"/>
	<path class="st2" d="M13.6,32.2c0.7-0.3,1.3-0.7,2.1-1.2c0.7-0.5,1.3-0.9,1.8-1.4c0,0.7,0,0.5-0.1,1.3c0,0.8-0.1,1.4-0.1,1.8
		c0,0.4-0.1,0.6,0,0.6c0.1,0,0.3-0.1,0.8-0.2c0.5-0.2,0.7-0.3,0.7-0.3c0,0,0-1,0-4.8v-0.2c0-0.2,0-0.3,0-0.4c0-0.1,0-0.3,0-0.4
		l0.6-0.6L17,25.8c0.2,0.5,0.4,1.2,0.5,2h-4.2c-0.7,0-1.4,0-2.1-0.1c0,0-0.1,0-0.1,0l-0.1,0l0.5,0.3c2.1-0.1,3.2-0.1,3.4-0.1h2.3
		c-0.3,0.9-1.2,1.8-2.5,2.8c-1.3,1-2.7,1.9-4.1,2.5l0.1,0c0.3,0,0.7-0.2,1.2-0.4C12.3,32.8,12.9,32.5,13.6,32.2z"/>
	<path class="st2" d="M22.6,41.4h-9c-0.2,0-0.5,0-1.1,0c-0.5,0-0.8,0-0.9-0.1l0.1,0.4c0.8,0,1.4,0,1.9,0c0.4,0,0.7,0,0.8,0h9.4
		c0,0,0.1,0,0.3,0c0.2,0,0.4,0,0.5,0c0.2,0,0.3,0,0.5,0c0.2,0,0.3,0,0.4,0c0.1,0,0.2-0.1,0.2-0.1l-1.3-0.9L22.6,41.4z"/>
	<path class="st2" d="M23.9,34.3l-1.4-0.9L21,34.2h-5.2l-1.7-0.6v6.6c0,0.1,0.1,0.2,0.3,0.2c0.2,0,0.4,0,0.5,0
		c0.2,0,0.5-0.2,0.8-0.4v-0.4H21c0,0,0.1,0.1,0.1,0.1c0.1,0.1,0.1,0.1,0.1,0.1c0,0,0.1,0.1,0.1,0.1c0.1,0,0.1,0.1,0.1,0.1
		c0,0,0.1,0,0.1,0.1c0,0,0.1,0,0.1,0c0,0,0.1,0,0.1,0c0.1,0,0.3-0.1,0.6-0.3c0.3-0.2,0.5-0.4,0.5-0.6c0-0.1,0-0.2,0-0.3
		c0-0.1,0-0.3,0-0.4v-3.7L23.9,34.3z M21.3,39.3h-5.6V37h5.6V39.3z M21.3,36.8h-5.6v-2.4h5.6V36.8z"/>
</g>
<g>
	<path class="st2" d="M24.6,31.7C24,31.4,23.5,31.2,23,31c-0.4-0.2-0.8-0.4-1.2-0.7c-0.4-0.2-0.6-0.5-0.8-0.7
		c-0.2-0.2-0.4-0.4-0.6-0.6c-0.2-0.2-0.3-0.4-0.4-0.5c-0.1-0.1-0.1-0.3-0.2-0.4c0,0,0,0,0,0h-0.5c0,0,0,0,0,0
		c0.2,0.9,0.5,1.6,0.9,2.2c0.4,0.6,0.9,1,1.2,1.3c0.2,0.1,0.6,0.3,1.1,0.7c0.6,0.3,0.9,0.6,1.1,0.7c0.8-0.2,1.7-0.4,2.9-0.6
		C25.9,32.1,25.2,31.9,24.6,31.7z"/>
</g>
<g>
	<path class="st1" d="M39.9,34.5h-2.5l0,1.8h2.5C39.9,35.8,39.9,35.2,39.9,34.5z"/>
	<path class="st1" d="M39.9,32.2h-2.5l0,1.8h2.5C39.9,33.4,39.9,32.8,39.9,32.2z"/>
	<polygon class="st1" points="33.3,36.3 35.6,36.3 35.6,34.5 33.2,34.5 	"/>
	<polygon class="st1" points="37.3,38.7 37.4,38.7 37.4,38.1 	"/>
	<polygon class="st1" points="33.2,34 35.6,34 35.6,32.2 33.2,32.2 	"/>
	<path class="st2" d="M40.9,39.1c0.1,0,0.2,0,0.3,0c0.1,0,0.3,0,0.4,0c0.1,0,0.3,0,0.4,0c0.1,0,0.2,0,0.3,0c0.1,0,0.1-0.1,0.1-0.1
		l-1-1.4l-1.5,1.1v0.4H40.9z"/>
	<path class="st2" d="M43.2,40l-2,1.3h-3.8l0-2.1h0v-0.4h0l0-0.6v0l0,0l0-1.4h2.5c0,0.4,0,0.6,0.1,0.6c0.1,0,0.3,0,0.8-0.2
		c0.4-0.2,0.7-0.3,0.8-0.5c0,0,0.1-0.2,0.1-0.3c0-0.2,0-0.4,0-0.6c0-0.2,0-0.5,0-0.7c0-0.3,0-0.5,0-0.8c0-0.2,0-0.5,0-0.7
		c0-0.2,0-0.4,0-0.5c0-0.1,0-0.1,0-0.2l0.9-1.1l-1.7-1.3l-1.1,1.3h-2.2l0-2h5.3c0,0,0.1,0,0.3,0c0.1,0,0.3,0,0.4,0
		c0.1,0,0.3,0,0.4,0c0.1,0,0.2,0,0.3,0c0.1,0,0.1,0,0.1-0.1L43,28.4l-1.3,1h-4.2v-1.6c1.3-0.1,2.8-0.2,4.5-0.4l-1.1-1.3
		c-1.4,0.4-3.2,0.7-5.3,1c-2.1,0.3-3.9,0.5-5.3,0.7v0.1c0.2,0.1,0.5,0.1,0.7,0.2c0.3,0,0.8,0.1,1.6,0.1c0.8,0,1.8,0,3.1-0.1l0,1.5
		h-6c-0.1,0-0.5,0-1.4-0.1c0,0-0.1,0-0.1,0L28,29.4l0.4,0.4h7.3l0,2h-2.9L31.5,31c0,4.2,0,6.4,0.1,6.6c0,0.1,0.3,0.1,0.7-0.1
		l0.9-0.5v-0.3h2.3l0,2h-3.5c-0.1,0-0.6,0-1.4-0.1c0,0-0.1,0-0.1,0l-0.1,0.1l0.4,0.4h4.8l0,2.1h-5.8c-0.1,0-0.6,0-1.4-0.1
		c0,0-0.1,0-0.1,0l-0.1,0.1l0.4,0.4h14.2c0,0,0.1,0,0.3,0c0.1,0,0.3,0,0.4,0c0.1,0,0.3,0,0.4,0c0.1,0,0.2,0,0.3,0
		c0.1,0,0.1-0.1,0.1-0.1L43.2,40z M37.4,32.2h2.5c0,0.6,0,1.2,0,1.8h-2.5L37.4,32.2z M37.4,34.5h2.5c0,0.7,0,1.3,0,1.8h-2.5
		L37.4,34.5z M35.6,36.3h-2.3l0-1.8h2.4L35.6,36.3z M35.6,34h-2.4l0-1.8h2.5L35.6,34z"/>
	<polygon class="st2" points="37.4,38.1 37.4,38.1 37.4,38.1 	"/>
</g>
<g>
	<path class="st2" d="M11.5,45.9c0-0.5,0.3-0.8,0.7-0.8c0.2,0,0.4,0.1,0.5,0.2l-0.1,0.1c-0.1-0.1-0.2-0.2-0.3-0.2
		c-0.3,0-0.5,0.2-0.5,0.6c0,0.4,0.2,0.7,0.5,0.7c0.1,0,0.2,0,0.3-0.1V46h-0.3v-0.2h0.5v0.7c-0.1,0.1-0.3,0.2-0.5,0.2
		C11.8,46.7,11.5,46.4,11.5,45.9z"/>
	<path class="st2" d="M13,46.1c0-0.4,0.3-0.6,0.5-0.6c0.3,0,0.5,0.2,0.5,0.6c0,0,0,0.1,0,0.1h-0.8c0,0.3,0.2,0.4,0.4,0.4
		c0.1,0,0.2,0,0.3-0.1l0.1,0.1c-0.1,0.1-0.2,0.1-0.4,0.1C13.3,46.7,13,46.5,13,46.1z M13.8,46c0-0.2-0.1-0.4-0.3-0.4
		c-0.2,0-0.3,0.1-0.3,0.4H13.8z"/>
	<path class="st2" d="M14.3,45.5h0.2l0,0.2h0c0.1-0.1,0.2-0.2,0.4-0.2c0.2,0,0.4,0.2,0.4,0.5v0.8h-0.2V46c0-0.2-0.1-0.3-0.2-0.3
		c-0.1,0-0.2,0.1-0.3,0.2v0.9h-0.2V45.5z"/>
	<path class="st2" d="M15.5,46.1c0-0.4,0.3-0.6,0.5-0.6c0.3,0,0.5,0.2,0.5,0.6c0,0,0,0.1,0,0.1h-0.8c0,0.3,0.2,0.4,0.4,0.4
		c0.1,0,0.2,0,0.3-0.1l0.1,0.1c-0.1,0.1-0.2,0.1-0.4,0.1C15.8,46.7,15.5,46.5,15.5,46.1z M16.4,46c0-0.2-0.1-0.4-0.3-0.4
		c-0.2,0-0.3,0.1-0.3,0.4H16.4z"/>
	<path class="st2" d="M16.7,46.4c0-0.3,0.2-0.4,0.7-0.4c0-0.2-0.1-0.3-0.2-0.3c-0.1,0-0.3,0.1-0.4,0.1l-0.1-0.1
		c0.1-0.1,0.3-0.2,0.5-0.2c0.3,0,0.4,0.2,0.4,0.5v0.7h-0.2l0-0.1h0c-0.1,0.1-0.2,0.2-0.4,0.2C16.9,46.7,16.7,46.6,16.7,46.4z
		 M17.5,46.4v-0.3c-0.4,0-0.5,0.1-0.5,0.3c0,0.1,0.1,0.2,0.2,0.2C17.2,46.5,17.3,46.5,17.5,46.4z"/>
	<path class="st2" d="M18,46.4v-1.5h0.2v1.5c0,0.1,0,0.1,0.1,0.1c0,0,0,0,0,0l0,0.2c0,0-0.1,0-0.1,0C18.1,46.7,18,46.6,18,46.4z"/>
	<path class="st2" d="M18.6,46.1c0-0.4,0.3-0.6,0.5-0.6s0.5,0.2,0.5,0.6c0,0.4-0.3,0.6-0.5,0.6S18.6,46.5,18.6,46.1z M19.5,46.1
		c0-0.3-0.1-0.5-0.3-0.5s-0.3,0.2-0.3,0.5c0,0.3,0.1,0.5,0.3,0.5S19.5,46.4,19.5,46.1z"/>
	<path class="st2" d="M19.9,46.9c0-0.1,0.1-0.2,0.2-0.3v0c-0.1,0-0.1-0.1-0.1-0.2c0-0.1,0.1-0.2,0.1-0.2v0c-0.1-0.1-0.2-0.2-0.2-0.3
		c0-0.3,0.2-0.4,0.4-0.4c0.1,0,0.1,0,0.2,0h0.4v0.2h-0.2c0.1,0.1,0.1,0.1,0.1,0.2c0,0.3-0.2,0.4-0.4,0.4c-0.1,0-0.1,0-0.2,0
		c0,0-0.1,0.1-0.1,0.1c0,0.1,0,0.1,0.2,0.1h0.2c0.3,0,0.4,0.1,0.4,0.3c0,0.2-0.2,0.4-0.6,0.4C20.1,47.2,19.9,47.1,19.9,46.9z
		 M20.8,46.8c0-0.1-0.1-0.1-0.2-0.1h-0.2c0,0-0.1,0-0.2,0c-0.1,0.1-0.1,0.1-0.1,0.2c0,0.1,0.1,0.2,0.3,0.2
		C20.6,47.1,20.8,47,20.8,46.8z M20.6,45.9c0-0.2-0.1-0.3-0.3-0.3s-0.3,0.1-0.3,0.3c0,0.2,0.1,0.3,0.3,0.3
		C20.5,46.2,20.6,46.1,20.6,45.9z"/>
	<path class="st2" d="M21.1,47.2l0-0.2c0,0,0.1,0,0.1,0c0.1,0,0.2-0.1,0.3-0.3l0-0.1l-0.5-1.2h0.2l0.2,0.7c0,0.1,0.1,0.2,0.1,0.3h0
		c0-0.1,0.1-0.2,0.1-0.3l0.2-0.7h0.2l-0.4,1.3c-0.1,0.2-0.2,0.4-0.4,0.4C21.2,47.2,21.1,47.2,21.1,47.2z"/>
	<path class="st2" d="M22.9,45.1h0.4c0.5,0,0.8,0.3,0.8,0.8c0,0.5-0.3,0.8-0.7,0.8h-0.4V45.1z M23.3,46.5c0.4,0,0.6-0.2,0.6-0.6
		c0-0.4-0.2-0.6-0.6-0.6h-0.2v1.3H23.3z"/>
	<path class="st2" d="M24.3,46.2v-0.8h0.2v0.7c0,0.2,0.1,0.3,0.2,0.3c0.1,0,0.2-0.1,0.3-0.2v-0.8h0.2v1.2h-0.2l0-0.2h0
		c-0.1,0.1-0.2,0.2-0.4,0.2C24.4,46.7,24.3,46.5,24.3,46.2z"/>
	<path class="st2" d="M25.7,45.5h0.2l0,0.1h0c0.1-0.1,0.2-0.2,0.4-0.2c0.3,0,0.5,0.2,0.5,0.6c0,0.4-0.2,0.6-0.5,0.6
		c-0.1,0-0.2,0-0.3-0.1l0,0.2v0.4h-0.2V45.5z M26.5,46.1c0-0.3-0.1-0.4-0.3-0.4c-0.1,0-0.2,0.1-0.3,0.2v0.6c0.1,0.1,0.2,0.1,0.3,0.1
		C26.4,46.5,26.5,46.4,26.5,46.1z"/>
	<path class="st2" d="M27,46.4v-1.5h0.2v1.5c0,0.1,0,0.1,0.1,0.1c0,0,0,0,0,0l0,0.2c0,0-0.1,0-0.1,0C27.1,46.7,27,46.6,27,46.4z"/>
	<path class="st2" d="M27.6,45.1c0-0.1,0.1-0.1,0.1-0.1s0.1,0,0.1,0.1c0,0.1-0.1,0.1-0.1,0.1S27.6,45.2,27.6,45.1z M27.6,45.5h0.2
		v1.2h-0.2V45.5z"/>
	<path class="st2" d="M28.1,46.1c0-0.4,0.3-0.6,0.6-0.6c0.2,0,0.3,0.1,0.3,0.1L29,45.7c-0.1-0.1-0.1-0.1-0.2-0.1
		c-0.2,0-0.4,0.2-0.4,0.5c0,0.3,0.1,0.5,0.4,0.5c0.1,0,0.2,0,0.3-0.1l0.1,0.1c-0.1,0.1-0.2,0.2-0.4,0.2
		C28.4,46.7,28.1,46.5,28.1,46.1z"/>
	<path class="st2" d="M29.2,46.4c0-0.3,0.2-0.4,0.7-0.4c0-0.2,0-0.3-0.2-0.3c-0.1,0-0.3,0.1-0.4,0.1l-0.1-0.1
		c0.1-0.1,0.3-0.2,0.5-0.2c0.3,0,0.4,0.2,0.4,0.5v0.7H30l0-0.1h0c-0.1,0.1-0.2,0.2-0.4,0.2C29.4,46.7,29.2,46.6,29.2,46.4z M30,46.4
		v-0.3c-0.4,0-0.5,0.1-0.5,0.3c0,0.1,0.1,0.2,0.2,0.2C29.8,46.5,29.9,46.5,30,46.4z"/>
	<path class="st2" d="M30.5,46.3v-0.7h-0.2v-0.2l0.2,0l0-0.3h0.2v0.3h0.3v0.2h-0.3v0.7c0,0.1,0,0.2,0.2,0.2c0,0,0.1,0,0.1,0l0,0.1
		c-0.1,0-0.1,0-0.2,0C30.6,46.7,30.5,46.5,30.5,46.3z"/>
	<path class="st2" d="M31.2,46.1c0-0.4,0.3-0.6,0.5-0.6c0.3,0,0.5,0.2,0.5,0.6c0,0,0,0.1,0,0.1h-0.8c0,0.3,0.2,0.4,0.4,0.4
		c0.1,0,0.2,0,0.3-0.1l0.1,0.1c-0.1,0.1-0.2,0.1-0.4,0.1C31.5,46.7,31.2,46.5,31.2,46.1z M32,46c0-0.2-0.1-0.4-0.3-0.4
		c-0.2,0-0.3,0.1-0.3,0.4H32z"/>
	<path class="st2" d="M32.9,45.9c0-0.5,0.3-0.8,0.7-0.8c0.2,0,0.3,0.1,0.4,0.2L34,45.4c-0.1-0.1-0.2-0.2-0.3-0.2
		c-0.3,0-0.5,0.2-0.5,0.6c0,0.4,0.2,0.7,0.5,0.7c0.2,0,0.3-0.1,0.4-0.2l0.1,0.1c-0.1,0.1-0.3,0.2-0.5,0.2
		C33.2,46.7,32.9,46.4,32.9,45.9z"/>
	<path class="st2" d="M34.4,44.9h0.2v0.5l0,0.2c0.1-0.1,0.2-0.2,0.4-0.2c0.2,0,0.4,0.2,0.4,0.5v0.8h-0.2V46c0-0.2-0.1-0.3-0.2-0.3
		c-0.1,0-0.2,0.1-0.3,0.2v0.9h-0.2V44.9z"/>
	<path class="st2" d="M35.6,46.1c0-0.4,0.3-0.6,0.5-0.6c0.3,0,0.5,0.2,0.5,0.6c0,0,0,0.1,0,0.1h-0.8c0,0.3,0.2,0.4,0.4,0.4
		c0.1,0,0.2,0,0.3-0.1l0.1,0.1c-0.1,0.1-0.2,0.1-0.4,0.1C35.9,46.7,35.6,46.5,35.6,46.1z M36.4,46c0-0.2-0.1-0.4-0.3-0.4
		c-0.2,0-0.3,0.1-0.3,0.4H36.4z"/>
	<path class="st2" d="M36.8,46.1c0-0.4,0.3-0.6,0.6-0.6c0.2,0,0.3,0.1,0.3,0.1l-0.1,0.1c-0.1-0.1-0.1-0.1-0.2-0.1
		c-0.2,0-0.4,0.2-0.4,0.5c0,0.3,0.1,0.5,0.4,0.5c0.1,0,0.2,0,0.3-0.1l0.1,0.1c-0.1,0.1-0.2,0.2-0.4,0.2
		C37.1,46.7,36.8,46.5,36.8,46.1z"/>
	<path class="st2" d="M38,44.9h0.2v1.2h0l0.5-0.6h0.2L38.5,46l0.4,0.7h-0.2l-0.3-0.6l-0.2,0.3v0.3H38V44.9z"/>
</g>
</svg>
