<?xml version="1.0" encoding="UTF-8"?>
<svg width="71px" height="48px" viewBox="0 0 71 48" version="1.1" xmlns="http://www.w3.org/2000/svg" xmlns:xlink="http://www.w3.org/1999/xlink">
    <!-- Generator: Sketch 52.2 (67145) - http://www.bohemiancoding.com/sketch -->
    <title>分组</title>
    <desc>Created with Sketch.</desc>
    <g id="切图" stroke="none" stroke-width="1" fill="none" fill-rule="evenodd">
        <g id="分组" fill="#FFFFFF">
            <path d="M23.0474152,14.0687374 C22.934497,14.7174627 23.0324536,15.3957618 22.7936315,16.0230528 C22.6665985,16.3923188 22.6378044,16.7838331 22.7001917,17.1661225 C21.708205,17.2171306 20.7382374,17.446667 19.7485091,17.5286055 C19.9065947,16.60639 19.8755422,15.6583992 19.736935,14.7350985 C19.6804759,13.8362165 20.1569908,13.0301258 20.6227785,12.2883379 C20.546841,12.0300416 20.3794398,11.8007765 20.3345548,11.5321701 C20.4347697,11.0378257 20.5711185,10.5459232 20.7452948,10.0702999 C21.3251299,9.58599429 22.1429402,9.27750386 22.9169947,9.43839641 C23.1510177,9.57378491 23.0533434,9.86626748 23.0795969,10.0835945 C23.0485444,11.4114328 23.1083911,12.7417131 23.0474152,14.0687374 M32.9850664,15.7351827 C32.6643786,15.7327408 32.3738965,15.8713851 32.0786153,15.9712308 C31.4301823,16.2072789 30.727831,16.218403 30.0587904,16.3700706 C29.3208698,16.5464284 28.5535904,16.5173972 27.8074832,16.6427469 C26.917123,16.7936006 26.0103896,16.7382514 25.1109959,16.7282126 C25.207541,16.2428217 25.4141813,15.7747953 25.4223679,15.2747532 C25.4452339,14.9157974 25.4658414,14.5565701 25.5005638,14.1986995 C25.5155255,14.0589699 25.5330278,13.8193947 25.7472901,13.8671469 C26.1131452,13.8614492 26.4925504,13.9501707 26.8479606,13.8280769 C27.4856663,13.5988118 28.028803,13.1921037 28.6171069,12.8727604 C29.2745733,12.5246573 30.0785511,12.5102774 30.7038358,12.1032979 C31.0832411,11.6423259 31.2342692,11.0191046 31.1360304,10.4403798 C31.0129495,9.98374889 30.5132863,9.78541423 30.084197,9.67118866 C29.6692226,9.5680872 29.272315,9.39498526 28.8514123,9.320915 C28.7303075,9.38196192 28.6182361,9.45711746 28.5053179,9.52820321 C28.6032745,9.77076297 28.8121732,10.0070824 28.7972115,10.2718903 C27.7798183,11.2098424 26.8812714,12.2782991 25.7300701,13.0767928 C25.6990176,11.5647284 25.6654244,10.0325864 26.0993127,8.56366188 C26.9007498,8.33629602 27.7417084,8.31757496 28.5561311,8.15044206 C29.0543828,8.05385227 29.4950462,7.79555597 29.9032456,7.5128409 C29.8213799,7.04264396 29.78327,6.45957805 29.3056259,6.19015765 C28.6885277,5.85643449 27.9446789,5.99073771 27.27338,6.03713337 C26.6853583,6.07050568 26.1535135,6.32663143 25.5906161,6.46174861 C25.7588642,6.20670814 25.9367105,5.95519484 26.1523843,5.73461197 C26.6655976,5.19821303 27.1234811,4.60944941 27.689766,4.12161669 C28.2134243,3.73580016 28.327754,3.07513683 28.5849252,2.52652851 C28.8316516,2.03218412 28.5490737,1.42659868 28.0623961,1.18186836 C27.1997009,0.683996819 26.3104698,0.127520232 25.2930765,0 C24.8501548,0.285970903 25.0624411,0.838106376 25.1118428,1.25268279 C25.2134692,1.70388736 25.0449387,2.14749497 24.9644845,2.58757543 C24.8975804,2.9310661 24.9297621,3.28351031 24.8744322,3.62835758 C24.7716766,3.87878561 24.5907252,4.09068625 24.4532472,4.32456378 C23.9837897,5.10270852 23.6506809,5.95302428 23.1281518,6.70240913 C22.9689371,6.92082144 22.7925023,7.18454414 22.4845179,7.1991954 C21.7773674,7.30663798 21.0922361,7.51609674 20.3864971,7.62706647 C20.1140819,7.6813304 19.8453365,7.59613603 19.5836485,7.53617439 C20.1409,6.51167142 20.4590471,5.36561725 20.4186788,4.20491182 C20.3610905,3.64734996 20.9965379,3.31444075 20.9976671,2.77017355 C21.0069828,2.54524957 20.9886336,2.32005426 20.9759303,2.09513028 C20.4037172,2.31706975 19.8168247,2.67059924 19.1740377,2.52761379 C18.5560926,2.42342705 18.236534,1.78908172 17.6276225,1.6672592 C17.381743,1.61625111 17.1338875,1.73834495 16.9828594,1.92121439 C16.7889223,2.91777144 17.5214794,3.78463769 17.5559194,4.76111709 C17.6459717,5.46736212 17.6160484,6.33531365 18.2989214,6.79004538 C18.6723984,7.02039575 19.0910428,7.38179352 18.9295697,7.85850213 C18.2709741,7.88183562 17.6010867,7.81997474 16.9549121,7.97625485 C16.3485412,8.12005426 15.7348307,8.22668288 15.1177325,8.31540441 C14.7775664,8.31540441 14.6669065,8.66215091 14.4901895,8.87839267 C15.4347505,9.89855452 16.8326782,10.2984797 18.1303909,10.7309632 C18.508667,10.8305375 18.5064086,11.2996492 18.4107104,11.5956589 C18.264199,12.0189175 18.2018117,12.458998 18.1267211,12.8971792 C17.808574,13.1774524 17.3137098,13.1619872 16.9701561,13.4148571 C16.6378942,13.6243159 16.2861539,14.0033494 15.8488781,13.8240071 C15.1719333,13.4878421 14.8433412,12.7153951 14.0910235,12.4834168 C14.0760619,12.9891566 14.1119134,13.502222 13.9919378,14.0000936 C13.8615172,14.6032371 13.6376568,15.2107218 13.7438,15.834757 C13.9239045,16.5798007 14.3829171,17.3012397 15.1510434,17.591823 C15.2975548,17.6935679 15.3946645,17.4998456 15.4728604,17.4143799 C16.0021646,16.7214296 16.2988572,15.8833232 16.8789746,15.2240165 C17.2826573,14.8791692 17.7173925,14.5687795 18.0888935,14.1883894 C18.5052794,15.3569631 17.6056034,16.5819713 18.1752759,17.7372503 C17.5883834,17.9388408 16.9791896,18.0728727 16.3646321,18.1681059 C15.0496993,18.3656266 13.7254508,18.5862095 12.3921688,18.5596202 C11.5235453,18.6705899 10.6089076,18.6925668 9.81198719,19.0783833 C9.32756799,19.2813304 9.42665373,19.9154044 9.033416,20.2092436 C8.56621682,20.5939748 8.12583572,21.0161482 7.6044358,21.3354914 C7.53273272,20.6713009 7.70352154,20.0185059 7.8085355,19.3665248 C7.99061614,18.1814006 8.338122,17.0285634 8.65965666,15.8735557 C8.76692898,15.1475043 9.0207127,14.4423446 9.41395043,13.8139683 C9.69314076,13.4015624 10.2108708,13.0190017 10.0934359,12.4690368 C9.84078134,11.3916265 8.50637016,10.8630959 7.46724015,11.1631754 C6.6917742,11.3194555 6.23530226,12.0322122 5.49145342,12.2584928 C4.6504949,12.6464799 3.68504403,12.5843477 2.82799466,12.9194274 C2.03107425,13.2143519 1.06110666,12.9934977 0.359884448,13.5345091 C0.196153014,13.6975722 -0.0725923735,13.892651 0.0183068017,14.1485054 C0.746064795,14.882425 1.77841971,15.1640548 2.70237313,15.5919259 C3.29180629,15.7671984 3.87644043,15.4687468 4.35154388,15.1564579 C4.79333646,14.8504093 5.36103286,14.8514946 5.88102131,14.8479674 C5.72773481,16.1473172 5.66083076,17.4643028 5.30542063,18.7346213 C4.94916362,19.9772653 4.86024051,21.2690181 4.65162408,22.5371661 C4.43595026,23.7453525 4.05739189,25.0392759 3.06568754,25.876297 C2.58352669,26.086841 2.10842324,26.4004865 1.98393089,26.9290172 C2.22134147,27.5310755 2.57082339,28.1054591 3.03237666,28.5742995 C3.40359534,28.9479066 3.97467929,28.9823642 4.47970607,29 C4.91359437,28.8936427 5.23625822,28.5487954 5.48552521,28.2085606 C5.8304904,27.731852 5.75878733,27.0866539 6.1429916,26.6311082 C6.4879568,26.1619965 6.67455417,25.6101324 6.98395012,25.1198578 C7.48671854,24.1667119 8.35647121,23.4694204 8.99191855,22.60581 C9.53505524,21.9752631 10.0530676,21.3178556 10.6481467,20.7312626 C11.1616423,20.6970763 11.6195258,20.9762642 12.1152368,21.0549469 C12.4347954,20.9985124 12.7173733,20.8254105 13.0242285,20.7255649 C13.8476847,20.4406792 14.7233656,20.352229 15.575616,20.1783131 C16.731334,19.9409085 17.7913539,19.3798194 18.9654212,19.2159424 C19.3069989,19.1635777 19.629945,19.0417552 19.9678528,18.9777237 C20.5318794,18.9041961 21.102681,19.0108247 21.6655784,18.9299715 C22.1731458,18.8355522 22.6538952,18.5872948 23.1834817,18.616326 C23.440653,18.6016747 23.6286618,18.7934977 23.8259864,18.9210179 C24.0577511,18.7723348 24.2663675,18.5362867 24.5675769,18.5441549 C25.2721867,18.5164803 25.9861122,18.5729148 26.6816885,18.4356271 C27.3910973,18.2801609 28.1165969,18.396557 28.8339099,18.3412078 C30.0266087,18.2701221 31.2204367,18.2956261 32.4142647,18.2869439 C33.3771749,18.2625251 34.3115733,18.6638069 35.2770242,18.5086121 C35.6852236,18.4377976 35.8571416,18.0264771 35.9322322,17.6794592 C35.9954664,17.3579455 36.0948344,16.943369 35.7936251,16.7027085 C35.0890153,15.9633625 33.9954022,15.7107639 32.9850664,15.7351827" id="Fill-1"></path>
            <path d="M6.03162835,6.60082528 C6.57637652,7.18413481 7.23843888,7.5674525 7.90707715,7.87855092 C8.39290518,8.10141764 8.91398009,7.97331829 9.40296456,7.84521894 C10.1242101,7.64751459 10.8636051,7.5203956 11.5546015,7.18674908 C11.8331569,7.05603546 12.0714678,6.68088737 11.9801942,6.29887681 C11.8457826,5.69922808 11.5643338,5.13323811 11.1387411,4.79142199 C10.2509936,3.99341534 9.08811012,3.92511747 8.03491279,4.04798827 C6.97750687,4.16530375 5.88432803,4.43359345 5,5.20937879 C5.33195181,5.68615672 5.6276046,6.2109719 6.03162835,6.60082528" id="Fill-3"></path>
            <path d="M26.9943212,24.328313 C26.9526122,23.3614481 27.1065319,22.3646775 26.797616,21.4256379 C26.6700671,21.0038372 26.1905478,20.8709518 25.8630647,20.6306658 C25.1526657,20.1334508 24.1796344,19.7883648 23.3287701,20.1495738 C22.9054908,20.2239481 22.7494183,20.7060803 22.332597,20.7817547 C21.3420748,20.9749717 20.3921853,21.3127763 19.4266885,21.59337 C18.9727328,21.7358772 18.4482754,21.9686217 18.3777737,22.4837802 C18.7493877,22.5898805 19.1210017,22.7323878 19.5146811,22.7368086 C20.90561,22.7134041 22.0686192,21.7252152 23.4673518,21.7647427 C23.456319,22.613285 23.5044863,23.465728 23.4452863,24.3134902 C23.2693011,25.3367858 23.4178391,26.3759446 23.3441083,27.4044413 C23.2781811,27.9952743 23.2219412,28.5868874 23.0957378,29.1691388 C22.4448078,29.3498733 21.779616,29.4697562 21.1176533,29.5997811 C20.0555531,29.7940383 18.9506674,29.996877 17.885338,29.7069216 C17.8578908,29.0799417 17.8611199,28.4529618 17.8301745,27.8272821 C17.8379781,27.6517486 17.7908873,27.4109425 18.0064288,27.335268 C18.3296065,27.2065434 18.688035,27.2247469 19.0198237,27.1334694 C19.300216,27.0239885 19.5574665,26.8624976 19.8488915,26.7774614 C20.5821632,26.5650007 21.3705984,26.6287129 22.1017174,26.40455 C22.3996006,26.3015704 22.7173965,26.1559425 22.8780435,25.8787295 C22.9428943,25.5820127 22.9560798,25.2782747 23.0055924,24.9797376 C22.5535204,24.7797593 22.0565102,24.5831617 21.5508891,24.6864015 C20.5119306,24.8234477 19.5972919,25.373973 18.5712498,25.5567879 C18.3250319,25.6108783 18.0788141,25.5323432 17.8379781,25.4930757 C17.8379781,24.7501137 17.8204872,24.0066315 17.876458,23.2647096 C17.8995998,22.921704 18.0093888,22.5805187 17.9555707,22.2362129 C17.7556364,21.865382 17.3665315,21.6435596 17.0804883,21.3395614 C16.8770559,21.4607446 16.6636671,21.5710057 16.4890273,21.7306762 C16.3735875,21.9769433 16.3308021,22.2489553 16.3229985,22.5178468 C16.306584,23.5453032 16.3525984,24.5748401 16.3108894,25.6015165 C16.2140168,26.3249748 16.2043296,27.0536342 16.1174133,27.7783928 C16.0329189,28.4030322 16.3143876,29.0120687 16.208635,29.635668 C16.1537405,30.1201406 15.9360463,30.598112 16.018388,31.0914264 C16.1865696,31.4196091 16.4109911,31.7181462 16.5990853,32.0369672 C16.7188306,32.2528085 17.020212,32.3399251 17.2475935,32.234605 C17.7160801,32.1337057 17.8667708,31.596963 18.3129229,31.4622573 C19.6290446,30.974404 21.0649116,31.1231524 22.4415787,31.1551386 C22.5680512,31.6767983 22.5766621,32.2600899 22.9471998,32.6915124 C23.2079485,33.0186549 23.3957737,33.3918263 23.6245006,33.7389927 C23.7167987,33.8601759 23.8058676,34.0427308 23.9961146,33.9909809 C24.2049289,33.7699386 24.2391034,33.4500774 24.428274,33.2186332 C24.6954809,32.9900495 25.052564,32.903973 25.3703599,32.762766 C25.4758434,32.3661902 25.6682431,32.0018605 25.8862064,31.654434 C26.1047079,31.3166294 26.0266717,30.9086114 26.0465844,30.5333596 C26.1587951,30.2093377 26.4962346,30.0223619 26.636969,29.714203 C26.7623652,29.3498733 26.7701688,28.9608389 26.7723215,28.5806462 C26.767747,27.8345635 26.7984233,27.0887409 26.7844306,26.3429183 C26.7524088,25.661848 27.0438339,25.0117237 26.9943212,24.328313" id="Fill-5"></path>
            <path d="M58.2197688,22.4589152 C58.1838701,22.5317834 58.1479713,22.6035433 58.1175533,22.6750261 L58.0937121,22.7312704 L58.0334241,22.7404135 C56.1886117,23.0158165 54.3029679,23.200619 52.4789822,23.3796032 C51.9859909,23.4280897 51.4929996,23.4765761 51.0005564,23.5267249 C50.7816014,23.5527691 50.5571656,23.5649599 50.3398548,23.5771508 C49.9589444,23.5976537 49.5654282,23.6192647 49.194109,23.7192853 L48.2686884,23.819583 C48.1549634,23.8481207 48.0412383,23.8783208 47.9272392,23.9082439 C47.5112521,24.0182388 47.0812891,24.1321127 46.6398166,24.1664688 L46.4923851,24.1778284 L46.5255435,24.0320921 C46.6304994,23.5682847 46.8283536,23.1299674 47.019631,22.7060574 C47.170625,22.3716396 47.3268257,22.025585 47.4331517,21.6739891 C47.4808341,21.5365647 47.5161848,21.3949843 47.5507133,21.257837 C47.6227849,20.969412 47.6975968,20.6710126 47.8784607,20.4050299 C48.1097474,20.0623001 48.212511,19.6774564 48.3215775,19.2704474 C48.3752886,19.0706833 48.4306439,18.8639926 48.5024414,18.6647826 C48.8195014,17.9039612 49.2058926,16.9034784 49.3990882,15.8666999 C49.4385494,15.7156993 49.5076066,15.5854786 49.5747455,15.459691 C49.6657255,15.2881875 49.7517729,15.1263814 49.7498547,14.9504449 L49.7575277,14.7681359 C49.7745179,14.3350828 49.7920563,13.8873452 50.046636,13.4864317 C50.3217684,13.0641842 50.3294415,12.5887401 50.3373885,12.0855894 C50.3401289,11.9212897 50.3425952,11.7511716 50.3557489,11.5852095 C50.3573932,11.3954197 50.4302868,11.2180979 50.5007142,11.0463174 C50.5788145,10.8559735 50.6522562,10.6764352 50.6196459,10.4913556 C50.5719636,10.1414221 50.5486705,9.78899497 50.5261995,9.44848168 C50.5034545,9.10769133 50.4801614,8.75526424 50.4330272,8.41308857 C50.4064457,8.20279598 50.2927206,8.02187233 50.1724187,7.82986606 C50.1132268,7.73566385 50.0521167,7.63841392 50.001146,7.53589975 L49.933733,7.40013774 L50.0819867,7.37741838 C51.0863297,7.22281593 51.9224145,7.08927045 52.7782299,6.89726418 L52.779052,6.89698711 C52.9722476,6.85542731 53.1681836,6.79779773 53.3578167,6.74183053 C53.7639385,6.62269244 54.1845842,6.49939837 54.6257827,6.51214338 C55.4994104,6.51546816 56.3875621,6.5279361 57.2957184,6.54677654 L57.4478085,6.55010133 L57.3962897,6.69445236 C57.3688861,6.77064532 57.3365498,6.84656122 57.3039395,6.92303125 C57.2346083,7.0856686 57.1688396,7.23971692 57.1532195,7.39847535 C57.1852818,7.45998385 57.2236468,7.51982996 57.2614639,7.57995314 C57.3861504,7.77639245 57.527005,7.99915297 57.4697314,8.28065134 C57.4086213,8.94865584 57.2288535,9.68315601 56.9216588,10.5140749 C56.8268423,10.8210633 56.5569165,11.0709762 56.2193038,11.1615766 C55.5843617,11.2854248 54.9414725,11.3145166 54.3199581,11.3427773 C53.6398,11.3738086 52.9363488,11.4053941 52.2611234,11.5608277 C51.6502965,11.6932649 51.1992327,12.0190938 51.0337148,12.4418954 C51.389962,12.6552357 51.7130508,12.9131836 52.0262743,13.1628194 L52.2019315,13.3027374 C52.2962,13.3501156 52.3901945,13.398602 52.4839149,13.4473655 C52.7686386,13.5944872 53.0632276,13.7468731 53.3660378,13.8649029 C53.9464467,14.0123017 54.5646726,13.8466166 55.1623458,13.6867499 C55.3119696,13.6468525 55.4604973,13.6072322 55.6079288,13.572322 L55.7707063,13.534087 L55.7397402,13.7003261 C55.6731494,14.0605111 55.4903672,14.4093363 55.1648121,14.7991672 C54.8913238,15.124996 54.6893591,15.5051297 54.4939712,15.8727954 C54.3835346,16.0805943 54.2692614,16.295597 54.1426567,16.5011795 C54.0456478,16.6577214 53.9585043,16.8281166 53.8741011,16.9926934 C53.6661075,17.3988712 53.450989,17.8191793 53.0588431,18.1217346 C52.8911328,18.2566654 52.6875239,18.3320272 52.4907658,18.4051724 C52.2394745,18.4988205 52.0021591,18.5869273 51.85829,18.7905703 C51.586172,19.1986875 51.4527163,19.7071024 51.4919035,20.1864254 C51.5768547,20.3335471 51.714695,20.4493604 51.8599342,20.5715462 C51.9415971,20.6408125 52.0262743,20.7117412 52.1021823,20.7904278 C52.3592284,21.0450508 52.7645281,21.3370777 53.2265533,21.2672572 C53.4460564,21.1990991 53.6461029,21.0608435 53.8579329,20.914276 C54.0905898,20.753301 54.3309196,20.5865077 54.6252346,20.5117001 C55.2198934,20.3507251 55.8156483,20.2412843 56.3941389,20.1872566 C56.6029546,20.1703556 56.8142366,20.1357224 57.0186677,20.1021975 C57.3850542,20.0420743 57.7634984,19.9802888 58.1490674,20.0154761 L58.2542974,20.0251734 L58.2479946,20.1318435 C58.2181246,20.6311152 58.2688213,21.0993556 58.3981664,21.5227114 C58.5170982,21.8596229 58.3592533,22.1779709 58.2197688,22.4589152 M67.4024514,21.8435531 L67.3975187,21.8435531 C67.1445832,21.8435531 66.9179552,21.9385865 66.6778994,22.0386071 C66.5329342,22.0995614 66.3830363,22.1621782 66.2260135,22.2034609 L66.0289814,22.2561034 C65.4814569,22.402948 64.9147498,22.5545027 64.3337928,22.4874529 C64.0205693,22.4952107 63.6854229,22.5400953 63.361238,22.5838716 C62.8561891,22.6514756 62.3336018,22.7215731 61.8096444,22.6553545 L61.7183903,22.6437177 L61.7142798,22.5509009 C61.6682417,21.495282 61.798957,20.5989756 62.1138247,19.8096165 L62.1247862,19.7821871 L62.1480793,19.7636237 C62.4470529,19.5297806 62.7260218,19.3574459 63.0006062,19.2371996 L63.0225291,19.2277794 L63.0463703,19.2280564 C63.1702347,19.2308271 63.2951952,19.2374766 63.4201558,19.2441262 C63.813946,19.2657373 64.2208899,19.2873484 64.6037186,19.1715351 C64.9473601,18.9163579 65.3310109,18.6143567 65.5910714,18.2433663 C65.5327017,17.9144897 65.0857485,17.7856543 64.7560828,17.690898 C64.5905648,17.6557107 64.4310757,17.6111032 64.2767933,17.5681581 C63.8934165,17.4612109 63.5314145,17.3606361 63.1472156,17.4082914 L63.1225524,17.4102308 C62.9055156,17.4296254 62.6599791,17.4517906 62.4580143,17.3024524 L62.4270482,17.266711 C62.2587899,16.9583373 62.2675591,16.6228112 62.2760542,16.2980906 C62.2815349,16.0891834 62.2864676,15.8919129 62.2475544,15.7037855 C62.2333045,15.4735442 62.0940941,15.311461 61.9466626,15.1399576 C61.8175915,14.9897882 61.6844098,14.8343545 61.6224776,14.6315427 C61.5312235,14.3126405 61.2634901,14.1095516 60.9801365,13.8945489 C60.9058727,13.8385817 60.8321569,13.7826145 60.7622777,13.724985 C60.7187059,13.6928454 60.6715716,13.6554416 60.6244374,13.6177607 C60.4802943,13.5030556 60.3438242,13.394169 60.1799505,13.3415266 C59.4948597,13.4382223 59.0648968,13.6679095 58.9012971,14.0244926 C58.6886449,14.7110604 58.4949013,15.3973513 58.5143578,16.0938935 C58.5055887,16.2484959 58.5061368,16.3983883 58.5064108,16.5496659 C58.508055,17.1348279 58.5096992,17.7399386 58.0457558,18.2128891 L58.0051984,18.2541718 L57.9484729,18.2433663 C57.5829084,18.1746541 57.1787049,18.2151056 56.7799821,18.361119 C56.2694524,18.5514629 55.7386441,18.5345619 55.2862102,18.4930021 L55.1807062,18.4827507 L55.1875571,18.3763576 C55.2212636,17.834972 55.4862567,17.3667316 55.7427546,16.9140068 C55.850725,16.7233859 55.9622577,16.5263925 56.0526897,16.3296761 C56.2050539,16.0077262 56.4289416,15.731215 56.6457043,15.4635699 C56.8062895,15.2651911 56.9726296,15.0598857 57.1033449,14.8426665 C57.7169122,13.9128352 58.4283104,13.008494 59.4877348,12.6610541 L59.5096577,12.656344 C59.9897693,12.6031475 60.4794722,12.5710079 60.9527329,12.5396995 C61.3202156,12.5155948 61.700578,12.4903819 62.0718972,12.4557487 C62.7632908,12.2554305 63.4960638,12.2706691 64.2049958,12.2859077 C64.4872532,12.291726 64.7791018,12.2978215 65.0627294,12.2895095 C65.2013918,12.2817517 65.3469051,12.2864618 65.4874857,12.291449 C65.7933102,12.3028087 66.0826925,12.3122289 66.3443972,12.1991862 C66.4414061,12.1221621 66.5345784,12.0409819 66.6280248,11.9598018 C66.8316338,11.782757 67.0420936,11.5990627 67.2914667,11.4608071 C67.3169521,11.4361483 67.3706632,11.4004069 67.4262925,11.3641113 C67.595647,11.2532852 67.6690887,11.1892831 67.6553869,11.1050553 C66.9719403,10.2677638 65.6839697,9.94165796 64.5817957,10.3306577 C63.8514889,10.573644 63.0576058,10.6894573 62.2234392,10.6836389 C61.7170201,10.6872407 61.1977213,10.7484722 60.6976051,10.8146908 C60.4816645,10.8432285 60.2659979,10.8717663 60.0500573,10.8947627 L59.8955008,10.9113866 L59.9727791,10.5883284 C60.0741725,10.1527817 60.1788544,9.70199645 60.5252363,9.35982078 C60.6921244,9.17862006 61.0708425,8.70594661 60.9623242,8.25266774 C60.8409261,8.11274975 60.7167876,7.97532535 60.5926492,7.83790095 C60.3931508,7.61680282 60.1865274,7.38794687 59.994976,7.15216428 C59.7935593,6.90640733 59.5214413,6.74099934 59.2331551,6.56589405 C59.0394114,6.44814129 58.8388168,6.32623254 58.6606932,6.17689434 L58.3630898,5.92808967 L58.7456445,5.98322567 C58.8766338,6.00234318 59.005979,6.03004971 59.1355981,6.05858744 C59.3263274,6.09987018 59.5069173,6.13921345 59.693262,6.150019 C60.1484363,6.03531395 60.6619804,5.90730977 61.1831974,5.95496501 C61.5161515,5.97657611 61.8622594,5.96438523 62.1974058,5.95219436 C62.7186228,5.93279978 63.2576523,5.91340521 63.7829799,6.02118362 C64.825962,6.21263576 65.9114198,6.25641208 67.006743,6.14974193 C67.437528,5.91977771 67.92038,5.56097812 67.8515969,5.13097274 C66.9598827,4.08394288 65.4247314,3.89969444 64.2806298,4.07757037 C63.8084652,4.11608245 63.3308199,4.18701118 62.8690688,4.25516925 C61.7252412,4.4241791 60.5427746,4.59900731 59.3964807,4.30947405 L59.3041305,4.2859235 L59.3148179,4.1900589 C59.3287937,4.06288591 59.3501686,3.93460467 59.3718174,3.80604636 C59.428543,3.46581014 59.48198,3.14469143 59.4033316,2.83077642 C59.2602847,2.17496279 58.8031921,1.62886704 58.3861089,1.16838447 C58.2378552,1.00685539 58.0164339,0.942853298 57.7821328,0.874972293 C57.6662155,0.841447389 57.5464616,0.806814224 57.4343808,0.758881923 C57.2921559,0.716213863 57.1507532,0.642237421 57.0140091,0.570754568 C56.7706648,0.443581584 56.5415705,0.323889364 56.2716447,0.366557424 C55.9463636,0.394818087 55.6712312,0.285377284 55.4048679,0.178707134 C55.1801581,0.0883838384 54.968054,0.00304771856 54.7364933,0 C54.1686901,0.0180092461 53.6907708,0.375977645 53.3789175,0.690446788 C53.3885087,0.731729521 53.3972779,0.77328932 53.4065951,0.814849118 C53.4646908,1.08083183 53.5194981,1.33213008 53.6433625,1.55793832 C53.8099766,1.84054495 54.0390709,2.09710744 54.2607663,2.34480384 C54.530418,2.64597385 54.809113,2.95767233 54.9940875,3.33448118 C55.0499909,3.45195687 55.111101,3.56638485 55.1722111,3.68081283 C55.3158061,3.94928913 55.4643338,4.22690858 55.5383236,4.53500522 L55.5660012,4.64887907 L55.2834698,4.70041322 C55.0549235,4.74308128 54.8189783,4.7868576 54.5816628,4.81123935 C53.9886483,4.86305057 53.3890568,4.94783256 52.809196,5.02984389 C52.0783412,5.13291219 51.3228231,5.23985941 50.5714155,5.28280453 C50.3546528,5.29610367 50.1313132,5.32962857 49.9153726,5.36204522 C49.4793808,5.42743263 49.0288652,5.49503657 48.5783495,5.41025458 C47.9439554,5.31300465 47.2399562,5.38005446 46.3674246,5.62220956 C46.1846423,5.66016751 46.0558453,5.79759191 45.9355433,5.94055761 C45.970346,5.97685317 46.0056966,6.01314873 46.0410473,6.04916722 C46.3093289,6.32567841 46.5869276,6.6110557 46.7047632,6.99756183 C46.7987577,7.27712074 46.8708293,7.56914759 46.9409825,7.85092302 C47.0012705,8.09474051 47.0640248,8.34686995 47.1402069,8.58902505 C47.3364169,9.15091352 47.2594127,9.74189386 47.1854229,10.3126484 C47.162952,10.4849831 47.140755,10.6562094 47.1259571,10.8260505 C47.0541595,11.7425826 46.9393383,12.6369494 46.7842338,13.4819987 C46.7423062,13.7715319 46.6170716,14.0394541 46.4959476,14.2987872 C46.4693661,14.3558627 46.4422365,14.4134923 46.4164771,14.4708448 C46.1690223,15.052682 46.0684509,15.6871616 45.9711681,16.3003071 C45.8656641,16.9669263 45.7565976,17.6557107 45.4592682,18.2971169 C44.9651808,18.9839619 44.6516832,19.7672255 44.5420687,20.5812435 C44.4798625,20.8627418 44.3132484,21.0830088 44.1521151,21.2957949 C44.0951155,21.3708796 44.03839,21.4459643 43.9868712,21.5224344 C43.8062812,21.7443637 43.736128,22.0006491 43.6618641,22.271619 C43.5988358,22.5015832 43.5338892,22.7393053 43.4001594,22.9568016 C43.1011858,23.4799009 42.8885337,24.0542573 42.6830064,24.6097733 C42.5865456,24.8707688 42.4900849,25.1317644 42.3843069,25.389158 C41.9236518,26.2871268 41.3572188,27.1346696 40.8094202,27.9545059 C40.6545897,28.1861325 40.4997592,28.4177591 40.347395,28.650494 C40.2284632,28.8355736 40.1221372,29.0406019 40.0317052,29.2589294 C39.6033864,30.3106694 39.1175201,31.5037127 38.2389597,32.4376999 C38.128249,32.5446471 38.0476823,32.6693265 38,32.8050885 C38.4886067,32.7228001 38.9062381,32.429665 39.3115378,32.145396 C39.4455415,32.0514708 39.5789972,31.9578227 39.7146452,31.8716554 C39.9193503,31.5497055 40.2090067,31.3039486 40.4890718,31.0662265 C40.7392669,30.8542716 40.9979572,30.6348358 41.1845759,30.3671907 C41.4558719,29.9862259 41.8641859,29.7720544 42.2587982,29.5645325 L42.4045855,29.4877854 C42.498854,29.3872107 42.5944927,29.2874671 42.6909535,29.1868924 C43.0959791,28.765199 43.5149807,28.3290982 43.7939496,27.8215145 C43.9010978,27.6430844 44.0241401,27.4779535 44.1427978,27.3183639 C44.2765275,27.1388256 44.4146418,26.9534689 44.5226121,26.758969 C44.6020827,26.6237611 44.6757984,26.4868909 44.7495142,26.3497435 C44.9980651,25.8887068 45.2548372,25.4118774 45.6963096,25.0655457 L45.7634485,25.0126263 L45.8303134,25.0655457 C46.0021342,25.2018619 46.1350418,25.3681011 46.2638388,25.529076 C46.3619438,25.651816 46.4551162,25.7679063 46.5633605,25.8709746 C46.7014748,25.9308207 46.8472621,25.9726576 47.0012705,26.016711 C47.1755576,26.0665828 47.3558735,26.118394 47.525502,26.199297 C47.5764727,26.2197999 47.6331983,26.2444587 47.6901978,26.2696716 C47.9469698,26.3824372 48.189492,26.4879991 48.4555812,26.4566907 C48.8756789,26.4137456 49.2881035,26.2835249 49.6868263,26.1574602 C49.7852054,26.1264289 49.8835844,26.0953975 49.9816894,26.0657516 C50.36397,25.9396868 50.763515,25.8959105 51.1499062,25.8535195 C51.4488798,25.8208258 51.7577187,25.7870238 52.0525818,25.7147098 C52.6014765,25.609425 53.1553038,25.4764336 53.6910448,25.3473212 C54.9039295,25.0552943 56.1524389,24.7552326 57.4171165,24.7552326 C57.6347013,24.7552326 57.8525602,24.7640987 58.0712411,24.7834932 L58.1701682,24.7923593 L58.1704423,24.892657 C58.1712644,25.062498 58.1948315,25.2312308 58.2197688,25.4093838 C58.2649848,25.7341044 58.311845,26.0699075 58.2099035,26.4126373 C58.1819518,26.5495076 58.2016824,26.6988458 58.2225092,26.8570501 C58.2400475,26.9894873 58.2581339,27.1266347 58.2468984,27.2684921 C58.2151102,27.4012064 58.1687981,27.5100931 58.1241301,27.615655 C58.0449336,27.802397 57.9701217,27.9788876 58.0010878,28.1603654 C58.0909717,28.744142 58.0685008,29.337616 58.0468519,29.9114183 C58.0254771,30.4807875 58.0032801,31.0695513 58.09289,31.6355958 C58.1128947,31.7951854 58.1781153,31.9425841 58.2471724,32.0985719 C58.3436332,32.3166223 58.4431084,32.5424306 58.4220076,32.8075821 C58.4294066,32.9120357 58.4203634,33.0356069 58.4115942,33.155022 C58.3921376,33.4151863 58.3740513,33.6606662 58.5203866,33.8521184 C58.6713806,34.0784807 58.7360532,34.3264542 58.7990816,34.5663928 C58.8388168,34.7185016 58.8766338,34.8634068 58.9336334,35 C59.0731179,34.9819908 59.1851987,34.8883427 59.3145439,34.7473164 C59.4003172,34.6384298 59.5310325,34.5921598 59.6461278,34.5514312 C59.7560163,34.512088 59.8508329,34.478286 59.8941306,34.3971059 C60.4147996,33.4617333 60.6699274,32.4194136 60.9168341,31.411727 C60.9562954,31.2499208 60.9960306,31.0881147 61.036588,30.9265856 C61.0604292,30.669746 61.0697464,30.3885247 61.0790636,30.1170007 C61.0966019,29.5902995 61.1146883,29.0455891 61.2582834,28.5122384 C61.3413164,28.2407144 61.3300809,27.9702986 61.3182973,27.683536 C61.3070618,27.4114578 61.2952783,27.1299595 61.36872,26.848184 C61.4240753,26.568071 61.4492867,26.2685634 61.4736759,25.978476 C61.5177958,25.448173 61.5638339,24.9001377 61.8019714,24.3842421 L61.8255385,24.3335392 L61.8797977,24.3227336 C62.4714421,24.2063662 63.0732258,24.1872487 63.6550049,24.1692394 C64.1405972,24.1537238 64.6426317,24.1382081 65.1304164,24.0653399 L65.1419259,24.0634005 L65.1537095,24.0642317 C65.7061666,24.1021896 66.2649267,24.1625898 66.8056003,24.2207736 C67.3295577,24.277572 67.8716015,24.3363098 68.4054243,24.3742678 C69.7777981,24.3277208 70.6311471,23.9675359 71,23.2737643 C70.3406686,22.6736408 69.0461211,21.7465802 67.4024514,21.8435531" id="Fill-7"></path>
            <path d="M9.83219941,43.3995305 L10.6570534,43.4773237 C10.6718044,44.0129122 10.6790294,44.5641874 10.6790294,45.0997759 L10.6790294,45.503148 C10.4162201,45.5963078 10.1678608,45.6430477 9.87615148,45.6430477 C8.70811006,45.6430477 7.93443314,44.6573471 7.93443314,42.9958382 C7.93443314,41.2805464 8.75928713,40.3412656 9.87615148,40.3412656 C10.1898368,40.3412656 10.4526462,40.4036922 10.7082305,40.5512752 L10.9487627,41.7152919 L11.3795533,41.7152919 L11.3795533,40.4187387 C10.9270877,40.147583 10.4454212,40 9.78132338,40 C8.13884039,40 7,41.2264433 7,42.9958382 C7,44.78124 8.10963935,46 9.7518213,46 C10.4162201,46 10.9343127,45.8136805 11.4963574,45.4874613 L11.4963574,45.1074592 C11.4963574,44.5254509 11.5035824,43.9818589 11.5183334,43.4539537 L12,43.3995305 L12,43.1126881 L9.83219941,43.1126881 L9.83219941,43.3995305 Z" id="Fill-9"></path>
            <path d="M14.641331,43.6908012 L12.9768827,43.6908012 C13.0444834,42.7050445 13.5968476,42.2804154 14.1488616,42.2804154 C14.7260946,42.2804154 15.125394,42.6905045 15.125394,43.2231454 C15.125394,43.5252226 15.0318739,43.6908012 14.641331,43.6908012 M16,43.5323442 C16,42.6186944 15.2865149,42 14.208056,42 C13.0532399,42 12,42.7626113 12,44.0071217 C12,45.2735905 12.9089317,46 14.1912434,46 C15.0150613,46 15.634676,45.6548961 15.9747811,45.0863501 L15.8049037,44.9857567 C15.4819615,45.3308605 15.1082312,45.5394659 14.5054291,45.5394659 C13.6308231,45.5394659 12.9936953,45.0433234 12.9681261,43.9712166 L15.9404553,43.9712166 C15.9831874,43.8563798 16,43.7121662 16,43.5323442" id="Fill-11"></path>
            <path d="M21.3820492,44.2846688 L21.3820492,43.4491118 C21.3820492,42.4287566 20.9536622,42 20.1875934,42 C19.635888,42 19.0756896,42.251277 18.5813969,42.7468171 L18.5154912,42.0811161 L18.3921728,42.0073187 L17,42.443699 L17,42.6653961 L17.6920098,42.7245559 C17.7086561,43.0645727 17.7249626,43.3457345 17.7249626,43.8113898 L17.7249626,44.2846688 C17.7249626,44.6692079 17.7164696,45.2605016 17.7001631,45.6819395 L17.0577524,45.7633605 L17.0577524,46 L19.207501,46 L19.207501,45.7633605 L18.6146895,45.6819395 C18.6061965,45.2681253 18.5980432,44.6765266 18.5980432,44.2846688 L18.5980432,43.0349928 C19.0512298,42.6653961 19.4381709,42.5101776 19.792499,42.5101776 C20.2782987,42.5101776 20.5089686,42.7468171 20.5089686,43.4414881 L20.5089686,44.2846688 C20.5089686,44.6911641 20.5008153,45.2681253 20.492662,45.6819395 L19.8499117,45.7633605 L19.8499117,46 L22,46 L22,45.7633605 L21.3986955,45.6819395 C21.3902025,45.2681253 21.3820492,44.6911641 21.3820492,44.2846688" id="Fill-13"></path>
            <path d="M22.641331,43.6908012 L20.9768827,43.6908012 C21.0444834,42.7050445 21.5968476,42.2804154 22.1488616,42.2804154 C22.7260946,42.2804154 23.125394,42.6905045 23.125394,43.2231454 C23.125394,43.5252226 23.0318739,43.6908012 22.641331,43.6908012 M24,43.5323442 C24,42.6186944 23.2865149,42 22.208056,42 C21.0532399,42 20,42.7626113 20,44.0071217 C20,45.2735905 20.9089317,46 22.1912434,46 C23.0150613,46 23.634676,45.6548961 23.9747811,45.0863501 L23.8049037,44.9857567 C23.4819615,45.3308605 23.1082312,45.5394659 22.5054291,45.5394659 C21.6308231,45.5394659 20.9936953,45.0433234 20.9681261,43.9712166 L23.9404553,43.9712166 C23.9831874,43.8563798 24,43.7121662 24,43.5323442" id="Fill-15"></path>
            <path d="M27.3968547,45.108078 C26.9610046,45.4317929 26.7665089,45.5326756 26.4863195,45.5326756 C26.0973281,45.5326756 25.8248415,45.3454492 25.8248415,44.9208516 C25.8248415,44.5612343 26.0039316,44.2446406 26.688518,43.9927305 C26.8522025,43.9354647 27.1166653,43.8562421 27.3968547,43.7841406 L27.3968547,45.108078 Z M28.5095884,45.6190194 C28.3304983,45.6190194 28.2139934,45.5035977 28.2139934,45.1439804 L28.2139934,43.374082 C28.2139934,42.3886952 27.7858461,42 26.836476,42 C25.879403,42 25.2490572,42.3815741 25.1168258,43.0002225 C25.147958,43.2088124 25.295595,43.3168163 25.5292466,43.3168163 C25.77028,43.3168163 25.9336436,43.17291 25.9959079,42.8705586 L26.1284602,42.3382538 C26.2995266,42.2952303 26.4474846,42.2806913 26.5874188,42.2806913 C27.1712268,42.2806913 27.3968547,42.4892812 27.3968547,43.2592538 L27.3968547,43.5541874 C27.0698066,43.6259921 26.7276739,43.719457 26.4628902,43.7915585 C25.3267271,44.1511757 25,44.5036718 25,45.0359766 C25,45.6549217 25.4823879,46 26.1204365,46 C26.6654096,46 26.9690283,45.784289 27.420284,45.3599881 C27.4979539,45.7480899 27.7781433,45.9857577 28.2139934,45.9857577 C28.5641499,45.9857577 28.8132071,45.8706327 29,45.5469179 L28.8677686,45.4172539 C28.7352162,45.5611602 28.6495226,45.6190194 28.5095884,45.6190194 Z" id="Fill-17"></path>
            <path d="M31.3862418,44.289927 L31.3862418,41.2163559 L31.4151281,40.0589785 L31.3067302,40 L30,40.3170855 L30,40.5453993 L30.6209053,40.6043778 L30.6209053,44.289927 C30.6209053,44.7395622 30.6137582,45.225983 30.6063133,45.6829145 L30,45.7640859 L30,46 L32,46 L32,45.7640859 L31.4008338,45.6829145 C31.3933889,45.225983 31.3862418,44.7395622 31.3862418,44.289927" id="Fill-19"></path>
            <path d="M35.0038144,45.7121875 C34.3022886,45.7121875 33.90178,45.1368593 33.90178,44.0072695 C33.90178,42.8705586 34.3022886,42.2806913 35.0038144,42.2806913 C35.6897648,42.2806913 36.1058487,42.8705586 36.1058487,44.0072695 C36.1058487,45.1368593 35.6897648,45.7121875 35.0038144,45.7121875 M35.0038144,42 C33.9558169,42 33,42.7049922 33,43.9998516 C33,45.2950078 33.9246662,46 35.0038144,46 C36.0673872,46 37,45.3021289 37,43.9998516 C37,42.6978711 36.0365544,42 35.0038144,42" id="Fill-21"></path>
            <path d="M36.7580747,44.4508475 C36.2590247,44.4508475 35.9597847,44.0175655 35.9597847,43.3599384 C35.9597847,42.6949153 36.2745408,42.2616333 36.7811906,42.2616333 C37.2954402,42.2616333 37.5949968,42.6872111 37.5949968,43.3374422 C37.5949968,44.0024653 37.2878404,44.4508475 36.7580747,44.4508475 Z M35.9597847,46.1540832 C36.1209626,46.1842835 36.2745408,46.1916795 36.520266,46.1916795 L37.4645345,46.1916795 C38.0402153,46.1916795 38.2552248,46.4832049 38.2552248,46.8342065 C38.2552248,47.3050847 37.748575,47.6711864 36.7735909,47.6711864 C36.0978467,47.6711864 35.6526282,47.4021572 35.6526282,46.8567026 C35.6526282,46.5802773 35.7523749,46.3784284 35.9597847,46.1540832 Z M37.9021533,42.3285054 C37.6333122,42.1118644 37.249525,42 36.7811906,42 C35.8138062,42 35.1994934,42.5155624 35.1994934,43.3525424 C35.1994934,43.8902928 35.4376187,44.2862866 35.8521216,44.5103236 C35.4221026,44.8841294 35.2609246,45.1528505 35.2609246,45.4446841 C35.2609246,45.7882897 35.4528182,45.9824345 35.8062065,46.0946071 C35.2378087,46.3485362 35,46.6323575 35,46.9836672 C35,47.5590139 35.5221659,48 36.7735909,48 C38.2093097,48 38.9385687,47.3050847 38.9385687,46.5651772 C38.9385687,45.9001541 38.5085497,45.5041602 37.5259658,45.5041602 L36.3970868,45.5041602 C35.9673844,45.5041602 35.8369221,45.3550077 35.8369221,45.1081664 C35.8369221,44.9214176 35.8983534,44.7719569 36.0440152,44.592604 C36.251425,44.6748844 36.4971501,44.7124807 36.7735909,44.7124807 C37.7333756,44.7124807 38.3549715,44.1818182 38.3549715,43.3525424 C38.3549715,43.0311248 38.270741,42.7620955 38.109563,42.5451464 L39,42.5901387 L39,42.0819723 L38.8619379,42 L37.9021533,42.3285054 Z" id="Fill-23"></path>
            <path d="M42.533938,42.2403345 L43.2111135,42.3230269 L42.2687684,45.2590719 L41.27028,42.3152842 L41.898798,42.2477675 L41.898798,42 L40.0138199,42 L40.0138199,42.2403345 L40.4396459,42.3004181 L41.9198157,46.2349662 L41.9057079,46.2801838 C41.7102138,46.8209364 41.4867919,47.241212 41.158857,47.519331 L41.0819837,47.4366386 C40.9005974,47.2189129 40.739941,47.0913127 40.5096092,47.0913127 C40.2861873,47.0913127 40.0489455,47.2189129 40,47.4666804 C40.00691,47.7822743 40.3351328,48 40.6981933,48 C41.2216224,48 41.7522493,47.5041553 42.212913,46.1600165 L43.5669762,42.3152842 L44,42.2403345 L44,42 L42.533938,42 L42.533938,42.2403345 Z" id="Fill-25"></path>
            <path d="M48.372009,45.6578623 L47.7935783,45.6578623 C47.7850569,44.8359261 47.7850569,43.997202 47.7850569,43.052714 L48.2810007,43.052714 C49.4794465,43.052714 50.0084532,43.4925574 50.0084532,44.36385 C50.0084532,45.2102966 49.438203,45.6578623 48.372009,45.6578623 M47.7935783,40.3340795 L48.372009,40.3340795 C49.3141318,40.3340795 49.7439498,40.6919978 49.7439498,41.473643 C49.7439498,42.3039731 49.2647079,42.7189703 48.2315768,42.7189703 L47.7850569,42.7189703 C47.7850569,41.9047566 47.7850569,41.1153889 47.7935783,40.3340795 M49.1569978,42.8495803 C50.2644352,42.6377168 50.6693708,42.0679351 50.6693708,41.4407387 C50.6693708,40.6023503 50.0166337,40 48.6528734,40 L46,40 L46,40.2927812 L46.8180517,40.3827644 C46.8347536,41.1724678 46.8347536,41.9702294 46.8347536,42.767991 L46.8347536,43.1668719 C46.8347536,43.997202 46.8347536,44.8114158 46.8180517,45.6172356 L46,45.706883 L46,46 L48.5042607,46 C50.3554435,46 51,45.1696698 51,44.3554561 C51,43.590263 50.4628127,43.0040291 49.1569978,42.8495803" id="Fill-27"></path>
            <path d="M52.3968547,45.108078 C51.9610046,45.4317929 51.7665089,45.5326756 51.4863195,45.5326756 C51.0973281,45.5326756 50.8248415,45.3454492 50.8248415,44.9208516 C50.8248415,44.5612343 51.0039316,44.2446406 51.688518,43.9927305 C51.8522025,43.9354647 52.1166653,43.8562421 52.3968547,43.7841406 L52.3968547,45.108078 Z M53.5095884,45.6190194 C53.3304983,45.6190194 53.2139934,45.5035977 53.2139934,45.1439804 L53.2139934,43.374082 C53.2139934,42.3886952 52.7858461,42 51.836476,42 C50.879403,42 50.2490572,42.3815741 50.1168258,43.0002225 C50.147958,43.2088124 50.295595,43.3168163 50.5292466,43.3168163 C50.77028,43.3168163 50.9336436,43.17291 50.9962288,42.8705586 L51.1284602,42.3382538 C51.2995266,42.2952303 51.4474846,42.2806913 51.5874188,42.2806913 C52.1712268,42.2806913 52.3968547,42.4892812 52.3968547,43.2592538 L52.3968547,43.5541874 C52.0698066,43.6259921 51.7276739,43.719457 51.4628902,43.7915585 C50.3267271,44.1511757 50,44.5036718 50,45.0359766 C50,45.6549217 50.4823879,46 51.1204365,46 C51.6654096,46 51.9690283,45.784289 52.420284,45.3599881 C52.4979539,45.7480899 52.7781433,45.9857577 53.2139934,45.9857577 C53.5641499,45.9857577 53.8132071,45.8706327 54,45.5469179 L53.8677686,45.4172539 C53.7352162,45.5611602 53.6495226,45.6190194 53.5095884,45.6190194 Z" id="Fill-29"></path>
            <path d="M59.3820492,44.2846688 L59.3820492,43.4491118 C59.3820492,42.4287566 58.9536622,42 58.1875934,42 C57.635888,42 57.0756896,42.251277 56.5813969,42.7468171 L56.5154912,42.0811161 L56.3921728,42.0073187 L55,42.443699 L55,42.6653961 L55.6920098,42.7245559 C55.7086561,43.0645727 55.7249626,43.3457345 55.7249626,43.8113898 L55.7249626,44.2846688 C55.7249626,44.6692079 55.7164696,45.2605016 55.7001631,45.6819395 L55.0577524,45.7633605 L55.0577524,46 L57.207501,46 L57.207501,45.7633605 L56.6146895,45.6819395 C56.6061965,45.2681253 56.5980432,44.6765266 56.5980432,44.2846688 L56.5980432,43.0349928 C57.0512298,42.6653961 57.4381709,42.5101776 57.792499,42.5101776 C58.2782987,42.5101776 58.5089686,42.7468171 58.5089686,43.4414881 L58.5089686,44.2846688 C58.5089686,44.6911641 58.5008153,45.2681253 58.492662,45.6819395 L57.8499117,45.7633605 L57.8499117,46 L60,46 L60,45.7633605 L59.3986955,45.6819395 C59.3902025,45.2681253 59.3820492,44.6911641 59.3820492,44.2846688" id="Fill-31"></path>
            <path d="M63.4132707,45.6902265 L61.8315915,43.3682931 L62.8945781,42.4690682 L63.7618714,42.373613 L63.7618714,42.122815 L61.5938136,42.122815 L61.5938136,42.373613 L62.3674686,42.49886 L60.6325314,44.0097279 L60.6325314,41.2162943 L60.6665498,40.0592795 L60.5392439,40 L59,40.3170695 L59,40.5453716 L59.7312198,40.6046512 L59.7312198,44.2900137 C59.7312198,44.7098343 59.7228028,45.248214 59.7143859,45.6829305 L59.0084169,45.7637939 L59.0084169,46 L61.3300835,46 L61.3300835,45.7637939 L60.6497159,45.6829305 C60.641299,45.2849977 60.6325314,44.7982976 60.6325314,44.3857729 L61.19401,43.9066727 L62.5884127,46 L64,46 L64,45.7637939 L63.4132707,45.6902265 Z" id="Fill-33"></path>
        </g>
    </g>
</svg>