<?xml version="1.0" encoding="utf-8"?>
<!-- Generator: Adobe Illustrator 24.0.0, SVG Export Plug-In . SVG Version: 6.00 Build 0)  -->
<svg version="1.1" id="图层_1" xmlns="http://www.w3.org/2000/svg" xmlns:xlink="http://www.w3.org/1999/xlink" x="0px" y="0px"
	 viewBox="0 0 53 53" style="enable-background:new 0 0 53 53;" xml:space="preserve">
<style type="text/css">
	.st0{fill-rule:evenodd;clip-rule:evenodd;fill:#FFFFFF;}
</style>
<g>
	<title>分组</title>
	<desc>Created with Sketch.</desc>
	<path class="st0" d="M45.1,52.7H45H0.6v-52h51.9v44.5l0,0v0L45.1,52.7z M45.5,49.9l4.1-4.1h-4.1V49.9z M51.3,1.9H1.8v49.5h41.9
		v-6.2V44H45h6.3V1.9z M39.5,21.3c-2.3-1.1-4.1-2.4-5.4-3.9c-1.6,1.5-4,2.8-7.2,4c-0.1,0-0.2,0-0.2-0.1c0,0,0-0.1,0.1-0.2
		c2.8-0.9,5-2.5,6.7-4.7c-1.3-1.8-2.2-4-2.6-6.7h0.2c0.3,2,1.4,3.9,3.2,5.6c2.4-4.6,2.7-6.4,2.7-6.4l1.8,0.8c0,0,0.1,0,0.1,0.1
		l-0.1,0.1l-0.3,0.3c-0.8,2.4-1.9,4.4-3.3,5.9c1.9,1.5,4.3,2.6,7,3.4c0.1,0,0.1,0.1,0.1,0.1c0,0.1-0.1,0.1-0.3,0.1
		C41.4,19.7,40.5,20.2,39.5,21.3z M41.8,9L39.3,9l0.4-0.4l0.9-0.9l1.3,1.1C42,8.9,41.9,8.9,41.8,9z M35.2,7.6v1.2h0v0.4l-5.8,0.1
		c-1,0-1.7,0.1-2.1,0.3l-0.5-0.6l6.6-0.1l-0.1-2.7c0-0.1,0-0.2,0.1-0.1l1.9,0.6c0.1,0,0.2,0.1,0.1,0.3C35.3,6.9,35.2,7.2,35.2,7.6z
		 M29.3,26.5c-0.2-1.1-0.5-1.9-1-2.3c0-0.1,0-0.1,0.1-0.1c1.3,0.4,2,0.9,2.1,1.3c0.1,0.5-0.2,0.9-0.7,1.4
		C29.6,26.8,29.4,26.7,29.3,26.5z M30,27.9l1.2,0.8c0.1,0,0.1,0.1,0,0.1l-0.3,0.5l-0.3,6.1l2.1-1.7c0.1,0,0.2,0,0.1,0.1L30.7,37
		c-0.1,0.1-0.3,0.3-0.5,0.6c-0.3,0.4-0.6,0.6-0.6,0.8l-0.1,0.1c0,0.1-0.1,0.1-0.2,0l-1.1-1c-0.1-0.1-0.1-0.2,0-0.2
		c0.3-0.1,0.8-0.4,1.4-0.9l-0.1-7.2l-1.1,0.1c-0.2,0-0.4,0-0.6,0.1c-0.3,0-0.5,0-0.6,0.1l-0.6-0.5l2.8-0.1L30,27.9z M26.2,43.9
		L26.2,43.9C26.1,44,26,44,25.9,44c-0.2,0-0.3-0.1-0.3-0.3c0-0.2,0.2-0.3,0.7-0.4c0-0.1,0-0.2-0.2-0.2c-0.1,0-0.2,0.1-0.3,0.1
		l-0.1-0.2c0.1-0.1,0.3-0.1,0.5-0.1c0.3,0,0.4,0.2,0.4,0.5V44h-0.2L26.2,43.9z M26.2,43.5c-0.3,0-0.5,0.1-0.5,0.2
		c0,0.1,0.1,0.1,0.2,0.1c0.1,0,0.2,0,0.3-0.1V43.5z M25.4,36.6c-0.6,0-1.2,0.4-1.9,1c-1.9-1.7-2.8-3.6-2.8-5.9
		c-0.2,0.1-0.5,0.2-0.9,0.3c-0.4,0.2-0.7,0.3-0.9,0.4c0.6,1.2,0.7,2.7,0.5,4.5c-0.3,1.2-1.1,2-2.5,2.5c0,0-0.1,0-0.1,0v-0.2
		c0-0.6-0.2-1.1-0.6-1.4c0,0-0.1-0.1-0.1-0.1c0,0,0-0.1,0.1-0.1c1,0.2,1.5,0,1.5-0.6c0.3-1,0.4-2,0.3-2.8c-1.9,1.6-4.5,3.1-7.8,4.5
		c-0.1,0-0.2,0-0.2,0c0-0.1,0-0.2,0.1-0.2c2.7-1.3,5.3-3.3,7.8-5.9c0-0.2-0.1-0.4-0.2-0.6c-1.9,1.5-4.1,2.8-6.8,3.9
		c-0.1,0-0.2,0-0.1-0.1c2.5-1.5,4.6-3.2,6.3-5.1c0,0,0-0.1-0.1-0.1c0-0.1-0.1-0.1-0.1-0.1c-1.6,0.9-3.5,1.9-5.6,2.8
		c-0.1,0-0.2,0-0.2-0.1c0,0,0-0.1,0.1-0.1c2.3-1.3,4.2-2.7,5.7-4.3h-1.2c-0.4,0-1,0.1-1.6,0.2c0,0-0.1,0-0.1,0l-0.5-0.4l6.3-0.3
		l0.8-0.8l1.1,1c0.1,0.1,0.1,0.2,0,0.2l-4.4,0.1l1,0.6c0.1,0.1,0.1,0.1,0,0.1l-0.3,0.1c-0.1,0-0.2,0.1-0.4,0.3
		c-0.3,0.2-0.4,0.3-0.5,0.3c0.6,0.6,1.2,1.3,1.5,2.1c1.5-1,2.6-2,3.3-2.8l1.2,1.1c0.1,0.1,0.1,0.2,0,0.2c0,0,0,0-0.1,0
		c-0.6,0.2-1.4,0.5-2.4,0.9c0.3,1.7,1.8,3.2,4.6,4.7c0.1,0,0.1,0.1,0.1,0.2C25.6,36.5,25.5,36.6,25.4,36.6z M24.5,26.9
		c-0.6,0-1.5,0.3-2.5,0.8c-0.1,0-0.2,0.1-0.2,0.1c0,0,0-0.1,0-0.2l0.5-1.4l-0.4,0l1-1l1.7,1.4C24.7,26.7,24.7,26.9,24.5,26.9z
		 M24,10.2l0.1,3.7l0.1,0.4c0.1,0.2,0,0.3-0.2,0.3c-1.1-0.1-3-0.2-5.7-0.1v3v1.8c-0.2,0.8-0.7,1.5-1.4,1.9c-0.1,0-0.2,0-0.3-0.3
		l0.1-3.2v-3.3c-0.6,0-1.5,0-2.6,0.1c-0.6,0-1.1,0-1.3,0v0.3c-0.5,0.9-1,1.2-1.5,1l-0.1-6.8c0-0.1,0-0.2,0.1-0.2c0,0,0.1,0,0.1,0.1
		l1.2,0.7l4-0.1V8.2l-0.1-2.8l1.9,0.5c0.1,0,0.2,0.1,0.1,0.2c-0.1,0.1-0.2,0.3-0.3,0.6V14l3.9-0.1l-0.1-4.1l-0.4,0l1.1-1.4l1.5,0.9
		c0.1,0,0.1,0.1,0,0.2L24,10.2z M16.7,10l-3.9,0.1v4.1l3.9-0.1V10z M12.7,25.5c0.1-0.1,0.2-0.1,0.3,0l0.4,0.7l3.6-0.1l-0.1-2.3
		c0-0.1,0-0.2,0.1-0.1l1.8,0.5c0.1,0.1,0.1,0.2,0,0.3c-0.1,0.3-0.2,0.5-0.2,0.7V26v0.4l-5.3,0.2c0,1.2-0.5,2.2-1.4,3
		c-0.2,0.2-0.3,0.2-0.4,0.1c-0.3-0.5-0.5-1-0.4-1.4C12.1,27.7,12.6,26.8,12.7,25.5z M10.8,42.6c0.2,0,0.3,0.1,0.4,0.2l-0.1,0.1
		c-0.1-0.1-0.2-0.1-0.3-0.1c-0.3,0-0.4,0.2-0.4,0.5c0,0.3,0.2,0.5,0.4,0.5c0.1,0,0.2-0.1,0.3-0.2l0.1,0.1C11.2,44,11,44,10.8,44
		c-0.4,0-0.7-0.3-0.7-0.7C10.1,42.8,10.4,42.6,10.8,42.6z M11.9,42.9l0,0.2c0.1-0.1,0.2-0.2,0.4-0.2c0.2,0,0.4,0.2,0.4,0.4V44h-0.2
		v-0.6c0-0.2-0.1-0.3-0.2-0.3c-0.1,0-0.2,0.1-0.3,0.1V44h-0.2v-1.6h0.2V42.9z M13.3,42.5c0.1,0,0.2,0.1,0.2,0.1
		c0,0.1-0.1,0.1-0.2,0.1c-0.1,0-0.2-0.1-0.2-0.1C13.1,42.5,13.2,42.5,13.3,42.5z M13.4,44h-0.2v-1.1h0.2V44z M14.1,43.1L14.1,43.1
		c0.1-0.1,0.2-0.2,0.4-0.2c0.2,0,0.4,0.2,0.4,0.4V44h-0.2v-0.6c0-0.2-0.1-0.3-0.2-0.3c-0.1,0-0.2,0.1-0.3,0.1V44h-0.2v-1.1h0.2
		L14.1,43.1z M15.8,42.9c0.3,0,0.5,0.2,0.5,0.5c0,0,0,0.1,0,0.1h-0.7c0,0.2,0.2,0.3,0.4,0.3c0.1,0,0.2,0,0.3-0.1l0.1,0.1
		C16.1,44,16,44,15.9,44c-0.3,0-0.6-0.2-0.6-0.6C15.3,43.1,15.6,42.9,15.8,42.9z M16.1,43.4c0-0.2-0.1-0.3-0.3-0.3
		c-0.1,0-0.3,0.1-0.3,0.3H16.1z M17,43.9c0.1,0,0.2-0.1,0.2-0.1c0-0.1-0.1-0.1-0.3-0.2c-0.2-0.1-0.3-0.1-0.3-0.3
		c0-0.2,0.2-0.3,0.4-0.3c0.2,0,0.3,0.1,0.4,0.1l-0.1,0.1c-0.1-0.1-0.2-0.1-0.3-0.1c-0.1,0-0.2,0.1-0.2,0.1c0,0.1,0.1,0.1,0.2,0.2
		c0.2,0.1,0.3,0.1,0.3,0.3c0,0.2-0.2,0.3-0.4,0.3c-0.2,0-0.3-0.1-0.4-0.1l0.1-0.1C16.8,43.8,16.9,43.9,17,43.9z M18.3,42.9
		c0.3,0,0.5,0.2,0.5,0.5c0,0,0,0.1,0,0.1H18c0,0.2,0.2,0.3,0.4,0.3c0.1,0,0.2,0,0.3-0.1l0.1,0.1C18.7,44,18.5,44,18.4,44
		c-0.3,0-0.6-0.2-0.6-0.6C17.8,43.1,18.1,42.9,18.3,42.9z M18.6,43.4c0-0.2-0.1-0.3-0.3-0.3c-0.1,0-0.3,0.1-0.3,0.3H18.6z
		 M20.5,42.6c0.2,0,0.4,0.1,0.5,0.2l-0.1,0.1c-0.1-0.1-0.2-0.1-0.3-0.1c-0.3,0-0.5,0.2-0.5,0.5c0,0.3,0.2,0.5,0.5,0.5
		c0.1,0,0.2,0,0.2-0.1v-0.3h-0.3v-0.2H21v0.6C20.9,44,20.7,44,20.5,44c-0.4,0-0.7-0.3-0.7-0.7C19.8,42.8,20.1,42.6,20.5,42.6z
		 M21.9,42.9c0.3,0,0.5,0.2,0.5,0.5c0,0,0,0.1,0,0.1h-0.7c0,0.2,0.2,0.3,0.4,0.3c0.1,0,0.2,0,0.3-0.1l0.1,0.1C22.2,44,22.1,44,22,44
		c-0.3,0-0.6-0.2-0.6-0.6C21.4,43.1,21.7,42.9,21.9,42.9z M22.2,43.4c0-0.2-0.1-0.3-0.3-0.3c-0.1,0-0.3,0.1-0.3,0.3H22.2z M23,43.1
		L23,43.1c0.1-0.1,0.2-0.2,0.4-0.2c0.2,0,0.4,0.2,0.4,0.4V44h-0.2v-0.6c0-0.2-0.1-0.3-0.2-0.3c-0.1,0-0.2,0.1-0.3,0.1V44h-0.2v-1.1
		H23L23,43.1z M24.7,42.9c0.3,0,0.5,0.2,0.5,0.5c0,0,0,0.1,0,0.1h-0.7c0,0.2,0.2,0.3,0.4,0.3c0.1,0,0.2,0,0.3-0.1l0.1,0.1
		C25.1,44,24.9,44,24.8,44c-0.3,0-0.6-0.2-0.6-0.6C24.2,43.1,24.5,42.9,24.7,42.9z M25,43.4c0-0.2-0.1-0.3-0.3-0.3
		c-0.1,0-0.3,0.1-0.3,0.3H25z M27.2,43.8C27.2,43.8,27.2,43.9,27.2,43.8C27.3,43.9,27.3,43.9,27.2,43.8l0.1,0.2c0,0-0.1,0-0.1,0
		C27,44,27,43.9,27,43.8v-1.3h0.2V43.8z M28.2,42.9c0.3,0,0.5,0.2,0.5,0.6c0,0.4-0.3,0.6-0.5,0.6c-0.3,0-0.5-0.2-0.5-0.6
		C27.7,43.1,27.9,42.9,28.2,42.9z M28.2,43.9c0.2,0,0.3-0.2,0.3-0.4c0-0.2-0.1-0.4-0.3-0.4c-0.2,0-0.3,0.2-0.3,0.4
		C27.9,43.7,28,43.9,28.2,43.9z M29.3,44L29.3,44c-0.1,0-0.1-0.1-0.1-0.2c0-0.1,0.1-0.2,0.1-0.2v0c-0.1-0.1-0.1-0.2-0.1-0.3
		c0-0.2,0.2-0.4,0.4-0.4c0.1,0,0.1,0,0.2,0h0.4v0.2h-0.2c0,0,0.1,0.1,0.1,0.2c0,0.2-0.2,0.4-0.4,0.4c-0.1,0-0.1,0-0.2,0
		c0,0-0.1,0.1-0.1,0.1c0,0.1,0,0.1,0.2,0.1h0.2c0.3,0,0.4,0.1,0.4,0.3c0,0.2-0.2,0.4-0.6,0.4c-0.3,0-0.5-0.1-0.5-0.3
		C29.1,44.1,29.2,44,29.3,44z M29.6,43.5c0.1,0,0.2-0.1,0.2-0.2c0-0.1-0.1-0.2-0.2-0.2c-0.1,0-0.2,0.1-0.2,0.2
		C29.4,43.4,29.5,43.5,29.6,43.5z M29.6,44.4c0.2,0,0.3-0.1,0.3-0.2c0-0.1-0.1-0.1-0.2-0.1h-0.2c-0.1,0-0.1,0-0.2,0
		c-0.1,0-0.1,0.1-0.1,0.2C29.3,44.3,29.4,44.4,29.6,44.4z M30.7,42.9l0.2,0.6c0,0.1,0.1,0.2,0.1,0.3h0l0.1-0.3l0.2-0.6h0.2l-0.4,1.1
		c-0.1,0.2-0.2,0.4-0.5,0.4c-0.1,0-0.1,0-0.1,0l0-0.2c0,0,0.1,0,0.1,0c0.1,0,0.2-0.1,0.2-0.2l0-0.1l-0.5-1.1H30.7z M33.4,33.6
		L33.3,32l1.2,0.6l3.2-0.1l0.6-0.7l1.5,1c0,0,0.1,0.1,0.1,0.2l-0.5,0.6l0.1,3.1c0,0.7-0.5,1.4-1.1,2c-0.3,0.3-0.4,0-0.5-0.4
		c0-0.4,0-4.7,0-4.7c0-0.6-0.2-0.8-0.6-0.7L34.5,33v2.1l3-0.1c0.1,0,0.1,0,0.1,0.1c0,0.1,0,0.1-0.1,0.1l-3,0.1l0,3.2
		c-0.1,0.3-0.4,0.7-0.8,1.1c-0.2,0.2-0.4,0.2-0.5-0.1l0.1-2.9L33.4,33.6z M40.9,28.2c-0.1,0-0.2,0.1-0.3,0.3
		c-0.6,0.7-1.3,1.4-2.1,2.2l-0.1-0.1c0.7-1.5,1.1-2.6,1.2-3.3l1.3,0.8C41,28,41,28.1,40.9,28.2z M34.1,29.1c0,0.4-0.2,0.7-0.6,1
		c-0.3,0.2-0.5,0.1-0.5-0.2c-0.2-1-0.5-1.7-0.9-2c-0.1-0.1-0.1-0.2,0.1-0.1C33.4,28.3,34,28.7,34.1,29.1z M39.7,25.6l1,0.8
		c0,0.1,0,0.1-0.1,0.1L38,26.7v4.2l0,0v0.4l-4.7,0.1c-0.7,0-1.2,0.1-1.6,0.2l-0.5-0.5l3.2-0.1l0.1-4.1h-0.2c-0.6,0-1.2,0-1.7,0.1
		l-0.5-0.5l2.1-0.1v-1.6c0-0.2-0.1-0.5-0.1-0.8c0-0.1,0-0.2,0.1-0.1l1,0.5c0.1,0,0.2,0.1,0.1,0.2l-0.1,1.7l1.7-0.1l0.7-2.8l1.4,0.8
		c0.1,0,0.1,0.1,0,0.2l-0.3,0.3l-0.8,1.4h0.8L39.7,25.6z M36.8,26.7l-1.1,0.1l-0.1,4.1h1.2V26.7z M40.2,30.8L40.2,30.8l0.7-0.8
		l1.1,1c0.1,0.1,0.1,0.2,0,0.2l-2.1,0.1L40.2,30.8z"/>
</g>
</svg>
