<?xml version="1.0" encoding="utf-8"?>
<!-- Generator: Adobe Illustrator 24.0.0, SVG Export Plug-In . SVG Version: 6.00 Build 0)  -->
<svg version="1.1" id="图层_1" xmlns="http://www.w3.org/2000/svg" xmlns:xlink="http://www.w3.org/1999/xlink" x="0px" y="0px"
	 viewBox="0 0 55 55" style="enable-background:new 0 0 55 55;" xml:space="preserve">
<style type="text/css">
	.st0{fill-rule:evenodd;clip-rule:evenodd;fill:#FFFFFF;}
</style>
<title>分组</title>
<desc>Created with Sketch.</desc>
<g>
	<title>分组</title>
	<desc>Created with Sketch.</desc>
	<path class="st0" d="M46.8,54.7h-0.1H0.3V0.3h54.3v46.5l0,0l0,0L46.8,54.7z M47.2,51.7l4.3-4.3h-4.3V51.7z M53.3,1.6H1.5v51.8h43.8
		v-6.5v-1.3h1.4h6.6V1.6z M40.9,21.8c-2.4-1.2-4.3-2.5-5.6-4.1c-1.7,1.6-4.2,2.9-7.5,4.2c-0.1,0-0.2,0-0.2-0.1c0,0,0-0.1,0.1-0.2
		c2.9-0.9,5.2-2.6,7-4.9c-1.4-1.9-2.3-4.2-2.7-7h0.2c0.3,2.1,1.5,4.1,3.3,5.9c2.5-4.8,2.8-6.7,2.8-6.7l1.9,0.8c0,0,0.1,0,0.1,0.1
		l-0.1,0.1l-0.3,0.3c-0.8,2.5-2,4.6-3.5,6.2c2,1.6,4.5,2.7,7.3,3.6c0.1,0,0.1,0.1,0.1,0.1c0,0.1-0.1,0.1-0.3,0.1
		C42.9,20.2,42,20.7,40.9,21.8z M43.3,9h-2.6l0.4-0.4l0.9-0.9l1.4,1.2C43.6,8.9,43.5,8.9,43.3,9z M36.4,7.5v1.3l0,0v0.4l-6.1,0.1
		c-1,0-1.8,0.1-2.2,0.3L27.7,9l6.9-0.1l-0.1-2.8c0-0.1,0-0.2,0.1-0.1l2,0.6c0.1,0,0.2,0.1,0.1,0.3C36.5,6.8,36.4,7.1,36.4,7.5z
		 M30.3,27.3c-0.2-1.2-0.5-2-1-2.4c0-0.1,0-0.1,0.1-0.1c1.4,0.4,2.1,0.9,2.2,1.4c0.1,0.5-0.2,0.9-0.7,1.5
		C30.6,27.6,30.4,27.5,30.3,27.3z M31,28.7l1.3,0.8c0.1,0,0.1,0.1,0,0.1l-0.3,0.5l-0.3,6.4l2.2-1.8c0.1,0,0.2,0,0.1,0.1l-2.2,3.3
		c-0.1,0.1-0.3,0.3-0.5,0.6c-0.3,0.4-0.6,0.6-0.6,0.8l-0.1,0.1c0,0.1-0.1,0.1-0.2,0l-1.2-1c-0.1-0.1-0.1-0.2,0-0.2
		c0.3-0.1,0.8-0.4,1.5-0.9l-0.1-7.5l-1.2,0.1c-0.2,0-0.4,0-0.6,0.1c-0.3,0-0.5,0-0.6,0.1l-0.6-0.5l2.9-0.1L31,28.7z M27,45.5
		L27,45.5c-0.1,0.1-0.2,0.1-0.3,0.1c-0.2,0-0.3-0.1-0.3-0.3c0-0.2,0.2-0.3,0.7-0.4c0-0.1,0-0.2-0.2-0.2c-0.1,0-0.2,0.1-0.3,0.1
		l-0.1-0.2c0.1-0.1,0.3-0.1,0.5-0.1c0.3,0,0.4,0.2,0.4,0.5v0.6h-0.2L27,45.5z M27,45.1c-0.3,0-0.5,0.1-0.5,0.2
		c0,0.1,0.1,0.1,0.2,0.1c0.1,0,0.2,0,0.3-0.1V45.1z M26.2,37.8c-0.6,0-1.3,0.4-2,1c-2-1.8-2.9-3.8-2.9-6.2c-0.2,0.1-0.5,0.2-0.9,0.3
		c-0.4,0.2-0.7,0.3-0.9,0.4c0.6,1.3,0.7,2.8,0.5,4.7c-0.3,1.3-1.2,2.1-2.6,2.6h-0.1v-0.2c0-0.6-0.2-1.2-0.6-1.5L16.5,39
		c0,0,0-0.1,0.1-0.1c1,0.2,1.6,0,1.6-0.6c0.3-1,0.4-2.1,0.3-2.9c-2,1.7-4.7,3.2-8.2,4.7c-0.1,0-0.2,0-0.2,0c0-0.1,0-0.2,0.1-0.2
		c2.8-1.4,5.5-3.5,8.2-6.2c0-0.2-0.1-0.4-0.2-0.6c-2,1.6-4.3,2.9-7.1,4.1c-0.1,0-0.2,0-0.1-0.1c2.6-1.6,4.8-3.3,6.6-5.3
		c0,0,0-0.1-0.1-0.1c0-0.1-0.1-0.1-0.1-0.1c-1.7,0.9-3.7,2-5.9,2.9c-0.1,0-0.2,0-0.2-0.1c0,0,0-0.1,0.1-0.1c2.4-1.4,4.4-2.8,6-4.5
		h-1.3c-0.4,0-1,0.1-1.7,0.2h-0.1l-0.5-0.4l6.6-0.3l0.8-0.8l1.2,1c0.1,0.1,0.1,0.2,0,0.2l-4.6,0.1l1,0.6c0.1,0.1,0.1,0.1,0,0.1
		l-0.3,0.1c-0.1,0-0.2,0.1-0.4,0.3c-0.3,0.2-0.4,0.3-0.5,0.3c0.6,0.6,1.3,1.4,1.6,2.2c1.6-1,2.7-2.1,3.5-2.9l1.3,1.2
		c0.1,0.1,0.1,0.2,0,0.2c0,0,0,0-0.1,0c-0.6,0.2-1.5,0.5-2.5,0.9c0.3,1.8,1.9,3.3,4.8,4.9c0.1,0,0.1,0.1,0.1,0.2
		C26.4,37.7,26.3,37.8,26.2,37.8z M25.3,27.7c-0.6,0-1.6,0.3-2.6,0.8c-0.1,0-0.2,0.1-0.2,0.1s0-0.1,0-0.2L23,27h-0.4l1-1l1.8,1.5
		C25.5,27.5,25.5,27.7,25.3,27.7z M24.7,10.2l0.1,3.9l0.1,0.4c0.1,0.2,0,0.3-0.2,0.3c-1.2-0.1-3.1-0.2-6-0.1v3.1v1.9
		c-0.2,0.8-0.7,1.6-1.5,2c-0.1,0-0.2,0-0.3-0.3l0.1-3.3v-3.5c-0.6,0-1.6,0-2.7,0.1c-0.6,0-1.2,0-1.4,0V15c-0.5,0.9-1,1.3-1.6,1
		L11.3,9c0-0.1,0-0.2,0.1-0.2c0,0,0.1,0,0.1,0.1l1.3,0.7L17,9.5V8.1l-0.1-2.9l2,0.5C19,5.7,19.1,5.8,19,6c-0.1,0.1-0.2,0.3-0.3,0.6
		v7.6l4.1-0.1l-0.1-4.3h-0.4l1.2-1.5l1.6,0.9c0.1,0,0.1,0.1,0,0.2L24.7,10.2z M17.1,10L13,10.1v4.3l4.1-0.1V10z M12.9,26.2
		c0.1-0.1,0.2-0.1,0.3,0l0.4,0.7l3.8-0.1l-0.1-2.4c0-0.1,0-0.2,0.1-0.1l1.9,0.5c0.1,0.1,0.1,0.2,0,0.3c-0.1,0.3-0.2,0.5-0.2,0.7v0.8
		v0.4l-5.5,0.2c0,1.3-0.5,2.3-1.5,3.1c-0.2,0.2-0.3,0.2-0.4,0.1c-0.3-0.5-0.5-1-0.4-1.5C12.3,28.5,12.8,27.6,12.9,26.2z M10.9,44.1
		c0.2,0,0.3,0.1,0.4,0.2l-0.1,0.1c-0.1-0.1-0.2-0.1-0.3-0.1c-0.3,0-0.4,0.2-0.4,0.5s0.2,0.5,0.4,0.5c0.1,0,0.2-0.1,0.3-0.2l0.1,0.1
		c0,0.3-0.2,0.3-0.4,0.3c-0.4,0-0.7-0.3-0.7-0.7C10.2,44.3,10.5,44.1,10.9,44.1z M12.1,44.4v0.2c0.1-0.1,0.2-0.2,0.4-0.2
		c0.2,0,0.4,0.2,0.4,0.4v0.7h-0.2V45c0-0.2-0.1-0.3-0.2-0.3s-0.2,0.1-0.3,0.1v0.8H12v-1.7h0.2v0.5H12.1z M13.5,44
		c0.1,0,0.2,0.1,0.2,0.1c0,0.1-0.1,0.1-0.2,0.1c-0.1,0-0.2-0.1-0.2-0.1C13.3,44,13.4,44,13.5,44z M13.6,45.6h-0.2v-1.2h0.2V45.6z
		 M14.4,44.6L14.4,44.6c0.1-0.1,0.2-0.2,0.4-0.2c0.2,0,0.4,0.2,0.4,0.4v0.7H15V45c0-0.2-0.1-0.3-0.2-0.3c-0.1,0-0.2,0.1-0.3,0.1v0.8
		h-0.2v-1.2h0.2L14.4,44.6z M16.2,44.4c0.3,0,0.5,0.2,0.5,0.5v0.1H16c0,0.2,0.2,0.3,0.4,0.3c0.1,0,0.2,0,0.3-0.1l0.1,0.1
		c-0.3,0.2-0.4,0.2-0.5,0.2c-0.3,0-0.6-0.2-0.6-0.6C15.6,44.6,16,44.4,16.2,44.4z M16.5,45c0-0.2-0.1-0.3-0.3-0.3
		c-0.1,0-0.3,0.1-0.3,0.3H16.5z M17.4,45.5c0.1,0,0.2-0.1,0.2-0.1c0-0.1-0.1-0.1-0.3-0.2c-0.2-0.1-0.3-0.1-0.3-0.3s0.2-0.3,0.4-0.3
		c0.2,0,0.3,0.1,0.4,0.1l-0.1,0.1c-0.1-0.1-0.2-0.1-0.3-0.1s-0.2,0.1-0.2,0.1c0,0.1,0.1,0.1,0.2,0.2c0.2,0.1,0.3,0.1,0.3,0.3
		c0,0.2-0.2,0.3-0.4,0.3c-0.2,0-0.3-0.1-0.4-0.1l0.1-0.1C17.2,45.4,17.3,45.5,17.4,45.5z M18.8,44.4c0.3,0,0.5,0.2,0.5,0.5v0.1h-0.8
		c0,0.2,0.2,0.3,0.4,0.3c0.1,0,0.2,0,0.3-0.1l0.1,0.1c-0.1,0.2-0.3,0.2-0.4,0.2c-0.3,0-0.6-0.2-0.6-0.6
		C18.3,44.6,18.6,44.4,18.8,44.4z M19.1,45c0-0.2-0.1-0.3-0.3-0.3c-0.1,0-0.3,0.1-0.3,0.3H19.1z M21.1,44.1c0.2,0,0.4,0.1,0.5,0.2
		l-0.1,0.1c-0.1-0.1-0.2-0.1-0.3-0.1c-0.3,0-0.5,0.2-0.5,0.5s0.2,0.5,0.5,0.5c0.1,0,0.2,0,0.2-0.1V45h-0.3v-0.2h0.5v0.6
		c-0.1,0.2-0.3,0.2-0.5,0.2c-0.4,0-0.7-0.3-0.7-0.7C20.3,44.3,20.7,44.1,21.1,44.1z M22.5,44.4c0.3,0,0.5,0.2,0.5,0.5v0.1h-0.7
		c0,0.2,0.2,0.3,0.4,0.3c0.1,0,0.2,0,0.3-0.1l0.1,0.1c-0.3,0.2-0.4,0.2-0.5,0.2c-0.3,0-0.6-0.2-0.6-0.6C22,44.6,22.3,44.4,22.5,44.4
		z M22.9,45c0-0.2-0.1-0.3-0.3-0.3c-0.1,0-0.3,0.1-0.3,0.3H22.9z M23.7,44.6L23.7,44.6c0.1-0.1,0.2-0.2,0.4-0.2
		c0.2,0,0.4,0.2,0.4,0.4v0.7h-0.2V45c0-0.2-0.1-0.3-0.2-0.3c-0.1,0-0.2,0.1-0.3,0.1v0.8h-0.2v-1.2h0.1V44.6z M25.5,44.4
		c0.3,0,0.5,0.2,0.5,0.5v0.1h-0.7c0,0.2,0.2,0.3,0.4,0.3c0.1,0,0.2,0,0.3-0.1l0.1,0.1c-0.2,0.2-0.4,0.2-0.5,0.2
		c-0.3,0-0.6-0.2-0.6-0.6C24.9,44.6,25.3,44.4,25.5,44.4z M25.8,45c0-0.2-0.1-0.3-0.3-0.3c-0.1,0-0.3,0.1-0.3,0.3H25.8z M28.1,45.4
		C28.1,45.4,28.1,45.5,28.1,45.4C28.2,45.5,28.2,45.5,28.1,45.4l0.1,0.2h-0.1c-0.2,0-0.2-0.1-0.2-0.2V44h0.2V45.4z M29.1,44.4
		c0.3,0,0.5,0.2,0.5,0.6s-0.3,0.6-0.5,0.6c-0.3,0-0.5-0.2-0.5-0.6C28.6,44.6,28.8,44.4,29.1,44.4z M29.1,45.5c0.2,0,0.3-0.2,0.3-0.4
		c0-0.2-0.1-0.4-0.3-0.4c-0.2,0-0.3,0.2-0.3,0.4C28.8,45.3,28.9,45.5,29.1,45.5z M30.3,45.6L30.3,45.6c-0.1,0-0.1-0.1-0.1-0.2
		c0-0.1,0.1-0.2,0.1-0.2l0,0c-0.1-0.1-0.1-0.2-0.1-0.3c0-0.2,0.2-0.4,0.4-0.4c0.1,0,0.1,0,0.2,0h0.4v0.2H31c0,0,0.1,0.1,0.1,0.2
		c0,0.2-0.2,0.4-0.4,0.4c-0.1,0-0.1,0-0.2,0l-0.1,0.1c0,0.1,0,0.1,0.2,0.1h0.2c0.3,0,0.4,0.1,0.4,0.3s-0.2,0.4-0.6,0.4
		c-0.3,0-0.5-0.1-0.5-0.3C30.1,45.7,30.2,45.6,30.3,45.6z M30.6,45.1c0.1,0,0.2-0.1,0.2-0.2c0-0.1-0.1-0.2-0.2-0.2
		c-0.1,0-0.2,0.1-0.2,0.2S30.5,45.1,30.6,45.1z M30.6,46c0.2,0,0.3-0.1,0.3-0.2c0-0.1-0.1-0.1-0.2-0.1h-0.2c-0.1,0-0.1,0-0.2,0
		c-0.1,0-0.1,0.1-0.1,0.2C30.3,45.9,30.4,46,30.6,46z M31.7,44.4l0.2,0.6c0,0.1,0.1,0.2,0.1,0.3l0,0l0.1-0.3l0.2-0.6h0.2l-0.4,1.2
		c-0.1,0.2-0.2,0.4-0.5,0.4c-0.1,0-0.1,0-0.1,0v-0.2h0.1c0.1,0,0.2-0.1,0.2-0.2v-0.1l-0.5-1.2h0.4V44.4z M34.6,34.7L34.5,33l1.3,0.6
		l3.3-0.1l0.6-0.7l1.6,1c0,0,0.1,0.1,0.1,0.2l-0.5,0.6l0.1,3.2c0,0.7-0.5,1.5-1.2,2.1c-0.3,0.3-0.4,0-0.5-0.4c0-0.4,0-4.9,0-4.9
		c0-0.6-0.2-0.8-0.6-0.7l-2.9,0.1v2.2l3.1-0.1c0.1,0,0.1,0,0.1,0.1c0,0.1,0,0.1-0.1,0.1l-3.1,0.1v3.3c-0.1,0.3-0.4,0.7-0.8,1.2
		c-0.2,0.2-0.4,0.2-0.5-0.1l0.1-3L34.6,34.7z M42.4,29.1c-0.1,0-0.2,0.1-0.3,0.3c-0.6,0.7-1.4,1.5-2.2,2.3l-0.1-0.1
		c0.7-1.6,1.2-2.7,1.3-3.5l1.4,0.8C42.5,28.9,42.5,29,42.4,29.1z M35.3,30c0,0.4-0.2,0.7-0.6,1c-0.3,0.2-0.5,0.1-0.5-0.2
		c-0.2-1-0.5-1.8-0.9-2.1c-0.1-0.1-0.1-0.2,0.1-0.1C34.6,29.2,35.2,29.6,35.3,30z M41.1,26.3l1,0.8c0,0.1,0,0.1-0.1,0.1l-2.7,0.2
		v4.4l0,0v0.4l-4.9,0.1c-0.7,0-1.3,0.1-1.7,0.2l-0.5-0.5l3.3-0.1l0.1-4.3h-0.2c-0.6,0-1.3,0-1.8,0.1l-0.5-0.5l2.2-0.1v-1.7
		c0-0.2-0.1-0.5-0.1-0.8c0-0.1,0-0.2,0.1-0.1l1,0.5c0.1,0,0.2,0.1,0.1,0.2l-0.1,1.8l1.8-0.1L39,24l1.5,0.8c0.1,0,0.1,0.1,0,0.2
		l-0.3,0.3l-0.8,1.5h0.8L41.1,26.3z M38.1,27.5L37,27.6l-0.1,4.3h1.3C38.1,31.9,38.1,27.5,38.1,27.5z M41.7,31.8L41.7,31.8l0.7-0.8
		l1.2,1c0.1,0.1,0.1,0.2,0,0.2l-2.2,0.1L41.7,31.8z"/>
</g>
</svg>
