<?xml version="1.0" encoding="UTF-8"?>
<svg width="18px" height="15px" viewBox="0 0 18 15" version="1.1" xmlns="http://www.w3.org/2000/svg" xmlns:xlink="http://www.w3.org/1999/xlink">
    <!-- Generator: Sketch 52.2 (67145) - http://www.bohemiancoding.com/sketch -->
    <title>分组</title>
    <desc>Created with Sketch.</desc>
    <defs>
        <polygon id="path-1" points="0 0 18 0 18 15 0 15"></polygon>
    </defs>
    <g id="切图" stroke="none" stroke-width="1" fill="none" fill-rule="evenodd">
        <g id="分组">
            <mask id="mask-2" fill="white">
                <use xlink:href="#path-1"></use>
            </mask>
            <g id="Clip-2"></g>
            <path d="M14.8318386,1.89225177 C16.7938173,3.05738494 18.017804,5.20550821 17.9998042,7.48115895 C17.9998042,9.79331112 16.7759075,11.9414344 14.8138388,13.1065676 C14.7238398,13.1612742 14.6338408,13.1975936 14.525932,13.1975936 C14.3278441,13.1975936 14.1298463,13.0884534 14.0218474,12.9064013 C13.8598492,12.615118 13.9498482,12.2692191 14.2378451,12.1052812 C15.8398277,11.1404964 16.8478167,9.37450036 16.8478167,7.49945518 C16.8478167,5.62431897 15.8578275,3.87661921 14.2559349,2.91165227 C13.967848,2.74780542 13.877849,2.40199753 14.0398472,2.11062321 C14.2018455,1.81933992 14.5438418,1.72831389 14.8318386,1.89225177 M14.5798414,10.3029659 C14.4718425,10.4122881 14.3098443,10.4850179 14.1659359,10.4850179 C14.0218474,10.4850179 13.877849,10.4304933 13.7698502,10.3394673 C13.5359427,10.1209138 13.5178529,9.73860448 13.7338506,9.50202782 C14.2378451,8.95587165 14.5078422,8.24586862 14.5078422,7.51766038 C14.5078422,6.75295071 14.2198453,6.02474248 13.6798512,5.46038109 C13.4638535,5.22380444 13.4638535,4.84140409 13.697851,4.62303265 C13.9318484,4.40457018 14.3098443,4.40457018 14.525932,4.64114683 C15.2459241,5.4058565 15.6598296,6.42534803 15.6598296,7.49945518 C15.6598296,8.53715191 15.2638339,9.53843824 14.5798414,10.3029659 M6.17393283,11.8687046 L10.6198845,14.8907688 C10.7098835,14.9635896 10.8359721,15 10.9438809,15 C11.0338799,15 11.123879,14.9817948 11.213878,14.9270882 C11.393876,14.8179479 11.5198747,14.6176907 11.5198747,14.4174334 L11.5198747,0.581476945 C11.5018749,0.362923448 11.393876,0.162757209 11.1959682,0.0717311801 C11.0159701,-0.0375000552 10.7818827,-0.0192948493 10.6018846,0.108050566 L6.15602302,3.13020577 L4.319953,3.13020577 C1.92606904,3.13020577 0,5.09627698 0,7.49945518 C0,9.61125906 1.43998433,11.8504084 4.319953,11.8687046" id="Fill-1" fill="#C9A36F" mask="url(#mask-2)"></path>
        </g>
    </g>
</svg>